G04 #@! TF.FileFunction,Copper,L1,Top,Signal*
%FSLAX46Y46*%
G04 Gerber Fmt 4.6, Leading zero omitted, Abs format (unit mm)*
G04 Created by KiCad (PCBNEW 4.0.5) date Fri Apr  7 22:36:57 2017*
%MOMM*%
%LPD*%
G01*
G04 APERTURE LIST*
%ADD10C,0.100000*%
%ADD11C,6.200000*%
%ADD12R,1.198880X1.198880*%
%ADD13R,2.032000X1.727200*%
%ADD14O,2.032000X1.727200*%
%ADD15O,1.524000X2.524000*%
%ADD16C,1.200000*%
%ADD17C,0.600000*%
%ADD18C,0.250000*%
%ADD19C,0.254000*%
G04 APERTURE END LIST*
D10*
D11*
X195000000Y-111000000D03*
X115000000Y-111000000D03*
X115000000Y-81000000D03*
D12*
X190000000Y-84950980D03*
X190000000Y-87049020D03*
X120000000Y-84950980D03*
X120000000Y-87049020D03*
X155000000Y-89950980D03*
X155000000Y-92049020D03*
X155000000Y-99950980D03*
X155000000Y-102049020D03*
D13*
X189000000Y-93460000D03*
D14*
X189000000Y-96000000D03*
X189000000Y-98540000D03*
D15*
X124920000Y-103620000D03*
X127460000Y-103620000D03*
X130000000Y-103620000D03*
X132540000Y-103620000D03*
X135080000Y-103620000D03*
X135080000Y-88380000D03*
X132540000Y-88380000D03*
X130000000Y-88380000D03*
X127460000Y-88380000D03*
X124920000Y-88380000D03*
X139920000Y-103620000D03*
X142460000Y-103620000D03*
X145000000Y-103620000D03*
X147540000Y-103620000D03*
X150080000Y-103620000D03*
X150080000Y-88380000D03*
X147540000Y-88380000D03*
X145000000Y-88380000D03*
X142460000Y-88380000D03*
X139920000Y-88380000D03*
X159920000Y-103620000D03*
X162460000Y-103620000D03*
X165000000Y-103620000D03*
X167540000Y-103620000D03*
X170080000Y-103620000D03*
X170080000Y-88380000D03*
X167540000Y-88380000D03*
X165000000Y-88380000D03*
X162460000Y-88380000D03*
X159920000Y-88380000D03*
X174920000Y-103620000D03*
X177460000Y-103620000D03*
X180000000Y-103620000D03*
X182540000Y-103620000D03*
X185080000Y-103620000D03*
X185080000Y-88380000D03*
X182540000Y-88380000D03*
X180000000Y-88380000D03*
X177460000Y-88380000D03*
X174920000Y-88380000D03*
D11*
X195000000Y-81000000D03*
D16*
X140040000Y-84000000D03*
X137500000Y-84000000D03*
X134960000Y-84000000D03*
X175040000Y-84000000D03*
X172500000Y-84000000D03*
X169960000Y-84000000D03*
D17*
X157000000Y-96850000D03*
X190000000Y-80750000D03*
X150800000Y-108200000D03*
X149900000Y-83945860D03*
X121800000Y-110800000D03*
X129400000Y-108200000D03*
X121400000Y-87300000D03*
X121800000Y-108200000D03*
X182600000Y-83800000D03*
X186651737Y-81200000D03*
X166400000Y-81003871D03*
X152400000Y-81003871D03*
X130700000Y-81200000D03*
X141300000Y-108200000D03*
X162800000Y-108200000D03*
X174800000Y-108200000D03*
X186800000Y-108200000D03*
X178100000Y-83900000D03*
X160100000Y-84000000D03*
X153200000Y-92900000D03*
X156564441Y-85414441D03*
X142491747Y-85191746D03*
X127500000Y-83800000D03*
X152200000Y-88000000D03*
X162150000Y-109775002D03*
X132700000Y-112200000D03*
X150173059Y-110826941D03*
X152700000Y-108200000D03*
X163659593Y-110474999D03*
X174265558Y-110834442D03*
X176700000Y-108200000D03*
X188100000Y-84900000D03*
X121400000Y-84900000D03*
X124900000Y-83800000D03*
X156400000Y-94100000D03*
X156400000Y-99900000D03*
X146100000Y-94300000D03*
X148600000Y-81003871D03*
X150000000Y-95800000D03*
X147627890Y-81000011D03*
X145477858Y-81003871D03*
X148900000Y-97600000D03*
X142500000Y-96200000D03*
X144676165Y-81003871D03*
X143500000Y-81003871D03*
X139300000Y-96200000D03*
X143900000Y-94300000D03*
X151100000Y-81003871D03*
X149900000Y-81003871D03*
X140000000Y-95800000D03*
X166100000Y-94300000D03*
X162600000Y-80973289D03*
X161625032Y-80973300D03*
X170000000Y-95800000D03*
X166100000Y-97600000D03*
X159475000Y-81000003D03*
X162500000Y-96200000D03*
X158603313Y-81003870D03*
X157600000Y-80973289D03*
X159334358Y-96243761D03*
X163900000Y-94300000D03*
X165100000Y-80973289D03*
X163900000Y-80973289D03*
X160000000Y-95800000D03*
X181100000Y-94350000D03*
X182600000Y-81225801D03*
X181400000Y-81200000D03*
X186475000Y-94300000D03*
X177500677Y-81999217D03*
X182500000Y-96200000D03*
X177500000Y-96200000D03*
X178800906Y-81199871D03*
X173600000Y-97600000D03*
X177500198Y-81199205D03*
X178900000Y-94300000D03*
X185401735Y-81198953D03*
X184404443Y-81195557D03*
X175000000Y-95800000D03*
X165174999Y-83991732D03*
D18*
X155000000Y-102049020D02*
X155000000Y-101799470D01*
X190000000Y-84950980D02*
X188150980Y-84950980D01*
X188150980Y-84950980D02*
X188100000Y-84900000D01*
X187100000Y-93000000D02*
X187100000Y-94098115D01*
X187100000Y-94098115D02*
X189000000Y-95998115D01*
X189000000Y-95998115D02*
X189000000Y-96000000D01*
X187100000Y-90798460D02*
X187100000Y-91300000D01*
X187100000Y-91300000D02*
X187100000Y-92800000D01*
X190000000Y-87100000D02*
X187100000Y-90000000D01*
X187100000Y-90000000D02*
X187100000Y-91300000D01*
X190000000Y-87049020D02*
X190000000Y-87100000D01*
X187100000Y-92800000D02*
X187100000Y-93000000D01*
X187100000Y-90798460D02*
X187100000Y-93000000D01*
X188847600Y-96540000D02*
X189000000Y-96540000D01*
X120000000Y-84950980D02*
X121349020Y-84950980D01*
X121349020Y-84950980D02*
X121400000Y-84900000D01*
X120000000Y-87049020D02*
X120175982Y-87049020D01*
X120175982Y-87049020D02*
X123425002Y-83800000D01*
X123425002Y-83800000D02*
X124475736Y-83800000D01*
X124475736Y-83800000D02*
X124900000Y-83800000D01*
X155000000Y-89950980D02*
X155849440Y-89950980D01*
X155849440Y-89950980D02*
X156400000Y-90501540D01*
X156400000Y-90501540D02*
X156400000Y-94100000D01*
X155000000Y-99950980D02*
X156349020Y-99950980D01*
X156349020Y-99950980D02*
X156400000Y-99900000D01*
X146100000Y-94300000D02*
X146201053Y-94198947D01*
X146201053Y-94198947D02*
X146201053Y-83874505D01*
X146201053Y-83874505D02*
X147002880Y-83072678D01*
X147002880Y-83072678D02*
X147002880Y-80670553D01*
X147002880Y-80670553D02*
X147298432Y-80375001D01*
X147298432Y-80375001D02*
X147971130Y-80375001D01*
X147971130Y-80375001D02*
X148300001Y-80703872D01*
X148300001Y-80703872D02*
X148600000Y-81003871D01*
X148699395Y-94499395D02*
X148699395Y-94300000D01*
X148699395Y-94300000D02*
X148699395Y-82071516D01*
X150000000Y-95800000D02*
X148699395Y-94499395D01*
X147927889Y-81300010D02*
X147627890Y-81000011D01*
X148699395Y-82071516D02*
X147927889Y-81300010D01*
X144827111Y-79928860D02*
X145477858Y-80579607D01*
X142424989Y-80517469D02*
X143013598Y-79928860D01*
X142424989Y-83079225D02*
X142424989Y-80517469D01*
X137799485Y-96260897D02*
X137799485Y-87127760D01*
X137799485Y-87127760D02*
X139126388Y-85800857D01*
X139703356Y-85800857D02*
X142424989Y-83079225D01*
X148900000Y-97600000D02*
X139138588Y-97600000D01*
X139138588Y-97600000D02*
X137799485Y-96260897D01*
X139126388Y-85800857D02*
X139703356Y-85800857D01*
X145477858Y-80579607D02*
X145477858Y-81003871D01*
X143013598Y-79928860D02*
X144827111Y-79928860D01*
X144676165Y-81003871D02*
X144051165Y-80378871D01*
X144051165Y-80378871D02*
X143199998Y-80378871D01*
X139312788Y-86250868D02*
X138249496Y-87314160D01*
X138999999Y-96825001D02*
X141874999Y-96825001D01*
X143199998Y-80378871D02*
X142875000Y-80703869D01*
X142875000Y-80703869D02*
X142875000Y-83288199D01*
X142875000Y-83288199D02*
X139912330Y-86250868D01*
X138249496Y-96074498D02*
X138999999Y-96825001D01*
X141874999Y-96825001D02*
X142500000Y-96200000D01*
X139912330Y-86250868D02*
X139312788Y-86250868D01*
X138249496Y-87314160D02*
X138249496Y-96074498D01*
X143500000Y-83299609D02*
X143500000Y-81428135D01*
X139499188Y-86700879D02*
X140098730Y-86700879D01*
X139300000Y-96200000D02*
X138699507Y-95599507D01*
X138699507Y-95599507D02*
X138699507Y-87500560D01*
X138699507Y-87500560D02*
X139499188Y-86700879D01*
X140098730Y-86700879D02*
X143500000Y-83299609D01*
X143500000Y-81428135D02*
X143500000Y-81003871D01*
X143900000Y-94300000D02*
X143800162Y-94200162D01*
X143800162Y-94200162D02*
X143800162Y-85638985D01*
X143800162Y-85638985D02*
X146552869Y-82886278D01*
X146552869Y-82886278D02*
X146552869Y-80484154D01*
X146552869Y-80484154D02*
X147112033Y-79924990D01*
X150021119Y-79924990D02*
X150800001Y-80703872D01*
X150800001Y-80703872D02*
X151100000Y-81003871D01*
X147112033Y-79924990D02*
X150021119Y-79924990D01*
X146102858Y-80297755D02*
X146887955Y-79512658D01*
X151725001Y-81303872D02*
X151399940Y-81628933D01*
X151725001Y-80703870D02*
X151725001Y-81303872D01*
X150533789Y-79512658D02*
X151725001Y-80703870D01*
X141299494Y-94500506D02*
X141299494Y-87400271D01*
X146887955Y-79512658D02*
X150533789Y-79512658D01*
X151399940Y-81628933D02*
X150525062Y-81628933D01*
X146102858Y-82596907D02*
X146102858Y-80297755D01*
X141299494Y-87400271D02*
X146102858Y-82596907D01*
X140000000Y-95800000D02*
X141299494Y-94500506D01*
X150199999Y-81303870D02*
X149900000Y-81003871D01*
X150525062Y-81628933D02*
X150199999Y-81303870D01*
X166100000Y-94300000D02*
X166200511Y-94199489D01*
X166200511Y-94199489D02*
X166200511Y-86698798D01*
X166200511Y-86698798D02*
X161000022Y-81498309D01*
X161000022Y-81498309D02*
X161000022Y-80673308D01*
X161000022Y-80673308D02*
X161325040Y-80348290D01*
X161325040Y-80348290D02*
X161975001Y-80348290D01*
X161975001Y-80348290D02*
X162300001Y-80673290D01*
X162300001Y-80673290D02*
X162600000Y-80973289D01*
X168700145Y-87400354D02*
X165916524Y-84616733D01*
X164844201Y-84616733D02*
X161625032Y-81397564D01*
X168700145Y-94500145D02*
X168700145Y-87400354D01*
X170000000Y-95800000D02*
X168700145Y-94500145D01*
X161625032Y-81397564D02*
X161625032Y-80973300D01*
X165916524Y-84616733D02*
X164844201Y-84616733D01*
X166100000Y-97600000D02*
X159129184Y-97600000D01*
X157848880Y-96319696D02*
X158400000Y-96870816D01*
X158400000Y-96870816D02*
X158848297Y-97319113D01*
X159129184Y-97600000D02*
X158400000Y-96870816D01*
X159475000Y-81000003D02*
X159475344Y-81000347D01*
X159499223Y-81000347D02*
X159499223Y-80997500D01*
X159475344Y-81000347D02*
X159499223Y-81000347D01*
X157848880Y-82783581D02*
X157848880Y-96319696D01*
X159499223Y-80997500D02*
X158400000Y-79898277D01*
X158400000Y-79898277D02*
X157113599Y-79898277D01*
X157113599Y-79898277D02*
X156524988Y-80486888D01*
X156524988Y-80486888D02*
X156524988Y-81459690D01*
X156524988Y-81459690D02*
X157848880Y-82783581D01*
X161831238Y-96868762D02*
X159034357Y-96868762D01*
X162500000Y-96200000D02*
X161831238Y-96868762D01*
X158298891Y-96133296D02*
X158298891Y-82597182D01*
X159034357Y-96868762D02*
X158298891Y-96133296D01*
X158298891Y-82597182D02*
X156974999Y-81273290D01*
X156974999Y-81273290D02*
X156974999Y-80673288D01*
X156974999Y-80673288D02*
X157299999Y-80348288D01*
X157299999Y-80348288D02*
X157947731Y-80348288D01*
X157947731Y-80348288D02*
X158303314Y-80703871D01*
X158303314Y-80703871D02*
X158603313Y-81003870D01*
X158748902Y-82266772D02*
X157600000Y-81117870D01*
X159334358Y-96243761D02*
X158748902Y-95658305D01*
X157600000Y-81117870D02*
X157600000Y-80973289D01*
X158748902Y-95658305D02*
X158748902Y-82266772D01*
X163801291Y-86000000D02*
X163801291Y-85498709D01*
X163801291Y-94201291D02*
X163801291Y-86000000D01*
X163801291Y-84992559D02*
X163200000Y-84391268D01*
X163786859Y-84978127D02*
X163200000Y-84391268D01*
X163801291Y-86000000D02*
X163801291Y-84992559D01*
X163200000Y-84391268D02*
X160550012Y-81741280D01*
X163900000Y-94300000D02*
X163801291Y-94201291D01*
X160550013Y-80486907D02*
X160600000Y-80436920D01*
X160600000Y-80436920D02*
X161114251Y-79922669D01*
X160550012Y-81741280D02*
X160550012Y-80486908D01*
X160550012Y-80486908D02*
X160600000Y-80436920D01*
X164049380Y-79922669D02*
X164800001Y-80673290D01*
X164800001Y-80673290D02*
X165100000Y-80973289D01*
X161114251Y-79922669D02*
X164049380Y-79922669D01*
X165725001Y-81273290D02*
X165400001Y-81598290D01*
X164564371Y-79512658D02*
X165725001Y-80673288D01*
X164199999Y-81273288D02*
X163900000Y-80973289D01*
X164525001Y-81598290D02*
X164199999Y-81273288D01*
X165400001Y-81598290D02*
X164525001Y-81598290D01*
X165725001Y-80673288D02*
X165725001Y-81273290D01*
X160887852Y-79512658D02*
X164564371Y-79512658D01*
X161100586Y-94699414D02*
X161100586Y-82871695D01*
X160100000Y-80300510D02*
X160887852Y-79512658D01*
X160100000Y-81871109D02*
X160100000Y-80300510D01*
X160000000Y-95800000D02*
X161100586Y-94699414D01*
X161100586Y-82871695D02*
X160100000Y-81871109D01*
X182600000Y-81225801D02*
X181402074Y-82423727D01*
X181402074Y-82423727D02*
X181402074Y-94047926D01*
X181402074Y-94047926D02*
X181100000Y-94350000D01*
X181699999Y-80900001D02*
X181400000Y-81200000D01*
X182925793Y-80600791D02*
X181999209Y-80600791D01*
X186475000Y-84149998D02*
X182925793Y-80600791D01*
X186475000Y-94300000D02*
X186475000Y-84149998D01*
X181999209Y-80600791D02*
X181699999Y-80900001D01*
X173299838Y-86430897D02*
X174008966Y-85721769D01*
X177076413Y-81999217D02*
X177500677Y-81999217D01*
X175587664Y-81999217D02*
X177076413Y-81999217D01*
X174008966Y-85721769D02*
X174008966Y-83577915D01*
X173299838Y-95661251D02*
X173299838Y-86430897D01*
X181799753Y-96900247D02*
X174538834Y-96900247D01*
X182500000Y-96200000D02*
X181799753Y-96900247D01*
X174008966Y-83577915D02*
X175587664Y-81999217D01*
X174538834Y-96900247D02*
X173299838Y-95661251D01*
X173749849Y-86747666D02*
X173749849Y-95474851D01*
X178800906Y-81399146D02*
X178800273Y-81399779D01*
X178800273Y-81697242D02*
X173749849Y-86747666D01*
X178800273Y-81399779D02*
X178800273Y-81697242D01*
X178800906Y-81199871D02*
X178800906Y-81399146D01*
X173749849Y-95474851D02*
X174699999Y-96425001D01*
X174699999Y-96425001D02*
X176100000Y-96425001D01*
X176100000Y-96425001D02*
X176651920Y-96425001D01*
X177500000Y-96200000D02*
X177400000Y-96200000D01*
X177400000Y-96200000D02*
X177174999Y-96425001D01*
X177174999Y-96425001D02*
X176100000Y-96425001D01*
X172849828Y-97274092D02*
X172849828Y-86301064D01*
X173598955Y-83398919D02*
X175798669Y-81199205D01*
X175798669Y-81199205D02*
X177075934Y-81199205D01*
X173598955Y-85551937D02*
X173598955Y-83398919D01*
X173600000Y-97600000D02*
X173175736Y-97600000D01*
X173175736Y-97600000D02*
X172849828Y-97274092D01*
X172849828Y-86301064D02*
X173598955Y-85551937D01*
X177075934Y-81199205D02*
X177500198Y-81199205D01*
X178799696Y-93900000D02*
X178799696Y-82896838D01*
X178900000Y-94300000D02*
X178799696Y-94199696D01*
X178799696Y-94199696D02*
X178799696Y-93900000D01*
X178799696Y-82896838D02*
X181545754Y-80150780D01*
X181545754Y-80150780D02*
X184353562Y-80150780D01*
X184353562Y-80150780D02*
X185101736Y-80898954D01*
X185101736Y-80898954D02*
X185401735Y-81198953D01*
X185701737Y-81823955D02*
X185032841Y-81823955D01*
X186026737Y-81498955D02*
X185701737Y-81823955D01*
X176202309Y-94597691D02*
X176202309Y-84875048D01*
X186026737Y-80898951D02*
X186026737Y-81498955D01*
X175000000Y-95800000D02*
X176202309Y-94597691D01*
X184828555Y-79700769D02*
X186026737Y-80898951D01*
X185032841Y-81823955D02*
X184704442Y-81495556D01*
X181376588Y-79700769D02*
X184828555Y-79700769D01*
X176202309Y-84875048D02*
X181376588Y-79700769D01*
X184704442Y-81495556D02*
X184404443Y-81195557D01*
X140040000Y-84000000D02*
X142014979Y-82025021D01*
X142014979Y-82025021D02*
X142014979Y-80347639D01*
X142014979Y-80347639D02*
X143259971Y-79102647D01*
X143259971Y-79102647D02*
X165364578Y-79102647D01*
X165364578Y-79102647D02*
X166985001Y-80723070D01*
X166985001Y-80723070D02*
X166985001Y-82181730D01*
X166985001Y-82181730D02*
X165474998Y-83691733D01*
X165474998Y-83691733D02*
X165174999Y-83991732D01*
D19*
G36*
X196253707Y-77973288D02*
X197316546Y-78683454D01*
X198026712Y-79746295D01*
X198276090Y-81000000D01*
X198026712Y-82253705D01*
X197316546Y-83316546D01*
X196253707Y-84026712D01*
X194861486Y-84303642D01*
X194478804Y-84379762D01*
X194384629Y-84418771D01*
X194222862Y-84485777D01*
X193898438Y-84702549D01*
X193766956Y-84834032D01*
X193702549Y-84898439D01*
X193485776Y-85222862D01*
X193422042Y-85376732D01*
X193379762Y-85478804D01*
X193303642Y-85861487D01*
X193303642Y-85931416D01*
X193290000Y-86000000D01*
X193290000Y-106000000D01*
X193303642Y-106068584D01*
X193303642Y-106138513D01*
X193379762Y-106521196D01*
X193399395Y-106568593D01*
X193485776Y-106777138D01*
X193702549Y-107101561D01*
X193702550Y-107101562D01*
X193898438Y-107297451D01*
X194222862Y-107514223D01*
X194328877Y-107558136D01*
X194478804Y-107620238D01*
X194861486Y-107696358D01*
X196253707Y-107973288D01*
X197316546Y-108683454D01*
X198026712Y-109746295D01*
X198276090Y-111000000D01*
X198026712Y-112253705D01*
X197316546Y-113316546D01*
X196253707Y-114026712D01*
X194930069Y-114290000D01*
X115069931Y-114290000D01*
X113746295Y-114026712D01*
X112683454Y-113316546D01*
X111973288Y-112253707D01*
X111723910Y-111000000D01*
X111726860Y-110985167D01*
X120864838Y-110985167D01*
X121006883Y-111328943D01*
X121269673Y-111592192D01*
X121613201Y-111734838D01*
X121985167Y-111735162D01*
X122328943Y-111593117D01*
X122592192Y-111330327D01*
X122734838Y-110986799D01*
X122735162Y-110614833D01*
X122593117Y-110271057D01*
X122330327Y-110007808D01*
X121986799Y-109865162D01*
X121614833Y-109864838D01*
X121271057Y-110006883D01*
X121007808Y-110269673D01*
X120865162Y-110613201D01*
X120864838Y-110985167D01*
X111726860Y-110985167D01*
X111973288Y-109746293D01*
X112683454Y-108683454D01*
X113129873Y-108385167D01*
X120864838Y-108385167D01*
X121006883Y-108728943D01*
X121269673Y-108992192D01*
X121613201Y-109134838D01*
X121985167Y-109135162D01*
X122328943Y-108993117D01*
X122592192Y-108730327D01*
X122734838Y-108386799D01*
X122734839Y-108385167D01*
X128464838Y-108385167D01*
X128606883Y-108728943D01*
X128869673Y-108992192D01*
X129213201Y-109134838D01*
X129585167Y-109135162D01*
X129928943Y-108993117D01*
X130192192Y-108730327D01*
X130334838Y-108386799D01*
X130334839Y-108385167D01*
X140364838Y-108385167D01*
X140506883Y-108728943D01*
X140769673Y-108992192D01*
X141113201Y-109134838D01*
X141485167Y-109135162D01*
X141828943Y-108993117D01*
X142092192Y-108730327D01*
X142234838Y-108386799D01*
X142234839Y-108385167D01*
X149864838Y-108385167D01*
X150006883Y-108728943D01*
X150269673Y-108992192D01*
X150613201Y-109134838D01*
X150985167Y-109135162D01*
X151328943Y-108993117D01*
X151592192Y-108730327D01*
X151734838Y-108386799D01*
X151734839Y-108385167D01*
X161864838Y-108385167D01*
X162006883Y-108728943D01*
X162269673Y-108992192D01*
X162613201Y-109134838D01*
X162985167Y-109135162D01*
X163328943Y-108993117D01*
X163592192Y-108730327D01*
X163734838Y-108386799D01*
X163734839Y-108385167D01*
X173864838Y-108385167D01*
X174006883Y-108728943D01*
X174269673Y-108992192D01*
X174613201Y-109134838D01*
X174985167Y-109135162D01*
X175328943Y-108993117D01*
X175592192Y-108730327D01*
X175734838Y-108386799D01*
X175734839Y-108385167D01*
X185864838Y-108385167D01*
X186006883Y-108728943D01*
X186269673Y-108992192D01*
X186613201Y-109134838D01*
X186985167Y-109135162D01*
X187328943Y-108993117D01*
X187592192Y-108730327D01*
X187734838Y-108386799D01*
X187735162Y-108014833D01*
X187593117Y-107671057D01*
X187330327Y-107407808D01*
X186986799Y-107265162D01*
X186614833Y-107264838D01*
X186271057Y-107406883D01*
X186007808Y-107669673D01*
X185865162Y-108013201D01*
X185864838Y-108385167D01*
X175734839Y-108385167D01*
X175735162Y-108014833D01*
X175593117Y-107671057D01*
X175330327Y-107407808D01*
X174986799Y-107265162D01*
X174614833Y-107264838D01*
X174271057Y-107406883D01*
X174007808Y-107669673D01*
X173865162Y-108013201D01*
X173864838Y-108385167D01*
X163734839Y-108385167D01*
X163735162Y-108014833D01*
X163593117Y-107671057D01*
X163330327Y-107407808D01*
X162986799Y-107265162D01*
X162614833Y-107264838D01*
X162271057Y-107406883D01*
X162007808Y-107669673D01*
X161865162Y-108013201D01*
X161864838Y-108385167D01*
X151734839Y-108385167D01*
X151735162Y-108014833D01*
X151593117Y-107671057D01*
X151330327Y-107407808D01*
X150986799Y-107265162D01*
X150614833Y-107264838D01*
X150271057Y-107406883D01*
X150007808Y-107669673D01*
X149865162Y-108013201D01*
X149864838Y-108385167D01*
X142234839Y-108385167D01*
X142235162Y-108014833D01*
X142093117Y-107671057D01*
X141830327Y-107407808D01*
X141486799Y-107265162D01*
X141114833Y-107264838D01*
X140771057Y-107406883D01*
X140507808Y-107669673D01*
X140365162Y-108013201D01*
X140364838Y-108385167D01*
X130334839Y-108385167D01*
X130335162Y-108014833D01*
X130193117Y-107671057D01*
X129930327Y-107407808D01*
X129586799Y-107265162D01*
X129214833Y-107264838D01*
X128871057Y-107406883D01*
X128607808Y-107669673D01*
X128465162Y-108013201D01*
X128464838Y-108385167D01*
X122734839Y-108385167D01*
X122735162Y-108014833D01*
X122593117Y-107671057D01*
X122330327Y-107407808D01*
X121986799Y-107265162D01*
X121614833Y-107264838D01*
X121271057Y-107406883D01*
X121007808Y-107669673D01*
X120865162Y-108013201D01*
X120864838Y-108385167D01*
X113129873Y-108385167D01*
X113746295Y-107973288D01*
X115138514Y-107696358D01*
X115138515Y-107696358D01*
X115521196Y-107620238D01*
X115615369Y-107581230D01*
X115777138Y-107514224D01*
X116101561Y-107297451D01*
X116134174Y-107264838D01*
X116297451Y-107101562D01*
X116514223Y-106777138D01*
X116564419Y-106655954D01*
X116620238Y-106521196D01*
X116696358Y-106138514D01*
X116696358Y-106068584D01*
X116710000Y-106000000D01*
X116710000Y-103082836D01*
X123523000Y-103082836D01*
X123523000Y-104157164D01*
X123629340Y-104691773D01*
X123932172Y-105144992D01*
X124385391Y-105447824D01*
X124920000Y-105554164D01*
X125454609Y-105447824D01*
X125907828Y-105144992D01*
X126190000Y-104722693D01*
X126472172Y-105144992D01*
X126925391Y-105447824D01*
X127460000Y-105554164D01*
X127994609Y-105447824D01*
X128447828Y-105144992D01*
X128730000Y-104722693D01*
X129012172Y-105144992D01*
X129465391Y-105447824D01*
X130000000Y-105554164D01*
X130534609Y-105447824D01*
X130987828Y-105144992D01*
X131270000Y-104722693D01*
X131552172Y-105144992D01*
X132005391Y-105447824D01*
X132540000Y-105554164D01*
X133074609Y-105447824D01*
X133527828Y-105144992D01*
X133810000Y-104722693D01*
X134092172Y-105144992D01*
X134545391Y-105447824D01*
X135080000Y-105554164D01*
X135614609Y-105447824D01*
X136067828Y-105144992D01*
X136370660Y-104691773D01*
X136477000Y-104157164D01*
X136477000Y-103082836D01*
X138523000Y-103082836D01*
X138523000Y-104157164D01*
X138629340Y-104691773D01*
X138932172Y-105144992D01*
X139385391Y-105447824D01*
X139920000Y-105554164D01*
X140454609Y-105447824D01*
X140907828Y-105144992D01*
X141190000Y-104722693D01*
X141472172Y-105144992D01*
X141925391Y-105447824D01*
X142460000Y-105554164D01*
X142994609Y-105447824D01*
X143447828Y-105144992D01*
X143730000Y-104722693D01*
X144012172Y-105144992D01*
X144465391Y-105447824D01*
X145000000Y-105554164D01*
X145534609Y-105447824D01*
X145987828Y-105144992D01*
X146270000Y-104722693D01*
X146552172Y-105144992D01*
X147005391Y-105447824D01*
X147540000Y-105554164D01*
X148074609Y-105447824D01*
X148527828Y-105144992D01*
X148810000Y-104722693D01*
X149092172Y-105144992D01*
X149545391Y-105447824D01*
X150080000Y-105554164D01*
X150614609Y-105447824D01*
X151067828Y-105144992D01*
X151370660Y-104691773D01*
X151477000Y-104157164D01*
X151477000Y-103082836D01*
X151370660Y-102548227D01*
X151228033Y-102334770D01*
X153765560Y-102334770D01*
X153765560Y-102774769D01*
X153862233Y-103008158D01*
X154040861Y-103186787D01*
X154274250Y-103283460D01*
X154714250Y-103283460D01*
X154873000Y-103124710D01*
X154873000Y-102176020D01*
X155127000Y-102176020D01*
X155127000Y-103124710D01*
X155285750Y-103283460D01*
X155725750Y-103283460D01*
X155959139Y-103186787D01*
X156063089Y-103082836D01*
X158523000Y-103082836D01*
X158523000Y-104157164D01*
X158629340Y-104691773D01*
X158932172Y-105144992D01*
X159385391Y-105447824D01*
X159920000Y-105554164D01*
X160454609Y-105447824D01*
X160907828Y-105144992D01*
X161190000Y-104722693D01*
X161472172Y-105144992D01*
X161925391Y-105447824D01*
X162460000Y-105554164D01*
X162994609Y-105447824D01*
X163447828Y-105144992D01*
X163730000Y-104722693D01*
X164012172Y-105144992D01*
X164465391Y-105447824D01*
X165000000Y-105554164D01*
X165534609Y-105447824D01*
X165987828Y-105144992D01*
X166270000Y-104722693D01*
X166552172Y-105144992D01*
X167005391Y-105447824D01*
X167540000Y-105554164D01*
X168074609Y-105447824D01*
X168527828Y-105144992D01*
X168810000Y-104722693D01*
X169092172Y-105144992D01*
X169545391Y-105447824D01*
X170080000Y-105554164D01*
X170614609Y-105447824D01*
X171067828Y-105144992D01*
X171370660Y-104691773D01*
X171477000Y-104157164D01*
X171477000Y-103082836D01*
X173523000Y-103082836D01*
X173523000Y-104157164D01*
X173629340Y-104691773D01*
X173932172Y-105144992D01*
X174385391Y-105447824D01*
X174920000Y-105554164D01*
X175454609Y-105447824D01*
X175907828Y-105144992D01*
X176190000Y-104722693D01*
X176472172Y-105144992D01*
X176925391Y-105447824D01*
X177460000Y-105554164D01*
X177994609Y-105447824D01*
X178447828Y-105144992D01*
X178730000Y-104722693D01*
X179012172Y-105144992D01*
X179465391Y-105447824D01*
X180000000Y-105554164D01*
X180534609Y-105447824D01*
X180987828Y-105144992D01*
X181270000Y-104722693D01*
X181552172Y-105144992D01*
X182005391Y-105447824D01*
X182540000Y-105554164D01*
X183074609Y-105447824D01*
X183527828Y-105144992D01*
X183810000Y-104722693D01*
X184092172Y-105144992D01*
X184545391Y-105447824D01*
X185080000Y-105554164D01*
X185614609Y-105447824D01*
X186067828Y-105144992D01*
X186370660Y-104691773D01*
X186477000Y-104157164D01*
X186477000Y-103082836D01*
X186370660Y-102548227D01*
X186067828Y-102095008D01*
X185614609Y-101792176D01*
X185080000Y-101685836D01*
X184545391Y-101792176D01*
X184092172Y-102095008D01*
X183810000Y-102517307D01*
X183527828Y-102095008D01*
X183074609Y-101792176D01*
X182540000Y-101685836D01*
X182005391Y-101792176D01*
X181552172Y-102095008D01*
X181270000Y-102517307D01*
X180987828Y-102095008D01*
X180534609Y-101792176D01*
X180000000Y-101685836D01*
X179465391Y-101792176D01*
X179012172Y-102095008D01*
X178730000Y-102517307D01*
X178447828Y-102095008D01*
X177994609Y-101792176D01*
X177460000Y-101685836D01*
X176925391Y-101792176D01*
X176472172Y-102095008D01*
X176190000Y-102517307D01*
X175907828Y-102095008D01*
X175454609Y-101792176D01*
X174920000Y-101685836D01*
X174385391Y-101792176D01*
X173932172Y-102095008D01*
X173629340Y-102548227D01*
X173523000Y-103082836D01*
X171477000Y-103082836D01*
X171370660Y-102548227D01*
X171067828Y-102095008D01*
X170614609Y-101792176D01*
X170080000Y-101685836D01*
X169545391Y-101792176D01*
X169092172Y-102095008D01*
X168810000Y-102517307D01*
X168527828Y-102095008D01*
X168074609Y-101792176D01*
X167540000Y-101685836D01*
X167005391Y-101792176D01*
X166552172Y-102095008D01*
X166270000Y-102517307D01*
X165987828Y-102095008D01*
X165534609Y-101792176D01*
X165000000Y-101685836D01*
X164465391Y-101792176D01*
X164012172Y-102095008D01*
X163730000Y-102517307D01*
X163447828Y-102095008D01*
X162994609Y-101792176D01*
X162460000Y-101685836D01*
X161925391Y-101792176D01*
X161472172Y-102095008D01*
X161190000Y-102517307D01*
X160907828Y-102095008D01*
X160454609Y-101792176D01*
X159920000Y-101685836D01*
X159385391Y-101792176D01*
X158932172Y-102095008D01*
X158629340Y-102548227D01*
X158523000Y-103082836D01*
X156063089Y-103082836D01*
X156137767Y-103008158D01*
X156234440Y-102774769D01*
X156234440Y-102334770D01*
X156075690Y-102176020D01*
X155127000Y-102176020D01*
X154873000Y-102176020D01*
X153924310Y-102176020D01*
X153765560Y-102334770D01*
X151228033Y-102334770D01*
X151067828Y-102095008D01*
X150614609Y-101792176D01*
X150080000Y-101685836D01*
X149545391Y-101792176D01*
X149092172Y-102095008D01*
X148810000Y-102517307D01*
X148527828Y-102095008D01*
X148074609Y-101792176D01*
X147540000Y-101685836D01*
X147005391Y-101792176D01*
X146552172Y-102095008D01*
X146270000Y-102517307D01*
X145987828Y-102095008D01*
X145534609Y-101792176D01*
X145000000Y-101685836D01*
X144465391Y-101792176D01*
X144012172Y-102095008D01*
X143730000Y-102517307D01*
X143447828Y-102095008D01*
X142994609Y-101792176D01*
X142460000Y-101685836D01*
X141925391Y-101792176D01*
X141472172Y-102095008D01*
X141190000Y-102517307D01*
X140907828Y-102095008D01*
X140454609Y-101792176D01*
X139920000Y-101685836D01*
X139385391Y-101792176D01*
X138932172Y-102095008D01*
X138629340Y-102548227D01*
X138523000Y-103082836D01*
X136477000Y-103082836D01*
X136370660Y-102548227D01*
X136067828Y-102095008D01*
X135614609Y-101792176D01*
X135080000Y-101685836D01*
X134545391Y-101792176D01*
X134092172Y-102095008D01*
X133810000Y-102517307D01*
X133527828Y-102095008D01*
X133074609Y-101792176D01*
X132540000Y-101685836D01*
X132005391Y-101792176D01*
X131552172Y-102095008D01*
X131270000Y-102517307D01*
X130987828Y-102095008D01*
X130534609Y-101792176D01*
X130000000Y-101685836D01*
X129465391Y-101792176D01*
X129012172Y-102095008D01*
X128730000Y-102517307D01*
X128447828Y-102095008D01*
X127994609Y-101792176D01*
X127460000Y-101685836D01*
X126925391Y-101792176D01*
X126472172Y-102095008D01*
X126190000Y-102517307D01*
X125907828Y-102095008D01*
X125454609Y-101792176D01*
X124920000Y-101685836D01*
X124385391Y-101792176D01*
X123932172Y-102095008D01*
X123629340Y-102548227D01*
X123523000Y-103082836D01*
X116710000Y-103082836D01*
X116710000Y-99351540D01*
X153753120Y-99351540D01*
X153753120Y-100550420D01*
X153797398Y-100785737D01*
X153936470Y-101001861D01*
X153944659Y-101007456D01*
X153862233Y-101089882D01*
X153765560Y-101323271D01*
X153765560Y-101763270D01*
X153924310Y-101922020D01*
X154873000Y-101922020D01*
X154873000Y-101902020D01*
X155127000Y-101902020D01*
X155127000Y-101922020D01*
X156075690Y-101922020D01*
X156234440Y-101763270D01*
X156234440Y-101323271D01*
X156137767Y-101089882D01*
X156055555Y-101007669D01*
X156182388Y-100822043D01*
X156213201Y-100834838D01*
X156585167Y-100835162D01*
X156928943Y-100693117D01*
X157192192Y-100430327D01*
X157334838Y-100086799D01*
X157335162Y-99714833D01*
X157193117Y-99371057D01*
X156930327Y-99107808D01*
X156586799Y-98965162D01*
X156214833Y-98964838D01*
X156128218Y-99000627D01*
X156063530Y-98900099D01*
X156061960Y-98899026D01*
X187392642Y-98899026D01*
X187395291Y-98914791D01*
X187649268Y-99442036D01*
X188085680Y-99831954D01*
X188638087Y-100025184D01*
X188873000Y-99880924D01*
X188873000Y-98667000D01*
X189127000Y-98667000D01*
X189127000Y-99880924D01*
X189361913Y-100025184D01*
X189914320Y-99831954D01*
X190350732Y-99442036D01*
X190604709Y-98914791D01*
X190607358Y-98899026D01*
X190486217Y-98667000D01*
X189127000Y-98667000D01*
X188873000Y-98667000D01*
X187513783Y-98667000D01*
X187392642Y-98899026D01*
X156061960Y-98899026D01*
X155851330Y-98755109D01*
X155599440Y-98704100D01*
X154400560Y-98704100D01*
X154165243Y-98748378D01*
X153949119Y-98887450D01*
X153804129Y-99099650D01*
X153753120Y-99351540D01*
X116710000Y-99351540D01*
X116710000Y-86000000D01*
X116696358Y-85931416D01*
X116696358Y-85861486D01*
X116620238Y-85478804D01*
X116533320Y-85268966D01*
X116514223Y-85222862D01*
X116297451Y-84898438D01*
X116101562Y-84702550D01*
X116101561Y-84702549D01*
X115777138Y-84485776D01*
X115593368Y-84409657D01*
X115521196Y-84379762D01*
X115379315Y-84351540D01*
X118753120Y-84351540D01*
X118753120Y-85550420D01*
X118797398Y-85785737D01*
X118936470Y-86001861D01*
X118937467Y-86002543D01*
X118804129Y-86197690D01*
X118753120Y-86449580D01*
X118753120Y-87648460D01*
X118797398Y-87883777D01*
X118936470Y-88099901D01*
X119148670Y-88244891D01*
X119400560Y-88295900D01*
X120599440Y-88295900D01*
X120834757Y-88251622D01*
X120999039Y-88145910D01*
X121213201Y-88234838D01*
X121585167Y-88235162D01*
X121928943Y-88093117D01*
X122179661Y-87842836D01*
X123523000Y-87842836D01*
X123523000Y-88917164D01*
X123629340Y-89451773D01*
X123932172Y-89904992D01*
X124385391Y-90207824D01*
X124920000Y-90314164D01*
X125454609Y-90207824D01*
X125907828Y-89904992D01*
X126190000Y-89482693D01*
X126472172Y-89904992D01*
X126925391Y-90207824D01*
X127460000Y-90314164D01*
X127994609Y-90207824D01*
X128447828Y-89904992D01*
X128730000Y-89482693D01*
X129012172Y-89904992D01*
X129465391Y-90207824D01*
X130000000Y-90314164D01*
X130534609Y-90207824D01*
X130987828Y-89904992D01*
X131270000Y-89482693D01*
X131552172Y-89904992D01*
X132005391Y-90207824D01*
X132540000Y-90314164D01*
X133074609Y-90207824D01*
X133527828Y-89904992D01*
X133810000Y-89482693D01*
X134092172Y-89904992D01*
X134545391Y-90207824D01*
X135080000Y-90314164D01*
X135614609Y-90207824D01*
X136067828Y-89904992D01*
X136370660Y-89451773D01*
X136477000Y-88917164D01*
X136477000Y-87842836D01*
X136370660Y-87308227D01*
X136250076Y-87127760D01*
X137039485Y-87127760D01*
X137039485Y-96260897D01*
X137097337Y-96551736D01*
X137262084Y-96798298D01*
X138601187Y-98137401D01*
X138847749Y-98302148D01*
X139138588Y-98360000D01*
X148337537Y-98360000D01*
X148369673Y-98392192D01*
X148713201Y-98534838D01*
X149085167Y-98535162D01*
X149428943Y-98393117D01*
X149692192Y-98130327D01*
X149834838Y-97786799D01*
X149835162Y-97414833D01*
X149693117Y-97071057D01*
X149430327Y-96807808D01*
X149086799Y-96665162D01*
X148714833Y-96664838D01*
X148371057Y-96806883D01*
X148337882Y-96840000D01*
X143182327Y-96840000D01*
X143292192Y-96730327D01*
X143434838Y-96386799D01*
X143435162Y-96014833D01*
X143293117Y-95671057D01*
X143030327Y-95407808D01*
X142686799Y-95265162D01*
X142314833Y-95264838D01*
X141971057Y-95406883D01*
X141707808Y-95669673D01*
X141565162Y-96013201D01*
X141565121Y-96060077D01*
X141560197Y-96065001D01*
X140902366Y-96065001D01*
X140934838Y-95986799D01*
X140934879Y-95939923D01*
X141836895Y-95037907D01*
X142001642Y-94791345D01*
X142059494Y-94500506D01*
X142059494Y-90234499D01*
X142460000Y-90314164D01*
X142994609Y-90207824D01*
X143040162Y-90177386D01*
X143040162Y-93932582D01*
X142965162Y-94113201D01*
X142964838Y-94485167D01*
X143106883Y-94828943D01*
X143369673Y-95092192D01*
X143713201Y-95234838D01*
X144085167Y-95235162D01*
X144428943Y-95093117D01*
X144692192Y-94830327D01*
X144834838Y-94486799D01*
X144835162Y-94114833D01*
X144693117Y-93771057D01*
X144560162Y-93637870D01*
X144560162Y-90226675D01*
X145000000Y-90314164D01*
X145441053Y-90226433D01*
X145441053Y-93636660D01*
X145307808Y-93769673D01*
X145165162Y-94113201D01*
X145164838Y-94485167D01*
X145306883Y-94828943D01*
X145569673Y-95092192D01*
X145913201Y-95234838D01*
X146285167Y-95235162D01*
X146628943Y-95093117D01*
X146892192Y-94830327D01*
X147034838Y-94486799D01*
X147035162Y-94114833D01*
X146961053Y-93935475D01*
X146961053Y-90178198D01*
X147005391Y-90207824D01*
X147540000Y-90314164D01*
X147939395Y-90234720D01*
X147939395Y-94499395D01*
X147997247Y-94790234D01*
X148161994Y-95036796D01*
X149064878Y-95939680D01*
X149064838Y-95985167D01*
X149206883Y-96328943D01*
X149469673Y-96592192D01*
X149813201Y-96734838D01*
X150185167Y-96735162D01*
X150528943Y-96593117D01*
X150792192Y-96330327D01*
X150934838Y-95986799D01*
X150935162Y-95614833D01*
X150793117Y-95271057D01*
X150530327Y-95007808D01*
X150186799Y-94865162D01*
X150139923Y-94865121D01*
X149459395Y-94184593D01*
X149459395Y-92334770D01*
X153765560Y-92334770D01*
X153765560Y-92774769D01*
X153862233Y-93008158D01*
X154040861Y-93186787D01*
X154274250Y-93283460D01*
X154714250Y-93283460D01*
X154873000Y-93124710D01*
X154873000Y-92176020D01*
X153924310Y-92176020D01*
X153765560Y-92334770D01*
X149459395Y-92334770D01*
X149459395Y-90150363D01*
X149545391Y-90207824D01*
X150080000Y-90314164D01*
X150614609Y-90207824D01*
X151067828Y-89904992D01*
X151370660Y-89451773D01*
X151477000Y-88917164D01*
X151477000Y-87842836D01*
X151370660Y-87308227D01*
X151067828Y-86855008D01*
X150614609Y-86552176D01*
X150080000Y-86445836D01*
X149545391Y-86552176D01*
X149459395Y-86609637D01*
X149459395Y-84775308D01*
X149713201Y-84880698D01*
X150085167Y-84881022D01*
X150428943Y-84738977D01*
X150692192Y-84476187D01*
X150834838Y-84132659D01*
X150835162Y-83760693D01*
X150693117Y-83416917D01*
X150430327Y-83153668D01*
X150086799Y-83011022D01*
X149714833Y-83010698D01*
X149459395Y-83116243D01*
X149459395Y-82071516D01*
X149451558Y-82032119D01*
X149407749Y-81811873D01*
X149713201Y-81938709D01*
X149760077Y-81938750D01*
X149987661Y-82166335D01*
X150188362Y-82300438D01*
X150234223Y-82331081D01*
X150525062Y-82388933D01*
X151399940Y-82388933D01*
X151690779Y-82331081D01*
X151937341Y-82166334D01*
X152179118Y-81924557D01*
X152213201Y-81938709D01*
X152585167Y-81939033D01*
X152928943Y-81796988D01*
X153192192Y-81534198D01*
X153334838Y-81190670D01*
X153335162Y-80818704D01*
X153193117Y-80474928D01*
X152930327Y-80211679D01*
X152586799Y-80069033D01*
X152214833Y-80068709D01*
X152179317Y-80083384D01*
X151958580Y-79862647D01*
X156074427Y-79862647D01*
X155987587Y-79949487D01*
X155822840Y-80196049D01*
X155764988Y-80486888D01*
X155764988Y-81459690D01*
X155822840Y-81750530D01*
X155987587Y-81997091D01*
X157088880Y-83098383D01*
X157088880Y-90190843D01*
X156937401Y-89964139D01*
X156386841Y-89413579D01*
X156240105Y-89315533D01*
X156202602Y-89116223D01*
X156063530Y-88900099D01*
X155851330Y-88755109D01*
X155599440Y-88704100D01*
X154400560Y-88704100D01*
X154165243Y-88748378D01*
X153949119Y-88887450D01*
X153804129Y-89099650D01*
X153753120Y-89351540D01*
X153753120Y-90550420D01*
X153797398Y-90785737D01*
X153936470Y-91001861D01*
X153944659Y-91007456D01*
X153862233Y-91089882D01*
X153765560Y-91323271D01*
X153765560Y-91763270D01*
X153924310Y-91922020D01*
X154873000Y-91922020D01*
X154873000Y-91902020D01*
X155127000Y-91902020D01*
X155127000Y-91922020D01*
X155147000Y-91922020D01*
X155147000Y-92176020D01*
X155127000Y-92176020D01*
X155127000Y-93124710D01*
X155285750Y-93283460D01*
X155640000Y-93283460D01*
X155640000Y-93537537D01*
X155607808Y-93569673D01*
X155465162Y-93913201D01*
X155464838Y-94285167D01*
X155606883Y-94628943D01*
X155869673Y-94892192D01*
X156213201Y-95034838D01*
X156585167Y-95035162D01*
X156928943Y-94893117D01*
X157088880Y-94733459D01*
X157088880Y-95915077D01*
X156814833Y-95914838D01*
X156471057Y-96056883D01*
X156207808Y-96319673D01*
X156065162Y-96663201D01*
X156064838Y-97035167D01*
X156206883Y-97378943D01*
X156469673Y-97642192D01*
X156813201Y-97784838D01*
X157185167Y-97785162D01*
X157528943Y-97643117D01*
X157792192Y-97380327D01*
X157804667Y-97350285D01*
X158591783Y-98137401D01*
X158838345Y-98302148D01*
X159129184Y-98360000D01*
X165537537Y-98360000D01*
X165569673Y-98392192D01*
X165913201Y-98534838D01*
X166285167Y-98535162D01*
X166628943Y-98393117D01*
X166892192Y-98130327D01*
X167034838Y-97786799D01*
X167035162Y-97414833D01*
X166893117Y-97071057D01*
X166630327Y-96807808D01*
X166286799Y-96665162D01*
X165914833Y-96664838D01*
X165571057Y-96806883D01*
X165537882Y-96840000D01*
X163182327Y-96840000D01*
X163292192Y-96730327D01*
X163434838Y-96386799D01*
X163435162Y-96014833D01*
X163293117Y-95671057D01*
X163030327Y-95407808D01*
X162686799Y-95265162D01*
X162314833Y-95264838D01*
X161971057Y-95406883D01*
X161707808Y-95669673D01*
X161565162Y-96013201D01*
X161565121Y-96060077D01*
X161516436Y-96108762D01*
X160884194Y-96108762D01*
X160934838Y-95986799D01*
X160934879Y-95939923D01*
X161637987Y-95236815D01*
X161802734Y-94990253D01*
X161860586Y-94699414D01*
X161860586Y-90164523D01*
X161925391Y-90207824D01*
X162460000Y-90314164D01*
X162994609Y-90207824D01*
X163041291Y-90176632D01*
X163041291Y-93929863D01*
X162965162Y-94113201D01*
X162964838Y-94485167D01*
X163106883Y-94828943D01*
X163369673Y-95092192D01*
X163713201Y-95234838D01*
X164085167Y-95235162D01*
X164428943Y-95093117D01*
X164692192Y-94830327D01*
X164834838Y-94486799D01*
X164835162Y-94114833D01*
X164693117Y-93771057D01*
X164561291Y-93639001D01*
X164561291Y-90226900D01*
X165000000Y-90314164D01*
X165440511Y-90226541D01*
X165440511Y-93637201D01*
X165307808Y-93769673D01*
X165165162Y-94113201D01*
X165164838Y-94485167D01*
X165306883Y-94828943D01*
X165569673Y-95092192D01*
X165913201Y-95234838D01*
X166285167Y-95235162D01*
X166628943Y-95093117D01*
X166892192Y-94830327D01*
X167034838Y-94486799D01*
X167035162Y-94114833D01*
X166960511Y-93934163D01*
X166960511Y-90177836D01*
X167005391Y-90207824D01*
X167540000Y-90314164D01*
X167940145Y-90234570D01*
X167940145Y-94500145D01*
X167997997Y-94790984D01*
X168162744Y-95037546D01*
X169064878Y-95939680D01*
X169064838Y-95985167D01*
X169206883Y-96328943D01*
X169469673Y-96592192D01*
X169813201Y-96734838D01*
X170185167Y-96735162D01*
X170528943Y-96593117D01*
X170792192Y-96330327D01*
X170934838Y-95986799D01*
X170935162Y-95614833D01*
X170793117Y-95271057D01*
X170530327Y-95007808D01*
X170186799Y-94865162D01*
X170139923Y-94865121D01*
X169460145Y-94185343D01*
X169460145Y-90150864D01*
X169545391Y-90207824D01*
X170080000Y-90314164D01*
X170614609Y-90207824D01*
X171067828Y-89904992D01*
X171370660Y-89451773D01*
X171477000Y-88917164D01*
X171477000Y-87842836D01*
X171370660Y-87308227D01*
X171067828Y-86855008D01*
X170614609Y-86552176D01*
X170080000Y-86445836D01*
X169545391Y-86552176D01*
X169174555Y-86799962D01*
X166619172Y-84244579D01*
X168724786Y-84244579D01*
X168912408Y-84698657D01*
X169259515Y-85046371D01*
X169713266Y-85234785D01*
X170204579Y-85235214D01*
X170658657Y-85047592D01*
X171006371Y-84700485D01*
X171194785Y-84246734D01*
X171194786Y-84244579D01*
X171264786Y-84244579D01*
X171452408Y-84698657D01*
X171799515Y-85046371D01*
X172253266Y-85234785D01*
X172744579Y-85235214D01*
X172838955Y-85196218D01*
X172838955Y-85237135D01*
X172312427Y-85763663D01*
X172147680Y-86010225D01*
X172089828Y-86301064D01*
X172089828Y-97274092D01*
X172147680Y-97564931D01*
X172312427Y-97811493D01*
X172638335Y-98137401D01*
X172884897Y-98302148D01*
X173003296Y-98325699D01*
X173069673Y-98392192D01*
X173413201Y-98534838D01*
X173785167Y-98535162D01*
X174128943Y-98393117D01*
X174392192Y-98130327D01*
X174534838Y-97786799D01*
X174534949Y-97659474D01*
X174538834Y-97660247D01*
X181799753Y-97660247D01*
X182090592Y-97602395D01*
X182337154Y-97437648D01*
X182639680Y-97135122D01*
X182685167Y-97135162D01*
X183028943Y-96993117D01*
X183292192Y-96730327D01*
X183434838Y-96386799D01*
X183435162Y-96014833D01*
X183293117Y-95671057D01*
X183030327Y-95407808D01*
X182686799Y-95265162D01*
X182314833Y-95264838D01*
X181971057Y-95406883D01*
X181707808Y-95669673D01*
X181565162Y-96013201D01*
X181565121Y-96060077D01*
X181484951Y-96140247D01*
X178435053Y-96140247D01*
X178435162Y-96014833D01*
X178293117Y-95671057D01*
X178030327Y-95407808D01*
X177686799Y-95265162D01*
X177314833Y-95264838D01*
X176971057Y-95406883D01*
X176712488Y-95665001D01*
X176209801Y-95665001D01*
X176739710Y-95135092D01*
X176904457Y-94888530D01*
X176962309Y-94597691D01*
X176962309Y-90215167D01*
X177460000Y-90314164D01*
X177994609Y-90207824D01*
X178039696Y-90177698D01*
X178039696Y-93933704D01*
X177965162Y-94113201D01*
X177964838Y-94485167D01*
X178106883Y-94828943D01*
X178369673Y-95092192D01*
X178713201Y-95234838D01*
X179085167Y-95235162D01*
X179428943Y-95093117D01*
X179692192Y-94830327D01*
X179834838Y-94486799D01*
X179835162Y-94114833D01*
X179693117Y-93771057D01*
X179559696Y-93637403D01*
X179559696Y-90226582D01*
X180000000Y-90314164D01*
X180534609Y-90207824D01*
X180642074Y-90136018D01*
X180642074Y-93527539D01*
X180571057Y-93556883D01*
X180307808Y-93819673D01*
X180165162Y-94163201D01*
X180164838Y-94535167D01*
X180306883Y-94878943D01*
X180569673Y-95142192D01*
X180913201Y-95284838D01*
X181285167Y-95285162D01*
X181628943Y-95143117D01*
X181892192Y-94880327D01*
X182034838Y-94536799D01*
X182034920Y-94442483D01*
X182104222Y-94338765D01*
X182162074Y-94047926D01*
X182162074Y-90238990D01*
X182540000Y-90314164D01*
X183074609Y-90207824D01*
X183527828Y-89904992D01*
X183810000Y-89482693D01*
X184092172Y-89904992D01*
X184545391Y-90207824D01*
X185080000Y-90314164D01*
X185614609Y-90207824D01*
X185715000Y-90140745D01*
X185715000Y-93737537D01*
X185682808Y-93769673D01*
X185540162Y-94113201D01*
X185539838Y-94485167D01*
X185681883Y-94828943D01*
X185944673Y-95092192D01*
X186288201Y-95234838D01*
X186660167Y-95235162D01*
X187003943Y-95093117D01*
X187012079Y-95084996D01*
X187417931Y-95490848D01*
X187316655Y-96000000D01*
X187430729Y-96573489D01*
X187755585Y-97059670D01*
X188065069Y-97266461D01*
X187649268Y-97637964D01*
X187395291Y-98165209D01*
X187392642Y-98180974D01*
X187513783Y-98413000D01*
X188873000Y-98413000D01*
X188873000Y-98393000D01*
X189127000Y-98393000D01*
X189127000Y-98413000D01*
X190486217Y-98413000D01*
X190607358Y-98180974D01*
X190604709Y-98165209D01*
X190350732Y-97637964D01*
X189934931Y-97266461D01*
X190244415Y-97059670D01*
X190569271Y-96573489D01*
X190683345Y-96000000D01*
X190569271Y-95426511D01*
X190244415Y-94940330D01*
X190230087Y-94930757D01*
X190251317Y-94926762D01*
X190467441Y-94787690D01*
X190612431Y-94575490D01*
X190663440Y-94323600D01*
X190663440Y-92596400D01*
X190619162Y-92361083D01*
X190480090Y-92144959D01*
X190267890Y-91999969D01*
X190016000Y-91948960D01*
X187984000Y-91948960D01*
X187860000Y-91972292D01*
X187860000Y-90314802D01*
X189878902Y-88295900D01*
X190599440Y-88295900D01*
X190834757Y-88251622D01*
X191050881Y-88112550D01*
X191195871Y-87900350D01*
X191246880Y-87648460D01*
X191246880Y-86449580D01*
X191202602Y-86214263D01*
X191063530Y-85998139D01*
X191062533Y-85997457D01*
X191195871Y-85802310D01*
X191246880Y-85550420D01*
X191246880Y-84351540D01*
X191202602Y-84116223D01*
X191063530Y-83900099D01*
X190851330Y-83755109D01*
X190599440Y-83704100D01*
X189400560Y-83704100D01*
X189165243Y-83748378D01*
X188949119Y-83887450D01*
X188804129Y-84099650D01*
X188785634Y-84190980D01*
X188713354Y-84190980D01*
X188630327Y-84107808D01*
X188286799Y-83965162D01*
X187914833Y-83964838D01*
X187571057Y-84106883D01*
X187307808Y-84369673D01*
X187235000Y-84545013D01*
X187235000Y-84149998D01*
X187177148Y-83859159D01*
X187012401Y-83612597D01*
X185936968Y-82537164D01*
X185992576Y-82526103D01*
X186239138Y-82361356D01*
X186465655Y-82134839D01*
X186836904Y-82135162D01*
X187180680Y-81993117D01*
X187443929Y-81730327D01*
X187586575Y-81386799D01*
X187586899Y-81014833D01*
X187553982Y-80935167D01*
X189064838Y-80935167D01*
X189206883Y-81278943D01*
X189469673Y-81542192D01*
X189813201Y-81684838D01*
X190185167Y-81685162D01*
X190528943Y-81543117D01*
X190792192Y-81280327D01*
X190934838Y-80936799D01*
X190935162Y-80564833D01*
X190793117Y-80221057D01*
X190530327Y-79957808D01*
X190186799Y-79815162D01*
X189814833Y-79814838D01*
X189471057Y-79956883D01*
X189207808Y-80219673D01*
X189065162Y-80563201D01*
X189064838Y-80935167D01*
X187553982Y-80935167D01*
X187444854Y-80671057D01*
X187182064Y-80407808D01*
X186838536Y-80265162D01*
X186467427Y-80264839D01*
X185365956Y-79163368D01*
X185119394Y-78998621D01*
X184828555Y-78940769D01*
X181376588Y-78940769D01*
X181085749Y-78998621D01*
X180839187Y-79163368D01*
X179462939Y-80539616D01*
X179331233Y-80407679D01*
X178987705Y-80265033D01*
X178615739Y-80264709D01*
X178271963Y-80406754D01*
X178150904Y-80527602D01*
X178030525Y-80407013D01*
X177686997Y-80264367D01*
X177315031Y-80264043D01*
X176971255Y-80406088D01*
X176938080Y-80439205D01*
X175798669Y-80439205D01*
X175507829Y-80497057D01*
X175261268Y-80661804D01*
X173061554Y-82861518D01*
X173043550Y-82888464D01*
X172746734Y-82765215D01*
X172255421Y-82764786D01*
X171801343Y-82952408D01*
X171453629Y-83299515D01*
X171265215Y-83753266D01*
X171264786Y-84244579D01*
X171194786Y-84244579D01*
X171195214Y-83755421D01*
X171007592Y-83301343D01*
X170660485Y-82953629D01*
X170206734Y-82765215D01*
X169715421Y-82764786D01*
X169261343Y-82952408D01*
X168913629Y-83299515D01*
X168725215Y-83753266D01*
X168724786Y-84244579D01*
X166619172Y-84244579D01*
X166453925Y-84079332D01*
X166279049Y-83962484D01*
X167522402Y-82719131D01*
X167687149Y-82472569D01*
X167745001Y-82181730D01*
X167745001Y-80723070D01*
X167742303Y-80709507D01*
X167687149Y-80432230D01*
X167522402Y-80185669D01*
X165901979Y-78565246D01*
X165655417Y-78400499D01*
X165364578Y-78342647D01*
X143259971Y-78342647D01*
X142969132Y-78400499D01*
X142722570Y-78565246D01*
X141477578Y-79810238D01*
X141312831Y-80056800D01*
X141254979Y-80347639D01*
X141254979Y-81710219D01*
X140200059Y-82765139D01*
X139795421Y-82764786D01*
X139341343Y-82952408D01*
X138993629Y-83299515D01*
X138805215Y-83753266D01*
X138804786Y-84244579D01*
X138992408Y-84698657D01*
X139334011Y-85040857D01*
X139126388Y-85040857D01*
X138835548Y-85098709D01*
X138588987Y-85263456D01*
X137262084Y-86590359D01*
X137097337Y-86836921D01*
X137039485Y-87127760D01*
X136250076Y-87127760D01*
X136067828Y-86855008D01*
X135614609Y-86552176D01*
X135080000Y-86445836D01*
X134545391Y-86552176D01*
X134092172Y-86855008D01*
X133810000Y-87277307D01*
X133527828Y-86855008D01*
X133074609Y-86552176D01*
X132540000Y-86445836D01*
X132005391Y-86552176D01*
X131552172Y-86855008D01*
X131270000Y-87277307D01*
X130987828Y-86855008D01*
X130534609Y-86552176D01*
X130000000Y-86445836D01*
X129465391Y-86552176D01*
X129012172Y-86855008D01*
X128730000Y-87277307D01*
X128447828Y-86855008D01*
X127994609Y-86552176D01*
X127460000Y-86445836D01*
X126925391Y-86552176D01*
X126472172Y-86855008D01*
X126190000Y-87277307D01*
X125907828Y-86855008D01*
X125454609Y-86552176D01*
X124920000Y-86445836D01*
X124385391Y-86552176D01*
X123932172Y-86855008D01*
X123629340Y-87308227D01*
X123523000Y-87842836D01*
X122179661Y-87842836D01*
X122192192Y-87830327D01*
X122334838Y-87486799D01*
X122335162Y-87114833D01*
X122193117Y-86771057D01*
X121930327Y-86507808D01*
X121832583Y-86467221D01*
X123739804Y-84560000D01*
X124337537Y-84560000D01*
X124369673Y-84592192D01*
X124713201Y-84734838D01*
X125085167Y-84735162D01*
X125428943Y-84593117D01*
X125692192Y-84330327D01*
X125727797Y-84244579D01*
X133724786Y-84244579D01*
X133912408Y-84698657D01*
X134259515Y-85046371D01*
X134713266Y-85234785D01*
X135204579Y-85235214D01*
X135658657Y-85047592D01*
X136006371Y-84700485D01*
X136194785Y-84246734D01*
X136194786Y-84244579D01*
X136264786Y-84244579D01*
X136452408Y-84698657D01*
X136799515Y-85046371D01*
X137253266Y-85234785D01*
X137744579Y-85235214D01*
X138198657Y-85047592D01*
X138546371Y-84700485D01*
X138734785Y-84246734D01*
X138735214Y-83755421D01*
X138547592Y-83301343D01*
X138200485Y-82953629D01*
X137746734Y-82765215D01*
X137255421Y-82764786D01*
X136801343Y-82952408D01*
X136453629Y-83299515D01*
X136265215Y-83753266D01*
X136264786Y-84244579D01*
X136194786Y-84244579D01*
X136195214Y-83755421D01*
X136007592Y-83301343D01*
X135660485Y-82953629D01*
X135206734Y-82765215D01*
X134715421Y-82764786D01*
X134261343Y-82952408D01*
X133913629Y-83299515D01*
X133725215Y-83753266D01*
X133724786Y-84244579D01*
X125727797Y-84244579D01*
X125834838Y-83986799D01*
X125835162Y-83614833D01*
X125693117Y-83271057D01*
X125430327Y-83007808D01*
X125086799Y-82865162D01*
X124714833Y-82864838D01*
X124371057Y-83006883D01*
X124337882Y-83040000D01*
X123425002Y-83040000D01*
X123134163Y-83097852D01*
X122887601Y-83262599D01*
X121986311Y-84163889D01*
X121930327Y-84107808D01*
X121586799Y-83965162D01*
X121214833Y-83964838D01*
X121128218Y-84000627D01*
X121063530Y-83900099D01*
X120851330Y-83755109D01*
X120599440Y-83704100D01*
X119400560Y-83704100D01*
X119165243Y-83748378D01*
X118949119Y-83887450D01*
X118804129Y-84099650D01*
X118753120Y-84351540D01*
X115379315Y-84351540D01*
X115138515Y-84303642D01*
X115138514Y-84303642D01*
X113746295Y-84026712D01*
X112683454Y-83316546D01*
X111973288Y-82253707D01*
X111800525Y-81385167D01*
X129764838Y-81385167D01*
X129906883Y-81728943D01*
X130169673Y-81992192D01*
X130513201Y-82134838D01*
X130885167Y-82135162D01*
X131228943Y-81993117D01*
X131492192Y-81730327D01*
X131634838Y-81386799D01*
X131635162Y-81014833D01*
X131493117Y-80671057D01*
X131230327Y-80407808D01*
X130886799Y-80265162D01*
X130514833Y-80264838D01*
X130171057Y-80406883D01*
X129907808Y-80669673D01*
X129765162Y-81013201D01*
X129764838Y-81385167D01*
X111800525Y-81385167D01*
X111723910Y-81000000D01*
X111973288Y-79746293D01*
X112683454Y-78683454D01*
X113746295Y-77973288D01*
X115069931Y-77710000D01*
X194930069Y-77710000D01*
X196253707Y-77973288D01*
X196253707Y-77973288D01*
G37*
X196253707Y-77973288D02*
X197316546Y-78683454D01*
X198026712Y-79746295D01*
X198276090Y-81000000D01*
X198026712Y-82253705D01*
X197316546Y-83316546D01*
X196253707Y-84026712D01*
X194861486Y-84303642D01*
X194478804Y-84379762D01*
X194384629Y-84418771D01*
X194222862Y-84485777D01*
X193898438Y-84702549D01*
X193766956Y-84834032D01*
X193702549Y-84898439D01*
X193485776Y-85222862D01*
X193422042Y-85376732D01*
X193379762Y-85478804D01*
X193303642Y-85861487D01*
X193303642Y-85931416D01*
X193290000Y-86000000D01*
X193290000Y-106000000D01*
X193303642Y-106068584D01*
X193303642Y-106138513D01*
X193379762Y-106521196D01*
X193399395Y-106568593D01*
X193485776Y-106777138D01*
X193702549Y-107101561D01*
X193702550Y-107101562D01*
X193898438Y-107297451D01*
X194222862Y-107514223D01*
X194328877Y-107558136D01*
X194478804Y-107620238D01*
X194861486Y-107696358D01*
X196253707Y-107973288D01*
X197316546Y-108683454D01*
X198026712Y-109746295D01*
X198276090Y-111000000D01*
X198026712Y-112253705D01*
X197316546Y-113316546D01*
X196253707Y-114026712D01*
X194930069Y-114290000D01*
X115069931Y-114290000D01*
X113746295Y-114026712D01*
X112683454Y-113316546D01*
X111973288Y-112253707D01*
X111723910Y-111000000D01*
X111726860Y-110985167D01*
X120864838Y-110985167D01*
X121006883Y-111328943D01*
X121269673Y-111592192D01*
X121613201Y-111734838D01*
X121985167Y-111735162D01*
X122328943Y-111593117D01*
X122592192Y-111330327D01*
X122734838Y-110986799D01*
X122735162Y-110614833D01*
X122593117Y-110271057D01*
X122330327Y-110007808D01*
X121986799Y-109865162D01*
X121614833Y-109864838D01*
X121271057Y-110006883D01*
X121007808Y-110269673D01*
X120865162Y-110613201D01*
X120864838Y-110985167D01*
X111726860Y-110985167D01*
X111973288Y-109746293D01*
X112683454Y-108683454D01*
X113129873Y-108385167D01*
X120864838Y-108385167D01*
X121006883Y-108728943D01*
X121269673Y-108992192D01*
X121613201Y-109134838D01*
X121985167Y-109135162D01*
X122328943Y-108993117D01*
X122592192Y-108730327D01*
X122734838Y-108386799D01*
X122734839Y-108385167D01*
X128464838Y-108385167D01*
X128606883Y-108728943D01*
X128869673Y-108992192D01*
X129213201Y-109134838D01*
X129585167Y-109135162D01*
X129928943Y-108993117D01*
X130192192Y-108730327D01*
X130334838Y-108386799D01*
X130334839Y-108385167D01*
X140364838Y-108385167D01*
X140506883Y-108728943D01*
X140769673Y-108992192D01*
X141113201Y-109134838D01*
X141485167Y-109135162D01*
X141828943Y-108993117D01*
X142092192Y-108730327D01*
X142234838Y-108386799D01*
X142234839Y-108385167D01*
X149864838Y-108385167D01*
X150006883Y-108728943D01*
X150269673Y-108992192D01*
X150613201Y-109134838D01*
X150985167Y-109135162D01*
X151328943Y-108993117D01*
X151592192Y-108730327D01*
X151734838Y-108386799D01*
X151734839Y-108385167D01*
X161864838Y-108385167D01*
X162006883Y-108728943D01*
X162269673Y-108992192D01*
X162613201Y-109134838D01*
X162985167Y-109135162D01*
X163328943Y-108993117D01*
X163592192Y-108730327D01*
X163734838Y-108386799D01*
X163734839Y-108385167D01*
X173864838Y-108385167D01*
X174006883Y-108728943D01*
X174269673Y-108992192D01*
X174613201Y-109134838D01*
X174985167Y-109135162D01*
X175328943Y-108993117D01*
X175592192Y-108730327D01*
X175734838Y-108386799D01*
X175734839Y-108385167D01*
X185864838Y-108385167D01*
X186006883Y-108728943D01*
X186269673Y-108992192D01*
X186613201Y-109134838D01*
X186985167Y-109135162D01*
X187328943Y-108993117D01*
X187592192Y-108730327D01*
X187734838Y-108386799D01*
X187735162Y-108014833D01*
X187593117Y-107671057D01*
X187330327Y-107407808D01*
X186986799Y-107265162D01*
X186614833Y-107264838D01*
X186271057Y-107406883D01*
X186007808Y-107669673D01*
X185865162Y-108013201D01*
X185864838Y-108385167D01*
X175734839Y-108385167D01*
X175735162Y-108014833D01*
X175593117Y-107671057D01*
X175330327Y-107407808D01*
X174986799Y-107265162D01*
X174614833Y-107264838D01*
X174271057Y-107406883D01*
X174007808Y-107669673D01*
X173865162Y-108013201D01*
X173864838Y-108385167D01*
X163734839Y-108385167D01*
X163735162Y-108014833D01*
X163593117Y-107671057D01*
X163330327Y-107407808D01*
X162986799Y-107265162D01*
X162614833Y-107264838D01*
X162271057Y-107406883D01*
X162007808Y-107669673D01*
X161865162Y-108013201D01*
X161864838Y-108385167D01*
X151734839Y-108385167D01*
X151735162Y-108014833D01*
X151593117Y-107671057D01*
X151330327Y-107407808D01*
X150986799Y-107265162D01*
X150614833Y-107264838D01*
X150271057Y-107406883D01*
X150007808Y-107669673D01*
X149865162Y-108013201D01*
X149864838Y-108385167D01*
X142234839Y-108385167D01*
X142235162Y-108014833D01*
X142093117Y-107671057D01*
X141830327Y-107407808D01*
X141486799Y-107265162D01*
X141114833Y-107264838D01*
X140771057Y-107406883D01*
X140507808Y-107669673D01*
X140365162Y-108013201D01*
X140364838Y-108385167D01*
X130334839Y-108385167D01*
X130335162Y-108014833D01*
X130193117Y-107671057D01*
X129930327Y-107407808D01*
X129586799Y-107265162D01*
X129214833Y-107264838D01*
X128871057Y-107406883D01*
X128607808Y-107669673D01*
X128465162Y-108013201D01*
X128464838Y-108385167D01*
X122734839Y-108385167D01*
X122735162Y-108014833D01*
X122593117Y-107671057D01*
X122330327Y-107407808D01*
X121986799Y-107265162D01*
X121614833Y-107264838D01*
X121271057Y-107406883D01*
X121007808Y-107669673D01*
X120865162Y-108013201D01*
X120864838Y-108385167D01*
X113129873Y-108385167D01*
X113746295Y-107973288D01*
X115138514Y-107696358D01*
X115138515Y-107696358D01*
X115521196Y-107620238D01*
X115615369Y-107581230D01*
X115777138Y-107514224D01*
X116101561Y-107297451D01*
X116134174Y-107264838D01*
X116297451Y-107101562D01*
X116514223Y-106777138D01*
X116564419Y-106655954D01*
X116620238Y-106521196D01*
X116696358Y-106138514D01*
X116696358Y-106068584D01*
X116710000Y-106000000D01*
X116710000Y-103082836D01*
X123523000Y-103082836D01*
X123523000Y-104157164D01*
X123629340Y-104691773D01*
X123932172Y-105144992D01*
X124385391Y-105447824D01*
X124920000Y-105554164D01*
X125454609Y-105447824D01*
X125907828Y-105144992D01*
X126190000Y-104722693D01*
X126472172Y-105144992D01*
X126925391Y-105447824D01*
X127460000Y-105554164D01*
X127994609Y-105447824D01*
X128447828Y-105144992D01*
X128730000Y-104722693D01*
X129012172Y-105144992D01*
X129465391Y-105447824D01*
X130000000Y-105554164D01*
X130534609Y-105447824D01*
X130987828Y-105144992D01*
X131270000Y-104722693D01*
X131552172Y-105144992D01*
X132005391Y-105447824D01*
X132540000Y-105554164D01*
X133074609Y-105447824D01*
X133527828Y-105144992D01*
X133810000Y-104722693D01*
X134092172Y-105144992D01*
X134545391Y-105447824D01*
X135080000Y-105554164D01*
X135614609Y-105447824D01*
X136067828Y-105144992D01*
X136370660Y-104691773D01*
X136477000Y-104157164D01*
X136477000Y-103082836D01*
X138523000Y-103082836D01*
X138523000Y-104157164D01*
X138629340Y-104691773D01*
X138932172Y-105144992D01*
X139385391Y-105447824D01*
X139920000Y-105554164D01*
X140454609Y-105447824D01*
X140907828Y-105144992D01*
X141190000Y-104722693D01*
X141472172Y-105144992D01*
X141925391Y-105447824D01*
X142460000Y-105554164D01*
X142994609Y-105447824D01*
X143447828Y-105144992D01*
X143730000Y-104722693D01*
X144012172Y-105144992D01*
X144465391Y-105447824D01*
X145000000Y-105554164D01*
X145534609Y-105447824D01*
X145987828Y-105144992D01*
X146270000Y-104722693D01*
X146552172Y-105144992D01*
X147005391Y-105447824D01*
X147540000Y-105554164D01*
X148074609Y-105447824D01*
X148527828Y-105144992D01*
X148810000Y-104722693D01*
X149092172Y-105144992D01*
X149545391Y-105447824D01*
X150080000Y-105554164D01*
X150614609Y-105447824D01*
X151067828Y-105144992D01*
X151370660Y-104691773D01*
X151477000Y-104157164D01*
X151477000Y-103082836D01*
X151370660Y-102548227D01*
X151228033Y-102334770D01*
X153765560Y-102334770D01*
X153765560Y-102774769D01*
X153862233Y-103008158D01*
X154040861Y-103186787D01*
X154274250Y-103283460D01*
X154714250Y-103283460D01*
X154873000Y-103124710D01*
X154873000Y-102176020D01*
X155127000Y-102176020D01*
X155127000Y-103124710D01*
X155285750Y-103283460D01*
X155725750Y-103283460D01*
X155959139Y-103186787D01*
X156063089Y-103082836D01*
X158523000Y-103082836D01*
X158523000Y-104157164D01*
X158629340Y-104691773D01*
X158932172Y-105144992D01*
X159385391Y-105447824D01*
X159920000Y-105554164D01*
X160454609Y-105447824D01*
X160907828Y-105144992D01*
X161190000Y-104722693D01*
X161472172Y-105144992D01*
X161925391Y-105447824D01*
X162460000Y-105554164D01*
X162994609Y-105447824D01*
X163447828Y-105144992D01*
X163730000Y-104722693D01*
X164012172Y-105144992D01*
X164465391Y-105447824D01*
X165000000Y-105554164D01*
X165534609Y-105447824D01*
X165987828Y-105144992D01*
X166270000Y-104722693D01*
X166552172Y-105144992D01*
X167005391Y-105447824D01*
X167540000Y-105554164D01*
X168074609Y-105447824D01*
X168527828Y-105144992D01*
X168810000Y-104722693D01*
X169092172Y-105144992D01*
X169545391Y-105447824D01*
X170080000Y-105554164D01*
X170614609Y-105447824D01*
X171067828Y-105144992D01*
X171370660Y-104691773D01*
X171477000Y-104157164D01*
X171477000Y-103082836D01*
X173523000Y-103082836D01*
X173523000Y-104157164D01*
X173629340Y-104691773D01*
X173932172Y-105144992D01*
X174385391Y-105447824D01*
X174920000Y-105554164D01*
X175454609Y-105447824D01*
X175907828Y-105144992D01*
X176190000Y-104722693D01*
X176472172Y-105144992D01*
X176925391Y-105447824D01*
X177460000Y-105554164D01*
X177994609Y-105447824D01*
X178447828Y-105144992D01*
X178730000Y-104722693D01*
X179012172Y-105144992D01*
X179465391Y-105447824D01*
X180000000Y-105554164D01*
X180534609Y-105447824D01*
X180987828Y-105144992D01*
X181270000Y-104722693D01*
X181552172Y-105144992D01*
X182005391Y-105447824D01*
X182540000Y-105554164D01*
X183074609Y-105447824D01*
X183527828Y-105144992D01*
X183810000Y-104722693D01*
X184092172Y-105144992D01*
X184545391Y-105447824D01*
X185080000Y-105554164D01*
X185614609Y-105447824D01*
X186067828Y-105144992D01*
X186370660Y-104691773D01*
X186477000Y-104157164D01*
X186477000Y-103082836D01*
X186370660Y-102548227D01*
X186067828Y-102095008D01*
X185614609Y-101792176D01*
X185080000Y-101685836D01*
X184545391Y-101792176D01*
X184092172Y-102095008D01*
X183810000Y-102517307D01*
X183527828Y-102095008D01*
X183074609Y-101792176D01*
X182540000Y-101685836D01*
X182005391Y-101792176D01*
X181552172Y-102095008D01*
X181270000Y-102517307D01*
X180987828Y-102095008D01*
X180534609Y-101792176D01*
X180000000Y-101685836D01*
X179465391Y-101792176D01*
X179012172Y-102095008D01*
X178730000Y-102517307D01*
X178447828Y-102095008D01*
X177994609Y-101792176D01*
X177460000Y-101685836D01*
X176925391Y-101792176D01*
X176472172Y-102095008D01*
X176190000Y-102517307D01*
X175907828Y-102095008D01*
X175454609Y-101792176D01*
X174920000Y-101685836D01*
X174385391Y-101792176D01*
X173932172Y-102095008D01*
X173629340Y-102548227D01*
X173523000Y-103082836D01*
X171477000Y-103082836D01*
X171370660Y-102548227D01*
X171067828Y-102095008D01*
X170614609Y-101792176D01*
X170080000Y-101685836D01*
X169545391Y-101792176D01*
X169092172Y-102095008D01*
X168810000Y-102517307D01*
X168527828Y-102095008D01*
X168074609Y-101792176D01*
X167540000Y-101685836D01*
X167005391Y-101792176D01*
X166552172Y-102095008D01*
X166270000Y-102517307D01*
X165987828Y-102095008D01*
X165534609Y-101792176D01*
X165000000Y-101685836D01*
X164465391Y-101792176D01*
X164012172Y-102095008D01*
X163730000Y-102517307D01*
X163447828Y-102095008D01*
X162994609Y-101792176D01*
X162460000Y-101685836D01*
X161925391Y-101792176D01*
X161472172Y-102095008D01*
X161190000Y-102517307D01*
X160907828Y-102095008D01*
X160454609Y-101792176D01*
X159920000Y-101685836D01*
X159385391Y-101792176D01*
X158932172Y-102095008D01*
X158629340Y-102548227D01*
X158523000Y-103082836D01*
X156063089Y-103082836D01*
X156137767Y-103008158D01*
X156234440Y-102774769D01*
X156234440Y-102334770D01*
X156075690Y-102176020D01*
X155127000Y-102176020D01*
X154873000Y-102176020D01*
X153924310Y-102176020D01*
X153765560Y-102334770D01*
X151228033Y-102334770D01*
X151067828Y-102095008D01*
X150614609Y-101792176D01*
X150080000Y-101685836D01*
X149545391Y-101792176D01*
X149092172Y-102095008D01*
X148810000Y-102517307D01*
X148527828Y-102095008D01*
X148074609Y-101792176D01*
X147540000Y-101685836D01*
X147005391Y-101792176D01*
X146552172Y-102095008D01*
X146270000Y-102517307D01*
X145987828Y-102095008D01*
X145534609Y-101792176D01*
X145000000Y-101685836D01*
X144465391Y-101792176D01*
X144012172Y-102095008D01*
X143730000Y-102517307D01*
X143447828Y-102095008D01*
X142994609Y-101792176D01*
X142460000Y-101685836D01*
X141925391Y-101792176D01*
X141472172Y-102095008D01*
X141190000Y-102517307D01*
X140907828Y-102095008D01*
X140454609Y-101792176D01*
X139920000Y-101685836D01*
X139385391Y-101792176D01*
X138932172Y-102095008D01*
X138629340Y-102548227D01*
X138523000Y-103082836D01*
X136477000Y-103082836D01*
X136370660Y-102548227D01*
X136067828Y-102095008D01*
X135614609Y-101792176D01*
X135080000Y-101685836D01*
X134545391Y-101792176D01*
X134092172Y-102095008D01*
X133810000Y-102517307D01*
X133527828Y-102095008D01*
X133074609Y-101792176D01*
X132540000Y-101685836D01*
X132005391Y-101792176D01*
X131552172Y-102095008D01*
X131270000Y-102517307D01*
X130987828Y-102095008D01*
X130534609Y-101792176D01*
X130000000Y-101685836D01*
X129465391Y-101792176D01*
X129012172Y-102095008D01*
X128730000Y-102517307D01*
X128447828Y-102095008D01*
X127994609Y-101792176D01*
X127460000Y-101685836D01*
X126925391Y-101792176D01*
X126472172Y-102095008D01*
X126190000Y-102517307D01*
X125907828Y-102095008D01*
X125454609Y-101792176D01*
X124920000Y-101685836D01*
X124385391Y-101792176D01*
X123932172Y-102095008D01*
X123629340Y-102548227D01*
X123523000Y-103082836D01*
X116710000Y-103082836D01*
X116710000Y-99351540D01*
X153753120Y-99351540D01*
X153753120Y-100550420D01*
X153797398Y-100785737D01*
X153936470Y-101001861D01*
X153944659Y-101007456D01*
X153862233Y-101089882D01*
X153765560Y-101323271D01*
X153765560Y-101763270D01*
X153924310Y-101922020D01*
X154873000Y-101922020D01*
X154873000Y-101902020D01*
X155127000Y-101902020D01*
X155127000Y-101922020D01*
X156075690Y-101922020D01*
X156234440Y-101763270D01*
X156234440Y-101323271D01*
X156137767Y-101089882D01*
X156055555Y-101007669D01*
X156182388Y-100822043D01*
X156213201Y-100834838D01*
X156585167Y-100835162D01*
X156928943Y-100693117D01*
X157192192Y-100430327D01*
X157334838Y-100086799D01*
X157335162Y-99714833D01*
X157193117Y-99371057D01*
X156930327Y-99107808D01*
X156586799Y-98965162D01*
X156214833Y-98964838D01*
X156128218Y-99000627D01*
X156063530Y-98900099D01*
X156061960Y-98899026D01*
X187392642Y-98899026D01*
X187395291Y-98914791D01*
X187649268Y-99442036D01*
X188085680Y-99831954D01*
X188638087Y-100025184D01*
X188873000Y-99880924D01*
X188873000Y-98667000D01*
X189127000Y-98667000D01*
X189127000Y-99880924D01*
X189361913Y-100025184D01*
X189914320Y-99831954D01*
X190350732Y-99442036D01*
X190604709Y-98914791D01*
X190607358Y-98899026D01*
X190486217Y-98667000D01*
X189127000Y-98667000D01*
X188873000Y-98667000D01*
X187513783Y-98667000D01*
X187392642Y-98899026D01*
X156061960Y-98899026D01*
X155851330Y-98755109D01*
X155599440Y-98704100D01*
X154400560Y-98704100D01*
X154165243Y-98748378D01*
X153949119Y-98887450D01*
X153804129Y-99099650D01*
X153753120Y-99351540D01*
X116710000Y-99351540D01*
X116710000Y-86000000D01*
X116696358Y-85931416D01*
X116696358Y-85861486D01*
X116620238Y-85478804D01*
X116533320Y-85268966D01*
X116514223Y-85222862D01*
X116297451Y-84898438D01*
X116101562Y-84702550D01*
X116101561Y-84702549D01*
X115777138Y-84485776D01*
X115593368Y-84409657D01*
X115521196Y-84379762D01*
X115379315Y-84351540D01*
X118753120Y-84351540D01*
X118753120Y-85550420D01*
X118797398Y-85785737D01*
X118936470Y-86001861D01*
X118937467Y-86002543D01*
X118804129Y-86197690D01*
X118753120Y-86449580D01*
X118753120Y-87648460D01*
X118797398Y-87883777D01*
X118936470Y-88099901D01*
X119148670Y-88244891D01*
X119400560Y-88295900D01*
X120599440Y-88295900D01*
X120834757Y-88251622D01*
X120999039Y-88145910D01*
X121213201Y-88234838D01*
X121585167Y-88235162D01*
X121928943Y-88093117D01*
X122179661Y-87842836D01*
X123523000Y-87842836D01*
X123523000Y-88917164D01*
X123629340Y-89451773D01*
X123932172Y-89904992D01*
X124385391Y-90207824D01*
X124920000Y-90314164D01*
X125454609Y-90207824D01*
X125907828Y-89904992D01*
X126190000Y-89482693D01*
X126472172Y-89904992D01*
X126925391Y-90207824D01*
X127460000Y-90314164D01*
X127994609Y-90207824D01*
X128447828Y-89904992D01*
X128730000Y-89482693D01*
X129012172Y-89904992D01*
X129465391Y-90207824D01*
X130000000Y-90314164D01*
X130534609Y-90207824D01*
X130987828Y-89904992D01*
X131270000Y-89482693D01*
X131552172Y-89904992D01*
X132005391Y-90207824D01*
X132540000Y-90314164D01*
X133074609Y-90207824D01*
X133527828Y-89904992D01*
X133810000Y-89482693D01*
X134092172Y-89904992D01*
X134545391Y-90207824D01*
X135080000Y-90314164D01*
X135614609Y-90207824D01*
X136067828Y-89904992D01*
X136370660Y-89451773D01*
X136477000Y-88917164D01*
X136477000Y-87842836D01*
X136370660Y-87308227D01*
X136250076Y-87127760D01*
X137039485Y-87127760D01*
X137039485Y-96260897D01*
X137097337Y-96551736D01*
X137262084Y-96798298D01*
X138601187Y-98137401D01*
X138847749Y-98302148D01*
X139138588Y-98360000D01*
X148337537Y-98360000D01*
X148369673Y-98392192D01*
X148713201Y-98534838D01*
X149085167Y-98535162D01*
X149428943Y-98393117D01*
X149692192Y-98130327D01*
X149834838Y-97786799D01*
X149835162Y-97414833D01*
X149693117Y-97071057D01*
X149430327Y-96807808D01*
X149086799Y-96665162D01*
X148714833Y-96664838D01*
X148371057Y-96806883D01*
X148337882Y-96840000D01*
X143182327Y-96840000D01*
X143292192Y-96730327D01*
X143434838Y-96386799D01*
X143435162Y-96014833D01*
X143293117Y-95671057D01*
X143030327Y-95407808D01*
X142686799Y-95265162D01*
X142314833Y-95264838D01*
X141971057Y-95406883D01*
X141707808Y-95669673D01*
X141565162Y-96013201D01*
X141565121Y-96060077D01*
X141560197Y-96065001D01*
X140902366Y-96065001D01*
X140934838Y-95986799D01*
X140934879Y-95939923D01*
X141836895Y-95037907D01*
X142001642Y-94791345D01*
X142059494Y-94500506D01*
X142059494Y-90234499D01*
X142460000Y-90314164D01*
X142994609Y-90207824D01*
X143040162Y-90177386D01*
X143040162Y-93932582D01*
X142965162Y-94113201D01*
X142964838Y-94485167D01*
X143106883Y-94828943D01*
X143369673Y-95092192D01*
X143713201Y-95234838D01*
X144085167Y-95235162D01*
X144428943Y-95093117D01*
X144692192Y-94830327D01*
X144834838Y-94486799D01*
X144835162Y-94114833D01*
X144693117Y-93771057D01*
X144560162Y-93637870D01*
X144560162Y-90226675D01*
X145000000Y-90314164D01*
X145441053Y-90226433D01*
X145441053Y-93636660D01*
X145307808Y-93769673D01*
X145165162Y-94113201D01*
X145164838Y-94485167D01*
X145306883Y-94828943D01*
X145569673Y-95092192D01*
X145913201Y-95234838D01*
X146285167Y-95235162D01*
X146628943Y-95093117D01*
X146892192Y-94830327D01*
X147034838Y-94486799D01*
X147035162Y-94114833D01*
X146961053Y-93935475D01*
X146961053Y-90178198D01*
X147005391Y-90207824D01*
X147540000Y-90314164D01*
X147939395Y-90234720D01*
X147939395Y-94499395D01*
X147997247Y-94790234D01*
X148161994Y-95036796D01*
X149064878Y-95939680D01*
X149064838Y-95985167D01*
X149206883Y-96328943D01*
X149469673Y-96592192D01*
X149813201Y-96734838D01*
X150185167Y-96735162D01*
X150528943Y-96593117D01*
X150792192Y-96330327D01*
X150934838Y-95986799D01*
X150935162Y-95614833D01*
X150793117Y-95271057D01*
X150530327Y-95007808D01*
X150186799Y-94865162D01*
X150139923Y-94865121D01*
X149459395Y-94184593D01*
X149459395Y-92334770D01*
X153765560Y-92334770D01*
X153765560Y-92774769D01*
X153862233Y-93008158D01*
X154040861Y-93186787D01*
X154274250Y-93283460D01*
X154714250Y-93283460D01*
X154873000Y-93124710D01*
X154873000Y-92176020D01*
X153924310Y-92176020D01*
X153765560Y-92334770D01*
X149459395Y-92334770D01*
X149459395Y-90150363D01*
X149545391Y-90207824D01*
X150080000Y-90314164D01*
X150614609Y-90207824D01*
X151067828Y-89904992D01*
X151370660Y-89451773D01*
X151477000Y-88917164D01*
X151477000Y-87842836D01*
X151370660Y-87308227D01*
X151067828Y-86855008D01*
X150614609Y-86552176D01*
X150080000Y-86445836D01*
X149545391Y-86552176D01*
X149459395Y-86609637D01*
X149459395Y-84775308D01*
X149713201Y-84880698D01*
X150085167Y-84881022D01*
X150428943Y-84738977D01*
X150692192Y-84476187D01*
X150834838Y-84132659D01*
X150835162Y-83760693D01*
X150693117Y-83416917D01*
X150430327Y-83153668D01*
X150086799Y-83011022D01*
X149714833Y-83010698D01*
X149459395Y-83116243D01*
X149459395Y-82071516D01*
X149451558Y-82032119D01*
X149407749Y-81811873D01*
X149713201Y-81938709D01*
X149760077Y-81938750D01*
X149987661Y-82166335D01*
X150188362Y-82300438D01*
X150234223Y-82331081D01*
X150525062Y-82388933D01*
X151399940Y-82388933D01*
X151690779Y-82331081D01*
X151937341Y-82166334D01*
X152179118Y-81924557D01*
X152213201Y-81938709D01*
X152585167Y-81939033D01*
X152928943Y-81796988D01*
X153192192Y-81534198D01*
X153334838Y-81190670D01*
X153335162Y-80818704D01*
X153193117Y-80474928D01*
X152930327Y-80211679D01*
X152586799Y-80069033D01*
X152214833Y-80068709D01*
X152179317Y-80083384D01*
X151958580Y-79862647D01*
X156074427Y-79862647D01*
X155987587Y-79949487D01*
X155822840Y-80196049D01*
X155764988Y-80486888D01*
X155764988Y-81459690D01*
X155822840Y-81750530D01*
X155987587Y-81997091D01*
X157088880Y-83098383D01*
X157088880Y-90190843D01*
X156937401Y-89964139D01*
X156386841Y-89413579D01*
X156240105Y-89315533D01*
X156202602Y-89116223D01*
X156063530Y-88900099D01*
X155851330Y-88755109D01*
X155599440Y-88704100D01*
X154400560Y-88704100D01*
X154165243Y-88748378D01*
X153949119Y-88887450D01*
X153804129Y-89099650D01*
X153753120Y-89351540D01*
X153753120Y-90550420D01*
X153797398Y-90785737D01*
X153936470Y-91001861D01*
X153944659Y-91007456D01*
X153862233Y-91089882D01*
X153765560Y-91323271D01*
X153765560Y-91763270D01*
X153924310Y-91922020D01*
X154873000Y-91922020D01*
X154873000Y-91902020D01*
X155127000Y-91902020D01*
X155127000Y-91922020D01*
X155147000Y-91922020D01*
X155147000Y-92176020D01*
X155127000Y-92176020D01*
X155127000Y-93124710D01*
X155285750Y-93283460D01*
X155640000Y-93283460D01*
X155640000Y-93537537D01*
X155607808Y-93569673D01*
X155465162Y-93913201D01*
X155464838Y-94285167D01*
X155606883Y-94628943D01*
X155869673Y-94892192D01*
X156213201Y-95034838D01*
X156585167Y-95035162D01*
X156928943Y-94893117D01*
X157088880Y-94733459D01*
X157088880Y-95915077D01*
X156814833Y-95914838D01*
X156471057Y-96056883D01*
X156207808Y-96319673D01*
X156065162Y-96663201D01*
X156064838Y-97035167D01*
X156206883Y-97378943D01*
X156469673Y-97642192D01*
X156813201Y-97784838D01*
X157185167Y-97785162D01*
X157528943Y-97643117D01*
X157792192Y-97380327D01*
X157804667Y-97350285D01*
X158591783Y-98137401D01*
X158838345Y-98302148D01*
X159129184Y-98360000D01*
X165537537Y-98360000D01*
X165569673Y-98392192D01*
X165913201Y-98534838D01*
X166285167Y-98535162D01*
X166628943Y-98393117D01*
X166892192Y-98130327D01*
X167034838Y-97786799D01*
X167035162Y-97414833D01*
X166893117Y-97071057D01*
X166630327Y-96807808D01*
X166286799Y-96665162D01*
X165914833Y-96664838D01*
X165571057Y-96806883D01*
X165537882Y-96840000D01*
X163182327Y-96840000D01*
X163292192Y-96730327D01*
X163434838Y-96386799D01*
X163435162Y-96014833D01*
X163293117Y-95671057D01*
X163030327Y-95407808D01*
X162686799Y-95265162D01*
X162314833Y-95264838D01*
X161971057Y-95406883D01*
X161707808Y-95669673D01*
X161565162Y-96013201D01*
X161565121Y-96060077D01*
X161516436Y-96108762D01*
X160884194Y-96108762D01*
X160934838Y-95986799D01*
X160934879Y-95939923D01*
X161637987Y-95236815D01*
X161802734Y-94990253D01*
X161860586Y-94699414D01*
X161860586Y-90164523D01*
X161925391Y-90207824D01*
X162460000Y-90314164D01*
X162994609Y-90207824D01*
X163041291Y-90176632D01*
X163041291Y-93929863D01*
X162965162Y-94113201D01*
X162964838Y-94485167D01*
X163106883Y-94828943D01*
X163369673Y-95092192D01*
X163713201Y-95234838D01*
X164085167Y-95235162D01*
X164428943Y-95093117D01*
X164692192Y-94830327D01*
X164834838Y-94486799D01*
X164835162Y-94114833D01*
X164693117Y-93771057D01*
X164561291Y-93639001D01*
X164561291Y-90226900D01*
X165000000Y-90314164D01*
X165440511Y-90226541D01*
X165440511Y-93637201D01*
X165307808Y-93769673D01*
X165165162Y-94113201D01*
X165164838Y-94485167D01*
X165306883Y-94828943D01*
X165569673Y-95092192D01*
X165913201Y-95234838D01*
X166285167Y-95235162D01*
X166628943Y-95093117D01*
X166892192Y-94830327D01*
X167034838Y-94486799D01*
X167035162Y-94114833D01*
X166960511Y-93934163D01*
X166960511Y-90177836D01*
X167005391Y-90207824D01*
X167540000Y-90314164D01*
X167940145Y-90234570D01*
X167940145Y-94500145D01*
X167997997Y-94790984D01*
X168162744Y-95037546D01*
X169064878Y-95939680D01*
X169064838Y-95985167D01*
X169206883Y-96328943D01*
X169469673Y-96592192D01*
X169813201Y-96734838D01*
X170185167Y-96735162D01*
X170528943Y-96593117D01*
X170792192Y-96330327D01*
X170934838Y-95986799D01*
X170935162Y-95614833D01*
X170793117Y-95271057D01*
X170530327Y-95007808D01*
X170186799Y-94865162D01*
X170139923Y-94865121D01*
X169460145Y-94185343D01*
X169460145Y-90150864D01*
X169545391Y-90207824D01*
X170080000Y-90314164D01*
X170614609Y-90207824D01*
X171067828Y-89904992D01*
X171370660Y-89451773D01*
X171477000Y-88917164D01*
X171477000Y-87842836D01*
X171370660Y-87308227D01*
X171067828Y-86855008D01*
X170614609Y-86552176D01*
X170080000Y-86445836D01*
X169545391Y-86552176D01*
X169174555Y-86799962D01*
X166619172Y-84244579D01*
X168724786Y-84244579D01*
X168912408Y-84698657D01*
X169259515Y-85046371D01*
X169713266Y-85234785D01*
X170204579Y-85235214D01*
X170658657Y-85047592D01*
X171006371Y-84700485D01*
X171194785Y-84246734D01*
X171194786Y-84244579D01*
X171264786Y-84244579D01*
X171452408Y-84698657D01*
X171799515Y-85046371D01*
X172253266Y-85234785D01*
X172744579Y-85235214D01*
X172838955Y-85196218D01*
X172838955Y-85237135D01*
X172312427Y-85763663D01*
X172147680Y-86010225D01*
X172089828Y-86301064D01*
X172089828Y-97274092D01*
X172147680Y-97564931D01*
X172312427Y-97811493D01*
X172638335Y-98137401D01*
X172884897Y-98302148D01*
X173003296Y-98325699D01*
X173069673Y-98392192D01*
X173413201Y-98534838D01*
X173785167Y-98535162D01*
X174128943Y-98393117D01*
X174392192Y-98130327D01*
X174534838Y-97786799D01*
X174534949Y-97659474D01*
X174538834Y-97660247D01*
X181799753Y-97660247D01*
X182090592Y-97602395D01*
X182337154Y-97437648D01*
X182639680Y-97135122D01*
X182685167Y-97135162D01*
X183028943Y-96993117D01*
X183292192Y-96730327D01*
X183434838Y-96386799D01*
X183435162Y-96014833D01*
X183293117Y-95671057D01*
X183030327Y-95407808D01*
X182686799Y-95265162D01*
X182314833Y-95264838D01*
X181971057Y-95406883D01*
X181707808Y-95669673D01*
X181565162Y-96013201D01*
X181565121Y-96060077D01*
X181484951Y-96140247D01*
X178435053Y-96140247D01*
X178435162Y-96014833D01*
X178293117Y-95671057D01*
X178030327Y-95407808D01*
X177686799Y-95265162D01*
X177314833Y-95264838D01*
X176971057Y-95406883D01*
X176712488Y-95665001D01*
X176209801Y-95665001D01*
X176739710Y-95135092D01*
X176904457Y-94888530D01*
X176962309Y-94597691D01*
X176962309Y-90215167D01*
X177460000Y-90314164D01*
X177994609Y-90207824D01*
X178039696Y-90177698D01*
X178039696Y-93933704D01*
X177965162Y-94113201D01*
X177964838Y-94485167D01*
X178106883Y-94828943D01*
X178369673Y-95092192D01*
X178713201Y-95234838D01*
X179085167Y-95235162D01*
X179428943Y-95093117D01*
X179692192Y-94830327D01*
X179834838Y-94486799D01*
X179835162Y-94114833D01*
X179693117Y-93771057D01*
X179559696Y-93637403D01*
X179559696Y-90226582D01*
X180000000Y-90314164D01*
X180534609Y-90207824D01*
X180642074Y-90136018D01*
X180642074Y-93527539D01*
X180571057Y-93556883D01*
X180307808Y-93819673D01*
X180165162Y-94163201D01*
X180164838Y-94535167D01*
X180306883Y-94878943D01*
X180569673Y-95142192D01*
X180913201Y-95284838D01*
X181285167Y-95285162D01*
X181628943Y-95143117D01*
X181892192Y-94880327D01*
X182034838Y-94536799D01*
X182034920Y-94442483D01*
X182104222Y-94338765D01*
X182162074Y-94047926D01*
X182162074Y-90238990D01*
X182540000Y-90314164D01*
X183074609Y-90207824D01*
X183527828Y-89904992D01*
X183810000Y-89482693D01*
X184092172Y-89904992D01*
X184545391Y-90207824D01*
X185080000Y-90314164D01*
X185614609Y-90207824D01*
X185715000Y-90140745D01*
X185715000Y-93737537D01*
X185682808Y-93769673D01*
X185540162Y-94113201D01*
X185539838Y-94485167D01*
X185681883Y-94828943D01*
X185944673Y-95092192D01*
X186288201Y-95234838D01*
X186660167Y-95235162D01*
X187003943Y-95093117D01*
X187012079Y-95084996D01*
X187417931Y-95490848D01*
X187316655Y-96000000D01*
X187430729Y-96573489D01*
X187755585Y-97059670D01*
X188065069Y-97266461D01*
X187649268Y-97637964D01*
X187395291Y-98165209D01*
X187392642Y-98180974D01*
X187513783Y-98413000D01*
X188873000Y-98413000D01*
X188873000Y-98393000D01*
X189127000Y-98393000D01*
X189127000Y-98413000D01*
X190486217Y-98413000D01*
X190607358Y-98180974D01*
X190604709Y-98165209D01*
X190350732Y-97637964D01*
X189934931Y-97266461D01*
X190244415Y-97059670D01*
X190569271Y-96573489D01*
X190683345Y-96000000D01*
X190569271Y-95426511D01*
X190244415Y-94940330D01*
X190230087Y-94930757D01*
X190251317Y-94926762D01*
X190467441Y-94787690D01*
X190612431Y-94575490D01*
X190663440Y-94323600D01*
X190663440Y-92596400D01*
X190619162Y-92361083D01*
X190480090Y-92144959D01*
X190267890Y-91999969D01*
X190016000Y-91948960D01*
X187984000Y-91948960D01*
X187860000Y-91972292D01*
X187860000Y-90314802D01*
X189878902Y-88295900D01*
X190599440Y-88295900D01*
X190834757Y-88251622D01*
X191050881Y-88112550D01*
X191195871Y-87900350D01*
X191246880Y-87648460D01*
X191246880Y-86449580D01*
X191202602Y-86214263D01*
X191063530Y-85998139D01*
X191062533Y-85997457D01*
X191195871Y-85802310D01*
X191246880Y-85550420D01*
X191246880Y-84351540D01*
X191202602Y-84116223D01*
X191063530Y-83900099D01*
X190851330Y-83755109D01*
X190599440Y-83704100D01*
X189400560Y-83704100D01*
X189165243Y-83748378D01*
X188949119Y-83887450D01*
X188804129Y-84099650D01*
X188785634Y-84190980D01*
X188713354Y-84190980D01*
X188630327Y-84107808D01*
X188286799Y-83965162D01*
X187914833Y-83964838D01*
X187571057Y-84106883D01*
X187307808Y-84369673D01*
X187235000Y-84545013D01*
X187235000Y-84149998D01*
X187177148Y-83859159D01*
X187012401Y-83612597D01*
X185936968Y-82537164D01*
X185992576Y-82526103D01*
X186239138Y-82361356D01*
X186465655Y-82134839D01*
X186836904Y-82135162D01*
X187180680Y-81993117D01*
X187443929Y-81730327D01*
X187586575Y-81386799D01*
X187586899Y-81014833D01*
X187553982Y-80935167D01*
X189064838Y-80935167D01*
X189206883Y-81278943D01*
X189469673Y-81542192D01*
X189813201Y-81684838D01*
X190185167Y-81685162D01*
X190528943Y-81543117D01*
X190792192Y-81280327D01*
X190934838Y-80936799D01*
X190935162Y-80564833D01*
X190793117Y-80221057D01*
X190530327Y-79957808D01*
X190186799Y-79815162D01*
X189814833Y-79814838D01*
X189471057Y-79956883D01*
X189207808Y-80219673D01*
X189065162Y-80563201D01*
X189064838Y-80935167D01*
X187553982Y-80935167D01*
X187444854Y-80671057D01*
X187182064Y-80407808D01*
X186838536Y-80265162D01*
X186467427Y-80264839D01*
X185365956Y-79163368D01*
X185119394Y-78998621D01*
X184828555Y-78940769D01*
X181376588Y-78940769D01*
X181085749Y-78998621D01*
X180839187Y-79163368D01*
X179462939Y-80539616D01*
X179331233Y-80407679D01*
X178987705Y-80265033D01*
X178615739Y-80264709D01*
X178271963Y-80406754D01*
X178150904Y-80527602D01*
X178030525Y-80407013D01*
X177686997Y-80264367D01*
X177315031Y-80264043D01*
X176971255Y-80406088D01*
X176938080Y-80439205D01*
X175798669Y-80439205D01*
X175507829Y-80497057D01*
X175261268Y-80661804D01*
X173061554Y-82861518D01*
X173043550Y-82888464D01*
X172746734Y-82765215D01*
X172255421Y-82764786D01*
X171801343Y-82952408D01*
X171453629Y-83299515D01*
X171265215Y-83753266D01*
X171264786Y-84244579D01*
X171194786Y-84244579D01*
X171195214Y-83755421D01*
X171007592Y-83301343D01*
X170660485Y-82953629D01*
X170206734Y-82765215D01*
X169715421Y-82764786D01*
X169261343Y-82952408D01*
X168913629Y-83299515D01*
X168725215Y-83753266D01*
X168724786Y-84244579D01*
X166619172Y-84244579D01*
X166453925Y-84079332D01*
X166279049Y-83962484D01*
X167522402Y-82719131D01*
X167687149Y-82472569D01*
X167745001Y-82181730D01*
X167745001Y-80723070D01*
X167742303Y-80709507D01*
X167687149Y-80432230D01*
X167522402Y-80185669D01*
X165901979Y-78565246D01*
X165655417Y-78400499D01*
X165364578Y-78342647D01*
X143259971Y-78342647D01*
X142969132Y-78400499D01*
X142722570Y-78565246D01*
X141477578Y-79810238D01*
X141312831Y-80056800D01*
X141254979Y-80347639D01*
X141254979Y-81710219D01*
X140200059Y-82765139D01*
X139795421Y-82764786D01*
X139341343Y-82952408D01*
X138993629Y-83299515D01*
X138805215Y-83753266D01*
X138804786Y-84244579D01*
X138992408Y-84698657D01*
X139334011Y-85040857D01*
X139126388Y-85040857D01*
X138835548Y-85098709D01*
X138588987Y-85263456D01*
X137262084Y-86590359D01*
X137097337Y-86836921D01*
X137039485Y-87127760D01*
X136250076Y-87127760D01*
X136067828Y-86855008D01*
X135614609Y-86552176D01*
X135080000Y-86445836D01*
X134545391Y-86552176D01*
X134092172Y-86855008D01*
X133810000Y-87277307D01*
X133527828Y-86855008D01*
X133074609Y-86552176D01*
X132540000Y-86445836D01*
X132005391Y-86552176D01*
X131552172Y-86855008D01*
X131270000Y-87277307D01*
X130987828Y-86855008D01*
X130534609Y-86552176D01*
X130000000Y-86445836D01*
X129465391Y-86552176D01*
X129012172Y-86855008D01*
X128730000Y-87277307D01*
X128447828Y-86855008D01*
X127994609Y-86552176D01*
X127460000Y-86445836D01*
X126925391Y-86552176D01*
X126472172Y-86855008D01*
X126190000Y-87277307D01*
X125907828Y-86855008D01*
X125454609Y-86552176D01*
X124920000Y-86445836D01*
X124385391Y-86552176D01*
X123932172Y-86855008D01*
X123629340Y-87308227D01*
X123523000Y-87842836D01*
X122179661Y-87842836D01*
X122192192Y-87830327D01*
X122334838Y-87486799D01*
X122335162Y-87114833D01*
X122193117Y-86771057D01*
X121930327Y-86507808D01*
X121832583Y-86467221D01*
X123739804Y-84560000D01*
X124337537Y-84560000D01*
X124369673Y-84592192D01*
X124713201Y-84734838D01*
X125085167Y-84735162D01*
X125428943Y-84593117D01*
X125692192Y-84330327D01*
X125727797Y-84244579D01*
X133724786Y-84244579D01*
X133912408Y-84698657D01*
X134259515Y-85046371D01*
X134713266Y-85234785D01*
X135204579Y-85235214D01*
X135658657Y-85047592D01*
X136006371Y-84700485D01*
X136194785Y-84246734D01*
X136194786Y-84244579D01*
X136264786Y-84244579D01*
X136452408Y-84698657D01*
X136799515Y-85046371D01*
X137253266Y-85234785D01*
X137744579Y-85235214D01*
X138198657Y-85047592D01*
X138546371Y-84700485D01*
X138734785Y-84246734D01*
X138735214Y-83755421D01*
X138547592Y-83301343D01*
X138200485Y-82953629D01*
X137746734Y-82765215D01*
X137255421Y-82764786D01*
X136801343Y-82952408D01*
X136453629Y-83299515D01*
X136265215Y-83753266D01*
X136264786Y-84244579D01*
X136194786Y-84244579D01*
X136195214Y-83755421D01*
X136007592Y-83301343D01*
X135660485Y-82953629D01*
X135206734Y-82765215D01*
X134715421Y-82764786D01*
X134261343Y-82952408D01*
X133913629Y-83299515D01*
X133725215Y-83753266D01*
X133724786Y-84244579D01*
X125727797Y-84244579D01*
X125834838Y-83986799D01*
X125835162Y-83614833D01*
X125693117Y-83271057D01*
X125430327Y-83007808D01*
X125086799Y-82865162D01*
X124714833Y-82864838D01*
X124371057Y-83006883D01*
X124337882Y-83040000D01*
X123425002Y-83040000D01*
X123134163Y-83097852D01*
X122887601Y-83262599D01*
X121986311Y-84163889D01*
X121930327Y-84107808D01*
X121586799Y-83965162D01*
X121214833Y-83964838D01*
X121128218Y-84000627D01*
X121063530Y-83900099D01*
X120851330Y-83755109D01*
X120599440Y-83704100D01*
X119400560Y-83704100D01*
X119165243Y-83748378D01*
X118949119Y-83887450D01*
X118804129Y-84099650D01*
X118753120Y-84351540D01*
X115379315Y-84351540D01*
X115138515Y-84303642D01*
X115138514Y-84303642D01*
X113746295Y-84026712D01*
X112683454Y-83316546D01*
X111973288Y-82253707D01*
X111800525Y-81385167D01*
X129764838Y-81385167D01*
X129906883Y-81728943D01*
X130169673Y-81992192D01*
X130513201Y-82134838D01*
X130885167Y-82135162D01*
X131228943Y-81993117D01*
X131492192Y-81730327D01*
X131634838Y-81386799D01*
X131635162Y-81014833D01*
X131493117Y-80671057D01*
X131230327Y-80407808D01*
X130886799Y-80265162D01*
X130514833Y-80264838D01*
X130171057Y-80406883D01*
X129907808Y-80669673D01*
X129765162Y-81013201D01*
X129764838Y-81385167D01*
X111800525Y-81385167D01*
X111723910Y-81000000D01*
X111973288Y-79746293D01*
X112683454Y-78683454D01*
X113746295Y-77973288D01*
X115069931Y-77710000D01*
X194930069Y-77710000D01*
X196253707Y-77973288D01*
M02*
