G04 #@! TF.FileFunction,Legend,Bot*
%FSLAX46Y46*%
G04 Gerber Fmt 4.6, Leading zero omitted, Abs format (unit mm)*
G04 Created by KiCad (PCBNEW 4.0.5) date Fri Apr  7 20:50:26 2017*
%MOMM*%
%LPD*%
G01*
G04 APERTURE LIST*
%ADD10C,0.100000*%
%ADD11C,0.150000*%
G04 APERTURE END LIST*
D10*
D11*
X143375000Y-99600000D02*
X143375000Y-98400000D01*
X141625000Y-98400000D02*
X141625000Y-99600000D01*
X141625000Y-92400000D02*
X141625000Y-93600000D01*
X143375000Y-93600000D02*
X143375000Y-92400000D01*
X181000000Y-110250000D02*
X181000000Y-108750000D01*
X180500000Y-110250000D02*
X181000000Y-110250000D01*
X180500000Y-108750000D02*
X181000000Y-108750000D01*
X180500000Y-111250000D02*
X180500000Y-107750000D01*
X190500000Y-107750000D02*
X190500000Y-111250000D01*
X180500000Y-111250000D02*
X190500000Y-111250000D01*
X180500000Y-107750000D02*
X190500000Y-107750000D01*
X123000000Y-83250000D02*
X123000000Y-81750000D01*
X122500000Y-83250000D02*
X123000000Y-83250000D01*
X122500000Y-81750000D02*
X123000000Y-81750000D01*
X122500000Y-84250000D02*
X122500000Y-80750000D01*
X132500000Y-80750000D02*
X132500000Y-84250000D01*
X122500000Y-84250000D02*
X132500000Y-84250000D01*
X122500000Y-80750000D02*
X132500000Y-80750000D01*
X167000000Y-81750000D02*
X167000000Y-83250000D01*
X167500000Y-81750000D02*
X167000000Y-81750000D01*
X167500000Y-83250000D02*
X167000000Y-83250000D01*
X167500000Y-80750000D02*
X167500000Y-84250000D01*
X156500000Y-84250000D02*
X156500000Y-80750000D01*
X167500000Y-80750000D02*
X156500000Y-80750000D01*
X167500000Y-84250000D02*
X156500000Y-84250000D01*
X154500000Y-90650000D02*
X155500000Y-90650000D01*
X155500000Y-92350000D02*
X154500000Y-92350000D01*
X188625000Y-83000000D02*
X188625000Y-84200000D01*
X190375000Y-84200000D02*
X190375000Y-83000000D01*
X120875000Y-86600000D02*
X120875000Y-85400000D01*
X119125000Y-85400000D02*
X119125000Y-86600000D01*
X134125000Y-92400000D02*
X134125000Y-93600000D01*
X135875000Y-93600000D02*
X135875000Y-92400000D01*
X133375000Y-99600000D02*
X133375000Y-98400000D01*
X131625000Y-98400000D02*
X131625000Y-99600000D01*
X146625000Y-92400000D02*
X146625000Y-93600000D01*
X148375000Y-93600000D02*
X148375000Y-92400000D01*
X149125000Y-92400000D02*
X149125000Y-93600000D01*
X150875000Y-93600000D02*
X150875000Y-92400000D01*
X148375000Y-99600000D02*
X148375000Y-98400000D01*
X146625000Y-98400000D02*
X146625000Y-99600000D01*
X140875000Y-99600000D02*
X140875000Y-98400000D01*
X139125000Y-98400000D02*
X139125000Y-99600000D01*
X139125000Y-92400000D02*
X139125000Y-93600000D01*
X140875000Y-93600000D02*
X140875000Y-92400000D01*
X155875000Y-96100000D02*
X155875000Y-94900000D01*
X154125000Y-94900000D02*
X154125000Y-96100000D01*
X155875000Y-101600000D02*
X155875000Y-100400000D01*
X154125000Y-100400000D02*
X154125000Y-101600000D01*
X166625000Y-92400000D02*
X166625000Y-93600000D01*
X168375000Y-93600000D02*
X168375000Y-92400000D01*
X169125000Y-92400000D02*
X169125000Y-93600000D01*
X170875000Y-93600000D02*
X170875000Y-92400000D01*
X168375000Y-99600000D02*
X168375000Y-98400000D01*
X166625000Y-98400000D02*
X166625000Y-99600000D01*
X163375000Y-99600000D02*
X163375000Y-98400000D01*
X161625000Y-98400000D02*
X161625000Y-99600000D01*
X160875000Y-99600000D02*
X160875000Y-98400000D01*
X159125000Y-98400000D02*
X159125000Y-99600000D01*
X161625000Y-92400000D02*
X161625000Y-93600000D01*
X163375000Y-93600000D02*
X163375000Y-92400000D01*
X159125000Y-92400000D02*
X159125000Y-93600000D01*
X160875000Y-93600000D02*
X160875000Y-92400000D01*
X181625000Y-92400000D02*
X181625000Y-93600000D01*
X183375000Y-93600000D02*
X183375000Y-92400000D01*
X184125000Y-92400000D02*
X184125000Y-93600000D01*
X185875000Y-93600000D02*
X185875000Y-92400000D01*
X183375000Y-99600000D02*
X183375000Y-98400000D01*
X181625000Y-98400000D02*
X181625000Y-99600000D01*
X178375000Y-99600000D02*
X178375000Y-98400000D01*
X176625000Y-98400000D02*
X176625000Y-99600000D01*
X175875000Y-99600000D02*
X175875000Y-98400000D01*
X174125000Y-98400000D02*
X174125000Y-99600000D01*
X176625000Y-92400000D02*
X176625000Y-93600000D01*
X178375000Y-93600000D02*
X178375000Y-92400000D01*
X174125000Y-92400000D02*
X174125000Y-93600000D01*
X175875000Y-93600000D02*
X175875000Y-92400000D01*
X169000000Y-110250000D02*
X169000000Y-108750000D01*
X168500000Y-110250000D02*
X169000000Y-110250000D01*
X168500000Y-108750000D02*
X169000000Y-108750000D01*
X168500000Y-111250000D02*
X168500000Y-107750000D01*
X178500000Y-107750000D02*
X178500000Y-111250000D01*
X168500000Y-111250000D02*
X178500000Y-111250000D01*
X168500000Y-107750000D02*
X178500000Y-107750000D01*
X154700000Y-89950000D02*
G75*
G03X154700000Y-89950000I-100000J0D01*
G01*
X155250000Y-89450000D02*
X154750000Y-89450000D01*
X155250000Y-86550000D02*
X155250000Y-89450000D01*
X154750000Y-86550000D02*
X155250000Y-86550000D01*
X154750000Y-89450000D02*
X154750000Y-86550000D01*
X157000000Y-110250000D02*
X157000000Y-108750000D01*
X156500000Y-110250000D02*
X157000000Y-110250000D01*
X156500000Y-108750000D02*
X157000000Y-108750000D01*
X156500000Y-111250000D02*
X156500000Y-107750000D01*
X166500000Y-107750000D02*
X166500000Y-111250000D01*
X156500000Y-111250000D02*
X166500000Y-111250000D01*
X156500000Y-107750000D02*
X166500000Y-107750000D01*
X145000000Y-110250000D02*
X145000000Y-108750000D01*
X144500000Y-110250000D02*
X145000000Y-110250000D01*
X144500000Y-108750000D02*
X145000000Y-108750000D01*
X144500000Y-111250000D02*
X144500000Y-107750000D01*
X154500000Y-107750000D02*
X154500000Y-111250000D01*
X144500000Y-111250000D02*
X154500000Y-111250000D01*
X144500000Y-107750000D02*
X154500000Y-107750000D01*
X142000000Y-108750000D02*
X142000000Y-110250000D01*
X142500000Y-108750000D02*
X142000000Y-108750000D01*
X142500000Y-110250000D02*
X142000000Y-110250000D01*
X142500000Y-107750000D02*
X142500000Y-111250000D01*
X132500000Y-111250000D02*
X132500000Y-107750000D01*
X142500000Y-107750000D02*
X132500000Y-107750000D01*
X142500000Y-111250000D02*
X132500000Y-111250000D01*
X153000000Y-81750000D02*
X153000000Y-83250000D01*
X153500000Y-81750000D02*
X153000000Y-81750000D01*
X153500000Y-83250000D02*
X153000000Y-83250000D01*
X153500000Y-80750000D02*
X153500000Y-84250000D01*
X142500000Y-84250000D02*
X142500000Y-80750000D01*
X153500000Y-80750000D02*
X142500000Y-80750000D01*
X153500000Y-84250000D02*
X142500000Y-84250000D01*
X187000000Y-81750000D02*
X187000000Y-83250000D01*
X187500000Y-81750000D02*
X187000000Y-81750000D01*
X187500000Y-83250000D02*
X187000000Y-83250000D01*
X187500000Y-80750000D02*
X187500000Y-84250000D01*
X176500000Y-84250000D02*
X176500000Y-80750000D01*
X187500000Y-80750000D02*
X176500000Y-80750000D01*
X187500000Y-84250000D02*
X176500000Y-84250000D01*
X130000000Y-108750000D02*
X130000000Y-110250000D01*
X130500000Y-108750000D02*
X130000000Y-108750000D01*
X130500000Y-110250000D02*
X130000000Y-110250000D01*
X130500000Y-107750000D02*
X130500000Y-111250000D01*
X119500000Y-111250000D02*
X119500000Y-107750000D01*
X130500000Y-107750000D02*
X119500000Y-107750000D01*
X130500000Y-111250000D02*
X119500000Y-111250000D01*
X189850000Y-102290000D02*
X189850000Y-103290000D01*
X188150000Y-103290000D02*
X188150000Y-102290000D01*
X189850000Y-88710000D02*
X189850000Y-89710000D01*
X188150000Y-89710000D02*
X188150000Y-88710000D01*
X142666666Y-96552381D02*
X143000000Y-96076190D01*
X143238095Y-96552381D02*
X143238095Y-95552381D01*
X142857142Y-95552381D01*
X142761904Y-95600000D01*
X142714285Y-95647619D01*
X142666666Y-95742857D01*
X142666666Y-95885714D01*
X142714285Y-95980952D01*
X142761904Y-96028571D01*
X142857142Y-96076190D01*
X143238095Y-96076190D01*
X142095238Y-95980952D02*
X142190476Y-95933333D01*
X142238095Y-95885714D01*
X142285714Y-95790476D01*
X142285714Y-95742857D01*
X142238095Y-95647619D01*
X142190476Y-95600000D01*
X142095238Y-95552381D01*
X141904761Y-95552381D01*
X141809523Y-95600000D01*
X141761904Y-95647619D01*
X141714285Y-95742857D01*
X141714285Y-95790476D01*
X141761904Y-95885714D01*
X141809523Y-95933333D01*
X141904761Y-95980952D01*
X142095238Y-95980952D01*
X142190476Y-96028571D01*
X142238095Y-96076190D01*
X142285714Y-96171429D01*
X142285714Y-96361905D01*
X142238095Y-96457143D01*
X142190476Y-96504762D01*
X142095238Y-96552381D01*
X141904761Y-96552381D01*
X141809523Y-96504762D01*
X141761904Y-96457143D01*
X141714285Y-96361905D01*
X141714285Y-96171429D01*
X141761904Y-96076190D01*
X141809523Y-96028571D01*
X141904761Y-95980952D01*
X143282143Y-90639286D02*
X143532143Y-90282143D01*
X143710715Y-90639286D02*
X143710715Y-89889286D01*
X143425000Y-89889286D01*
X143353572Y-89925000D01*
X143317857Y-89960714D01*
X143282143Y-90032143D01*
X143282143Y-90139286D01*
X143317857Y-90210714D01*
X143353572Y-90246429D01*
X143425000Y-90282143D01*
X143710715Y-90282143D01*
X142567857Y-90639286D02*
X142996429Y-90639286D01*
X142782143Y-90639286D02*
X142782143Y-89889286D01*
X142853572Y-89996429D01*
X142925000Y-90067857D01*
X142996429Y-90103571D01*
X142103571Y-89889286D02*
X142032143Y-89889286D01*
X141960714Y-89925000D01*
X141925000Y-89960714D01*
X141889286Y-90032143D01*
X141853571Y-90175000D01*
X141853571Y-90353571D01*
X141889286Y-90496429D01*
X141925000Y-90567857D01*
X141960714Y-90603571D01*
X142032143Y-90639286D01*
X142103571Y-90639286D01*
X142175000Y-90603571D01*
X142210714Y-90567857D01*
X142246429Y-90496429D01*
X142282143Y-90353571D01*
X142282143Y-90175000D01*
X142246429Y-90032143D01*
X142210714Y-89960714D01*
X142175000Y-89925000D01*
X142103571Y-89889286D01*
X187561905Y-104852381D02*
X187561905Y-105661905D01*
X187514286Y-105757143D01*
X187466667Y-105804762D01*
X187371429Y-105852381D01*
X187180952Y-105852381D01*
X187085714Y-105804762D01*
X187038095Y-105757143D01*
X186990476Y-105661905D01*
X186990476Y-104852381D01*
X185990476Y-105852381D02*
X186561905Y-105852381D01*
X186276191Y-105852381D02*
X186276191Y-104852381D01*
X186371429Y-104995238D01*
X186466667Y-105090476D01*
X186561905Y-105138095D01*
X128738095Y-77852381D02*
X128738095Y-78661905D01*
X128690476Y-78757143D01*
X128642857Y-78804762D01*
X128547619Y-78852381D01*
X128357142Y-78852381D01*
X128261904Y-78804762D01*
X128214285Y-78757143D01*
X128166666Y-78661905D01*
X128166666Y-77852381D01*
X127166666Y-78852381D02*
X127738095Y-78852381D01*
X127452381Y-78852381D02*
X127452381Y-77852381D01*
X127547619Y-77995238D01*
X127642857Y-78090476D01*
X127738095Y-78138095D01*
X126214285Y-78852381D02*
X126785714Y-78852381D01*
X126500000Y-78852381D02*
X126500000Y-77852381D01*
X126595238Y-77995238D01*
X126690476Y-78090476D01*
X126785714Y-78138095D01*
X163361905Y-77852381D02*
X163361905Y-78661905D01*
X163314286Y-78757143D01*
X163266667Y-78804762D01*
X163171429Y-78852381D01*
X162980952Y-78852381D01*
X162885714Y-78804762D01*
X162838095Y-78757143D01*
X162790476Y-78661905D01*
X162790476Y-77852381D01*
X162171429Y-78280952D02*
X162266667Y-78233333D01*
X162314286Y-78185714D01*
X162361905Y-78090476D01*
X162361905Y-78042857D01*
X162314286Y-77947619D01*
X162266667Y-77900000D01*
X162171429Y-77852381D01*
X161980952Y-77852381D01*
X161885714Y-77900000D01*
X161838095Y-77947619D01*
X161790476Y-78042857D01*
X161790476Y-78090476D01*
X161838095Y-78185714D01*
X161885714Y-78233333D01*
X161980952Y-78280952D01*
X162171429Y-78280952D01*
X162266667Y-78328571D01*
X162314286Y-78376190D01*
X162361905Y-78471429D01*
X162361905Y-78661905D01*
X162314286Y-78757143D01*
X162266667Y-78804762D01*
X162171429Y-78852381D01*
X161980952Y-78852381D01*
X161885714Y-78804762D01*
X161838095Y-78757143D01*
X161790476Y-78661905D01*
X161790476Y-78471429D01*
X161838095Y-78376190D01*
X161885714Y-78328571D01*
X161980952Y-78280952D01*
X155625000Y-90457143D02*
X155660714Y-90504762D01*
X155767857Y-90552381D01*
X155839286Y-90552381D01*
X155946429Y-90504762D01*
X156017857Y-90409524D01*
X156053572Y-90314286D01*
X156089286Y-90123810D01*
X156089286Y-89980952D01*
X156053572Y-89790476D01*
X156017857Y-89695238D01*
X155946429Y-89600000D01*
X155839286Y-89552381D01*
X155767857Y-89552381D01*
X155660714Y-89600000D01*
X155625000Y-89647619D01*
X155375000Y-89552381D02*
X154910714Y-89552381D01*
X155160714Y-89933333D01*
X155053572Y-89933333D01*
X154982143Y-89980952D01*
X154946429Y-90028571D01*
X154910714Y-90123810D01*
X154910714Y-90361905D01*
X154946429Y-90457143D01*
X154982143Y-90504762D01*
X155053572Y-90552381D01*
X155267857Y-90552381D01*
X155339286Y-90504762D01*
X155375000Y-90457143D01*
X189666666Y-81052381D02*
X190000000Y-80576190D01*
X190238095Y-81052381D02*
X190238095Y-80052381D01*
X189857142Y-80052381D01*
X189761904Y-80100000D01*
X189714285Y-80147619D01*
X189666666Y-80242857D01*
X189666666Y-80385714D01*
X189714285Y-80480952D01*
X189761904Y-80528571D01*
X189857142Y-80576190D01*
X190238095Y-80576190D01*
X188714285Y-81052381D02*
X189285714Y-81052381D01*
X189000000Y-81052381D02*
X189000000Y-80052381D01*
X189095238Y-80195238D01*
X189190476Y-80290476D01*
X189285714Y-80338095D01*
X120166666Y-83452381D02*
X120500000Y-82976190D01*
X120738095Y-83452381D02*
X120738095Y-82452381D01*
X120357142Y-82452381D01*
X120261904Y-82500000D01*
X120214285Y-82547619D01*
X120166666Y-82642857D01*
X120166666Y-82785714D01*
X120214285Y-82880952D01*
X120261904Y-82928571D01*
X120357142Y-82976190D01*
X120738095Y-82976190D01*
X119785714Y-82547619D02*
X119738095Y-82500000D01*
X119642857Y-82452381D01*
X119404761Y-82452381D01*
X119309523Y-82500000D01*
X119261904Y-82547619D01*
X119214285Y-82642857D01*
X119214285Y-82738095D01*
X119261904Y-82880952D01*
X119833333Y-83452381D01*
X119214285Y-83452381D01*
X135125000Y-90639286D02*
X135375000Y-90282143D01*
X135553572Y-90639286D02*
X135553572Y-89889286D01*
X135267857Y-89889286D01*
X135196429Y-89925000D01*
X135160714Y-89960714D01*
X135125000Y-90032143D01*
X135125000Y-90139286D01*
X135160714Y-90210714D01*
X135196429Y-90246429D01*
X135267857Y-90282143D01*
X135553572Y-90282143D01*
X134875000Y-89889286D02*
X134410714Y-89889286D01*
X134660714Y-90175000D01*
X134553572Y-90175000D01*
X134482143Y-90210714D01*
X134446429Y-90246429D01*
X134410714Y-90317857D01*
X134410714Y-90496429D01*
X134446429Y-90567857D01*
X134482143Y-90603571D01*
X134553572Y-90639286D01*
X134767857Y-90639286D01*
X134839286Y-90603571D01*
X134875000Y-90567857D01*
X132666666Y-96552381D02*
X133000000Y-96076190D01*
X133238095Y-96552381D02*
X133238095Y-95552381D01*
X132857142Y-95552381D01*
X132761904Y-95600000D01*
X132714285Y-95647619D01*
X132666666Y-95742857D01*
X132666666Y-95885714D01*
X132714285Y-95980952D01*
X132761904Y-96028571D01*
X132857142Y-96076190D01*
X133238095Y-96076190D01*
X131809523Y-95885714D02*
X131809523Y-96552381D01*
X132047619Y-95504762D02*
X132285714Y-96219048D01*
X131666666Y-96219048D01*
X147625000Y-90639286D02*
X147875000Y-90282143D01*
X148053572Y-90639286D02*
X148053572Y-89889286D01*
X147767857Y-89889286D01*
X147696429Y-89925000D01*
X147660714Y-89960714D01*
X147625000Y-90032143D01*
X147625000Y-90139286D01*
X147660714Y-90210714D01*
X147696429Y-90246429D01*
X147767857Y-90282143D01*
X148053572Y-90282143D01*
X146946429Y-89889286D02*
X147303572Y-89889286D01*
X147339286Y-90246429D01*
X147303572Y-90210714D01*
X147232143Y-90175000D01*
X147053572Y-90175000D01*
X146982143Y-90210714D01*
X146946429Y-90246429D01*
X146910714Y-90317857D01*
X146910714Y-90496429D01*
X146946429Y-90567857D01*
X146982143Y-90603571D01*
X147053572Y-90639286D01*
X147232143Y-90639286D01*
X147303572Y-90603571D01*
X147339286Y-90567857D01*
X150225000Y-90639286D02*
X150475000Y-90282143D01*
X150653572Y-90639286D02*
X150653572Y-89889286D01*
X150367857Y-89889286D01*
X150296429Y-89925000D01*
X150260714Y-89960714D01*
X150225000Y-90032143D01*
X150225000Y-90139286D01*
X150260714Y-90210714D01*
X150296429Y-90246429D01*
X150367857Y-90282143D01*
X150653572Y-90282143D01*
X149582143Y-89889286D02*
X149725000Y-89889286D01*
X149796429Y-89925000D01*
X149832143Y-89960714D01*
X149903572Y-90067857D01*
X149939286Y-90210714D01*
X149939286Y-90496429D01*
X149903572Y-90567857D01*
X149867857Y-90603571D01*
X149796429Y-90639286D01*
X149653572Y-90639286D01*
X149582143Y-90603571D01*
X149546429Y-90567857D01*
X149510714Y-90496429D01*
X149510714Y-90317857D01*
X149546429Y-90246429D01*
X149582143Y-90210714D01*
X149653572Y-90175000D01*
X149796429Y-90175000D01*
X149867857Y-90210714D01*
X149903572Y-90246429D01*
X149939286Y-90317857D01*
X147666666Y-96552381D02*
X148000000Y-96076190D01*
X148238095Y-96552381D02*
X148238095Y-95552381D01*
X147857142Y-95552381D01*
X147761904Y-95600000D01*
X147714285Y-95647619D01*
X147666666Y-95742857D01*
X147666666Y-95885714D01*
X147714285Y-95980952D01*
X147761904Y-96028571D01*
X147857142Y-96076190D01*
X148238095Y-96076190D01*
X147333333Y-95552381D02*
X146666666Y-95552381D01*
X147095238Y-96552381D01*
X140166666Y-96552381D02*
X140500000Y-96076190D01*
X140738095Y-96552381D02*
X140738095Y-95552381D01*
X140357142Y-95552381D01*
X140261904Y-95600000D01*
X140214285Y-95647619D01*
X140166666Y-95742857D01*
X140166666Y-95885714D01*
X140214285Y-95980952D01*
X140261904Y-96028571D01*
X140357142Y-96076190D01*
X140738095Y-96076190D01*
X139690476Y-96552381D02*
X139500000Y-96552381D01*
X139404761Y-96504762D01*
X139357142Y-96457143D01*
X139261904Y-96314286D01*
X139214285Y-96123810D01*
X139214285Y-95742857D01*
X139261904Y-95647619D01*
X139309523Y-95600000D01*
X139404761Y-95552381D01*
X139595238Y-95552381D01*
X139690476Y-95600000D01*
X139738095Y-95647619D01*
X139785714Y-95742857D01*
X139785714Y-95980952D01*
X139738095Y-96076190D01*
X139690476Y-96123810D01*
X139595238Y-96171429D01*
X139404761Y-96171429D01*
X139309523Y-96123810D01*
X139261904Y-96076190D01*
X139214285Y-95980952D01*
X140082143Y-90639286D02*
X140332143Y-90282143D01*
X140510715Y-90639286D02*
X140510715Y-89889286D01*
X140225000Y-89889286D01*
X140153572Y-89925000D01*
X140117857Y-89960714D01*
X140082143Y-90032143D01*
X140082143Y-90139286D01*
X140117857Y-90210714D01*
X140153572Y-90246429D01*
X140225000Y-90282143D01*
X140510715Y-90282143D01*
X139367857Y-90639286D02*
X139796429Y-90639286D01*
X139582143Y-90639286D02*
X139582143Y-89889286D01*
X139653572Y-89996429D01*
X139725000Y-90067857D01*
X139796429Y-90103571D01*
X138653571Y-90639286D02*
X139082143Y-90639286D01*
X138867857Y-90639286D02*
X138867857Y-89889286D01*
X138939286Y-89996429D01*
X139010714Y-90067857D01*
X139082143Y-90103571D01*
X155382143Y-93189286D02*
X155632143Y-92832143D01*
X155810715Y-93189286D02*
X155810715Y-92439286D01*
X155525000Y-92439286D01*
X155453572Y-92475000D01*
X155417857Y-92510714D01*
X155382143Y-92582143D01*
X155382143Y-92689286D01*
X155417857Y-92760714D01*
X155453572Y-92796429D01*
X155525000Y-92832143D01*
X155810715Y-92832143D01*
X154667857Y-93189286D02*
X155096429Y-93189286D01*
X154882143Y-93189286D02*
X154882143Y-92439286D01*
X154953572Y-92546429D01*
X155025000Y-92617857D01*
X155096429Y-92653571D01*
X154382143Y-92510714D02*
X154346429Y-92475000D01*
X154275000Y-92439286D01*
X154096429Y-92439286D01*
X154025000Y-92475000D01*
X153989286Y-92510714D01*
X153953571Y-92582143D01*
X153953571Y-92653571D01*
X153989286Y-92760714D01*
X154417857Y-93189286D01*
X153953571Y-93189286D01*
X155482143Y-98639286D02*
X155732143Y-98282143D01*
X155910715Y-98639286D02*
X155910715Y-97889286D01*
X155625000Y-97889286D01*
X155553572Y-97925000D01*
X155517857Y-97960714D01*
X155482143Y-98032143D01*
X155482143Y-98139286D01*
X155517857Y-98210714D01*
X155553572Y-98246429D01*
X155625000Y-98282143D01*
X155910715Y-98282143D01*
X154767857Y-98639286D02*
X155196429Y-98639286D01*
X154982143Y-98639286D02*
X154982143Y-97889286D01*
X155053572Y-97996429D01*
X155125000Y-98067857D01*
X155196429Y-98103571D01*
X154517857Y-97889286D02*
X154053571Y-97889286D01*
X154303571Y-98175000D01*
X154196429Y-98175000D01*
X154125000Y-98210714D01*
X154089286Y-98246429D01*
X154053571Y-98317857D01*
X154053571Y-98496429D01*
X154089286Y-98567857D01*
X154125000Y-98603571D01*
X154196429Y-98639286D01*
X154410714Y-98639286D01*
X154482143Y-98603571D01*
X154517857Y-98567857D01*
X167682143Y-90639286D02*
X167932143Y-90282143D01*
X168110715Y-90639286D02*
X168110715Y-89889286D01*
X167825000Y-89889286D01*
X167753572Y-89925000D01*
X167717857Y-89960714D01*
X167682143Y-90032143D01*
X167682143Y-90139286D01*
X167717857Y-90210714D01*
X167753572Y-90246429D01*
X167825000Y-90282143D01*
X168110715Y-90282143D01*
X166967857Y-90639286D02*
X167396429Y-90639286D01*
X167182143Y-90639286D02*
X167182143Y-89889286D01*
X167253572Y-89996429D01*
X167325000Y-90067857D01*
X167396429Y-90103571D01*
X166325000Y-90139286D02*
X166325000Y-90639286D01*
X166503571Y-89853571D02*
X166682143Y-90389286D01*
X166217857Y-90389286D01*
X170882143Y-90639286D02*
X171132143Y-90282143D01*
X171310715Y-90639286D02*
X171310715Y-89889286D01*
X171025000Y-89889286D01*
X170953572Y-89925000D01*
X170917857Y-89960714D01*
X170882143Y-90032143D01*
X170882143Y-90139286D01*
X170917857Y-90210714D01*
X170953572Y-90246429D01*
X171025000Y-90282143D01*
X171310715Y-90282143D01*
X170167857Y-90639286D02*
X170596429Y-90639286D01*
X170382143Y-90639286D02*
X170382143Y-89889286D01*
X170453572Y-89996429D01*
X170525000Y-90067857D01*
X170596429Y-90103571D01*
X169489286Y-89889286D02*
X169846429Y-89889286D01*
X169882143Y-90246429D01*
X169846429Y-90210714D01*
X169775000Y-90175000D01*
X169596429Y-90175000D01*
X169525000Y-90210714D01*
X169489286Y-90246429D01*
X169453571Y-90317857D01*
X169453571Y-90496429D01*
X169489286Y-90567857D01*
X169525000Y-90603571D01*
X169596429Y-90639286D01*
X169775000Y-90639286D01*
X169846429Y-90603571D01*
X169882143Y-90567857D01*
X168142857Y-96552381D02*
X168476191Y-96076190D01*
X168714286Y-96552381D02*
X168714286Y-95552381D01*
X168333333Y-95552381D01*
X168238095Y-95600000D01*
X168190476Y-95647619D01*
X168142857Y-95742857D01*
X168142857Y-95885714D01*
X168190476Y-95980952D01*
X168238095Y-96028571D01*
X168333333Y-96076190D01*
X168714286Y-96076190D01*
X167190476Y-96552381D02*
X167761905Y-96552381D01*
X167476191Y-96552381D02*
X167476191Y-95552381D01*
X167571429Y-95695238D01*
X167666667Y-95790476D01*
X167761905Y-95838095D01*
X166333333Y-95552381D02*
X166523810Y-95552381D01*
X166619048Y-95600000D01*
X166666667Y-95647619D01*
X166761905Y-95790476D01*
X166809524Y-95980952D01*
X166809524Y-96361905D01*
X166761905Y-96457143D01*
X166714286Y-96504762D01*
X166619048Y-96552381D01*
X166428571Y-96552381D01*
X166333333Y-96504762D01*
X166285714Y-96457143D01*
X166238095Y-96361905D01*
X166238095Y-96123810D01*
X166285714Y-96028571D01*
X166333333Y-95980952D01*
X166428571Y-95933333D01*
X166619048Y-95933333D01*
X166714286Y-95980952D01*
X166761905Y-96028571D01*
X166809524Y-96123810D01*
X163442857Y-96552381D02*
X163776191Y-96076190D01*
X164014286Y-96552381D02*
X164014286Y-95552381D01*
X163633333Y-95552381D01*
X163538095Y-95600000D01*
X163490476Y-95647619D01*
X163442857Y-95742857D01*
X163442857Y-95885714D01*
X163490476Y-95980952D01*
X163538095Y-96028571D01*
X163633333Y-96076190D01*
X164014286Y-96076190D01*
X162490476Y-96552381D02*
X163061905Y-96552381D01*
X162776191Y-96552381D02*
X162776191Y-95552381D01*
X162871429Y-95695238D01*
X162966667Y-95790476D01*
X163061905Y-95838095D01*
X162157143Y-95552381D02*
X161490476Y-95552381D01*
X161919048Y-96552381D01*
X160442857Y-96552381D02*
X160776191Y-96076190D01*
X161014286Y-96552381D02*
X161014286Y-95552381D01*
X160633333Y-95552381D01*
X160538095Y-95600000D01*
X160490476Y-95647619D01*
X160442857Y-95742857D01*
X160442857Y-95885714D01*
X160490476Y-95980952D01*
X160538095Y-96028571D01*
X160633333Y-96076190D01*
X161014286Y-96076190D01*
X159490476Y-96552381D02*
X160061905Y-96552381D01*
X159776191Y-96552381D02*
X159776191Y-95552381D01*
X159871429Y-95695238D01*
X159966667Y-95790476D01*
X160061905Y-95838095D01*
X158919048Y-95980952D02*
X159014286Y-95933333D01*
X159061905Y-95885714D01*
X159109524Y-95790476D01*
X159109524Y-95742857D01*
X159061905Y-95647619D01*
X159014286Y-95600000D01*
X158919048Y-95552381D01*
X158728571Y-95552381D01*
X158633333Y-95600000D01*
X158585714Y-95647619D01*
X158538095Y-95742857D01*
X158538095Y-95790476D01*
X158585714Y-95885714D01*
X158633333Y-95933333D01*
X158728571Y-95980952D01*
X158919048Y-95980952D01*
X159014286Y-96028571D01*
X159061905Y-96076190D01*
X159109524Y-96171429D01*
X159109524Y-96361905D01*
X159061905Y-96457143D01*
X159014286Y-96504762D01*
X158919048Y-96552381D01*
X158728571Y-96552381D01*
X158633333Y-96504762D01*
X158585714Y-96457143D01*
X158538095Y-96361905D01*
X158538095Y-96171429D01*
X158585714Y-96076190D01*
X158633333Y-96028571D01*
X158728571Y-95980952D01*
X163182143Y-90639286D02*
X163432143Y-90282143D01*
X163610715Y-90639286D02*
X163610715Y-89889286D01*
X163325000Y-89889286D01*
X163253572Y-89925000D01*
X163217857Y-89960714D01*
X163182143Y-90032143D01*
X163182143Y-90139286D01*
X163217857Y-90210714D01*
X163253572Y-90246429D01*
X163325000Y-90282143D01*
X163610715Y-90282143D01*
X162467857Y-90639286D02*
X162896429Y-90639286D01*
X162682143Y-90639286D02*
X162682143Y-89889286D01*
X162753572Y-89996429D01*
X162825000Y-90067857D01*
X162896429Y-90103571D01*
X162110714Y-90639286D02*
X161967857Y-90639286D01*
X161896429Y-90603571D01*
X161860714Y-90567857D01*
X161789286Y-90460714D01*
X161753571Y-90317857D01*
X161753571Y-90032143D01*
X161789286Y-89960714D01*
X161825000Y-89925000D01*
X161896429Y-89889286D01*
X162039286Y-89889286D01*
X162110714Y-89925000D01*
X162146429Y-89960714D01*
X162182143Y-90032143D01*
X162182143Y-90210714D01*
X162146429Y-90282143D01*
X162110714Y-90317857D01*
X162039286Y-90353571D01*
X161896429Y-90353571D01*
X161825000Y-90317857D01*
X161789286Y-90282143D01*
X161753571Y-90210714D01*
X160082143Y-90639286D02*
X160332143Y-90282143D01*
X160510715Y-90639286D02*
X160510715Y-89889286D01*
X160225000Y-89889286D01*
X160153572Y-89925000D01*
X160117857Y-89960714D01*
X160082143Y-90032143D01*
X160082143Y-90139286D01*
X160117857Y-90210714D01*
X160153572Y-90246429D01*
X160225000Y-90282143D01*
X160510715Y-90282143D01*
X159796429Y-89960714D02*
X159760715Y-89925000D01*
X159689286Y-89889286D01*
X159510715Y-89889286D01*
X159439286Y-89925000D01*
X159403572Y-89960714D01*
X159367857Y-90032143D01*
X159367857Y-90103571D01*
X159403572Y-90210714D01*
X159832143Y-90639286D01*
X159367857Y-90639286D01*
X158903571Y-89889286D02*
X158832143Y-89889286D01*
X158760714Y-89925000D01*
X158725000Y-89960714D01*
X158689286Y-90032143D01*
X158653571Y-90175000D01*
X158653571Y-90353571D01*
X158689286Y-90496429D01*
X158725000Y-90567857D01*
X158760714Y-90603571D01*
X158832143Y-90639286D01*
X158903571Y-90639286D01*
X158975000Y-90603571D01*
X159010714Y-90567857D01*
X159046429Y-90496429D01*
X159082143Y-90353571D01*
X159082143Y-90175000D01*
X159046429Y-90032143D01*
X159010714Y-89960714D01*
X158975000Y-89925000D01*
X158903571Y-89889286D01*
X182682143Y-90639286D02*
X182932143Y-90282143D01*
X183110715Y-90639286D02*
X183110715Y-89889286D01*
X182825000Y-89889286D01*
X182753572Y-89925000D01*
X182717857Y-89960714D01*
X182682143Y-90032143D01*
X182682143Y-90139286D01*
X182717857Y-90210714D01*
X182753572Y-90246429D01*
X182825000Y-90282143D01*
X183110715Y-90282143D01*
X182396429Y-89960714D02*
X182360715Y-89925000D01*
X182289286Y-89889286D01*
X182110715Y-89889286D01*
X182039286Y-89925000D01*
X182003572Y-89960714D01*
X181967857Y-90032143D01*
X181967857Y-90103571D01*
X182003572Y-90210714D01*
X182432143Y-90639286D01*
X181967857Y-90639286D01*
X181253571Y-90639286D02*
X181682143Y-90639286D01*
X181467857Y-90639286D02*
X181467857Y-89889286D01*
X181539286Y-89996429D01*
X181610714Y-90067857D01*
X181682143Y-90103571D01*
X185882143Y-90639286D02*
X186132143Y-90282143D01*
X186310715Y-90639286D02*
X186310715Y-89889286D01*
X186025000Y-89889286D01*
X185953572Y-89925000D01*
X185917857Y-89960714D01*
X185882143Y-90032143D01*
X185882143Y-90139286D01*
X185917857Y-90210714D01*
X185953572Y-90246429D01*
X186025000Y-90282143D01*
X186310715Y-90282143D01*
X185596429Y-89960714D02*
X185560715Y-89925000D01*
X185489286Y-89889286D01*
X185310715Y-89889286D01*
X185239286Y-89925000D01*
X185203572Y-89960714D01*
X185167857Y-90032143D01*
X185167857Y-90103571D01*
X185203572Y-90210714D01*
X185632143Y-90639286D01*
X185167857Y-90639286D01*
X184882143Y-89960714D02*
X184846429Y-89925000D01*
X184775000Y-89889286D01*
X184596429Y-89889286D01*
X184525000Y-89925000D01*
X184489286Y-89960714D01*
X184453571Y-90032143D01*
X184453571Y-90103571D01*
X184489286Y-90210714D01*
X184917857Y-90639286D01*
X184453571Y-90639286D01*
X183642857Y-96552381D02*
X183976191Y-96076190D01*
X184214286Y-96552381D02*
X184214286Y-95552381D01*
X183833333Y-95552381D01*
X183738095Y-95600000D01*
X183690476Y-95647619D01*
X183642857Y-95742857D01*
X183642857Y-95885714D01*
X183690476Y-95980952D01*
X183738095Y-96028571D01*
X183833333Y-96076190D01*
X184214286Y-96076190D01*
X183261905Y-95647619D02*
X183214286Y-95600000D01*
X183119048Y-95552381D01*
X182880952Y-95552381D01*
X182785714Y-95600000D01*
X182738095Y-95647619D01*
X182690476Y-95742857D01*
X182690476Y-95838095D01*
X182738095Y-95980952D01*
X183309524Y-96552381D01*
X182690476Y-96552381D01*
X182357143Y-95552381D02*
X181738095Y-95552381D01*
X182071429Y-95933333D01*
X181928571Y-95933333D01*
X181833333Y-95980952D01*
X181785714Y-96028571D01*
X181738095Y-96123810D01*
X181738095Y-96361905D01*
X181785714Y-96457143D01*
X181833333Y-96504762D01*
X181928571Y-96552381D01*
X182214286Y-96552381D01*
X182309524Y-96504762D01*
X182357143Y-96457143D01*
X178342857Y-96552381D02*
X178676191Y-96076190D01*
X178914286Y-96552381D02*
X178914286Y-95552381D01*
X178533333Y-95552381D01*
X178438095Y-95600000D01*
X178390476Y-95647619D01*
X178342857Y-95742857D01*
X178342857Y-95885714D01*
X178390476Y-95980952D01*
X178438095Y-96028571D01*
X178533333Y-96076190D01*
X178914286Y-96076190D01*
X177961905Y-95647619D02*
X177914286Y-95600000D01*
X177819048Y-95552381D01*
X177580952Y-95552381D01*
X177485714Y-95600000D01*
X177438095Y-95647619D01*
X177390476Y-95742857D01*
X177390476Y-95838095D01*
X177438095Y-95980952D01*
X178009524Y-96552381D01*
X177390476Y-96552381D01*
X176533333Y-95885714D02*
X176533333Y-96552381D01*
X176771429Y-95504762D02*
X177009524Y-96219048D01*
X176390476Y-96219048D01*
X175342857Y-96552381D02*
X175676191Y-96076190D01*
X175914286Y-96552381D02*
X175914286Y-95552381D01*
X175533333Y-95552381D01*
X175438095Y-95600000D01*
X175390476Y-95647619D01*
X175342857Y-95742857D01*
X175342857Y-95885714D01*
X175390476Y-95980952D01*
X175438095Y-96028571D01*
X175533333Y-96076190D01*
X175914286Y-96076190D01*
X174961905Y-95647619D02*
X174914286Y-95600000D01*
X174819048Y-95552381D01*
X174580952Y-95552381D01*
X174485714Y-95600000D01*
X174438095Y-95647619D01*
X174390476Y-95742857D01*
X174390476Y-95838095D01*
X174438095Y-95980952D01*
X175009524Y-96552381D01*
X174390476Y-96552381D01*
X173485714Y-95552381D02*
X173961905Y-95552381D01*
X174009524Y-96028571D01*
X173961905Y-95980952D01*
X173866667Y-95933333D01*
X173628571Y-95933333D01*
X173533333Y-95980952D01*
X173485714Y-96028571D01*
X173438095Y-96123810D01*
X173438095Y-96361905D01*
X173485714Y-96457143D01*
X173533333Y-96504762D01*
X173628571Y-96552381D01*
X173866667Y-96552381D01*
X173961905Y-96504762D01*
X174009524Y-96457143D01*
X178282143Y-90639286D02*
X178532143Y-90282143D01*
X178710715Y-90639286D02*
X178710715Y-89889286D01*
X178425000Y-89889286D01*
X178353572Y-89925000D01*
X178317857Y-89960714D01*
X178282143Y-90032143D01*
X178282143Y-90139286D01*
X178317857Y-90210714D01*
X178353572Y-90246429D01*
X178425000Y-90282143D01*
X178710715Y-90282143D01*
X177996429Y-89960714D02*
X177960715Y-89925000D01*
X177889286Y-89889286D01*
X177710715Y-89889286D01*
X177639286Y-89925000D01*
X177603572Y-89960714D01*
X177567857Y-90032143D01*
X177567857Y-90103571D01*
X177603572Y-90210714D01*
X178032143Y-90639286D01*
X177567857Y-90639286D01*
X176925000Y-89889286D02*
X177067857Y-89889286D01*
X177139286Y-89925000D01*
X177175000Y-89960714D01*
X177246429Y-90067857D01*
X177282143Y-90210714D01*
X177282143Y-90496429D01*
X177246429Y-90567857D01*
X177210714Y-90603571D01*
X177139286Y-90639286D01*
X176996429Y-90639286D01*
X176925000Y-90603571D01*
X176889286Y-90567857D01*
X176853571Y-90496429D01*
X176853571Y-90317857D01*
X176889286Y-90246429D01*
X176925000Y-90210714D01*
X176996429Y-90175000D01*
X177139286Y-90175000D01*
X177210714Y-90210714D01*
X177246429Y-90246429D01*
X177282143Y-90317857D01*
X175082143Y-90639286D02*
X175332143Y-90282143D01*
X175510715Y-90639286D02*
X175510715Y-89889286D01*
X175225000Y-89889286D01*
X175153572Y-89925000D01*
X175117857Y-89960714D01*
X175082143Y-90032143D01*
X175082143Y-90139286D01*
X175117857Y-90210714D01*
X175153572Y-90246429D01*
X175225000Y-90282143D01*
X175510715Y-90282143D01*
X174796429Y-89960714D02*
X174760715Y-89925000D01*
X174689286Y-89889286D01*
X174510715Y-89889286D01*
X174439286Y-89925000D01*
X174403572Y-89960714D01*
X174367857Y-90032143D01*
X174367857Y-90103571D01*
X174403572Y-90210714D01*
X174832143Y-90639286D01*
X174367857Y-90639286D01*
X174117857Y-89889286D02*
X173617857Y-89889286D01*
X173939286Y-90639286D01*
X174061905Y-104852381D02*
X174061905Y-105661905D01*
X174014286Y-105757143D01*
X173966667Y-105804762D01*
X173871429Y-105852381D01*
X173680952Y-105852381D01*
X173585714Y-105804762D01*
X173538095Y-105757143D01*
X173490476Y-105661905D01*
X173490476Y-104852381D01*
X173061905Y-104947619D02*
X173014286Y-104900000D01*
X172919048Y-104852381D01*
X172680952Y-104852381D01*
X172585714Y-104900000D01*
X172538095Y-104947619D01*
X172490476Y-105042857D01*
X172490476Y-105138095D01*
X172538095Y-105280952D01*
X173109524Y-105852381D01*
X172490476Y-105852381D01*
X155761905Y-85252381D02*
X155761905Y-86061905D01*
X155714286Y-86157143D01*
X155666667Y-86204762D01*
X155571429Y-86252381D01*
X155380952Y-86252381D01*
X155285714Y-86204762D01*
X155238095Y-86157143D01*
X155190476Y-86061905D01*
X155190476Y-85252381D01*
X154809524Y-85252381D02*
X154190476Y-85252381D01*
X154523810Y-85633333D01*
X154380952Y-85633333D01*
X154285714Y-85680952D01*
X154238095Y-85728571D01*
X154190476Y-85823810D01*
X154190476Y-86061905D01*
X154238095Y-86157143D01*
X154285714Y-86204762D01*
X154380952Y-86252381D01*
X154666667Y-86252381D01*
X154761905Y-86204762D01*
X154809524Y-86157143D01*
X159061905Y-104852381D02*
X159061905Y-105661905D01*
X159014286Y-105757143D01*
X158966667Y-105804762D01*
X158871429Y-105852381D01*
X158680952Y-105852381D01*
X158585714Y-105804762D01*
X158538095Y-105757143D01*
X158490476Y-105661905D01*
X158490476Y-104852381D01*
X157585714Y-105185714D02*
X157585714Y-105852381D01*
X157823810Y-104804762D02*
X158061905Y-105519048D01*
X157442857Y-105519048D01*
X152461905Y-104852381D02*
X152461905Y-105661905D01*
X152414286Y-105757143D01*
X152366667Y-105804762D01*
X152271429Y-105852381D01*
X152080952Y-105852381D01*
X151985714Y-105804762D01*
X151938095Y-105757143D01*
X151890476Y-105661905D01*
X151890476Y-104852381D01*
X150985714Y-104852381D02*
X151176191Y-104852381D01*
X151271429Y-104900000D01*
X151319048Y-104947619D01*
X151414286Y-105090476D01*
X151461905Y-105280952D01*
X151461905Y-105661905D01*
X151414286Y-105757143D01*
X151366667Y-105804762D01*
X151271429Y-105852381D01*
X151080952Y-105852381D01*
X150985714Y-105804762D01*
X150938095Y-105757143D01*
X150890476Y-105661905D01*
X150890476Y-105423810D01*
X150938095Y-105328571D01*
X150985714Y-105280952D01*
X151080952Y-105233333D01*
X151271429Y-105233333D01*
X151366667Y-105280952D01*
X151414286Y-105328571D01*
X151461905Y-105423810D01*
X138261905Y-104852381D02*
X138261905Y-105661905D01*
X138214286Y-105757143D01*
X138166667Y-105804762D01*
X138071429Y-105852381D01*
X137880952Y-105852381D01*
X137785714Y-105804762D01*
X137738095Y-105757143D01*
X137690476Y-105661905D01*
X137690476Y-104852381D01*
X137309524Y-104852381D02*
X136642857Y-104852381D01*
X137071429Y-105852381D01*
X149838095Y-77852381D02*
X149838095Y-78661905D01*
X149790476Y-78757143D01*
X149742857Y-78804762D01*
X149647619Y-78852381D01*
X149457142Y-78852381D01*
X149361904Y-78804762D01*
X149314285Y-78757143D01*
X149266666Y-78661905D01*
X149266666Y-77852381D01*
X148266666Y-78852381D02*
X148838095Y-78852381D01*
X148552381Y-78852381D02*
X148552381Y-77852381D01*
X148647619Y-77995238D01*
X148742857Y-78090476D01*
X148838095Y-78138095D01*
X147647619Y-77852381D02*
X147552380Y-77852381D01*
X147457142Y-77900000D01*
X147409523Y-77947619D01*
X147361904Y-78042857D01*
X147314285Y-78233333D01*
X147314285Y-78471429D01*
X147361904Y-78661905D01*
X147409523Y-78757143D01*
X147457142Y-78804762D01*
X147552380Y-78852381D01*
X147647619Y-78852381D01*
X147742857Y-78804762D01*
X147790476Y-78757143D01*
X147838095Y-78661905D01*
X147885714Y-78471429D01*
X147885714Y-78233333D01*
X147838095Y-78042857D01*
X147790476Y-77947619D01*
X147742857Y-77900000D01*
X147647619Y-77852381D01*
X183361905Y-77852381D02*
X183361905Y-78661905D01*
X183314286Y-78757143D01*
X183266667Y-78804762D01*
X183171429Y-78852381D01*
X182980952Y-78852381D01*
X182885714Y-78804762D01*
X182838095Y-78757143D01*
X182790476Y-78661905D01*
X182790476Y-77852381D01*
X181838095Y-77852381D02*
X182314286Y-77852381D01*
X182361905Y-78328571D01*
X182314286Y-78280952D01*
X182219048Y-78233333D01*
X181980952Y-78233333D01*
X181885714Y-78280952D01*
X181838095Y-78328571D01*
X181790476Y-78423810D01*
X181790476Y-78661905D01*
X181838095Y-78757143D01*
X181885714Y-78804762D01*
X181980952Y-78852381D01*
X182219048Y-78852381D01*
X182314286Y-78804762D01*
X182361905Y-78757143D01*
X124061905Y-104852381D02*
X124061905Y-105661905D01*
X124014286Y-105757143D01*
X123966667Y-105804762D01*
X123871429Y-105852381D01*
X123680952Y-105852381D01*
X123585714Y-105804762D01*
X123538095Y-105757143D01*
X123490476Y-105661905D01*
X123490476Y-104852381D01*
X122966667Y-105852381D02*
X122776191Y-105852381D01*
X122680952Y-105804762D01*
X122633333Y-105757143D01*
X122538095Y-105614286D01*
X122490476Y-105423810D01*
X122490476Y-105042857D01*
X122538095Y-104947619D01*
X122585714Y-104900000D01*
X122680952Y-104852381D01*
X122871429Y-104852381D01*
X122966667Y-104900000D01*
X123014286Y-104947619D01*
X123061905Y-105042857D01*
X123061905Y-105280952D01*
X123014286Y-105376190D01*
X122966667Y-105423810D01*
X122871429Y-105471429D01*
X122680952Y-105471429D01*
X122585714Y-105423810D01*
X122538095Y-105376190D01*
X122490476Y-105280952D01*
X189166666Y-100497143D02*
X189214285Y-100544762D01*
X189357142Y-100592381D01*
X189452380Y-100592381D01*
X189595238Y-100544762D01*
X189690476Y-100449524D01*
X189738095Y-100354286D01*
X189785714Y-100163810D01*
X189785714Y-100020952D01*
X189738095Y-99830476D01*
X189690476Y-99735238D01*
X189595238Y-99640000D01*
X189452380Y-99592381D01*
X189357142Y-99592381D01*
X189214285Y-99640000D01*
X189166666Y-99687619D01*
X188214285Y-100592381D02*
X188785714Y-100592381D01*
X188500000Y-100592381D02*
X188500000Y-99592381D01*
X188595238Y-99735238D01*
X188690476Y-99830476D01*
X188785714Y-99878095D01*
X189166666Y-86857143D02*
X189214285Y-86904762D01*
X189357142Y-86952381D01*
X189452380Y-86952381D01*
X189595238Y-86904762D01*
X189690476Y-86809524D01*
X189738095Y-86714286D01*
X189785714Y-86523810D01*
X189785714Y-86380952D01*
X189738095Y-86190476D01*
X189690476Y-86095238D01*
X189595238Y-86000000D01*
X189452380Y-85952381D01*
X189357142Y-85952381D01*
X189214285Y-86000000D01*
X189166666Y-86047619D01*
X188785714Y-86047619D02*
X188738095Y-86000000D01*
X188642857Y-85952381D01*
X188404761Y-85952381D01*
X188309523Y-86000000D01*
X188261904Y-86047619D01*
X188214285Y-86142857D01*
X188214285Y-86238095D01*
X188261904Y-86380952D01*
X188833333Y-86952381D01*
X188214285Y-86952381D01*
M02*
