M48
;DRILL file {KiCad 4.0.4-1.fc25-product} date Mon Apr  3 21:22:59 2017
;FORMAT={-:-/ absolute / inch / decimal}
FMAT,2
INCH,TZ
T1C0.016
T2C0.031
T3C0.040
T4C0.126
%
G90
G05
M72
T1
X4.7795Y-3.3425
X4.7795Y-3.437
X4.7953Y-4.2598
X4.7953Y-4.3622
X4.9173Y-3.2992
X5.0197Y-3.2992
X5.0945Y-4.2598
X5.1457Y-3.1969
X5.2244Y-4.4173
X5.4843Y-3.7874
X5.5118Y-3.7717
X5.563Y-4.2598
X5.6099Y-3.354
X5.6102Y-3.7874
X5.6496Y-3.1891
X5.6654Y-3.7126
X5.6959Y-3.1891
X5.7275Y-3.1891
X5.752Y-3.7126
X5.8121Y-3.189
X5.8504Y-3.1891
X5.8622Y-3.8425
X5.9016Y-3.1891
X5.9016Y-3.305
X5.9055Y-3.7717
X5.9123Y-4.3633
X5.937Y-4.2598
X5.9488Y-3.1891
X5.9921Y-3.4646
X6.Y-3.1891
X6.0118Y-4.2598
X6.0315Y-3.6575
X6.0472Y-3.811
X6.1575Y-3.7047
X6.1575Y-3.9331
X6.164Y-3.3628
X6.2047Y-3.1879
X6.2442Y-3.1891
X6.273Y-3.7891
X6.2785Y-3.189
X6.2992Y-3.7717
X6.3031Y-3.3071
X6.3632Y-3.1879
X6.3839Y-4.3219
X6.3976Y-3.7874
X6.4016Y-3.1879
X6.4094Y-4.2598
X6.4433Y-4.3494
X6.4528Y-3.1879
X6.4528Y-3.7126
X6.5Y-3.1879
X6.503Y-3.3068
X6.5394Y-3.7126
X6.5394Y-3.8425
X6.5512Y-3.1891
X6.6929Y-3.7717
X6.8346Y-3.8425
X6.8608Y-4.3636
X6.8819Y-4.2598
X6.8898Y-3.7717
X6.9567Y-4.2598
X6.9882Y-3.7874
X6.9882Y-3.1968
X6.9882Y-3.2283
X7.0118Y-3.3031
X7.0394Y-3.1968
X7.0433Y-3.7126
X7.1299Y-3.7146
X7.1417Y-3.1969
X7.185Y-3.7874
X7.189Y-3.1979
X7.189Y-3.2992
X7.26Y-3.1967
X7.2993Y-3.1968
X7.3415Y-3.7126
X7.3485Y-3.1969
X7.3543Y-4.2598
X7.4055Y-3.3425
X7.4606Y-3.1811
T2
X4.9181Y-3.4795
X4.9181Y-4.0795
X5.0181Y-3.4795
X5.0181Y-4.0795
X5.1181Y-3.4795
X5.1181Y-4.0795
X5.2181Y-3.4795
X5.2181Y-4.0795
X5.3134Y-3.3071
X5.3181Y-3.4795
X5.3181Y-4.0795
X5.4134Y-3.3071
X5.5087Y-3.4795
X5.5087Y-4.0795
X5.5134Y-3.3071
X5.6087Y-3.4795
X5.6087Y-4.0795
X5.7087Y-3.4795
X5.7087Y-4.0795
X5.8087Y-3.4795
X5.8087Y-4.0795
X5.9087Y-3.4795
X5.9087Y-4.0795
X6.2961Y-3.4795
X6.2961Y-4.0795
X6.3961Y-3.4795
X6.3961Y-4.0795
X6.4961Y-3.4795
X6.4961Y-4.0795
X6.5961Y-3.4795
X6.5961Y-4.0795
X6.6913Y-3.3071
X6.6961Y-3.4795
X6.6961Y-4.0795
X6.7913Y-3.3071
X6.8866Y-3.4795
X6.8866Y-4.0795
X6.8913Y-3.3071
X6.9866Y-3.4795
X6.9866Y-4.0795
X7.0866Y-3.4795
X7.0866Y-4.0795
X7.1866Y-3.4795
X7.1866Y-4.0795
X7.2866Y-3.4795
X7.2866Y-4.0795
T3
X7.4409Y-3.6795
X7.4409Y-3.7795
X7.4409Y-3.8795
T4
X4.5472Y-3.189
X4.5472Y-4.3701
X7.6575Y-3.189
X7.6575Y-4.3701
T0
M30
