G04 #@! TF.FileFunction,Legend,Top*
%FSLAX46Y46*%
G04 Gerber Fmt 4.6, Leading zero omitted, Abs format (unit mm)*
G04 Created by KiCad (PCBNEW 4.0.4-1.fc25-product) date Sun Mar 19 23:03:09 2017*
%MOMM*%
%LPD*%
G01*
G04 APERTURE LIST*
%ADD10C,0.100000*%
%ADD11C,0.300000*%
%ADD12C,0.050000*%
%ADD13C,0.150000*%
%ADD14C,0.203200*%
G04 APERTURE END LIST*
D10*
D11*
X187785715Y-83507143D02*
X188000001Y-83578571D01*
X188357144Y-83578571D01*
X188500001Y-83507143D01*
X188571430Y-83435714D01*
X188642858Y-83292857D01*
X188642858Y-83150000D01*
X188571430Y-83007143D01*
X188500001Y-82935714D01*
X188357144Y-82864286D01*
X188071430Y-82792857D01*
X187928572Y-82721429D01*
X187857144Y-82650000D01*
X187785715Y-82507143D01*
X187785715Y-82364286D01*
X187857144Y-82221429D01*
X187928572Y-82150000D01*
X188071430Y-82078571D01*
X188428572Y-82078571D01*
X188642858Y-82150000D01*
X189857143Y-83507143D02*
X189714286Y-83578571D01*
X189428572Y-83578571D01*
X189285715Y-83507143D01*
X189214286Y-83364286D01*
X189214286Y-82792857D01*
X189285715Y-82650000D01*
X189428572Y-82578571D01*
X189714286Y-82578571D01*
X189857143Y-82650000D01*
X189928572Y-82792857D01*
X189928572Y-82935714D01*
X189214286Y-83078571D01*
X191214286Y-83507143D02*
X191071429Y-83578571D01*
X190785715Y-83578571D01*
X190642857Y-83507143D01*
X190571429Y-83435714D01*
X190500000Y-83292857D01*
X190500000Y-82864286D01*
X190571429Y-82721429D01*
X190642857Y-82650000D01*
X190785715Y-82578571D01*
X191071429Y-82578571D01*
X191214286Y-82650000D01*
X118750000Y-84178571D02*
X118750000Y-82678571D01*
X119321428Y-82678571D01*
X119464286Y-82750000D01*
X119535714Y-82821429D01*
X119607143Y-82964286D01*
X119607143Y-83178571D01*
X119535714Y-83321429D01*
X119464286Y-83392857D01*
X119321428Y-83464286D01*
X118750000Y-83464286D01*
X120250000Y-84178571D02*
X120250000Y-82678571D01*
X120750000Y-83750000D01*
X121250000Y-82678571D01*
X121250000Y-84178571D01*
D12*
X174965063Y-83269615D02*
G75*
G03X170000000Y-83400000I-2465063J-730385D01*
G01*
D13*
X172500000Y-84000000D02*
X170000000Y-83400000D01*
X177500000Y-80400000D02*
X167500000Y-80400000D01*
X167500000Y-80400000D02*
X167500000Y-85600000D01*
X177500000Y-85600000D02*
X167500000Y-85600000D01*
X177500000Y-80400000D02*
X177500000Y-85600000D01*
X190250000Y-87600000D02*
X190250000Y-84900000D01*
X188750000Y-87600000D02*
X188750000Y-84900000D01*
X189650000Y-86100000D02*
X189400000Y-86100000D01*
X189400000Y-86100000D02*
X189550000Y-86250000D01*
X189150000Y-86350000D02*
X189850000Y-86350000D01*
X189500000Y-86000000D02*
X189500000Y-85650000D01*
X189500000Y-86350000D02*
X189150000Y-86000000D01*
X189150000Y-86000000D02*
X189850000Y-86000000D01*
X189850000Y-86000000D02*
X189500000Y-86350000D01*
X120750000Y-87600000D02*
X120750000Y-84900000D01*
X119250000Y-87600000D02*
X119250000Y-84900000D01*
X120150000Y-86100000D02*
X119900000Y-86100000D01*
X119900000Y-86100000D02*
X120050000Y-86250000D01*
X119650000Y-86350000D02*
X120350000Y-86350000D01*
X120000000Y-86000000D02*
X120000000Y-85650000D01*
X120000000Y-86350000D02*
X119650000Y-86000000D01*
X119650000Y-86000000D02*
X120350000Y-86000000D01*
X120350000Y-86000000D02*
X120000000Y-86350000D01*
X155750000Y-92600000D02*
X155750000Y-89900000D01*
X154250000Y-92600000D02*
X154250000Y-89900000D01*
X155150000Y-91100000D02*
X154900000Y-91100000D01*
X154900000Y-91100000D02*
X155050000Y-91250000D01*
X154650000Y-91350000D02*
X155350000Y-91350000D01*
X155000000Y-91000000D02*
X155000000Y-90650000D01*
X155000000Y-91350000D02*
X154650000Y-91000000D01*
X154650000Y-91000000D02*
X155350000Y-91000000D01*
X155350000Y-91000000D02*
X155000000Y-91350000D01*
X155750000Y-102600000D02*
X155750000Y-99900000D01*
X154250000Y-102600000D02*
X154250000Y-99900000D01*
X155150000Y-101100000D02*
X154900000Y-101100000D01*
X154900000Y-101100000D02*
X155050000Y-101250000D01*
X154650000Y-101350000D02*
X155350000Y-101350000D01*
X155000000Y-101000000D02*
X155000000Y-100650000D01*
X155000000Y-101350000D02*
X154650000Y-101000000D01*
X154650000Y-101000000D02*
X155350000Y-101000000D01*
X155350000Y-101000000D02*
X155000000Y-101350000D01*
X187700000Y-92450000D02*
X187700000Y-94000000D01*
X189000000Y-92450000D02*
X187700000Y-92450000D01*
X193191000Y-93873000D02*
X199033000Y-93873000D01*
X199033000Y-93873000D02*
X199033000Y-94127000D01*
X199033000Y-94127000D02*
X193191000Y-94127000D01*
X193191000Y-94127000D02*
X193191000Y-94000000D01*
X193191000Y-94000000D02*
X199033000Y-94000000D01*
X190524000Y-93746000D02*
X190143000Y-93746000D01*
X190524000Y-94254000D02*
X190143000Y-94254000D01*
X190524000Y-96286000D02*
X190143000Y-96286000D01*
X190524000Y-96794000D02*
X190143000Y-96794000D01*
X190524000Y-98826000D02*
X190143000Y-98826000D01*
X190524000Y-99334000D02*
X190143000Y-99334000D01*
X193064000Y-95270000D02*
X193064000Y-92730000D01*
X199160000Y-94254000D02*
X193064000Y-94254000D01*
X199160000Y-93746000D02*
X199160000Y-94254000D01*
X193064000Y-93746000D02*
X199160000Y-93746000D01*
X190524000Y-95270000D02*
X193064000Y-95270000D01*
X190524000Y-92730000D02*
X190524000Y-95270000D01*
X190524000Y-92730000D02*
X193064000Y-92730000D01*
X190524000Y-97810000D02*
X193064000Y-97810000D01*
X190524000Y-97810000D02*
X190524000Y-100350000D01*
X193064000Y-98826000D02*
X199160000Y-98826000D01*
X199160000Y-98826000D02*
X199160000Y-99334000D01*
X199160000Y-99334000D02*
X193064000Y-99334000D01*
X193064000Y-100350000D02*
X193064000Y-97810000D01*
X193064000Y-97810000D02*
X193064000Y-95270000D01*
X199160000Y-96794000D02*
X193064000Y-96794000D01*
X199160000Y-96286000D02*
X199160000Y-96794000D01*
X193064000Y-96286000D02*
X199160000Y-96286000D01*
X190524000Y-97810000D02*
X193064000Y-97810000D01*
X190524000Y-95270000D02*
X190524000Y-97810000D01*
X190524000Y-95270000D02*
X193064000Y-95270000D01*
X190524000Y-100350000D02*
X193064000Y-100350000D01*
X134447214Y-101000000D02*
G75*
G03X134447214Y-101000000I-447214J0D01*
G01*
X127000000Y-91000000D02*
X126000000Y-96000000D01*
X126000000Y-96000000D02*
X125000000Y-101000000D01*
X125000000Y-101000000D02*
X132000000Y-101000000D01*
X132000000Y-101000000D02*
X133000000Y-96000000D01*
X134000000Y-91000000D02*
X133000000Y-96000000D01*
X133000000Y-96000000D02*
X126000000Y-96000000D01*
X127000000Y-91000000D02*
X134000000Y-91000000D01*
X136300000Y-105600000D02*
X123700000Y-105600000D01*
X123700000Y-90300000D02*
X123700000Y-101700000D01*
X136300000Y-90300000D02*
X136300000Y-101700000D01*
X123700000Y-86400000D02*
X136300000Y-86400000D01*
X149447214Y-101000000D02*
G75*
G03X149447214Y-101000000I-447214J0D01*
G01*
X142000000Y-91000000D02*
X141000000Y-96000000D01*
X141000000Y-96000000D02*
X140000000Y-101000000D01*
X140000000Y-101000000D02*
X147000000Y-101000000D01*
X147000000Y-101000000D02*
X148000000Y-96000000D01*
X149000000Y-91000000D02*
X148000000Y-96000000D01*
X148000000Y-96000000D02*
X141000000Y-96000000D01*
X142000000Y-91000000D02*
X149000000Y-91000000D01*
X151300000Y-105600000D02*
X138700000Y-105600000D01*
X138700000Y-90300000D02*
X138700000Y-101700000D01*
X151300000Y-90300000D02*
X151300000Y-101700000D01*
X138700000Y-86400000D02*
X151300000Y-86400000D01*
X169447214Y-101000000D02*
G75*
G03X169447214Y-101000000I-447214J0D01*
G01*
X162000000Y-91000000D02*
X161000000Y-96000000D01*
X161000000Y-96000000D02*
X160000000Y-101000000D01*
X160000000Y-101000000D02*
X167000000Y-101000000D01*
X167000000Y-101000000D02*
X168000000Y-96000000D01*
X169000000Y-91000000D02*
X168000000Y-96000000D01*
X168000000Y-96000000D02*
X161000000Y-96000000D01*
X162000000Y-91000000D02*
X169000000Y-91000000D01*
X171300000Y-105600000D02*
X158700000Y-105600000D01*
X158700000Y-90300000D02*
X158700000Y-101700000D01*
X171300000Y-90300000D02*
X171300000Y-101700000D01*
X158700000Y-86400000D02*
X171300000Y-86400000D01*
X184447214Y-101000000D02*
G75*
G03X184447214Y-101000000I-447214J0D01*
G01*
X177000000Y-91000000D02*
X176000000Y-96000000D01*
X176000000Y-96000000D02*
X175000000Y-101000000D01*
X175000000Y-101000000D02*
X182000000Y-101000000D01*
X182000000Y-101000000D02*
X183000000Y-96000000D01*
X184000000Y-91000000D02*
X183000000Y-96000000D01*
X183000000Y-96000000D02*
X176000000Y-96000000D01*
X177000000Y-91000000D02*
X184000000Y-91000000D01*
X186300000Y-105600000D02*
X173700000Y-105600000D01*
X173700000Y-90300000D02*
X173700000Y-101700000D01*
X186300000Y-90300000D02*
X186300000Y-101700000D01*
X173700000Y-86400000D02*
X186300000Y-86400000D01*
D12*
X139965063Y-83269615D02*
G75*
G03X135000000Y-83400000I-2465063J-730385D01*
G01*
D13*
X137500000Y-84000000D02*
X135000000Y-83400000D01*
X142500000Y-80400000D02*
X132500000Y-80400000D01*
X132500000Y-80400000D02*
X132500000Y-85600000D01*
X142500000Y-85600000D02*
X132500000Y-85600000D01*
X142500000Y-80400000D02*
X142500000Y-85600000D01*
D14*
X168218286Y-79661238D02*
X168363429Y-79709619D01*
X168605333Y-79709619D01*
X168702095Y-79661238D01*
X168750476Y-79612857D01*
X168798857Y-79516095D01*
X168798857Y-79419333D01*
X168750476Y-79322571D01*
X168702095Y-79274190D01*
X168605333Y-79225810D01*
X168411810Y-79177429D01*
X168315048Y-79129048D01*
X168266667Y-79080667D01*
X168218286Y-78983905D01*
X168218286Y-78887143D01*
X168266667Y-78790381D01*
X168315048Y-78742000D01*
X168411810Y-78693619D01*
X168653714Y-78693619D01*
X168798857Y-78742000D01*
X169137524Y-78693619D02*
X169379429Y-79709619D01*
X169572952Y-78983905D01*
X169766476Y-79709619D01*
X170008381Y-78693619D01*
X170395429Y-79709619D02*
X170395429Y-78693619D01*
X170734096Y-78693619D02*
X171314667Y-78693619D01*
X171024382Y-79709619D02*
X171024382Y-78693619D01*
X172233905Y-79612857D02*
X172185524Y-79661238D01*
X172040381Y-79709619D01*
X171943619Y-79709619D01*
X171798477Y-79661238D01*
X171701715Y-79564476D01*
X171653334Y-79467714D01*
X171604953Y-79274190D01*
X171604953Y-79129048D01*
X171653334Y-78935524D01*
X171701715Y-78838762D01*
X171798477Y-78742000D01*
X171943619Y-78693619D01*
X172040381Y-78693619D01*
X172185524Y-78742000D01*
X172233905Y-78790381D01*
X172669334Y-79709619D02*
X172669334Y-78693619D01*
X172669334Y-79177429D02*
X173249905Y-79177429D01*
X173249905Y-79709619D02*
X173249905Y-78693619D01*
X173491810Y-79806381D02*
X174265905Y-79806381D01*
X174507810Y-79709619D02*
X174507810Y-78693619D01*
X174846476Y-79419333D01*
X175185143Y-78693619D01*
X175185143Y-79709619D01*
X175668953Y-79709619D02*
X175668953Y-78693619D01*
X176152763Y-79709619D02*
X176152763Y-78693619D01*
X176733334Y-79709619D01*
X176733334Y-78693619D01*
D13*
X188761905Y-89452381D02*
X188761905Y-88452381D01*
X189000000Y-88452381D01*
X189142858Y-88500000D01*
X189238096Y-88595238D01*
X189285715Y-88690476D01*
X189333334Y-88880952D01*
X189333334Y-89023810D01*
X189285715Y-89214286D01*
X189238096Y-89309524D01*
X189142858Y-89404762D01*
X189000000Y-89452381D01*
X188761905Y-89452381D01*
X190285715Y-89452381D02*
X189714286Y-89452381D01*
X190000000Y-89452381D02*
X190000000Y-88452381D01*
X189904762Y-88595238D01*
X189809524Y-88690476D01*
X189714286Y-88738095D01*
X119261905Y-89452381D02*
X119261905Y-88452381D01*
X119500000Y-88452381D01*
X119642858Y-88500000D01*
X119738096Y-88595238D01*
X119785715Y-88690476D01*
X119833334Y-88880952D01*
X119833334Y-89023810D01*
X119785715Y-89214286D01*
X119738096Y-89309524D01*
X119642858Y-89404762D01*
X119500000Y-89452381D01*
X119261905Y-89452381D01*
X120214286Y-88547619D02*
X120261905Y-88500000D01*
X120357143Y-88452381D01*
X120595239Y-88452381D01*
X120690477Y-88500000D01*
X120738096Y-88547619D01*
X120785715Y-88642857D01*
X120785715Y-88738095D01*
X120738096Y-88880952D01*
X120166667Y-89452381D01*
X120785715Y-89452381D01*
X154261905Y-88452381D02*
X154261905Y-87452381D01*
X154500000Y-87452381D01*
X154642858Y-87500000D01*
X154738096Y-87595238D01*
X154785715Y-87690476D01*
X154833334Y-87880952D01*
X154833334Y-88023810D01*
X154785715Y-88214286D01*
X154738096Y-88309524D01*
X154642858Y-88404762D01*
X154500000Y-88452381D01*
X154261905Y-88452381D01*
X155166667Y-87452381D02*
X155785715Y-87452381D01*
X155452381Y-87833333D01*
X155595239Y-87833333D01*
X155690477Y-87880952D01*
X155738096Y-87928571D01*
X155785715Y-88023810D01*
X155785715Y-88261905D01*
X155738096Y-88357143D01*
X155690477Y-88404762D01*
X155595239Y-88452381D01*
X155309524Y-88452381D01*
X155214286Y-88404762D01*
X155166667Y-88357143D01*
X154261905Y-98452381D02*
X154261905Y-97452381D01*
X154500000Y-97452381D01*
X154642858Y-97500000D01*
X154738096Y-97595238D01*
X154785715Y-97690476D01*
X154833334Y-97880952D01*
X154833334Y-98023810D01*
X154785715Y-98214286D01*
X154738096Y-98309524D01*
X154642858Y-98404762D01*
X154500000Y-98452381D01*
X154261905Y-98452381D01*
X155690477Y-97785714D02*
X155690477Y-98452381D01*
X155452381Y-97404762D02*
X155214286Y-98119048D01*
X155833334Y-98119048D01*
X189261905Y-91452381D02*
X189261905Y-90452381D01*
X189642858Y-90452381D01*
X189738096Y-90500000D01*
X189785715Y-90547619D01*
X189833334Y-90642857D01*
X189833334Y-90785714D01*
X189785715Y-90880952D01*
X189738096Y-90928571D01*
X189642858Y-90976190D01*
X189261905Y-90976190D01*
X190785715Y-91452381D02*
X190214286Y-91452381D01*
X190500000Y-91452381D02*
X190500000Y-90452381D01*
X190404762Y-90595238D01*
X190309524Y-90690476D01*
X190214286Y-90738095D01*
X126380952Y-106452381D02*
X127047619Y-106452381D01*
X126619047Y-107452381D01*
X127380952Y-107404762D02*
X127523809Y-107452381D01*
X127761905Y-107452381D01*
X127857143Y-107404762D01*
X127904762Y-107357143D01*
X127952381Y-107261905D01*
X127952381Y-107166667D01*
X127904762Y-107071429D01*
X127857143Y-107023810D01*
X127761905Y-106976190D01*
X127571428Y-106928571D01*
X127476190Y-106880952D01*
X127428571Y-106833333D01*
X127380952Y-106738095D01*
X127380952Y-106642857D01*
X127428571Y-106547619D01*
X127476190Y-106500000D01*
X127571428Y-106452381D01*
X127809524Y-106452381D01*
X127952381Y-106500000D01*
X128380952Y-106928571D02*
X128714286Y-106928571D01*
X128857143Y-107452381D02*
X128380952Y-107452381D01*
X128380952Y-106452381D01*
X128857143Y-106452381D01*
X129809524Y-106500000D02*
X129714286Y-106452381D01*
X129571429Y-106452381D01*
X129428571Y-106500000D01*
X129333333Y-106595238D01*
X129285714Y-106690476D01*
X129238095Y-106880952D01*
X129238095Y-107023810D01*
X129285714Y-107214286D01*
X129333333Y-107309524D01*
X129428571Y-107404762D01*
X129571429Y-107452381D01*
X129666667Y-107452381D01*
X129809524Y-107404762D01*
X129857143Y-107357143D01*
X129857143Y-107023810D01*
X129666667Y-107023810D01*
X130285714Y-107452381D02*
X130285714Y-106452381D01*
X130619048Y-107166667D01*
X130952381Y-106452381D01*
X130952381Y-107452381D01*
X131190476Y-107547619D02*
X131952381Y-107547619D01*
X132190476Y-107452381D02*
X132190476Y-106452381D01*
X132190476Y-106928571D02*
X132761905Y-106928571D01*
X132761905Y-107452381D02*
X132761905Y-106452381D01*
X133095238Y-106452381D02*
X133666667Y-106452381D01*
X133380952Y-107452381D02*
X133380952Y-106452381D01*
X141238095Y-106452381D02*
X141904762Y-106452381D01*
X141476190Y-107452381D01*
X142238095Y-107404762D02*
X142380952Y-107452381D01*
X142619048Y-107452381D01*
X142714286Y-107404762D01*
X142761905Y-107357143D01*
X142809524Y-107261905D01*
X142809524Y-107166667D01*
X142761905Y-107071429D01*
X142714286Y-107023810D01*
X142619048Y-106976190D01*
X142428571Y-106928571D01*
X142333333Y-106880952D01*
X142285714Y-106833333D01*
X142238095Y-106738095D01*
X142238095Y-106642857D01*
X142285714Y-106547619D01*
X142333333Y-106500000D01*
X142428571Y-106452381D01*
X142666667Y-106452381D01*
X142809524Y-106500000D01*
X143238095Y-106928571D02*
X143571429Y-106928571D01*
X143714286Y-107452381D02*
X143238095Y-107452381D01*
X143238095Y-106452381D01*
X143714286Y-106452381D01*
X144666667Y-106500000D02*
X144571429Y-106452381D01*
X144428572Y-106452381D01*
X144285714Y-106500000D01*
X144190476Y-106595238D01*
X144142857Y-106690476D01*
X144095238Y-106880952D01*
X144095238Y-107023810D01*
X144142857Y-107214286D01*
X144190476Y-107309524D01*
X144285714Y-107404762D01*
X144428572Y-107452381D01*
X144523810Y-107452381D01*
X144666667Y-107404762D01*
X144714286Y-107357143D01*
X144714286Y-107023810D01*
X144523810Y-107023810D01*
X145142857Y-107452381D02*
X145142857Y-106452381D01*
X145476191Y-107166667D01*
X145809524Y-106452381D01*
X145809524Y-107452381D01*
X146047619Y-107547619D02*
X146809524Y-107547619D01*
X147047619Y-107452381D02*
X147047619Y-106452381D01*
X147047619Y-106928571D02*
X147619048Y-106928571D01*
X147619048Y-107452381D02*
X147619048Y-106452381D01*
X148285714Y-106452381D02*
X148476191Y-106452381D01*
X148571429Y-106500000D01*
X148666667Y-106595238D01*
X148714286Y-106785714D01*
X148714286Y-107119048D01*
X148666667Y-107309524D01*
X148571429Y-107404762D01*
X148476191Y-107452381D01*
X148285714Y-107452381D01*
X148190476Y-107404762D01*
X148095238Y-107309524D01*
X148047619Y-107119048D01*
X148047619Y-106785714D01*
X148095238Y-106595238D01*
X148190476Y-106500000D01*
X148285714Y-106452381D01*
X161333333Y-106452381D02*
X162000000Y-106452381D01*
X161571428Y-107452381D01*
X162333333Y-107404762D02*
X162476190Y-107452381D01*
X162714286Y-107452381D01*
X162809524Y-107404762D01*
X162857143Y-107357143D01*
X162904762Y-107261905D01*
X162904762Y-107166667D01*
X162857143Y-107071429D01*
X162809524Y-107023810D01*
X162714286Y-106976190D01*
X162523809Y-106928571D01*
X162428571Y-106880952D01*
X162380952Y-106833333D01*
X162333333Y-106738095D01*
X162333333Y-106642857D01*
X162380952Y-106547619D01*
X162428571Y-106500000D01*
X162523809Y-106452381D01*
X162761905Y-106452381D01*
X162904762Y-106500000D01*
X163333333Y-106928571D02*
X163666667Y-106928571D01*
X163809524Y-107452381D02*
X163333333Y-107452381D01*
X163333333Y-106452381D01*
X163809524Y-106452381D01*
X164761905Y-106500000D02*
X164666667Y-106452381D01*
X164523810Y-106452381D01*
X164380952Y-106500000D01*
X164285714Y-106595238D01*
X164238095Y-106690476D01*
X164190476Y-106880952D01*
X164190476Y-107023810D01*
X164238095Y-107214286D01*
X164285714Y-107309524D01*
X164380952Y-107404762D01*
X164523810Y-107452381D01*
X164619048Y-107452381D01*
X164761905Y-107404762D01*
X164809524Y-107357143D01*
X164809524Y-107023810D01*
X164619048Y-107023810D01*
X165238095Y-107452381D02*
X165238095Y-106452381D01*
X165571429Y-107166667D01*
X165904762Y-106452381D01*
X165904762Y-107452381D01*
X166142857Y-107547619D02*
X166904762Y-107547619D01*
X167142857Y-107452381D02*
X167142857Y-106452381D01*
X167476191Y-107166667D01*
X167809524Y-106452381D01*
X167809524Y-107452381D01*
X168142857Y-106452381D02*
X168714286Y-106452381D01*
X168428571Y-107452381D02*
X168428571Y-106452381D01*
X176190476Y-106452381D02*
X176857143Y-106452381D01*
X176428571Y-107452381D01*
X177190476Y-107404762D02*
X177333333Y-107452381D01*
X177571429Y-107452381D01*
X177666667Y-107404762D01*
X177714286Y-107357143D01*
X177761905Y-107261905D01*
X177761905Y-107166667D01*
X177714286Y-107071429D01*
X177666667Y-107023810D01*
X177571429Y-106976190D01*
X177380952Y-106928571D01*
X177285714Y-106880952D01*
X177238095Y-106833333D01*
X177190476Y-106738095D01*
X177190476Y-106642857D01*
X177238095Y-106547619D01*
X177285714Y-106500000D01*
X177380952Y-106452381D01*
X177619048Y-106452381D01*
X177761905Y-106500000D01*
X178190476Y-106928571D02*
X178523810Y-106928571D01*
X178666667Y-107452381D02*
X178190476Y-107452381D01*
X178190476Y-106452381D01*
X178666667Y-106452381D01*
X179619048Y-106500000D02*
X179523810Y-106452381D01*
X179380953Y-106452381D01*
X179238095Y-106500000D01*
X179142857Y-106595238D01*
X179095238Y-106690476D01*
X179047619Y-106880952D01*
X179047619Y-107023810D01*
X179095238Y-107214286D01*
X179142857Y-107309524D01*
X179238095Y-107404762D01*
X179380953Y-107452381D01*
X179476191Y-107452381D01*
X179619048Y-107404762D01*
X179666667Y-107357143D01*
X179666667Y-107023810D01*
X179476191Y-107023810D01*
X180095238Y-107452381D02*
X180095238Y-106452381D01*
X180428572Y-107166667D01*
X180761905Y-106452381D01*
X180761905Y-107452381D01*
X181000000Y-107547619D02*
X181761905Y-107547619D01*
X182000000Y-107452381D02*
X182000000Y-106452381D01*
X182333334Y-107166667D01*
X182666667Y-106452381D01*
X182666667Y-107452381D01*
X183333333Y-106452381D02*
X183523810Y-106452381D01*
X183619048Y-106500000D01*
X183714286Y-106595238D01*
X183761905Y-106785714D01*
X183761905Y-107119048D01*
X183714286Y-107309524D01*
X183619048Y-107404762D01*
X183523810Y-107452381D01*
X183333333Y-107452381D01*
X183238095Y-107404762D01*
X183142857Y-107309524D01*
X183095238Y-107119048D01*
X183095238Y-106785714D01*
X183142857Y-106595238D01*
X183238095Y-106500000D01*
X183333333Y-106452381D01*
D14*
X133532762Y-79661238D02*
X133677905Y-79709619D01*
X133919809Y-79709619D01*
X134016571Y-79661238D01*
X134064952Y-79612857D01*
X134113333Y-79516095D01*
X134113333Y-79419333D01*
X134064952Y-79322571D01*
X134016571Y-79274190D01*
X133919809Y-79225810D01*
X133726286Y-79177429D01*
X133629524Y-79129048D01*
X133581143Y-79080667D01*
X133532762Y-78983905D01*
X133532762Y-78887143D01*
X133581143Y-78790381D01*
X133629524Y-78742000D01*
X133726286Y-78693619D01*
X133968190Y-78693619D01*
X134113333Y-78742000D01*
X134452000Y-78693619D02*
X134693905Y-79709619D01*
X134887428Y-78983905D01*
X135080952Y-79709619D01*
X135322857Y-78693619D01*
X135709905Y-79709619D02*
X135709905Y-78693619D01*
X136048572Y-78693619D02*
X136629143Y-78693619D01*
X136338858Y-79709619D02*
X136338858Y-78693619D01*
X137548381Y-79612857D02*
X137500000Y-79661238D01*
X137354857Y-79709619D01*
X137258095Y-79709619D01*
X137112953Y-79661238D01*
X137016191Y-79564476D01*
X136967810Y-79467714D01*
X136919429Y-79274190D01*
X136919429Y-79129048D01*
X136967810Y-78935524D01*
X137016191Y-78838762D01*
X137112953Y-78742000D01*
X137258095Y-78693619D01*
X137354857Y-78693619D01*
X137500000Y-78742000D01*
X137548381Y-78790381D01*
X137983810Y-79709619D02*
X137983810Y-78693619D01*
X137983810Y-79177429D02*
X138564381Y-79177429D01*
X138564381Y-79709619D02*
X138564381Y-78693619D01*
X138806286Y-79806381D02*
X139580381Y-79806381D01*
X139822286Y-79709619D02*
X139822286Y-78693619D01*
X139822286Y-79177429D02*
X140402857Y-79177429D01*
X140402857Y-79709619D02*
X140402857Y-78693619D01*
X141467238Y-79709619D02*
X141128572Y-79225810D01*
X140886667Y-79709619D02*
X140886667Y-78693619D01*
X141273714Y-78693619D01*
X141370476Y-78742000D01*
X141418857Y-78790381D01*
X141467238Y-78887143D01*
X141467238Y-79032286D01*
X141418857Y-79129048D01*
X141370476Y-79177429D01*
X141273714Y-79225810D01*
X140886667Y-79225810D01*
M02*
