G04 #@! TF.FileFunction,Copper,L4,Bot,Signal*
%FSLAX46Y46*%
G04 Gerber Fmt 4.6, Leading zero omitted, Abs format (unit mm)*
G04 Created by KiCad (PCBNEW 4.0.5) date Fri Apr  7 23:13:03 2017*
%MOMM*%
%LPD*%
G01*
G04 APERTURE LIST*
%ADD10C,0.100000*%
%ADD11R,1.300000X1.500000*%
%ADD12C,6.200000*%
%ADD13R,0.600000X1.550000*%
%ADD14R,1.500000X1.250000*%
%ADD15R,2.032000X1.727200*%
%ADD16O,2.032000X1.727200*%
%ADD17O,1.524000X2.524000*%
%ADD18R,1.560000X0.650000*%
%ADD19R,1.250000X1.500000*%
%ADD20C,1.200000*%
%ADD21C,0.600000*%
%ADD22C,0.250000*%
%ADD23C,0.254000*%
G04 APERTURE END LIST*
D10*
D11*
X142500000Y-97650000D03*
X142500000Y-100350000D03*
X142500000Y-94350000D03*
X142500000Y-91650000D03*
D12*
X195000000Y-111000000D03*
X115000000Y-111000000D03*
X115000000Y-81000000D03*
D13*
X181690000Y-106800000D03*
X182960000Y-106800000D03*
X184230000Y-106800000D03*
X185500000Y-106800000D03*
X186770000Y-106800000D03*
X188040000Y-106800000D03*
X189310000Y-106800000D03*
X189310000Y-112200000D03*
X188040000Y-112200000D03*
X185500000Y-112200000D03*
X184230000Y-112200000D03*
X182960000Y-112200000D03*
X181690000Y-112200000D03*
X186770000Y-112200000D03*
X123690000Y-79800000D03*
X124960000Y-79800000D03*
X126230000Y-79800000D03*
X127500000Y-79800000D03*
X128770000Y-79800000D03*
X130040000Y-79800000D03*
X131310000Y-79800000D03*
X131310000Y-85200000D03*
X130040000Y-85200000D03*
X127500000Y-85200000D03*
X126230000Y-85200000D03*
X124960000Y-85200000D03*
X123690000Y-85200000D03*
X128770000Y-85200000D03*
X166445000Y-85200000D03*
X165175000Y-85200000D03*
X163905000Y-85200000D03*
X162635000Y-85200000D03*
X161365000Y-85200000D03*
X160095000Y-85200000D03*
X158825000Y-85200000D03*
X157555000Y-85200000D03*
X157555000Y-79800000D03*
X160095000Y-79800000D03*
X161365000Y-79800000D03*
X162635000Y-79800000D03*
X163905000Y-79800000D03*
X158825000Y-79800000D03*
X165175000Y-79800000D03*
X166445000Y-79800000D03*
D14*
X156250000Y-91500000D03*
X153750000Y-91500000D03*
D15*
X189000000Y-93460000D03*
D16*
X189000000Y-96000000D03*
X189000000Y-98540000D03*
D11*
X190000000Y-84850000D03*
X190000000Y-82150000D03*
X120000000Y-84650000D03*
X120000000Y-87350000D03*
X135000000Y-94350000D03*
X135000000Y-91650000D03*
X132500000Y-97650000D03*
X132500000Y-100350000D03*
X147500000Y-94350000D03*
X147500000Y-91650000D03*
X150000000Y-94350000D03*
X150000000Y-91650000D03*
X147500000Y-97650000D03*
X147500000Y-100350000D03*
X140000000Y-97650000D03*
X140000000Y-100350000D03*
X140000000Y-94350000D03*
X140000000Y-91650000D03*
X155000000Y-94150000D03*
X155000000Y-96850000D03*
X155000000Y-99650000D03*
X155000000Y-102350000D03*
X167500000Y-94350000D03*
X167500000Y-91650000D03*
X170000000Y-94350000D03*
X170000000Y-91650000D03*
X167500000Y-97650000D03*
X167500000Y-100350000D03*
X162500000Y-97650000D03*
X162500000Y-100350000D03*
X160000000Y-97650000D03*
X160000000Y-100350000D03*
X162500000Y-94350000D03*
X162500000Y-91650000D03*
X160000000Y-94350000D03*
X160000000Y-91650000D03*
X182500000Y-94350000D03*
X182500000Y-91650000D03*
X185000000Y-94350000D03*
X185000000Y-91650000D03*
X182500000Y-97650000D03*
X182500000Y-100350000D03*
X177500000Y-97650000D03*
X177500000Y-100350000D03*
X175000000Y-97650000D03*
X175000000Y-100350000D03*
X177500000Y-94350000D03*
X177500000Y-91650000D03*
X175000000Y-94350000D03*
X175000000Y-91650000D03*
D17*
X124920000Y-103620000D03*
X127460000Y-103620000D03*
X130000000Y-103620000D03*
X132540000Y-103620000D03*
X135080000Y-103620000D03*
X135080000Y-88380000D03*
X132540000Y-88380000D03*
X130000000Y-88380000D03*
X127460000Y-88380000D03*
X124920000Y-88380000D03*
X139920000Y-103620000D03*
X142460000Y-103620000D03*
X145000000Y-103620000D03*
X147540000Y-103620000D03*
X150080000Y-103620000D03*
X150080000Y-88380000D03*
X147540000Y-88380000D03*
X145000000Y-88380000D03*
X142460000Y-88380000D03*
X139920000Y-88380000D03*
X159920000Y-103620000D03*
X162460000Y-103620000D03*
X165000000Y-103620000D03*
X167540000Y-103620000D03*
X170080000Y-103620000D03*
X170080000Y-88380000D03*
X167540000Y-88380000D03*
X165000000Y-88380000D03*
X162460000Y-88380000D03*
X159920000Y-88380000D03*
X174920000Y-103620000D03*
X177460000Y-103620000D03*
X180000000Y-103620000D03*
X182540000Y-103620000D03*
X185080000Y-103620000D03*
X185080000Y-88380000D03*
X182540000Y-88380000D03*
X180000000Y-88380000D03*
X177460000Y-88380000D03*
X174920000Y-88380000D03*
D13*
X169690000Y-106800000D03*
X170960000Y-106800000D03*
X172230000Y-106800000D03*
X173500000Y-106800000D03*
X174770000Y-106800000D03*
X176040000Y-106800000D03*
X177310000Y-106800000D03*
X177310000Y-112200000D03*
X176040000Y-112200000D03*
X173500000Y-112200000D03*
X172230000Y-112200000D03*
X170960000Y-112200000D03*
X169690000Y-112200000D03*
X174770000Y-112200000D03*
D18*
X153650000Y-88950000D03*
X153650000Y-88000000D03*
X153650000Y-87050000D03*
X156350000Y-87050000D03*
X156350000Y-88950000D03*
X156350000Y-88000000D03*
D13*
X157690000Y-106800000D03*
X158960000Y-106800000D03*
X160230000Y-106800000D03*
X161500000Y-106800000D03*
X162770000Y-106800000D03*
X164040000Y-106800000D03*
X165310000Y-106800000D03*
X165310000Y-112200000D03*
X164040000Y-112200000D03*
X161500000Y-112200000D03*
X160230000Y-112200000D03*
X158960000Y-112200000D03*
X157690000Y-112200000D03*
X162770000Y-112200000D03*
X145690000Y-106800000D03*
X146960000Y-106800000D03*
X148230000Y-106800000D03*
X149500000Y-106800000D03*
X150770000Y-106800000D03*
X152040000Y-106800000D03*
X153310000Y-106800000D03*
X153310000Y-112200000D03*
X152040000Y-112200000D03*
X149500000Y-112200000D03*
X148230000Y-112200000D03*
X146960000Y-112200000D03*
X145690000Y-112200000D03*
X150770000Y-112200000D03*
X141310000Y-112200000D03*
X140040000Y-112200000D03*
X138770000Y-112200000D03*
X137500000Y-112200000D03*
X136230000Y-112200000D03*
X134960000Y-112200000D03*
X133690000Y-112200000D03*
X133690000Y-106800000D03*
X134960000Y-106800000D03*
X137500000Y-106800000D03*
X138770000Y-106800000D03*
X140040000Y-106800000D03*
X141310000Y-106800000D03*
X136230000Y-106800000D03*
X152445000Y-85200000D03*
X151175000Y-85200000D03*
X149905000Y-85200000D03*
X148635000Y-85200000D03*
X147365000Y-85200000D03*
X146095000Y-85200000D03*
X144825000Y-85200000D03*
X143555000Y-85200000D03*
X143555000Y-79800000D03*
X146095000Y-79800000D03*
X147365000Y-79800000D03*
X148635000Y-79800000D03*
X149905000Y-79800000D03*
X144825000Y-79800000D03*
X151175000Y-79800000D03*
X152445000Y-79800000D03*
X186445000Y-85200000D03*
X185175000Y-85200000D03*
X183905000Y-85200000D03*
X182635000Y-85200000D03*
X181365000Y-85200000D03*
X180095000Y-85200000D03*
X178825000Y-85200000D03*
X177555000Y-85200000D03*
X177555000Y-79800000D03*
X180095000Y-79800000D03*
X181365000Y-79800000D03*
X182635000Y-79800000D03*
X183905000Y-79800000D03*
X178825000Y-79800000D03*
X185175000Y-79800000D03*
X186445000Y-79800000D03*
X129445000Y-112200000D03*
X128175000Y-112200000D03*
X126905000Y-112200000D03*
X125635000Y-112200000D03*
X124365000Y-112200000D03*
X123095000Y-112200000D03*
X121825000Y-112200000D03*
X120555000Y-112200000D03*
X120555000Y-106800000D03*
X123095000Y-106800000D03*
X124365000Y-106800000D03*
X125635000Y-106800000D03*
X126905000Y-106800000D03*
X121825000Y-106800000D03*
X128175000Y-106800000D03*
X129445000Y-106800000D03*
D19*
X189000000Y-104040000D03*
X189000000Y-101540000D03*
X189000000Y-90460000D03*
X189000000Y-87960000D03*
D12*
X195000000Y-81000000D03*
D20*
X140040000Y-84000000D03*
X137500000Y-84000000D03*
X134960000Y-84000000D03*
X175040000Y-84000000D03*
X172500000Y-84000000D03*
X169960000Y-84000000D03*
D21*
X157000000Y-96850000D03*
X190000000Y-80750000D03*
X150800000Y-108200000D03*
X149900000Y-83945860D03*
X121800000Y-110800000D03*
X129400000Y-108200000D03*
X121400000Y-87300000D03*
X121800000Y-108200000D03*
X182600000Y-83800000D03*
X186651737Y-81200000D03*
X166400000Y-81003871D03*
X152400000Y-81003871D03*
X130700000Y-81200000D03*
X141300000Y-108200000D03*
X162800000Y-108200000D03*
X174800000Y-108200000D03*
X186800000Y-108200000D03*
X178100000Y-83900000D03*
X160100000Y-84000000D03*
X153200000Y-92900000D03*
X156564441Y-85414441D03*
X142491747Y-85191746D03*
X127500000Y-83800000D03*
X152200000Y-88000000D03*
X162150000Y-109775002D03*
X132700000Y-112200000D03*
X150173059Y-110826941D03*
X152700000Y-108200000D03*
X163659593Y-110474999D03*
X174265558Y-110834442D03*
X176700000Y-108200000D03*
X188100000Y-84900000D03*
X121400000Y-84900000D03*
X124900000Y-83800000D03*
X156400000Y-94100000D03*
X156400000Y-99900000D03*
X146100000Y-94300000D03*
X148600000Y-81003871D03*
X150000000Y-95800000D03*
X147627890Y-81000011D03*
X145477858Y-81003871D03*
X148900000Y-97600000D03*
X142500000Y-96200000D03*
X144676165Y-81003871D03*
X143500000Y-81003871D03*
X139300000Y-96200000D03*
X143900000Y-94300000D03*
X151100000Y-81003871D03*
X149900000Y-81003871D03*
X140000000Y-95800000D03*
X166100000Y-94300000D03*
X162600000Y-80973289D03*
X161625032Y-80973300D03*
X170000000Y-95800000D03*
X166100000Y-97600000D03*
X159475000Y-81000003D03*
X162500000Y-96200000D03*
X158603313Y-81003870D03*
X157600000Y-80973289D03*
X159334358Y-96243761D03*
X163900000Y-94300000D03*
X165100000Y-80973289D03*
X163900000Y-80973289D03*
X160000000Y-95800000D03*
X181100000Y-94350000D03*
X182600000Y-81225801D03*
X181400000Y-81200000D03*
X186475000Y-94300000D03*
X177500677Y-81999217D03*
X182500000Y-96200000D03*
X177500000Y-96200000D03*
X178800906Y-81199871D03*
X173600000Y-97600000D03*
X177500198Y-81199205D03*
X178900000Y-94300000D03*
X185401735Y-81198953D03*
X184404443Y-81195557D03*
X175000000Y-95800000D03*
X165174999Y-83991732D03*
D22*
X123690000Y-82310000D02*
X124960000Y-81040000D01*
X124960000Y-81040000D02*
X124960000Y-79800000D01*
X123690000Y-85200000D02*
X123690000Y-82310000D01*
X155000000Y-102350000D02*
X155000000Y-102250000D01*
X157000000Y-100250000D02*
X157000000Y-96850000D01*
X155000000Y-102250000D02*
X157000000Y-100250000D01*
X157000000Y-92150000D02*
X157000000Y-96850000D01*
X155000000Y-96850000D02*
X157000000Y-96850000D01*
X156250000Y-91500000D02*
X156350000Y-91500000D01*
X156350000Y-91500000D02*
X157000000Y-92150000D01*
X190000000Y-82150000D02*
X190000000Y-80750000D01*
X150770000Y-106800000D02*
X150770000Y-108170000D01*
X150770000Y-108170000D02*
X150800000Y-108200000D01*
X161365000Y-84175000D02*
X160550850Y-83360850D01*
X149905000Y-83950860D02*
X149900000Y-83945860D01*
X163905000Y-84175000D02*
X164719150Y-83360850D01*
X158200000Y-84164998D02*
X158200000Y-86103762D01*
X160550850Y-83360850D02*
X159004148Y-83360850D01*
X161365000Y-85200000D02*
X161365000Y-84175000D01*
X149905000Y-85200000D02*
X149905000Y-83950860D01*
X166012000Y-86868000D02*
X165000000Y-87880000D01*
X166512000Y-86868000D02*
X166012000Y-86868000D01*
X167070001Y-84165000D02*
X167070001Y-86309999D01*
X165000000Y-87880000D02*
X165000000Y-88380000D01*
X164719150Y-83360850D02*
X166265851Y-83360850D01*
X147365000Y-84725000D02*
X148144140Y-83945860D01*
X148144140Y-83945860D02*
X149900000Y-83945860D01*
X147365000Y-85200000D02*
X147365000Y-84725000D01*
X167070001Y-86309999D02*
X166512000Y-86868000D01*
X159004148Y-83360850D02*
X158200000Y-84164998D01*
X166265851Y-83360850D02*
X167070001Y-84165000D01*
X163905000Y-85200000D02*
X163905000Y-84175000D01*
X168400000Y-99000000D02*
X170080000Y-100680000D01*
X170080000Y-100680000D02*
X170080000Y-103620000D01*
X166600000Y-99000000D02*
X168400000Y-99000000D01*
X165000000Y-100600000D02*
X166600000Y-99000000D01*
X165000000Y-103620000D02*
X165000000Y-100600000D01*
X126905000Y-112200000D02*
X126905000Y-112675000D01*
X126905000Y-112675000D02*
X126279999Y-113300001D01*
X126279999Y-113300001D02*
X122450001Y-113300001D01*
X122450001Y-113300001D02*
X121825000Y-112675000D01*
X121825000Y-112675000D02*
X121825000Y-112200000D01*
X121825000Y-112200000D02*
X121825000Y-110825000D01*
X121825000Y-110825000D02*
X121800000Y-110800000D01*
X189000000Y-90460000D02*
X189000000Y-93460000D01*
X189000000Y-104040000D02*
X185500000Y-104040000D01*
X185500000Y-104040000D02*
X185080000Y-103620000D01*
X129445000Y-106800000D02*
X129445000Y-108155000D01*
X129445000Y-108155000D02*
X129400000Y-108200000D01*
X156350000Y-88000000D02*
X157090002Y-88000000D01*
X157090002Y-88000000D02*
X157466933Y-87623069D01*
X157466933Y-87623069D02*
X157466933Y-86836829D01*
X157466933Y-86836829D02*
X158200000Y-86103762D01*
X156250000Y-91500000D02*
X156100000Y-91500000D01*
X121350000Y-87350000D02*
X121400000Y-87300000D01*
X120000000Y-87350000D02*
X121350000Y-87350000D01*
X121825000Y-106800000D02*
X121825000Y-108175000D01*
X121825000Y-108175000D02*
X121800000Y-108200000D01*
X130040000Y-79800000D02*
X130700000Y-79800000D01*
X130000000Y-103620000D02*
X130000000Y-100600000D01*
X135080000Y-100380000D02*
X135080000Y-103620000D01*
X133700000Y-99000000D02*
X135080000Y-100380000D01*
X130000000Y-100600000D02*
X131600000Y-99000000D01*
X131600000Y-99000000D02*
X133700000Y-99000000D01*
X131310000Y-79800000D02*
X130700000Y-79800000D01*
X130700000Y-79800000D02*
X130700000Y-81200000D01*
X128770000Y-85200000D02*
X128770000Y-87150000D01*
X128770000Y-87150000D02*
X130000000Y-88380000D01*
X128770000Y-85200000D02*
X128770000Y-87070000D01*
X128770000Y-87070000D02*
X127460000Y-88380000D01*
X123690000Y-85200000D02*
X123690000Y-87150000D01*
X123690000Y-87150000D02*
X124920000Y-88380000D01*
X161365000Y-85200000D02*
X161365000Y-84725000D01*
X161365000Y-84725000D02*
X161990001Y-84099999D01*
X161990001Y-84099999D02*
X163279999Y-84099999D01*
X163279999Y-84099999D02*
X163905000Y-84725000D01*
X163905000Y-84725000D02*
X163905000Y-85200000D01*
X185710000Y-104250000D02*
X185080000Y-103620000D01*
X182600000Y-83800000D02*
X183024264Y-83800000D01*
X183024264Y-83800000D02*
X183905000Y-84680736D01*
X183905000Y-84680736D02*
X183905000Y-85200000D01*
X181365000Y-85200000D02*
X181365000Y-84725000D01*
X181365000Y-84725000D02*
X182290000Y-83800000D01*
X182290000Y-83800000D02*
X182600000Y-83800000D01*
X186445000Y-79800000D02*
X186445000Y-80993263D01*
X186445000Y-80993263D02*
X186651737Y-81200000D01*
X166445000Y-79800000D02*
X166445000Y-80958871D01*
X166445000Y-80958871D02*
X166400000Y-81003871D01*
X152445000Y-79800000D02*
X152445000Y-80958871D01*
X152445000Y-80958871D02*
X152400000Y-81003871D01*
X126230000Y-79800000D02*
X127500000Y-79800000D01*
X126230000Y-79800000D02*
X124960000Y-79800000D01*
X141310000Y-106800000D02*
X141310000Y-108190000D01*
X141310000Y-108190000D02*
X141300000Y-108200000D01*
X162770000Y-106800000D02*
X162770000Y-108170000D01*
X162770000Y-108170000D02*
X162800000Y-108200000D01*
X174770000Y-106800000D02*
X174770000Y-108170000D01*
X174770000Y-108170000D02*
X174800000Y-108200000D01*
X186770000Y-106800000D02*
X186770000Y-108170000D01*
X186770000Y-108170000D02*
X186800000Y-108200000D01*
X160230000Y-106800000D02*
X160230000Y-107855002D01*
X160230000Y-107855002D02*
X162150000Y-109775002D01*
X177555000Y-85200000D02*
X177555000Y-84445000D01*
X177555000Y-84445000D02*
X178100000Y-83900000D01*
X160095000Y-85200000D02*
X160095000Y-84005000D01*
X160095000Y-84005000D02*
X160100000Y-84000000D01*
X184230000Y-106800000D02*
X184230000Y-105670000D01*
X184230000Y-105670000D02*
X184500000Y-105400000D01*
X188040000Y-105775000D02*
X188040000Y-106800000D01*
X184500000Y-105400000D02*
X187665000Y-105400000D01*
X187665000Y-105400000D02*
X188040000Y-105775000D01*
X182960000Y-106800000D02*
X182960000Y-105775000D01*
X182960000Y-105775000D02*
X183810486Y-104924514D01*
X183810486Y-104924514D02*
X183810486Y-102685615D01*
X183810486Y-102685615D02*
X184956101Y-101540000D01*
X184956101Y-101540000D02*
X189000000Y-101540000D01*
X153200000Y-92200000D02*
X153200000Y-92900000D01*
X153750000Y-91650000D02*
X153200000Y-92200000D01*
X153750000Y-91500000D02*
X153750000Y-91650000D01*
X156564441Y-85414441D02*
X157340559Y-85414441D01*
X157340559Y-85414441D02*
X157555000Y-85200000D01*
X143555000Y-85200000D02*
X142500001Y-85200000D01*
X142500001Y-85200000D02*
X142491747Y-85191746D01*
X127500000Y-85200000D02*
X127500000Y-83800000D01*
X153650000Y-88000000D02*
X152200000Y-88000000D01*
X164040000Y-106800000D02*
X164040000Y-107885002D01*
X164040000Y-107885002D02*
X162150000Y-109775002D01*
X133690000Y-112200000D02*
X132700000Y-112200000D01*
X150770000Y-112200000D02*
X150770000Y-111423882D01*
X150770000Y-111423882D02*
X150173059Y-110826941D01*
X152700000Y-106800000D02*
X153310000Y-106800000D01*
X152040000Y-106800000D02*
X152700000Y-106800000D01*
X152700000Y-106800000D02*
X152700000Y-108200000D01*
X158960000Y-106800000D02*
X160230000Y-106800000D01*
X165310000Y-106800000D02*
X164040000Y-106800000D01*
X162770000Y-112200000D02*
X162770000Y-111173588D01*
X162770000Y-111173588D02*
X163468589Y-110474999D01*
X163468589Y-110474999D02*
X163659593Y-110474999D01*
X174770000Y-112200000D02*
X174770000Y-111338884D01*
X174770000Y-111338884D02*
X174265558Y-110834442D01*
X184230000Y-107275000D02*
X184230000Y-106800000D01*
X176700000Y-106800000D02*
X177310000Y-106800000D01*
X176040000Y-106800000D02*
X176700000Y-106800000D01*
X176700000Y-106800000D02*
X176700000Y-108200000D01*
X188100000Y-84900000D02*
X189950000Y-84900000D01*
X189950000Y-84900000D02*
X190000000Y-84850000D01*
X136419172Y-82540828D02*
X168500828Y-82540828D01*
X134960000Y-84000000D02*
X136419172Y-82540828D01*
X168500828Y-82540828D02*
X169960000Y-84000000D01*
X189000000Y-96000000D02*
X187100000Y-94100000D01*
X187100000Y-94100000D02*
X187100000Y-84266998D01*
X187100000Y-84266998D02*
X185430751Y-82597749D01*
X171769367Y-82190633D02*
X169960000Y-84000000D01*
X185430751Y-82597749D02*
X176294949Y-82597749D01*
X176294949Y-82597749D02*
X175887833Y-82190633D01*
X175887833Y-82190633D02*
X171769367Y-82190633D01*
X181824198Y-99000000D02*
X186000000Y-99000000D01*
X189000000Y-96000000D02*
X186000000Y-99000000D01*
X189000000Y-96000000D02*
X189000000Y-95998115D01*
X181690000Y-112200000D02*
X181690000Y-111690000D01*
X181690000Y-111690000D02*
X181064999Y-111064999D01*
X181064999Y-111064999D02*
X181064999Y-105764999D01*
X181064999Y-105764999D02*
X181150652Y-105679346D01*
X181150652Y-105679346D02*
X181150652Y-99673546D01*
X181150652Y-99673546D02*
X181824198Y-99000000D01*
X169960000Y-84260000D02*
X169960000Y-84000000D01*
X169960000Y-84000000D02*
X169960000Y-84167597D01*
X121400000Y-84900000D02*
X120250000Y-84900000D01*
X120250000Y-84900000D02*
X120000000Y-84650000D01*
X124900000Y-83800000D02*
X124900000Y-85140000D01*
X124900000Y-85140000D02*
X124960000Y-85200000D01*
X156400000Y-94100000D02*
X155050000Y-94100000D01*
X155050000Y-94100000D02*
X155000000Y-94150000D01*
X156400000Y-99900000D02*
X155250000Y-99900000D01*
X155250000Y-99900000D02*
X155000000Y-99650000D01*
X131310000Y-85200000D02*
X131860000Y-85200000D01*
X131860000Y-85200000D02*
X133925090Y-87265090D01*
X133925090Y-87265090D02*
X133925090Y-93175090D01*
X133925090Y-93175090D02*
X135000000Y-94250000D01*
X135000000Y-94250000D02*
X135000000Y-94350000D01*
X135000000Y-95050000D02*
X135000000Y-94350000D01*
X132500000Y-97650000D02*
X132500000Y-97550000D01*
X132500000Y-97550000D02*
X135000000Y-95050000D01*
X135080000Y-88380000D02*
X135080000Y-91570000D01*
X135080000Y-91570000D02*
X135000000Y-91650000D01*
X147500000Y-94350000D02*
X146150000Y-94350000D01*
X146150000Y-94350000D02*
X146100000Y-94300000D01*
X148600000Y-81003871D02*
X148600000Y-79835000D01*
X148600000Y-79835000D02*
X148635000Y-79800000D01*
X147500000Y-94350000D02*
X147259751Y-94350000D01*
X147540000Y-88380000D02*
X147540000Y-91610000D01*
X147540000Y-91610000D02*
X147500000Y-91650000D01*
X150000000Y-94350000D02*
X150000000Y-95800000D01*
X147365000Y-79800000D02*
X147365000Y-80825000D01*
X147365000Y-80825000D02*
X147540011Y-81000011D01*
X147540011Y-81000011D02*
X147627890Y-81000011D01*
X150080000Y-88380000D02*
X150080000Y-91570000D01*
X150080000Y-91570000D02*
X150000000Y-91650000D01*
X146095000Y-79800000D02*
X146095000Y-80386729D01*
X146095000Y-80386729D02*
X145477858Y-81003871D01*
X147500000Y-97650000D02*
X148850000Y-97650000D01*
X148850000Y-97650000D02*
X148900000Y-97600000D01*
X147540000Y-103620000D02*
X147540000Y-100390000D01*
X147540000Y-100390000D02*
X147500000Y-100350000D01*
X142500000Y-97650000D02*
X142500000Y-96200000D01*
X144676165Y-81003871D02*
X144676165Y-79948835D01*
X144676165Y-79948835D02*
X144825000Y-79800000D01*
X142500000Y-97650000D02*
X142500000Y-96900000D01*
X142460000Y-103620000D02*
X142460000Y-100390000D01*
X142460000Y-100390000D02*
X142500000Y-100350000D01*
X143500000Y-81003871D02*
X143500000Y-79855000D01*
X143500000Y-79855000D02*
X143555000Y-79800000D01*
X140000000Y-97650000D02*
X140000000Y-96900000D01*
X140000000Y-96900000D02*
X139300000Y-96200000D01*
X139920000Y-103620000D02*
X139920000Y-100430000D01*
X139920000Y-100430000D02*
X140000000Y-100350000D01*
X142500000Y-94350000D02*
X143850000Y-94350000D01*
X143850000Y-94350000D02*
X143900000Y-94300000D01*
X151100000Y-81003871D02*
X151100000Y-79875000D01*
X151100000Y-79875000D02*
X151175000Y-79800000D01*
X142460000Y-88380000D02*
X142460000Y-91610000D01*
X142460000Y-91610000D02*
X142500000Y-91650000D01*
X149900000Y-81003871D02*
X149900000Y-79805000D01*
X149900000Y-79805000D02*
X149905000Y-79800000D01*
X140000000Y-94350000D02*
X140000000Y-95800000D01*
X139920000Y-88380000D02*
X139920000Y-91570000D01*
X139920000Y-91570000D02*
X140000000Y-91650000D01*
X167500000Y-94350000D02*
X166150000Y-94350000D01*
X166150000Y-94350000D02*
X166100000Y-94300000D01*
X162600000Y-80973289D02*
X162600000Y-79835000D01*
X162600000Y-79835000D02*
X162635000Y-79800000D01*
X167540000Y-88380000D02*
X167540000Y-91610000D01*
X167540000Y-91610000D02*
X167500000Y-91650000D01*
X161365000Y-79800000D02*
X161365000Y-80713268D01*
X161365000Y-80713268D02*
X161625032Y-80973300D01*
X170000000Y-94350000D02*
X170000000Y-95800000D01*
X170080000Y-88380000D02*
X170080000Y-91570000D01*
X170080000Y-91570000D02*
X170000000Y-91650000D01*
X167500000Y-97650000D02*
X166150000Y-97650000D01*
X166150000Y-97650000D02*
X166100000Y-97600000D01*
X160095000Y-79800000D02*
X160095000Y-80380003D01*
X160095000Y-80380003D02*
X159475000Y-81000003D01*
X167540000Y-103620000D02*
X167540000Y-100390000D01*
X167540000Y-100390000D02*
X167500000Y-100350000D01*
X162500000Y-97650000D02*
X162500000Y-96200000D01*
X158825000Y-80825000D02*
X158646130Y-81003870D01*
X158646130Y-81003870D02*
X158603313Y-81003870D01*
X158825000Y-79800000D02*
X158825000Y-80825000D01*
X162500000Y-97650000D02*
X162500000Y-96909403D01*
X162460000Y-103620000D02*
X162460000Y-100390000D01*
X162460000Y-100390000D02*
X162500000Y-100350000D01*
X157600000Y-80973289D02*
X157600000Y-79845000D01*
X157600000Y-79845000D02*
X157555000Y-79800000D01*
X160000000Y-97650000D02*
X160000000Y-96909403D01*
X160000000Y-96909403D02*
X159334358Y-96243761D01*
X159920000Y-103620000D02*
X159920000Y-100430000D01*
X159920000Y-100430000D02*
X160000000Y-100350000D01*
X162500000Y-94350000D02*
X163850000Y-94350000D01*
X163850000Y-94350000D02*
X163900000Y-94300000D01*
X165100000Y-80973289D02*
X165100000Y-79875000D01*
X165100000Y-79875000D02*
X165175000Y-79800000D01*
X162460000Y-88380000D02*
X162460000Y-91610000D01*
X162460000Y-91610000D02*
X162500000Y-91650000D01*
X163900000Y-80973289D02*
X163900000Y-79805000D01*
X163900000Y-79805000D02*
X163905000Y-79800000D01*
X160000000Y-94350000D02*
X160000000Y-95800000D01*
X159920000Y-88380000D02*
X159920000Y-91570000D01*
X159920000Y-91570000D02*
X160000000Y-91650000D01*
X182500000Y-94350000D02*
X181100000Y-94350000D01*
X182635000Y-81190801D02*
X182600000Y-81225801D01*
X182635000Y-79800000D02*
X182635000Y-81190801D01*
X182540000Y-88380000D02*
X182540000Y-91610000D01*
X182540000Y-91610000D02*
X182500000Y-91650000D01*
X181400000Y-81200000D02*
X181400000Y-79835000D01*
X181400000Y-79835000D02*
X181365000Y-79800000D01*
X185000000Y-94350000D02*
X186425000Y-94350000D01*
X186425000Y-94350000D02*
X186475000Y-94300000D01*
X185080000Y-88380000D02*
X185080000Y-91570000D01*
X185080000Y-91570000D02*
X185000000Y-91650000D01*
X178920783Y-81999217D02*
X177500677Y-81999217D01*
X180095000Y-79800000D02*
X180095000Y-80825000D01*
X180095000Y-80825000D02*
X178920783Y-81999217D01*
X182500000Y-97650000D02*
X182500000Y-96200000D01*
X182540000Y-103620000D02*
X182540000Y-100390000D01*
X182540000Y-100390000D02*
X182500000Y-100350000D01*
X177500000Y-97650000D02*
X177500000Y-96200000D01*
X178825000Y-81175777D02*
X178800906Y-81199871D01*
X178825000Y-79800000D02*
X178825000Y-81175777D01*
X177460000Y-103620000D02*
X177460000Y-100390000D01*
X177460000Y-100390000D02*
X177500000Y-100350000D01*
X175000000Y-97650000D02*
X173650000Y-97650000D01*
X173650000Y-97650000D02*
X173600000Y-97600000D01*
X177555000Y-79800000D02*
X177555000Y-81144403D01*
X177555000Y-81144403D02*
X177500198Y-81199205D01*
X174920000Y-103620000D02*
X174920000Y-100430000D01*
X174920000Y-100430000D02*
X175000000Y-100350000D01*
X177500000Y-94350000D02*
X178850000Y-94350000D01*
X178850000Y-94350000D02*
X178900000Y-94300000D01*
X185175000Y-79800000D02*
X185175000Y-80972218D01*
X185175000Y-80972218D02*
X185401735Y-81198953D01*
X177460000Y-88380000D02*
X177460000Y-91610000D01*
X177460000Y-91610000D02*
X177500000Y-91650000D01*
X183905000Y-79800000D02*
X183905000Y-80696114D01*
X183905000Y-80696114D02*
X184404443Y-81195557D01*
X175000000Y-94350000D02*
X175000000Y-95800000D01*
X174920000Y-88380000D02*
X174920000Y-91570000D01*
X174920000Y-91570000D02*
X175000000Y-91650000D01*
X172500000Y-84000000D02*
X171500000Y-85000000D01*
X154773819Y-88856181D02*
X154680000Y-88950000D01*
X154773819Y-86321179D02*
X154773819Y-88856181D01*
X158144159Y-82950839D02*
X154773819Y-86321179D01*
X168484843Y-85000000D02*
X166435682Y-82950839D01*
X171500000Y-85000000D02*
X168484843Y-85000000D01*
X166435682Y-82950839D02*
X158144159Y-82950839D01*
X154680000Y-88950000D02*
X153650000Y-88950000D01*
X172230000Y-86810000D02*
X172230000Y-106800000D01*
X175040000Y-84000000D02*
X172230000Y-86810000D01*
X172230000Y-106800000D02*
X172230000Y-107275000D01*
X172230000Y-107275000D02*
X176054999Y-111099999D01*
X176684999Y-111099999D02*
X177310000Y-111725000D01*
X176054999Y-111099999D02*
X176684999Y-111099999D01*
X177310000Y-111725000D02*
X177310000Y-112200000D01*
X153650000Y-84115915D02*
X153650000Y-87050000D01*
X137500000Y-84000000D02*
X138549161Y-82950839D01*
X138549161Y-82950839D02*
X152484924Y-82950839D01*
X152484924Y-82950839D02*
X153650000Y-84115915D01*
X164502560Y-86297440D02*
X159313107Y-86297440D01*
X158101218Y-88405051D02*
X158101218Y-103880940D01*
X153310000Y-108672158D02*
X153310000Y-112200000D01*
X165175000Y-85625000D02*
X164502560Y-86297440D01*
X165175000Y-85200000D02*
X165175000Y-85625000D01*
X159313107Y-86297440D02*
X158403550Y-87206997D01*
X158403550Y-87206997D02*
X158403550Y-88102719D01*
X158403550Y-88102719D02*
X158101218Y-88405051D01*
X158101218Y-103880940D02*
X153310000Y-108672158D01*
X148230000Y-107230000D02*
X152139999Y-111139999D01*
X152724999Y-111139999D02*
X153310000Y-111725000D01*
X152139999Y-111139999D02*
X152724999Y-111139999D01*
X153310000Y-111725000D02*
X153310000Y-112200000D01*
X148230000Y-106800000D02*
X148230000Y-107230000D01*
X153310000Y-112200000D02*
X153310000Y-112675000D01*
X165175000Y-83991733D02*
X165174999Y-83991732D01*
X165175000Y-85200000D02*
X165175000Y-83991733D01*
X148230000Y-106325000D02*
X148230000Y-106800000D01*
X148230000Y-107275000D02*
X148230000Y-106800000D01*
X184230000Y-111730000D02*
X181690000Y-109190000D01*
X181690000Y-109190000D02*
X181690000Y-106800000D01*
X184230000Y-112200000D02*
X184230000Y-111730000D01*
X169690000Y-112200000D02*
X169690000Y-111790000D01*
X169690000Y-111790000D02*
X168999999Y-111099999D01*
X183974981Y-114200019D02*
X185500000Y-112675000D01*
X168999999Y-111099999D02*
X163479999Y-111099999D01*
X163479999Y-111099999D02*
X163414999Y-111164999D01*
X163414999Y-111164999D02*
X163414999Y-113235001D01*
X163414999Y-113235001D02*
X164380017Y-114200019D01*
X164380017Y-114200019D02*
X183974981Y-114200019D01*
X185500000Y-112675000D02*
X185500000Y-112200000D01*
X169690000Y-112690000D02*
X169690000Y-112200000D01*
X172230000Y-111730000D02*
X169690000Y-109190000D01*
X169690000Y-109190000D02*
X169690000Y-106800000D01*
X172230000Y-112200000D02*
X172230000Y-111730000D01*
X170960000Y-106800000D02*
X170960000Y-107190002D01*
X170960000Y-107190002D02*
X171669999Y-107900001D01*
X171669999Y-107900001D02*
X172215001Y-107900001D01*
X172215001Y-107900001D02*
X176040000Y-111725000D01*
X176040000Y-111725000D02*
X176040000Y-112200000D01*
X141310000Y-112200000D02*
X141310000Y-111690000D01*
X141310000Y-111690000D02*
X143794174Y-109205826D01*
X143794174Y-109205826D02*
X143794174Y-101705826D01*
X143794174Y-101705826D02*
X146500000Y-99000000D01*
X155320000Y-87050000D02*
X156350000Y-87050000D01*
X146500000Y-99000000D02*
X148379641Y-99000000D01*
X155223830Y-89177348D02*
X155223830Y-87146170D01*
X148379641Y-99000000D02*
X151709699Y-95669942D01*
X151709699Y-95669942D02*
X151709699Y-90888109D01*
X151709699Y-90888109D02*
X152799433Y-89798375D01*
X152799433Y-89798375D02*
X154602803Y-89798375D01*
X154602803Y-89798375D02*
X155223830Y-89177348D01*
X155223830Y-87146170D02*
X155320000Y-87050000D01*
X140040000Y-112200000D02*
X141310000Y-112200000D01*
X157690000Y-112200000D02*
X157690000Y-112610000D01*
X157690000Y-112610000D02*
X156552110Y-113747890D01*
X156552110Y-113747890D02*
X148117888Y-113747890D01*
X148117888Y-113747890D02*
X147604999Y-113235001D01*
X147604999Y-113235001D02*
X147604999Y-111164999D01*
X147604999Y-111164999D02*
X145098586Y-108658586D01*
X152153929Y-103846071D02*
X152153929Y-91023721D01*
X152153929Y-91023721D02*
X152969264Y-90208386D01*
X145098586Y-108658586D02*
X145098586Y-105803412D01*
X150704230Y-105295770D02*
X152153929Y-103846071D01*
X152969264Y-90208386D02*
X154772633Y-90208386D01*
X154772633Y-90208386D02*
X156031019Y-88950000D01*
X156031019Y-88950000D02*
X156350000Y-88950000D01*
X145098586Y-105803412D02*
X145606228Y-105295770D01*
X145606228Y-105295770D02*
X150704230Y-105295770D01*
X157690000Y-112200000D02*
X157690000Y-112710000D01*
X178825000Y-85200000D02*
X178825000Y-83575000D01*
X178825000Y-83575000D02*
X178257759Y-83007759D01*
X178257759Y-83007759D02*
X176087733Y-83007759D01*
X176087733Y-83007759D02*
X175680617Y-82600643D01*
X175680617Y-82600643D02*
X174401096Y-82600643D01*
X158767266Y-105247734D02*
X157690000Y-106325000D01*
X157690000Y-106325000D02*
X157690000Y-106800000D01*
X174401096Y-82600643D02*
X173589894Y-83411845D01*
X173589894Y-83411845D02*
X173589894Y-84290422D01*
X173589894Y-84290422D02*
X171369979Y-86510336D01*
X171369979Y-86510336D02*
X171369979Y-104445962D01*
X171369979Y-104445962D02*
X170568207Y-105247734D01*
X170568207Y-105247734D02*
X158767266Y-105247734D01*
X160230000Y-111730000D02*
X157690000Y-109190000D01*
X157690000Y-109190000D02*
X157690000Y-106800000D01*
X160230000Y-112200000D02*
X160230000Y-111730000D01*
X177950497Y-113149682D02*
X177950497Y-105780495D01*
X165310000Y-112200000D02*
X165310000Y-112610000D01*
X185175000Y-85675000D02*
X185175000Y-85200000D01*
X165310000Y-112610000D02*
X166000001Y-113300001D01*
X176301566Y-93445655D02*
X176696920Y-93050301D01*
X177144346Y-105398960D02*
X176301566Y-104556180D01*
X177568962Y-105398960D02*
X177144346Y-105398960D01*
X166000001Y-113300001D02*
X177800178Y-113300001D01*
X179998256Y-86300001D02*
X184549999Y-86300001D01*
X184549999Y-86300001D02*
X185175000Y-85675000D01*
X177800178Y-113300001D02*
X177950497Y-113149682D01*
X178803388Y-92374130D02*
X178803388Y-87494869D01*
X177950497Y-105780495D02*
X177568962Y-105398960D01*
X176301566Y-104556180D02*
X176301566Y-93445655D01*
X176696920Y-93050301D02*
X178127217Y-93050301D01*
X178127217Y-93050301D02*
X178803388Y-92374130D01*
X178803388Y-87494869D02*
X179998256Y-86300001D01*
X165310000Y-111725000D02*
X165310000Y-112200000D01*
X164040000Y-112200000D02*
X164040000Y-112675000D01*
X165115012Y-113750012D02*
X178056401Y-113750012D01*
X178056401Y-113750012D02*
X178849364Y-112957049D01*
X181999988Y-86750012D02*
X185369989Y-86750011D01*
X164040000Y-112675000D02*
X165115012Y-113750012D01*
X186445000Y-85675000D02*
X186445000Y-85200000D01*
X178849364Y-112957049D02*
X178849364Y-97150636D01*
X178849364Y-97150636D02*
X179997931Y-96002069D01*
X181401544Y-93201760D02*
X181401544Y-87348456D01*
X179997931Y-96002069D02*
X179997931Y-94605373D01*
X181401544Y-87348456D02*
X181999988Y-86750012D01*
X179997931Y-94605373D02*
X181401544Y-93201760D01*
X185369989Y-86750011D02*
X186445000Y-85675000D01*
X164040000Y-111725000D02*
X164040000Y-112200000D01*
X169139011Y-105697745D02*
X170698038Y-105697745D01*
X166936755Y-107900001D02*
X169139011Y-105697745D01*
X176498802Y-85748802D02*
X177049129Y-86299129D01*
X161500000Y-112200000D02*
X161500000Y-111725000D01*
X161500000Y-111725000D02*
X165324999Y-107900001D01*
X165324999Y-107900001D02*
X166936755Y-107900001D01*
X171779990Y-104615793D02*
X171779990Y-86680168D01*
X170698038Y-105697745D02*
X171779990Y-104615793D01*
X171779990Y-86680168D02*
X173999905Y-84460254D01*
X173999905Y-84460254D02*
X173999905Y-83600095D01*
X173999905Y-83600095D02*
X174589346Y-83010654D01*
X175510788Y-83010654D02*
X176000134Y-83500000D01*
X174589346Y-83010654D02*
X175510788Y-83010654D01*
X176000134Y-83500000D02*
X176000134Y-83500134D01*
X176000134Y-83500134D02*
X176498802Y-83998802D01*
X176498802Y-83998802D02*
X176498802Y-85748802D01*
X177049129Y-86299129D02*
X179313873Y-86299129D01*
X179313873Y-86299129D02*
X180095000Y-85518002D01*
X180095000Y-85518002D02*
X180095000Y-85200000D01*
X145690000Y-112200000D02*
X145690000Y-112675000D01*
X145690000Y-112675000D02*
X147212901Y-114197901D01*
X147212901Y-114197901D02*
X159977099Y-114197901D01*
X159977099Y-114197901D02*
X161500000Y-112675000D01*
X161500000Y-112675000D02*
X161500000Y-112200000D01*
X145690000Y-106800000D02*
X145690000Y-106310000D01*
X146294220Y-105705780D02*
X153794283Y-105705780D01*
X145690000Y-106310000D02*
X146294220Y-105705780D01*
X157676312Y-101823751D02*
X157676312Y-88050101D01*
X157676312Y-88050101D02*
X157916944Y-87809469D01*
X153794283Y-105705780D02*
X157676312Y-101823751D01*
X157916944Y-87809469D02*
X157916944Y-87023228D01*
X157916944Y-87023228D02*
X158825000Y-86115173D01*
X158825000Y-86115173D02*
X158825000Y-85200000D01*
X145690000Y-106800000D02*
X145690000Y-108334120D01*
X145690000Y-108334120D02*
X148230000Y-110874120D01*
X148230000Y-110874120D02*
X148230000Y-112200000D01*
X166445000Y-85200000D02*
X166445000Y-85675000D01*
X166445000Y-85675000D02*
X165412549Y-86707451D01*
X165412549Y-86707451D02*
X159492549Y-86707451D01*
X153838001Y-113260001D02*
X152625001Y-113260001D01*
X159492549Y-86707451D02*
X158813561Y-87386439D01*
X153999359Y-108562642D02*
X153999359Y-113098643D01*
X152040000Y-112675000D02*
X152040000Y-112200000D01*
X158813561Y-87386439D02*
X158813561Y-88272551D01*
X158813561Y-88272551D02*
X158511229Y-88574882D01*
X158511229Y-88574882D02*
X158511229Y-104050772D01*
X158511229Y-104050772D02*
X153999359Y-108562642D01*
X153999359Y-113098643D02*
X153838001Y-113260001D01*
X152625001Y-113260001D02*
X152040000Y-112675000D01*
X152040000Y-112200000D02*
X152040000Y-111851575D01*
X152040000Y-111851575D02*
X148088426Y-107900001D01*
X146960000Y-107275000D02*
X146960000Y-106800000D01*
X148088426Y-107900001D02*
X147585001Y-107900001D01*
X147585001Y-107900001D02*
X146960000Y-107275000D01*
X146960000Y-106800000D02*
X146960000Y-106325000D01*
X135898761Y-110098761D02*
X129728761Y-110098761D01*
X137500000Y-111700000D02*
X135898761Y-110098761D01*
X137500000Y-112200000D02*
X137500000Y-111700000D01*
X122125002Y-79174479D02*
X122125002Y-102883095D01*
X122469999Y-108455005D02*
X122469999Y-105764999D01*
X122469999Y-105764999D02*
X122534999Y-105699999D01*
X119479988Y-108021401D02*
X120283589Y-108825002D01*
X122100002Y-108825002D02*
X122469999Y-108455005D01*
X132398165Y-78696490D02*
X131844249Y-78142574D01*
X120283589Y-108825002D02*
X122100002Y-108825002D01*
X123156907Y-78142574D02*
X122125002Y-79174479D01*
X119479988Y-105528109D02*
X119479988Y-108021401D01*
X131844249Y-78142574D02*
X123156907Y-78142574D01*
X122125002Y-102883095D02*
X119479988Y-105528109D01*
X134971962Y-85398819D02*
X132398165Y-82825022D01*
X122534999Y-105699999D02*
X123607502Y-105699999D01*
X123607502Y-105699999D02*
X123720001Y-105812499D01*
X132398165Y-82825022D02*
X132398165Y-78696490D01*
X140646593Y-85398819D02*
X134971962Y-85398819D01*
X123720001Y-105812499D02*
X123720001Y-107781291D01*
X141945413Y-84099999D02*
X140646593Y-85398819D01*
X144199999Y-84099999D02*
X141945413Y-84099999D01*
X123720001Y-107781291D02*
X124288721Y-108350011D01*
X124288721Y-108350011D02*
X126381401Y-108350011D01*
X126905000Y-107826412D02*
X126905000Y-106800000D01*
X144825000Y-84725000D02*
X144199999Y-84099999D01*
X144825000Y-85200000D02*
X144825000Y-84725000D01*
X126381401Y-108350011D02*
X126905000Y-107826412D01*
X137500000Y-112200000D02*
X137500000Y-111901025D01*
X129728761Y-110098761D02*
X126905000Y-107275000D01*
X126905000Y-107275000D02*
X126905000Y-106800000D01*
X137500000Y-112200000D02*
X137500000Y-112675000D01*
X146095000Y-84725000D02*
X146095000Y-85200000D01*
X153005001Y-86300001D02*
X153199989Y-86105013D01*
X151299688Y-87456722D02*
X152456409Y-86300001D01*
X141797705Y-99000000D02*
X143467506Y-99000000D01*
X151299688Y-95500113D02*
X151299688Y-87456722D01*
X143467506Y-99000000D02*
X146070898Y-96396608D01*
X150403193Y-96396608D02*
X151299688Y-95500113D01*
X141254548Y-104622094D02*
X141254548Y-99543157D01*
X127549999Y-113235001D02*
X128516077Y-114201079D01*
X141956514Y-105324060D02*
X141254548Y-104622094D01*
X141956514Y-108446062D02*
X141956514Y-105324060D01*
X139414999Y-113217824D02*
X139414999Y-110987577D01*
X147459150Y-83360850D02*
X146095000Y-84725000D01*
X127549999Y-111164999D02*
X127549999Y-113235001D01*
X153199989Y-84302315D02*
X152258524Y-83360850D01*
X128516077Y-114201079D02*
X138431744Y-114201079D01*
X141254548Y-99543157D02*
X141797705Y-99000000D01*
X146070898Y-96396608D02*
X150403193Y-96396608D01*
X138431744Y-114201079D02*
X139414999Y-113217824D01*
X139414999Y-110987577D02*
X141956514Y-108446062D01*
X152456409Y-86300001D02*
X153005001Y-86300001D01*
X152258524Y-83360850D02*
X147459150Y-83360850D01*
X153199989Y-86105013D02*
X153199989Y-84302315D01*
X125952289Y-110649989D02*
X127034989Y-110649989D01*
X127549999Y-111164999D02*
X127034989Y-110649989D01*
X135154989Y-110649989D02*
X128065009Y-110649989D01*
X128065009Y-110649989D02*
X127549999Y-111164999D01*
X123095000Y-106800000D02*
X123095000Y-107792700D01*
X123095000Y-107792700D02*
X125952289Y-110649989D01*
X135154989Y-110649989D02*
X136230000Y-111725000D01*
X136230000Y-111725000D02*
X136230000Y-112200000D01*
X133039857Y-105674857D02*
X133690000Y-106325000D01*
X126370141Y-105674857D02*
X133039857Y-105674857D01*
X121531947Y-104798053D02*
X123978376Y-104798053D01*
X123978376Y-104798053D02*
X125009999Y-105829676D01*
X125009999Y-105829676D02*
X125009999Y-107835001D01*
X125074999Y-107900001D02*
X126195001Y-107900001D01*
X125009999Y-107835001D02*
X125074999Y-107900001D01*
X126195001Y-107900001D02*
X126260001Y-107835001D01*
X126260001Y-107835001D02*
X126260001Y-105784997D01*
X133690000Y-106325000D02*
X133690000Y-106800000D01*
X126260001Y-105784997D02*
X126370141Y-105674857D01*
X123690000Y-79800000D02*
X123690000Y-80310000D01*
X123025024Y-103304976D02*
X120555000Y-105775000D01*
X123690000Y-80310000D02*
X123025024Y-80974976D01*
X123025024Y-80974976D02*
X123025024Y-103304976D01*
X120555000Y-106800000D02*
X120555000Y-105775000D01*
X120555000Y-105775000D02*
X121531947Y-104798053D01*
X120555000Y-106800000D02*
X120555000Y-106445000D01*
X133690000Y-106800000D02*
X133690000Y-107275000D01*
X140040000Y-107275000D02*
X140040000Y-106800000D01*
X138928110Y-108386890D02*
X140040000Y-107275000D01*
X133690000Y-107275000D02*
X134801890Y-108386890D01*
X134801890Y-108386890D02*
X138928110Y-108386890D01*
X134960000Y-106800000D02*
X134960000Y-107275000D01*
X138125001Y-107750000D02*
X138125001Y-93874999D01*
X134960000Y-107275000D02*
X135585001Y-107900001D01*
X135585001Y-107900001D02*
X137975000Y-107900001D01*
X147000000Y-86750012D02*
X150651401Y-86750012D01*
X137975000Y-107900001D02*
X138125001Y-107750000D01*
X143500000Y-93000000D02*
X146398808Y-90101192D01*
X138125001Y-93874999D02*
X139000000Y-93000000D01*
X139000000Y-93000000D02*
X143500000Y-93000000D01*
X146398808Y-87351204D02*
X147000000Y-86750012D01*
X150651401Y-86750012D02*
X150651559Y-86749854D01*
X146398808Y-90101192D02*
X146398808Y-87351204D01*
X150651559Y-86749854D02*
X151370146Y-86749854D01*
X152445000Y-85675000D02*
X152445000Y-85200000D01*
X151370146Y-86749854D02*
X152445000Y-85675000D01*
X134960000Y-106800000D02*
X134960000Y-105775000D01*
X134960000Y-105775000D02*
X134409847Y-105224847D01*
X134409847Y-105224847D02*
X126016596Y-105224847D01*
X126016596Y-105224847D02*
X125635000Y-105606443D01*
X125635000Y-105606443D02*
X125635000Y-106800000D01*
X125635000Y-107275000D02*
X125635000Y-106800000D01*
X129319679Y-81019679D02*
X128770000Y-80470000D01*
X137500000Y-106800000D02*
X137500000Y-88037291D01*
X134599162Y-86298841D02*
X129320000Y-81019679D01*
X137500000Y-88037291D02*
X135761550Y-86298841D01*
X135761550Y-86298841D02*
X134599162Y-86298841D01*
X129320000Y-81019679D02*
X129319679Y-81019679D01*
X128770000Y-80470000D02*
X128770000Y-79800000D01*
X130040000Y-84725000D02*
X130040000Y-85200000D01*
X131763910Y-84099999D02*
X130665001Y-84099999D01*
X135575150Y-86748852D02*
X134412762Y-86748852D01*
X136230000Y-87403702D02*
X135575150Y-86748852D01*
X134412762Y-86748852D02*
X131763910Y-84099999D01*
X136230000Y-106800000D02*
X136230000Y-87403702D01*
X130665001Y-84099999D02*
X130040000Y-84725000D01*
X151175000Y-85200000D02*
X151175000Y-85675000D01*
X150549999Y-86300001D02*
X136400760Y-86300001D01*
X151175000Y-85675000D02*
X150549999Y-86300001D01*
X135949589Y-85848830D02*
X134785562Y-85848830D01*
X131935001Y-82998269D02*
X131935001Y-78869736D01*
X136400760Y-86300001D02*
X135949589Y-85848830D01*
X134785562Y-85848830D02*
X131935001Y-82998269D01*
X131935001Y-78869736D02*
X131665265Y-78600000D01*
X131665265Y-78600000D02*
X123335891Y-78600000D01*
X121717830Y-105249988D02*
X121180001Y-105787817D01*
X122575013Y-79360878D02*
X123335891Y-78600000D01*
X122575013Y-103069495D02*
X122575013Y-79360878D01*
X119929999Y-105714509D02*
X122575013Y-103069495D01*
X121115001Y-107900001D02*
X119994999Y-107900001D01*
X121180001Y-107835001D02*
X121115001Y-107900001D01*
X121180001Y-105787817D02*
X121180001Y-107835001D01*
X119994999Y-107900001D02*
X119929999Y-107835001D01*
X119929999Y-107835001D02*
X119929999Y-105714509D01*
X123421103Y-105249988D02*
X121717830Y-105249988D01*
X123793905Y-105249990D02*
X123421103Y-105249988D01*
X124365000Y-105821087D02*
X123793905Y-105249990D01*
X124365000Y-106800000D02*
X124365000Y-105821087D01*
X138770000Y-112200000D02*
X138770000Y-113226413D01*
X138770000Y-113226413D02*
X138246283Y-113750130D01*
X138246283Y-113750130D02*
X129250130Y-113750130D01*
X129250130Y-113750130D02*
X128175000Y-112675000D01*
X128175000Y-112675000D02*
X128175000Y-112200000D01*
X138770000Y-106325000D02*
X138770000Y-106800000D01*
X140665001Y-105764999D02*
X140600001Y-105699999D01*
X138144999Y-113100832D02*
X138144999Y-110736965D01*
X135585001Y-113300001D02*
X137945830Y-113300001D01*
X137945830Y-113300001D02*
X138144999Y-113100832D01*
X134960000Y-112675000D02*
X135585001Y-113300001D01*
X138144999Y-110736965D02*
X140665001Y-108216963D01*
X140665001Y-108216963D02*
X140665001Y-105764999D01*
X139395001Y-105699999D02*
X138770000Y-106325000D01*
X140600001Y-105699999D02*
X139395001Y-105699999D01*
X134960000Y-112200000D02*
X134960000Y-112675000D01*
X129445000Y-112200000D02*
X129445000Y-111805000D01*
X134334999Y-111099999D02*
X134960000Y-111725000D01*
X129445000Y-111805000D02*
X130150001Y-111099999D01*
X130150001Y-111099999D02*
X134334999Y-111099999D01*
X134960000Y-111725000D02*
X134960000Y-112200000D01*
X132540000Y-103620000D02*
X132540000Y-100390000D01*
X132540000Y-100390000D02*
X132500000Y-100350000D01*
D23*
G36*
X189098110Y-86196431D02*
X189350000Y-86247440D01*
X190650000Y-86247440D01*
X190885317Y-86203162D01*
X191003676Y-86127000D01*
X193290000Y-86127000D01*
X193290000Y-106000000D01*
X193303642Y-106068584D01*
X193303642Y-106138513D01*
X193379762Y-106521196D01*
X193399395Y-106568593D01*
X193485776Y-106777138D01*
X193702549Y-107101561D01*
X193702550Y-107101562D01*
X193898438Y-107297451D01*
X194222862Y-107514223D01*
X194328877Y-107558136D01*
X194478804Y-107620238D01*
X194861486Y-107696358D01*
X196253707Y-107973288D01*
X197316546Y-108683454D01*
X198026712Y-109746295D01*
X198276090Y-111000000D01*
X198026712Y-112253705D01*
X197316546Y-113316546D01*
X196253707Y-114026712D01*
X194930069Y-114290000D01*
X184959802Y-114290000D01*
X185627362Y-113622440D01*
X185800000Y-113622440D01*
X186035317Y-113578162D01*
X186125981Y-113519821D01*
X186343691Y-113610000D01*
X186484250Y-113610000D01*
X186643000Y-113451250D01*
X186643000Y-112327000D01*
X186623000Y-112327000D01*
X186623000Y-112073000D01*
X186643000Y-112073000D01*
X186643000Y-110948750D01*
X186897000Y-110948750D01*
X186897000Y-112073000D01*
X186917000Y-112073000D01*
X186917000Y-112327000D01*
X186897000Y-112327000D01*
X186897000Y-113451250D01*
X187055750Y-113610000D01*
X187196309Y-113610000D01*
X187413121Y-113520193D01*
X187488110Y-113571431D01*
X187740000Y-113622440D01*
X188340000Y-113622440D01*
X188575317Y-113578162D01*
X188674528Y-113514322D01*
X188758110Y-113571431D01*
X189010000Y-113622440D01*
X189610000Y-113622440D01*
X189845317Y-113578162D01*
X190061441Y-113439090D01*
X190206431Y-113226890D01*
X190257440Y-112975000D01*
X190257440Y-111425000D01*
X190213162Y-111189683D01*
X190074090Y-110973559D01*
X189861890Y-110828569D01*
X189610000Y-110777560D01*
X189010000Y-110777560D01*
X188774683Y-110821838D01*
X188675472Y-110885678D01*
X188591890Y-110828569D01*
X188340000Y-110777560D01*
X187740000Y-110777560D01*
X187504683Y-110821838D01*
X187414019Y-110880179D01*
X187196309Y-110790000D01*
X187055750Y-110790000D01*
X186897000Y-110948750D01*
X186643000Y-110948750D01*
X186484250Y-110790000D01*
X186343691Y-110790000D01*
X186126879Y-110879807D01*
X186051890Y-110828569D01*
X185800000Y-110777560D01*
X185200000Y-110777560D01*
X184964683Y-110821838D01*
X184865472Y-110885678D01*
X184781890Y-110828569D01*
X184530000Y-110777560D01*
X184352362Y-110777560D01*
X182450000Y-108875198D01*
X182450000Y-108175334D01*
X182533691Y-108210000D01*
X182674250Y-108210000D01*
X182833000Y-108051250D01*
X182833000Y-106927000D01*
X183087000Y-106927000D01*
X183087000Y-108051250D01*
X183245750Y-108210000D01*
X183386309Y-108210000D01*
X183595000Y-108123557D01*
X183803691Y-108210000D01*
X183944250Y-108210000D01*
X184103000Y-108051250D01*
X184103000Y-106927000D01*
X183087000Y-106927000D01*
X182833000Y-106927000D01*
X182813000Y-106927000D01*
X182813000Y-106673000D01*
X182833000Y-106673000D01*
X182833000Y-106653000D01*
X183087000Y-106653000D01*
X183087000Y-106673000D01*
X184103000Y-106673000D01*
X184103000Y-105548750D01*
X183944250Y-105390000D01*
X183803691Y-105390000D01*
X183595000Y-105476443D01*
X183386309Y-105390000D01*
X183245750Y-105390000D01*
X183087002Y-105548748D01*
X183087002Y-105439543D01*
X183527828Y-105144992D01*
X183810000Y-104722693D01*
X184092172Y-105144992D01*
X184492960Y-105412790D01*
X184357000Y-105548750D01*
X184357000Y-106673000D01*
X184377000Y-106673000D01*
X184377000Y-106927000D01*
X184357000Y-106927000D01*
X184357000Y-108051250D01*
X184515750Y-108210000D01*
X184656309Y-108210000D01*
X184873121Y-108120193D01*
X184948110Y-108171431D01*
X185200000Y-108222440D01*
X185800000Y-108222440D01*
X185864990Y-108210211D01*
X185864838Y-108385167D01*
X186006883Y-108728943D01*
X186269673Y-108992192D01*
X186613201Y-109134838D01*
X186985167Y-109135162D01*
X187328943Y-108993117D01*
X187592192Y-108730327D01*
X187734838Y-108386799D01*
X187734992Y-108210000D01*
X187754250Y-108210000D01*
X187913000Y-108051250D01*
X187913000Y-106927000D01*
X188167000Y-106927000D01*
X188167000Y-108051250D01*
X188325750Y-108210000D01*
X188466309Y-108210000D01*
X188675000Y-108123557D01*
X188883691Y-108210000D01*
X189024250Y-108210000D01*
X189183000Y-108051250D01*
X189183000Y-106927000D01*
X189437000Y-106927000D01*
X189437000Y-108051250D01*
X189595750Y-108210000D01*
X189736309Y-108210000D01*
X189969698Y-108113327D01*
X190148327Y-107934699D01*
X190245000Y-107701310D01*
X190245000Y-107085750D01*
X190086250Y-106927000D01*
X189437000Y-106927000D01*
X189183000Y-106927000D01*
X188167000Y-106927000D01*
X187913000Y-106927000D01*
X187893000Y-106927000D01*
X187893000Y-106673000D01*
X187913000Y-106673000D01*
X187913000Y-105548750D01*
X187754250Y-105390000D01*
X187613691Y-105390000D01*
X187396879Y-105479807D01*
X187321890Y-105428569D01*
X187070000Y-105377560D01*
X186470000Y-105377560D01*
X186234683Y-105421838D01*
X186135472Y-105485678D01*
X186051890Y-105428569D01*
X185800000Y-105377560D01*
X185719766Y-105377560D01*
X186067828Y-105144992D01*
X186298345Y-104800000D01*
X187729442Y-104800000D01*
X187771838Y-105025317D01*
X187910910Y-105241441D01*
X188123110Y-105386431D01*
X188294593Y-105421157D01*
X188167000Y-105548750D01*
X188167000Y-106673000D01*
X189183000Y-106673000D01*
X189183000Y-106653000D01*
X189437000Y-106653000D01*
X189437000Y-106673000D01*
X190086250Y-106673000D01*
X190245000Y-106514250D01*
X190245000Y-105898690D01*
X190148327Y-105665301D01*
X189969698Y-105486673D01*
X189780294Y-105408219D01*
X189860317Y-105393162D01*
X190076441Y-105254090D01*
X190221431Y-105041890D01*
X190272440Y-104790000D01*
X190272440Y-103290000D01*
X190228162Y-103054683D01*
X190089090Y-102838559D01*
X190020994Y-102792031D01*
X190163327Y-102649698D01*
X190260000Y-102416309D01*
X190260000Y-101825750D01*
X190101250Y-101667000D01*
X189127000Y-101667000D01*
X189127000Y-101687000D01*
X188873000Y-101687000D01*
X188873000Y-101667000D01*
X187898750Y-101667000D01*
X187740000Y-101825750D01*
X187740000Y-102416309D01*
X187836673Y-102649698D01*
X187977910Y-102790936D01*
X187923559Y-102825910D01*
X187778569Y-103038110D01*
X187729585Y-103280000D01*
X186477000Y-103280000D01*
X186477000Y-103082836D01*
X186370660Y-102548227D01*
X186067828Y-102095008D01*
X185614609Y-101792176D01*
X185080000Y-101685836D01*
X184545391Y-101792176D01*
X184092172Y-102095008D01*
X183810000Y-102517307D01*
X183527828Y-102095008D01*
X183300000Y-101942778D01*
X183300000Y-101719216D01*
X183385317Y-101703162D01*
X183601441Y-101564090D01*
X183746431Y-101351890D01*
X183797440Y-101100000D01*
X183797440Y-100663691D01*
X187740000Y-100663691D01*
X187740000Y-101254250D01*
X187898750Y-101413000D01*
X188873000Y-101413000D01*
X188873000Y-100313750D01*
X189127000Y-100313750D01*
X189127000Y-101413000D01*
X190101250Y-101413000D01*
X190260000Y-101254250D01*
X190260000Y-100663691D01*
X190163327Y-100430302D01*
X189984699Y-100251673D01*
X189751310Y-100155000D01*
X189285750Y-100155000D01*
X189127000Y-100313750D01*
X188873000Y-100313750D01*
X188714250Y-100155000D01*
X188248690Y-100155000D01*
X188015301Y-100251673D01*
X187836673Y-100430302D01*
X187740000Y-100663691D01*
X183797440Y-100663691D01*
X183797440Y-99760000D01*
X186000000Y-99760000D01*
X186290839Y-99702148D01*
X186537401Y-99537401D01*
X187407800Y-98667002D01*
X187513782Y-98667002D01*
X187392642Y-98899026D01*
X187395291Y-98914791D01*
X187649268Y-99442036D01*
X188085680Y-99831954D01*
X188638087Y-100025184D01*
X188873000Y-99880924D01*
X188873000Y-98667000D01*
X189127000Y-98667000D01*
X189127000Y-99880924D01*
X189361913Y-100025184D01*
X189914320Y-99831954D01*
X190350732Y-99442036D01*
X190604709Y-98914791D01*
X190607358Y-98899026D01*
X190486217Y-98667000D01*
X189127000Y-98667000D01*
X188873000Y-98667000D01*
X188853000Y-98667000D01*
X188853000Y-98413000D01*
X188873000Y-98413000D01*
X188873000Y-98393000D01*
X189127000Y-98393000D01*
X189127000Y-98413000D01*
X190486217Y-98413000D01*
X190607358Y-98180974D01*
X190604709Y-98165209D01*
X190350732Y-97637964D01*
X189934931Y-97266461D01*
X190244415Y-97059670D01*
X190569271Y-96573489D01*
X190683345Y-96000000D01*
X190569271Y-95426511D01*
X190244415Y-94940330D01*
X190230087Y-94930757D01*
X190251317Y-94926762D01*
X190467441Y-94787690D01*
X190612431Y-94575490D01*
X190663440Y-94323600D01*
X190663440Y-92596400D01*
X190619162Y-92361083D01*
X190480090Y-92144959D01*
X190267890Y-91999969D01*
X190016000Y-91948960D01*
X189760000Y-91948960D01*
X189760000Y-91832038D01*
X189860317Y-91813162D01*
X190076441Y-91674090D01*
X190221431Y-91461890D01*
X190272440Y-91210000D01*
X190272440Y-89710000D01*
X190228162Y-89474683D01*
X190089090Y-89258559D01*
X190020994Y-89212031D01*
X190163327Y-89069698D01*
X190260000Y-88836309D01*
X190260000Y-88245750D01*
X190101250Y-88087000D01*
X189127000Y-88087000D01*
X189127000Y-88107000D01*
X188873000Y-88107000D01*
X188873000Y-88087000D01*
X188853000Y-88087000D01*
X188853000Y-87833000D01*
X188873000Y-87833000D01*
X188873000Y-86733750D01*
X189127000Y-86733750D01*
X189127000Y-87833000D01*
X190101250Y-87833000D01*
X190260000Y-87674250D01*
X190260000Y-87083691D01*
X190163327Y-86850302D01*
X189984699Y-86671673D01*
X189751310Y-86575000D01*
X189285750Y-86575000D01*
X189127000Y-86733750D01*
X188873000Y-86733750D01*
X188714250Y-86575000D01*
X188248690Y-86575000D01*
X188015301Y-86671673D01*
X187860000Y-86826975D01*
X187860000Y-86127000D01*
X188996494Y-86127000D01*
X189098110Y-86196431D01*
X189098110Y-86196431D01*
G37*
X189098110Y-86196431D02*
X189350000Y-86247440D01*
X190650000Y-86247440D01*
X190885317Y-86203162D01*
X191003676Y-86127000D01*
X193290000Y-86127000D01*
X193290000Y-106000000D01*
X193303642Y-106068584D01*
X193303642Y-106138513D01*
X193379762Y-106521196D01*
X193399395Y-106568593D01*
X193485776Y-106777138D01*
X193702549Y-107101561D01*
X193702550Y-107101562D01*
X193898438Y-107297451D01*
X194222862Y-107514223D01*
X194328877Y-107558136D01*
X194478804Y-107620238D01*
X194861486Y-107696358D01*
X196253707Y-107973288D01*
X197316546Y-108683454D01*
X198026712Y-109746295D01*
X198276090Y-111000000D01*
X198026712Y-112253705D01*
X197316546Y-113316546D01*
X196253707Y-114026712D01*
X194930069Y-114290000D01*
X184959802Y-114290000D01*
X185627362Y-113622440D01*
X185800000Y-113622440D01*
X186035317Y-113578162D01*
X186125981Y-113519821D01*
X186343691Y-113610000D01*
X186484250Y-113610000D01*
X186643000Y-113451250D01*
X186643000Y-112327000D01*
X186623000Y-112327000D01*
X186623000Y-112073000D01*
X186643000Y-112073000D01*
X186643000Y-110948750D01*
X186897000Y-110948750D01*
X186897000Y-112073000D01*
X186917000Y-112073000D01*
X186917000Y-112327000D01*
X186897000Y-112327000D01*
X186897000Y-113451250D01*
X187055750Y-113610000D01*
X187196309Y-113610000D01*
X187413121Y-113520193D01*
X187488110Y-113571431D01*
X187740000Y-113622440D01*
X188340000Y-113622440D01*
X188575317Y-113578162D01*
X188674528Y-113514322D01*
X188758110Y-113571431D01*
X189010000Y-113622440D01*
X189610000Y-113622440D01*
X189845317Y-113578162D01*
X190061441Y-113439090D01*
X190206431Y-113226890D01*
X190257440Y-112975000D01*
X190257440Y-111425000D01*
X190213162Y-111189683D01*
X190074090Y-110973559D01*
X189861890Y-110828569D01*
X189610000Y-110777560D01*
X189010000Y-110777560D01*
X188774683Y-110821838D01*
X188675472Y-110885678D01*
X188591890Y-110828569D01*
X188340000Y-110777560D01*
X187740000Y-110777560D01*
X187504683Y-110821838D01*
X187414019Y-110880179D01*
X187196309Y-110790000D01*
X187055750Y-110790000D01*
X186897000Y-110948750D01*
X186643000Y-110948750D01*
X186484250Y-110790000D01*
X186343691Y-110790000D01*
X186126879Y-110879807D01*
X186051890Y-110828569D01*
X185800000Y-110777560D01*
X185200000Y-110777560D01*
X184964683Y-110821838D01*
X184865472Y-110885678D01*
X184781890Y-110828569D01*
X184530000Y-110777560D01*
X184352362Y-110777560D01*
X182450000Y-108875198D01*
X182450000Y-108175334D01*
X182533691Y-108210000D01*
X182674250Y-108210000D01*
X182833000Y-108051250D01*
X182833000Y-106927000D01*
X183087000Y-106927000D01*
X183087000Y-108051250D01*
X183245750Y-108210000D01*
X183386309Y-108210000D01*
X183595000Y-108123557D01*
X183803691Y-108210000D01*
X183944250Y-108210000D01*
X184103000Y-108051250D01*
X184103000Y-106927000D01*
X183087000Y-106927000D01*
X182833000Y-106927000D01*
X182813000Y-106927000D01*
X182813000Y-106673000D01*
X182833000Y-106673000D01*
X182833000Y-106653000D01*
X183087000Y-106653000D01*
X183087000Y-106673000D01*
X184103000Y-106673000D01*
X184103000Y-105548750D01*
X183944250Y-105390000D01*
X183803691Y-105390000D01*
X183595000Y-105476443D01*
X183386309Y-105390000D01*
X183245750Y-105390000D01*
X183087002Y-105548748D01*
X183087002Y-105439543D01*
X183527828Y-105144992D01*
X183810000Y-104722693D01*
X184092172Y-105144992D01*
X184492960Y-105412790D01*
X184357000Y-105548750D01*
X184357000Y-106673000D01*
X184377000Y-106673000D01*
X184377000Y-106927000D01*
X184357000Y-106927000D01*
X184357000Y-108051250D01*
X184515750Y-108210000D01*
X184656309Y-108210000D01*
X184873121Y-108120193D01*
X184948110Y-108171431D01*
X185200000Y-108222440D01*
X185800000Y-108222440D01*
X185864990Y-108210211D01*
X185864838Y-108385167D01*
X186006883Y-108728943D01*
X186269673Y-108992192D01*
X186613201Y-109134838D01*
X186985167Y-109135162D01*
X187328943Y-108993117D01*
X187592192Y-108730327D01*
X187734838Y-108386799D01*
X187734992Y-108210000D01*
X187754250Y-108210000D01*
X187913000Y-108051250D01*
X187913000Y-106927000D01*
X188167000Y-106927000D01*
X188167000Y-108051250D01*
X188325750Y-108210000D01*
X188466309Y-108210000D01*
X188675000Y-108123557D01*
X188883691Y-108210000D01*
X189024250Y-108210000D01*
X189183000Y-108051250D01*
X189183000Y-106927000D01*
X189437000Y-106927000D01*
X189437000Y-108051250D01*
X189595750Y-108210000D01*
X189736309Y-108210000D01*
X189969698Y-108113327D01*
X190148327Y-107934699D01*
X190245000Y-107701310D01*
X190245000Y-107085750D01*
X190086250Y-106927000D01*
X189437000Y-106927000D01*
X189183000Y-106927000D01*
X188167000Y-106927000D01*
X187913000Y-106927000D01*
X187893000Y-106927000D01*
X187893000Y-106673000D01*
X187913000Y-106673000D01*
X187913000Y-105548750D01*
X187754250Y-105390000D01*
X187613691Y-105390000D01*
X187396879Y-105479807D01*
X187321890Y-105428569D01*
X187070000Y-105377560D01*
X186470000Y-105377560D01*
X186234683Y-105421838D01*
X186135472Y-105485678D01*
X186051890Y-105428569D01*
X185800000Y-105377560D01*
X185719766Y-105377560D01*
X186067828Y-105144992D01*
X186298345Y-104800000D01*
X187729442Y-104800000D01*
X187771838Y-105025317D01*
X187910910Y-105241441D01*
X188123110Y-105386431D01*
X188294593Y-105421157D01*
X188167000Y-105548750D01*
X188167000Y-106673000D01*
X189183000Y-106673000D01*
X189183000Y-106653000D01*
X189437000Y-106653000D01*
X189437000Y-106673000D01*
X190086250Y-106673000D01*
X190245000Y-106514250D01*
X190245000Y-105898690D01*
X190148327Y-105665301D01*
X189969698Y-105486673D01*
X189780294Y-105408219D01*
X189860317Y-105393162D01*
X190076441Y-105254090D01*
X190221431Y-105041890D01*
X190272440Y-104790000D01*
X190272440Y-103290000D01*
X190228162Y-103054683D01*
X190089090Y-102838559D01*
X190020994Y-102792031D01*
X190163327Y-102649698D01*
X190260000Y-102416309D01*
X190260000Y-101825750D01*
X190101250Y-101667000D01*
X189127000Y-101667000D01*
X189127000Y-101687000D01*
X188873000Y-101687000D01*
X188873000Y-101667000D01*
X187898750Y-101667000D01*
X187740000Y-101825750D01*
X187740000Y-102416309D01*
X187836673Y-102649698D01*
X187977910Y-102790936D01*
X187923559Y-102825910D01*
X187778569Y-103038110D01*
X187729585Y-103280000D01*
X186477000Y-103280000D01*
X186477000Y-103082836D01*
X186370660Y-102548227D01*
X186067828Y-102095008D01*
X185614609Y-101792176D01*
X185080000Y-101685836D01*
X184545391Y-101792176D01*
X184092172Y-102095008D01*
X183810000Y-102517307D01*
X183527828Y-102095008D01*
X183300000Y-101942778D01*
X183300000Y-101719216D01*
X183385317Y-101703162D01*
X183601441Y-101564090D01*
X183746431Y-101351890D01*
X183797440Y-101100000D01*
X183797440Y-100663691D01*
X187740000Y-100663691D01*
X187740000Y-101254250D01*
X187898750Y-101413000D01*
X188873000Y-101413000D01*
X188873000Y-100313750D01*
X189127000Y-100313750D01*
X189127000Y-101413000D01*
X190101250Y-101413000D01*
X190260000Y-101254250D01*
X190260000Y-100663691D01*
X190163327Y-100430302D01*
X189984699Y-100251673D01*
X189751310Y-100155000D01*
X189285750Y-100155000D01*
X189127000Y-100313750D01*
X188873000Y-100313750D01*
X188714250Y-100155000D01*
X188248690Y-100155000D01*
X188015301Y-100251673D01*
X187836673Y-100430302D01*
X187740000Y-100663691D01*
X183797440Y-100663691D01*
X183797440Y-99760000D01*
X186000000Y-99760000D01*
X186290839Y-99702148D01*
X186537401Y-99537401D01*
X187407800Y-98667002D01*
X187513782Y-98667002D01*
X187392642Y-98899026D01*
X187395291Y-98914791D01*
X187649268Y-99442036D01*
X188085680Y-99831954D01*
X188638087Y-100025184D01*
X188873000Y-99880924D01*
X188873000Y-98667000D01*
X189127000Y-98667000D01*
X189127000Y-99880924D01*
X189361913Y-100025184D01*
X189914320Y-99831954D01*
X190350732Y-99442036D01*
X190604709Y-98914791D01*
X190607358Y-98899026D01*
X190486217Y-98667000D01*
X189127000Y-98667000D01*
X188873000Y-98667000D01*
X188853000Y-98667000D01*
X188853000Y-98413000D01*
X188873000Y-98413000D01*
X188873000Y-98393000D01*
X189127000Y-98393000D01*
X189127000Y-98413000D01*
X190486217Y-98413000D01*
X190607358Y-98180974D01*
X190604709Y-98165209D01*
X190350732Y-97637964D01*
X189934931Y-97266461D01*
X190244415Y-97059670D01*
X190569271Y-96573489D01*
X190683345Y-96000000D01*
X190569271Y-95426511D01*
X190244415Y-94940330D01*
X190230087Y-94930757D01*
X190251317Y-94926762D01*
X190467441Y-94787690D01*
X190612431Y-94575490D01*
X190663440Y-94323600D01*
X190663440Y-92596400D01*
X190619162Y-92361083D01*
X190480090Y-92144959D01*
X190267890Y-91999969D01*
X190016000Y-91948960D01*
X189760000Y-91948960D01*
X189760000Y-91832038D01*
X189860317Y-91813162D01*
X190076441Y-91674090D01*
X190221431Y-91461890D01*
X190272440Y-91210000D01*
X190272440Y-89710000D01*
X190228162Y-89474683D01*
X190089090Y-89258559D01*
X190020994Y-89212031D01*
X190163327Y-89069698D01*
X190260000Y-88836309D01*
X190260000Y-88245750D01*
X190101250Y-88087000D01*
X189127000Y-88087000D01*
X189127000Y-88107000D01*
X188873000Y-88107000D01*
X188873000Y-88087000D01*
X188853000Y-88087000D01*
X188853000Y-87833000D01*
X188873000Y-87833000D01*
X188873000Y-86733750D01*
X189127000Y-86733750D01*
X189127000Y-87833000D01*
X190101250Y-87833000D01*
X190260000Y-87674250D01*
X190260000Y-87083691D01*
X190163327Y-86850302D01*
X189984699Y-86671673D01*
X189751310Y-86575000D01*
X189285750Y-86575000D01*
X189127000Y-86733750D01*
X188873000Y-86733750D01*
X188714250Y-86575000D01*
X188248690Y-86575000D01*
X188015301Y-86671673D01*
X187860000Y-86826975D01*
X187860000Y-86127000D01*
X188996494Y-86127000D01*
X189098110Y-86196431D01*
G36*
X165127000Y-88253000D02*
X165147000Y-88253000D01*
X165147000Y-88507000D01*
X165127000Y-88507000D01*
X165127000Y-90111720D01*
X165343070Y-90234220D01*
X165417277Y-90219260D01*
X165898026Y-89957630D01*
X166242059Y-89531941D01*
X166260702Y-89468778D01*
X166552172Y-89904992D01*
X166780000Y-90057222D01*
X166780000Y-90265731D01*
X166614683Y-90296838D01*
X166398559Y-90435910D01*
X166253569Y-90648110D01*
X166202560Y-90900000D01*
X166202560Y-92400000D01*
X166246838Y-92635317D01*
X166385910Y-92851441D01*
X166598110Y-92996431D01*
X166611197Y-92999081D01*
X166398559Y-93135910D01*
X166253569Y-93348110D01*
X166250122Y-93365130D01*
X165914833Y-93364838D01*
X165571057Y-93506883D01*
X165307808Y-93769673D01*
X165165162Y-94113201D01*
X165164838Y-94485167D01*
X165306883Y-94828943D01*
X165569673Y-95092192D01*
X165913201Y-95234838D01*
X166227983Y-95235112D01*
X166246838Y-95335317D01*
X166385910Y-95551441D01*
X166598110Y-95696431D01*
X166850000Y-95747440D01*
X168150000Y-95747440D01*
X168385317Y-95703162D01*
X168601441Y-95564090D01*
X168746431Y-95351890D01*
X168749081Y-95338803D01*
X168885910Y-95551441D01*
X169065109Y-95673882D01*
X169064838Y-95985167D01*
X169206883Y-96328943D01*
X169469673Y-96592192D01*
X169813201Y-96734838D01*
X170185167Y-96735162D01*
X170528943Y-96593117D01*
X170609979Y-96512222D01*
X170609979Y-101842074D01*
X170497277Y-101780740D01*
X170423070Y-101765780D01*
X170207000Y-101888280D01*
X170207000Y-103493000D01*
X170227000Y-103493000D01*
X170227000Y-103747000D01*
X170207000Y-103747000D01*
X170207000Y-103767000D01*
X169953000Y-103767000D01*
X169953000Y-103747000D01*
X169933000Y-103747000D01*
X169933000Y-103493000D01*
X169953000Y-103493000D01*
X169953000Y-101888280D01*
X169736930Y-101765780D01*
X169662723Y-101780740D01*
X169181974Y-102042370D01*
X168837941Y-102468059D01*
X168819298Y-102531222D01*
X168527828Y-102095008D01*
X168300000Y-101942778D01*
X168300000Y-101719216D01*
X168385317Y-101703162D01*
X168601441Y-101564090D01*
X168746431Y-101351890D01*
X168797440Y-101100000D01*
X168797440Y-99600000D01*
X168753162Y-99364683D01*
X168614090Y-99148559D01*
X168401890Y-99003569D01*
X168388803Y-99000919D01*
X168601441Y-98864090D01*
X168746431Y-98651890D01*
X168797440Y-98400000D01*
X168797440Y-96900000D01*
X168753162Y-96664683D01*
X168614090Y-96448559D01*
X168401890Y-96303569D01*
X168150000Y-96252560D01*
X166850000Y-96252560D01*
X166614683Y-96296838D01*
X166398559Y-96435910D01*
X166253569Y-96648110D01*
X166250122Y-96665130D01*
X165914833Y-96664838D01*
X165571057Y-96806883D01*
X165307808Y-97069673D01*
X165165162Y-97413201D01*
X165164838Y-97785167D01*
X165306883Y-98128943D01*
X165569673Y-98392192D01*
X165913201Y-98534838D01*
X166227983Y-98535112D01*
X166246838Y-98635317D01*
X166385910Y-98851441D01*
X166598110Y-98996431D01*
X166611197Y-98999081D01*
X166398559Y-99135910D01*
X166253569Y-99348110D01*
X166202560Y-99600000D01*
X166202560Y-101100000D01*
X166246838Y-101335317D01*
X166385910Y-101551441D01*
X166598110Y-101696431D01*
X166780000Y-101733265D01*
X166780000Y-101942778D01*
X166552172Y-102095008D01*
X166260702Y-102531222D01*
X166242059Y-102468059D01*
X165898026Y-102042370D01*
X165417277Y-101780740D01*
X165343070Y-101765780D01*
X165127000Y-101888280D01*
X165127000Y-103493000D01*
X165147000Y-103493000D01*
X165147000Y-103747000D01*
X165127000Y-103747000D01*
X165127000Y-103767000D01*
X164873000Y-103767000D01*
X164873000Y-103747000D01*
X164853000Y-103747000D01*
X164853000Y-103493000D01*
X164873000Y-103493000D01*
X164873000Y-101888280D01*
X164656930Y-101765780D01*
X164582723Y-101780740D01*
X164101974Y-102042370D01*
X163757941Y-102468059D01*
X163739298Y-102531222D01*
X163447828Y-102095008D01*
X163220000Y-101942778D01*
X163220000Y-101734269D01*
X163385317Y-101703162D01*
X163601441Y-101564090D01*
X163746431Y-101351890D01*
X163797440Y-101100000D01*
X163797440Y-99600000D01*
X163753162Y-99364683D01*
X163614090Y-99148559D01*
X163401890Y-99003569D01*
X163388803Y-99000919D01*
X163601441Y-98864090D01*
X163746431Y-98651890D01*
X163797440Y-98400000D01*
X163797440Y-96900000D01*
X163753162Y-96664683D01*
X163614090Y-96448559D01*
X163434891Y-96326118D01*
X163435162Y-96014833D01*
X163312077Y-95716943D01*
X163385317Y-95703162D01*
X163601441Y-95564090D01*
X163746431Y-95351890D01*
X163770125Y-95234888D01*
X164085167Y-95235162D01*
X164428943Y-95093117D01*
X164692192Y-94830327D01*
X164834838Y-94486799D01*
X164835162Y-94114833D01*
X164693117Y-93771057D01*
X164430327Y-93507808D01*
X164086799Y-93365162D01*
X163753197Y-93364871D01*
X163753162Y-93364683D01*
X163614090Y-93148559D01*
X163401890Y-93003569D01*
X163388803Y-93000919D01*
X163601441Y-92864090D01*
X163746431Y-92651890D01*
X163797440Y-92400000D01*
X163797440Y-90900000D01*
X163753162Y-90664683D01*
X163614090Y-90448559D01*
X163401890Y-90303569D01*
X163220000Y-90266735D01*
X163220000Y-90057222D01*
X163447828Y-89904992D01*
X163739298Y-89468778D01*
X163757941Y-89531941D01*
X164101974Y-89957630D01*
X164582723Y-90219260D01*
X164656930Y-90234220D01*
X164873000Y-90111720D01*
X164873000Y-88507000D01*
X164853000Y-88507000D01*
X164853000Y-88253000D01*
X164873000Y-88253000D01*
X164873000Y-88233000D01*
X165127000Y-88233000D01*
X165127000Y-88253000D01*
X165127000Y-88253000D01*
G37*
X165127000Y-88253000D02*
X165147000Y-88253000D01*
X165147000Y-88507000D01*
X165127000Y-88507000D01*
X165127000Y-90111720D01*
X165343070Y-90234220D01*
X165417277Y-90219260D01*
X165898026Y-89957630D01*
X166242059Y-89531941D01*
X166260702Y-89468778D01*
X166552172Y-89904992D01*
X166780000Y-90057222D01*
X166780000Y-90265731D01*
X166614683Y-90296838D01*
X166398559Y-90435910D01*
X166253569Y-90648110D01*
X166202560Y-90900000D01*
X166202560Y-92400000D01*
X166246838Y-92635317D01*
X166385910Y-92851441D01*
X166598110Y-92996431D01*
X166611197Y-92999081D01*
X166398559Y-93135910D01*
X166253569Y-93348110D01*
X166250122Y-93365130D01*
X165914833Y-93364838D01*
X165571057Y-93506883D01*
X165307808Y-93769673D01*
X165165162Y-94113201D01*
X165164838Y-94485167D01*
X165306883Y-94828943D01*
X165569673Y-95092192D01*
X165913201Y-95234838D01*
X166227983Y-95235112D01*
X166246838Y-95335317D01*
X166385910Y-95551441D01*
X166598110Y-95696431D01*
X166850000Y-95747440D01*
X168150000Y-95747440D01*
X168385317Y-95703162D01*
X168601441Y-95564090D01*
X168746431Y-95351890D01*
X168749081Y-95338803D01*
X168885910Y-95551441D01*
X169065109Y-95673882D01*
X169064838Y-95985167D01*
X169206883Y-96328943D01*
X169469673Y-96592192D01*
X169813201Y-96734838D01*
X170185167Y-96735162D01*
X170528943Y-96593117D01*
X170609979Y-96512222D01*
X170609979Y-101842074D01*
X170497277Y-101780740D01*
X170423070Y-101765780D01*
X170207000Y-101888280D01*
X170207000Y-103493000D01*
X170227000Y-103493000D01*
X170227000Y-103747000D01*
X170207000Y-103747000D01*
X170207000Y-103767000D01*
X169953000Y-103767000D01*
X169953000Y-103747000D01*
X169933000Y-103747000D01*
X169933000Y-103493000D01*
X169953000Y-103493000D01*
X169953000Y-101888280D01*
X169736930Y-101765780D01*
X169662723Y-101780740D01*
X169181974Y-102042370D01*
X168837941Y-102468059D01*
X168819298Y-102531222D01*
X168527828Y-102095008D01*
X168300000Y-101942778D01*
X168300000Y-101719216D01*
X168385317Y-101703162D01*
X168601441Y-101564090D01*
X168746431Y-101351890D01*
X168797440Y-101100000D01*
X168797440Y-99600000D01*
X168753162Y-99364683D01*
X168614090Y-99148559D01*
X168401890Y-99003569D01*
X168388803Y-99000919D01*
X168601441Y-98864090D01*
X168746431Y-98651890D01*
X168797440Y-98400000D01*
X168797440Y-96900000D01*
X168753162Y-96664683D01*
X168614090Y-96448559D01*
X168401890Y-96303569D01*
X168150000Y-96252560D01*
X166850000Y-96252560D01*
X166614683Y-96296838D01*
X166398559Y-96435910D01*
X166253569Y-96648110D01*
X166250122Y-96665130D01*
X165914833Y-96664838D01*
X165571057Y-96806883D01*
X165307808Y-97069673D01*
X165165162Y-97413201D01*
X165164838Y-97785167D01*
X165306883Y-98128943D01*
X165569673Y-98392192D01*
X165913201Y-98534838D01*
X166227983Y-98535112D01*
X166246838Y-98635317D01*
X166385910Y-98851441D01*
X166598110Y-98996431D01*
X166611197Y-98999081D01*
X166398559Y-99135910D01*
X166253569Y-99348110D01*
X166202560Y-99600000D01*
X166202560Y-101100000D01*
X166246838Y-101335317D01*
X166385910Y-101551441D01*
X166598110Y-101696431D01*
X166780000Y-101733265D01*
X166780000Y-101942778D01*
X166552172Y-102095008D01*
X166260702Y-102531222D01*
X166242059Y-102468059D01*
X165898026Y-102042370D01*
X165417277Y-101780740D01*
X165343070Y-101765780D01*
X165127000Y-101888280D01*
X165127000Y-103493000D01*
X165147000Y-103493000D01*
X165147000Y-103747000D01*
X165127000Y-103747000D01*
X165127000Y-103767000D01*
X164873000Y-103767000D01*
X164873000Y-103747000D01*
X164853000Y-103747000D01*
X164853000Y-103493000D01*
X164873000Y-103493000D01*
X164873000Y-101888280D01*
X164656930Y-101765780D01*
X164582723Y-101780740D01*
X164101974Y-102042370D01*
X163757941Y-102468059D01*
X163739298Y-102531222D01*
X163447828Y-102095008D01*
X163220000Y-101942778D01*
X163220000Y-101734269D01*
X163385317Y-101703162D01*
X163601441Y-101564090D01*
X163746431Y-101351890D01*
X163797440Y-101100000D01*
X163797440Y-99600000D01*
X163753162Y-99364683D01*
X163614090Y-99148559D01*
X163401890Y-99003569D01*
X163388803Y-99000919D01*
X163601441Y-98864090D01*
X163746431Y-98651890D01*
X163797440Y-98400000D01*
X163797440Y-96900000D01*
X163753162Y-96664683D01*
X163614090Y-96448559D01*
X163434891Y-96326118D01*
X163435162Y-96014833D01*
X163312077Y-95716943D01*
X163385317Y-95703162D01*
X163601441Y-95564090D01*
X163746431Y-95351890D01*
X163770125Y-95234888D01*
X164085167Y-95235162D01*
X164428943Y-95093117D01*
X164692192Y-94830327D01*
X164834838Y-94486799D01*
X164835162Y-94114833D01*
X164693117Y-93771057D01*
X164430327Y-93507808D01*
X164086799Y-93365162D01*
X163753197Y-93364871D01*
X163753162Y-93364683D01*
X163614090Y-93148559D01*
X163401890Y-93003569D01*
X163388803Y-93000919D01*
X163601441Y-92864090D01*
X163746431Y-92651890D01*
X163797440Y-92400000D01*
X163797440Y-90900000D01*
X163753162Y-90664683D01*
X163614090Y-90448559D01*
X163401890Y-90303569D01*
X163220000Y-90266735D01*
X163220000Y-90057222D01*
X163447828Y-89904992D01*
X163739298Y-89468778D01*
X163757941Y-89531941D01*
X164101974Y-89957630D01*
X164582723Y-90219260D01*
X164656930Y-90234220D01*
X164873000Y-90111720D01*
X164873000Y-88507000D01*
X164853000Y-88507000D01*
X164853000Y-88253000D01*
X164873000Y-88253000D01*
X164873000Y-88233000D01*
X165127000Y-88233000D01*
X165127000Y-88253000D01*
G36*
X166552172Y-86855008D02*
X166260702Y-87291222D01*
X166242059Y-87228059D01*
X166119004Y-87075798D01*
X166572362Y-86622440D01*
X166745000Y-86622440D01*
X166961084Y-86581781D01*
X166552172Y-86855008D01*
X166552172Y-86855008D01*
G37*
X166552172Y-86855008D02*
X166260702Y-87291222D01*
X166242059Y-87228059D01*
X166119004Y-87075798D01*
X166572362Y-86622440D01*
X166745000Y-86622440D01*
X166961084Y-86581781D01*
X166552172Y-86855008D01*
G36*
X118898559Y-86135910D02*
X118753569Y-86348110D01*
X118702560Y-86600000D01*
X118702560Y-88100000D01*
X118746838Y-88335317D01*
X118885910Y-88551441D01*
X119098110Y-88696431D01*
X119350000Y-88747440D01*
X120650000Y-88747440D01*
X120885317Y-88703162D01*
X121101441Y-88564090D01*
X121246431Y-88351890D01*
X121270125Y-88234888D01*
X121365002Y-88234970D01*
X121365002Y-102568293D01*
X118942587Y-104990708D01*
X118777840Y-105237270D01*
X118719988Y-105528109D01*
X118719988Y-108021401D01*
X118777840Y-108312240D01*
X118942587Y-108558802D01*
X119746188Y-109362403D01*
X119992749Y-109527150D01*
X120041003Y-109536748D01*
X120283589Y-109585002D01*
X122100002Y-109585002D01*
X122390841Y-109527150D01*
X122637403Y-109362403D01*
X123007400Y-108992406D01*
X123092517Y-108865019D01*
X125073497Y-110845999D01*
X125000000Y-110876443D01*
X124791309Y-110790000D01*
X124650750Y-110790000D01*
X124492000Y-110948750D01*
X124492000Y-112073000D01*
X125508000Y-112073000D01*
X125508000Y-112053000D01*
X125762000Y-112053000D01*
X125762000Y-112073000D01*
X125782000Y-112073000D01*
X125782000Y-112327000D01*
X125762000Y-112327000D01*
X125762000Y-112347000D01*
X125508000Y-112347000D01*
X125508000Y-112327000D01*
X124492000Y-112327000D01*
X124492000Y-112347000D01*
X124238000Y-112347000D01*
X124238000Y-112327000D01*
X123222000Y-112327000D01*
X123222000Y-112347000D01*
X122968000Y-112347000D01*
X122968000Y-112327000D01*
X122948000Y-112327000D01*
X122948000Y-112073000D01*
X122968000Y-112073000D01*
X122968000Y-110948750D01*
X123222000Y-110948750D01*
X123222000Y-112073000D01*
X124238000Y-112073000D01*
X124238000Y-110948750D01*
X124079250Y-110790000D01*
X123938691Y-110790000D01*
X123730000Y-110876443D01*
X123521309Y-110790000D01*
X123380750Y-110790000D01*
X123222000Y-110948750D01*
X122968000Y-110948750D01*
X122809250Y-110790000D01*
X122735009Y-110790000D01*
X122735162Y-110614833D01*
X122593117Y-110271057D01*
X122330327Y-110007808D01*
X121986799Y-109865162D01*
X121614833Y-109864838D01*
X121271057Y-110006883D01*
X121007808Y-110269673D01*
X120865162Y-110613201D01*
X120865008Y-110790000D01*
X120840750Y-110790000D01*
X120682000Y-110948750D01*
X120682000Y-112073000D01*
X120702000Y-112073000D01*
X120702000Y-112327000D01*
X120682000Y-112327000D01*
X120682000Y-113451250D01*
X120840750Y-113610000D01*
X120981309Y-113610000D01*
X121198121Y-113520193D01*
X121273110Y-113571431D01*
X121525000Y-113622440D01*
X121697638Y-113622440D01*
X121912600Y-113837402D01*
X122159162Y-114002149D01*
X122450001Y-114060001D01*
X126279999Y-114060001D01*
X126570838Y-114002149D01*
X126817400Y-113837402D01*
X126960448Y-113694354D01*
X127012598Y-113772402D01*
X127530196Y-114290000D01*
X115069931Y-114290000D01*
X113746295Y-114026712D01*
X112683454Y-113316546D01*
X112128335Y-112485750D01*
X119620000Y-112485750D01*
X119620000Y-113101310D01*
X119716673Y-113334699D01*
X119895302Y-113513327D01*
X120128691Y-113610000D01*
X120269250Y-113610000D01*
X120428000Y-113451250D01*
X120428000Y-112327000D01*
X119778750Y-112327000D01*
X119620000Y-112485750D01*
X112128335Y-112485750D01*
X111973288Y-112253707D01*
X111783324Y-111298690D01*
X119620000Y-111298690D01*
X119620000Y-111914250D01*
X119778750Y-112073000D01*
X120428000Y-112073000D01*
X120428000Y-110948750D01*
X120269250Y-110790000D01*
X120128691Y-110790000D01*
X119895302Y-110886673D01*
X119716673Y-111065301D01*
X119620000Y-111298690D01*
X111783324Y-111298690D01*
X111723910Y-111000000D01*
X111973288Y-109746293D01*
X112683454Y-108683454D01*
X113746295Y-107973288D01*
X115138514Y-107696358D01*
X115138515Y-107696358D01*
X115521196Y-107620238D01*
X115615369Y-107581230D01*
X115777138Y-107514224D01*
X116101561Y-107297451D01*
X116155122Y-107243890D01*
X116297451Y-107101562D01*
X116514223Y-106777138D01*
X116573098Y-106635000D01*
X116620238Y-106521196D01*
X116696358Y-106138514D01*
X116696358Y-106068584D01*
X116710000Y-106000000D01*
X116710000Y-86127000D01*
X118912406Y-86127000D01*
X118898559Y-86135910D01*
X118898559Y-86135910D01*
G37*
X118898559Y-86135910D02*
X118753569Y-86348110D01*
X118702560Y-86600000D01*
X118702560Y-88100000D01*
X118746838Y-88335317D01*
X118885910Y-88551441D01*
X119098110Y-88696431D01*
X119350000Y-88747440D01*
X120650000Y-88747440D01*
X120885317Y-88703162D01*
X121101441Y-88564090D01*
X121246431Y-88351890D01*
X121270125Y-88234888D01*
X121365002Y-88234970D01*
X121365002Y-102568293D01*
X118942587Y-104990708D01*
X118777840Y-105237270D01*
X118719988Y-105528109D01*
X118719988Y-108021401D01*
X118777840Y-108312240D01*
X118942587Y-108558802D01*
X119746188Y-109362403D01*
X119992749Y-109527150D01*
X120041003Y-109536748D01*
X120283589Y-109585002D01*
X122100002Y-109585002D01*
X122390841Y-109527150D01*
X122637403Y-109362403D01*
X123007400Y-108992406D01*
X123092517Y-108865019D01*
X125073497Y-110845999D01*
X125000000Y-110876443D01*
X124791309Y-110790000D01*
X124650750Y-110790000D01*
X124492000Y-110948750D01*
X124492000Y-112073000D01*
X125508000Y-112073000D01*
X125508000Y-112053000D01*
X125762000Y-112053000D01*
X125762000Y-112073000D01*
X125782000Y-112073000D01*
X125782000Y-112327000D01*
X125762000Y-112327000D01*
X125762000Y-112347000D01*
X125508000Y-112347000D01*
X125508000Y-112327000D01*
X124492000Y-112327000D01*
X124492000Y-112347000D01*
X124238000Y-112347000D01*
X124238000Y-112327000D01*
X123222000Y-112327000D01*
X123222000Y-112347000D01*
X122968000Y-112347000D01*
X122968000Y-112327000D01*
X122948000Y-112327000D01*
X122948000Y-112073000D01*
X122968000Y-112073000D01*
X122968000Y-110948750D01*
X123222000Y-110948750D01*
X123222000Y-112073000D01*
X124238000Y-112073000D01*
X124238000Y-110948750D01*
X124079250Y-110790000D01*
X123938691Y-110790000D01*
X123730000Y-110876443D01*
X123521309Y-110790000D01*
X123380750Y-110790000D01*
X123222000Y-110948750D01*
X122968000Y-110948750D01*
X122809250Y-110790000D01*
X122735009Y-110790000D01*
X122735162Y-110614833D01*
X122593117Y-110271057D01*
X122330327Y-110007808D01*
X121986799Y-109865162D01*
X121614833Y-109864838D01*
X121271057Y-110006883D01*
X121007808Y-110269673D01*
X120865162Y-110613201D01*
X120865008Y-110790000D01*
X120840750Y-110790000D01*
X120682000Y-110948750D01*
X120682000Y-112073000D01*
X120702000Y-112073000D01*
X120702000Y-112327000D01*
X120682000Y-112327000D01*
X120682000Y-113451250D01*
X120840750Y-113610000D01*
X120981309Y-113610000D01*
X121198121Y-113520193D01*
X121273110Y-113571431D01*
X121525000Y-113622440D01*
X121697638Y-113622440D01*
X121912600Y-113837402D01*
X122159162Y-114002149D01*
X122450001Y-114060001D01*
X126279999Y-114060001D01*
X126570838Y-114002149D01*
X126817400Y-113837402D01*
X126960448Y-113694354D01*
X127012598Y-113772402D01*
X127530196Y-114290000D01*
X115069931Y-114290000D01*
X113746295Y-114026712D01*
X112683454Y-113316546D01*
X112128335Y-112485750D01*
X119620000Y-112485750D01*
X119620000Y-113101310D01*
X119716673Y-113334699D01*
X119895302Y-113513327D01*
X120128691Y-113610000D01*
X120269250Y-113610000D01*
X120428000Y-113451250D01*
X120428000Y-112327000D01*
X119778750Y-112327000D01*
X119620000Y-112485750D01*
X112128335Y-112485750D01*
X111973288Y-112253707D01*
X111783324Y-111298690D01*
X119620000Y-111298690D01*
X119620000Y-111914250D01*
X119778750Y-112073000D01*
X120428000Y-112073000D01*
X120428000Y-110948750D01*
X120269250Y-110790000D01*
X120128691Y-110790000D01*
X119895302Y-110886673D01*
X119716673Y-111065301D01*
X119620000Y-111298690D01*
X111783324Y-111298690D01*
X111723910Y-111000000D01*
X111973288Y-109746293D01*
X112683454Y-108683454D01*
X113746295Y-107973288D01*
X115138514Y-107696358D01*
X115138515Y-107696358D01*
X115521196Y-107620238D01*
X115615369Y-107581230D01*
X115777138Y-107514224D01*
X116101561Y-107297451D01*
X116155122Y-107243890D01*
X116297451Y-107101562D01*
X116514223Y-106777138D01*
X116573098Y-106635000D01*
X116620238Y-106521196D01*
X116696358Y-106138514D01*
X116696358Y-106068584D01*
X116710000Y-106000000D01*
X116710000Y-86127000D01*
X118912406Y-86127000D01*
X118898559Y-86135910D01*
G36*
X121587601Y-78637078D02*
X121422854Y-78883640D01*
X121365002Y-79174479D01*
X121365002Y-83964969D01*
X121297440Y-83964910D01*
X121297440Y-83900000D01*
X121253162Y-83664683D01*
X121114090Y-83448559D01*
X120901890Y-83303569D01*
X120650000Y-83252560D01*
X119350000Y-83252560D01*
X119114683Y-83296838D01*
X118898559Y-83435910D01*
X118753569Y-83648110D01*
X118702560Y-83900000D01*
X118702560Y-85400000D01*
X118746838Y-85635317D01*
X118885910Y-85851441D01*
X118917463Y-85873000D01*
X116696358Y-85873000D01*
X116696358Y-85861486D01*
X116620238Y-85478804D01*
X116540318Y-85285861D01*
X116514223Y-85222862D01*
X116297451Y-84898438D01*
X116101562Y-84702550D01*
X116101561Y-84702549D01*
X115777138Y-84485776D01*
X115586360Y-84406754D01*
X115521196Y-84379762D01*
X115138515Y-84303642D01*
X115138514Y-84303642D01*
X113746295Y-84026712D01*
X112683454Y-83316546D01*
X111973288Y-82253707D01*
X111723910Y-81000000D01*
X111973288Y-79746293D01*
X112683454Y-78683454D01*
X113746295Y-77973288D01*
X115069931Y-77710000D01*
X122514679Y-77710000D01*
X121587601Y-78637078D01*
X121587601Y-78637078D01*
G37*
X121587601Y-78637078D02*
X121422854Y-78883640D01*
X121365002Y-79174479D01*
X121365002Y-83964969D01*
X121297440Y-83964910D01*
X121297440Y-83900000D01*
X121253162Y-83664683D01*
X121114090Y-83448559D01*
X120901890Y-83303569D01*
X120650000Y-83252560D01*
X119350000Y-83252560D01*
X119114683Y-83296838D01*
X118898559Y-83435910D01*
X118753569Y-83648110D01*
X118702560Y-83900000D01*
X118702560Y-85400000D01*
X118746838Y-85635317D01*
X118885910Y-85851441D01*
X118917463Y-85873000D01*
X116696358Y-85873000D01*
X116696358Y-85861486D01*
X116620238Y-85478804D01*
X116540318Y-85285861D01*
X116514223Y-85222862D01*
X116297451Y-84898438D01*
X116101562Y-84702550D01*
X116101561Y-84702549D01*
X115777138Y-84485776D01*
X115586360Y-84406754D01*
X115521196Y-84379762D01*
X115138515Y-84303642D01*
X115138514Y-84303642D01*
X113746295Y-84026712D01*
X112683454Y-83316546D01*
X111973288Y-82253707D01*
X111723910Y-81000000D01*
X111973288Y-79746293D01*
X112683454Y-78683454D01*
X113746295Y-77973288D01*
X115069931Y-77710000D01*
X122514679Y-77710000D01*
X121587601Y-78637078D01*
G36*
X196253707Y-77973288D02*
X197316546Y-78683454D01*
X198026712Y-79746295D01*
X198276090Y-81000000D01*
X198026712Y-82253705D01*
X197316546Y-83316546D01*
X196253707Y-84026712D01*
X194861486Y-84303642D01*
X194478804Y-84379762D01*
X194384629Y-84418771D01*
X194222862Y-84485777D01*
X193898438Y-84702549D01*
X193798841Y-84802147D01*
X193702549Y-84898439D01*
X193485776Y-85222862D01*
X193418965Y-85384161D01*
X193379762Y-85478804D01*
X193303642Y-85861487D01*
X193303642Y-85873000D01*
X191232007Y-85873000D01*
X191246431Y-85851890D01*
X191297440Y-85600000D01*
X191297440Y-84100000D01*
X191253162Y-83864683D01*
X191114090Y-83648559D01*
X190901890Y-83503569D01*
X190888803Y-83500919D01*
X191101441Y-83364090D01*
X191246431Y-83151890D01*
X191297440Y-82900000D01*
X191297440Y-81400000D01*
X191253162Y-81164683D01*
X191114090Y-80948559D01*
X190934934Y-80826147D01*
X190935162Y-80564833D01*
X190793117Y-80221057D01*
X190530327Y-79957808D01*
X190186799Y-79815162D01*
X189814833Y-79814838D01*
X189471057Y-79956883D01*
X189207808Y-80219673D01*
X189065162Y-80563201D01*
X189064931Y-80828853D01*
X188898559Y-80935910D01*
X188753569Y-81148110D01*
X188702560Y-81400000D01*
X188702560Y-82900000D01*
X188746838Y-83135317D01*
X188885910Y-83351441D01*
X189098110Y-83496431D01*
X189111197Y-83499081D01*
X188898559Y-83635910D01*
X188753569Y-83848110D01*
X188702560Y-84100000D01*
X188702560Y-84140000D01*
X188662463Y-84140000D01*
X188630327Y-84107808D01*
X188286799Y-83965162D01*
X187914833Y-83964838D01*
X187808625Y-84008722D01*
X187802148Y-83976159D01*
X187637401Y-83729597D01*
X185968152Y-82060348D01*
X185890693Y-82008592D01*
X185930678Y-81992070D01*
X186026149Y-81896765D01*
X186121410Y-81992192D01*
X186464938Y-82134838D01*
X186836904Y-82135162D01*
X187180680Y-81993117D01*
X187443929Y-81730327D01*
X187586575Y-81386799D01*
X187586899Y-81014833D01*
X187444854Y-80671057D01*
X187385108Y-80611207D01*
X187392440Y-80575000D01*
X187392440Y-79025000D01*
X187348162Y-78789683D01*
X187209090Y-78573559D01*
X186996890Y-78428569D01*
X186745000Y-78377560D01*
X186145000Y-78377560D01*
X185909683Y-78421838D01*
X185810472Y-78485678D01*
X185726890Y-78428569D01*
X185475000Y-78377560D01*
X184875000Y-78377560D01*
X184639683Y-78421838D01*
X184540472Y-78485678D01*
X184456890Y-78428569D01*
X184205000Y-78377560D01*
X183605000Y-78377560D01*
X183369683Y-78421838D01*
X183270472Y-78485678D01*
X183186890Y-78428569D01*
X182935000Y-78377560D01*
X182335000Y-78377560D01*
X182099683Y-78421838D01*
X182000472Y-78485678D01*
X181916890Y-78428569D01*
X181665000Y-78377560D01*
X181065000Y-78377560D01*
X180829683Y-78421838D01*
X180730472Y-78485678D01*
X180646890Y-78428569D01*
X180395000Y-78377560D01*
X179795000Y-78377560D01*
X179559683Y-78421838D01*
X179460472Y-78485678D01*
X179376890Y-78428569D01*
X179125000Y-78377560D01*
X178525000Y-78377560D01*
X178289683Y-78421838D01*
X178190472Y-78485678D01*
X178106890Y-78428569D01*
X177855000Y-78377560D01*
X177255000Y-78377560D01*
X177019683Y-78421838D01*
X176803559Y-78560910D01*
X176658569Y-78773110D01*
X176607560Y-79025000D01*
X176607560Y-80575000D01*
X176651039Y-80806070D01*
X176565360Y-81012406D01*
X176565036Y-81384372D01*
X176654087Y-81599893D01*
X176571291Y-81799289D01*
X176425234Y-81653232D01*
X176178672Y-81488485D01*
X175887833Y-81430633D01*
X171769367Y-81430633D01*
X171478527Y-81488485D01*
X171231966Y-81653232D01*
X170120059Y-82765139D01*
X169799662Y-82764860D01*
X169038229Y-82003427D01*
X168791667Y-81838680D01*
X168500828Y-81780828D01*
X166945131Y-81780828D01*
X167192192Y-81534198D01*
X167334838Y-81190670D01*
X167335147Y-80836087D01*
X167341431Y-80826890D01*
X167392440Y-80575000D01*
X167392440Y-79025000D01*
X167348162Y-78789683D01*
X167209090Y-78573559D01*
X166996890Y-78428569D01*
X166745000Y-78377560D01*
X166145000Y-78377560D01*
X165909683Y-78421838D01*
X165810472Y-78485678D01*
X165726890Y-78428569D01*
X165475000Y-78377560D01*
X164875000Y-78377560D01*
X164639683Y-78421838D01*
X164540472Y-78485678D01*
X164456890Y-78428569D01*
X164205000Y-78377560D01*
X163605000Y-78377560D01*
X163369683Y-78421838D01*
X163270472Y-78485678D01*
X163186890Y-78428569D01*
X162935000Y-78377560D01*
X162335000Y-78377560D01*
X162099683Y-78421838D01*
X162000472Y-78485678D01*
X161916890Y-78428569D01*
X161665000Y-78377560D01*
X161065000Y-78377560D01*
X160829683Y-78421838D01*
X160730472Y-78485678D01*
X160646890Y-78428569D01*
X160395000Y-78377560D01*
X159795000Y-78377560D01*
X159559683Y-78421838D01*
X159460472Y-78485678D01*
X159376890Y-78428569D01*
X159125000Y-78377560D01*
X158525000Y-78377560D01*
X158289683Y-78421838D01*
X158190472Y-78485678D01*
X158106890Y-78428569D01*
X157855000Y-78377560D01*
X157255000Y-78377560D01*
X157019683Y-78421838D01*
X156803559Y-78560910D01*
X156658569Y-78773110D01*
X156607560Y-79025000D01*
X156607560Y-80575000D01*
X156651838Y-80810317D01*
X156665123Y-80830963D01*
X156664838Y-81158456D01*
X156806883Y-81502232D01*
X157069673Y-81765481D01*
X157106632Y-81780828D01*
X152945131Y-81780828D01*
X153192192Y-81534198D01*
X153334838Y-81190670D01*
X153335147Y-80836087D01*
X153341431Y-80826890D01*
X153392440Y-80575000D01*
X153392440Y-79025000D01*
X153348162Y-78789683D01*
X153209090Y-78573559D01*
X152996890Y-78428569D01*
X152745000Y-78377560D01*
X152145000Y-78377560D01*
X151909683Y-78421838D01*
X151810472Y-78485678D01*
X151726890Y-78428569D01*
X151475000Y-78377560D01*
X150875000Y-78377560D01*
X150639683Y-78421838D01*
X150540472Y-78485678D01*
X150456890Y-78428569D01*
X150205000Y-78377560D01*
X149605000Y-78377560D01*
X149369683Y-78421838D01*
X149270472Y-78485678D01*
X149186890Y-78428569D01*
X148935000Y-78377560D01*
X148335000Y-78377560D01*
X148099683Y-78421838D01*
X148000472Y-78485678D01*
X147916890Y-78428569D01*
X147665000Y-78377560D01*
X147065000Y-78377560D01*
X146829683Y-78421838D01*
X146730472Y-78485678D01*
X146646890Y-78428569D01*
X146395000Y-78377560D01*
X145795000Y-78377560D01*
X145559683Y-78421838D01*
X145460472Y-78485678D01*
X145376890Y-78428569D01*
X145125000Y-78377560D01*
X144525000Y-78377560D01*
X144289683Y-78421838D01*
X144190472Y-78485678D01*
X144106890Y-78428569D01*
X143855000Y-78377560D01*
X143255000Y-78377560D01*
X143019683Y-78421838D01*
X142803559Y-78560910D01*
X142658569Y-78773110D01*
X142607560Y-79025000D01*
X142607560Y-80575000D01*
X142625684Y-80671320D01*
X142565162Y-80817072D01*
X142564838Y-81189038D01*
X142706883Y-81532814D01*
X142954465Y-81780828D01*
X136419172Y-81780828D01*
X136128333Y-81838680D01*
X135881771Y-82003427D01*
X135120059Y-82765139D01*
X134715421Y-82764786D01*
X134261343Y-82952408D01*
X133930559Y-83282614D01*
X133158165Y-82510220D01*
X133158165Y-78696490D01*
X133100313Y-78405651D01*
X132935566Y-78159089D01*
X132486477Y-77710000D01*
X194930069Y-77710000D01*
X196253707Y-77973288D01*
X196253707Y-77973288D01*
G37*
X196253707Y-77973288D02*
X197316546Y-78683454D01*
X198026712Y-79746295D01*
X198276090Y-81000000D01*
X198026712Y-82253705D01*
X197316546Y-83316546D01*
X196253707Y-84026712D01*
X194861486Y-84303642D01*
X194478804Y-84379762D01*
X194384629Y-84418771D01*
X194222862Y-84485777D01*
X193898438Y-84702549D01*
X193798841Y-84802147D01*
X193702549Y-84898439D01*
X193485776Y-85222862D01*
X193418965Y-85384161D01*
X193379762Y-85478804D01*
X193303642Y-85861487D01*
X193303642Y-85873000D01*
X191232007Y-85873000D01*
X191246431Y-85851890D01*
X191297440Y-85600000D01*
X191297440Y-84100000D01*
X191253162Y-83864683D01*
X191114090Y-83648559D01*
X190901890Y-83503569D01*
X190888803Y-83500919D01*
X191101441Y-83364090D01*
X191246431Y-83151890D01*
X191297440Y-82900000D01*
X191297440Y-81400000D01*
X191253162Y-81164683D01*
X191114090Y-80948559D01*
X190934934Y-80826147D01*
X190935162Y-80564833D01*
X190793117Y-80221057D01*
X190530327Y-79957808D01*
X190186799Y-79815162D01*
X189814833Y-79814838D01*
X189471057Y-79956883D01*
X189207808Y-80219673D01*
X189065162Y-80563201D01*
X189064931Y-80828853D01*
X188898559Y-80935910D01*
X188753569Y-81148110D01*
X188702560Y-81400000D01*
X188702560Y-82900000D01*
X188746838Y-83135317D01*
X188885910Y-83351441D01*
X189098110Y-83496431D01*
X189111197Y-83499081D01*
X188898559Y-83635910D01*
X188753569Y-83848110D01*
X188702560Y-84100000D01*
X188702560Y-84140000D01*
X188662463Y-84140000D01*
X188630327Y-84107808D01*
X188286799Y-83965162D01*
X187914833Y-83964838D01*
X187808625Y-84008722D01*
X187802148Y-83976159D01*
X187637401Y-83729597D01*
X185968152Y-82060348D01*
X185890693Y-82008592D01*
X185930678Y-81992070D01*
X186026149Y-81896765D01*
X186121410Y-81992192D01*
X186464938Y-82134838D01*
X186836904Y-82135162D01*
X187180680Y-81993117D01*
X187443929Y-81730327D01*
X187586575Y-81386799D01*
X187586899Y-81014833D01*
X187444854Y-80671057D01*
X187385108Y-80611207D01*
X187392440Y-80575000D01*
X187392440Y-79025000D01*
X187348162Y-78789683D01*
X187209090Y-78573559D01*
X186996890Y-78428569D01*
X186745000Y-78377560D01*
X186145000Y-78377560D01*
X185909683Y-78421838D01*
X185810472Y-78485678D01*
X185726890Y-78428569D01*
X185475000Y-78377560D01*
X184875000Y-78377560D01*
X184639683Y-78421838D01*
X184540472Y-78485678D01*
X184456890Y-78428569D01*
X184205000Y-78377560D01*
X183605000Y-78377560D01*
X183369683Y-78421838D01*
X183270472Y-78485678D01*
X183186890Y-78428569D01*
X182935000Y-78377560D01*
X182335000Y-78377560D01*
X182099683Y-78421838D01*
X182000472Y-78485678D01*
X181916890Y-78428569D01*
X181665000Y-78377560D01*
X181065000Y-78377560D01*
X180829683Y-78421838D01*
X180730472Y-78485678D01*
X180646890Y-78428569D01*
X180395000Y-78377560D01*
X179795000Y-78377560D01*
X179559683Y-78421838D01*
X179460472Y-78485678D01*
X179376890Y-78428569D01*
X179125000Y-78377560D01*
X178525000Y-78377560D01*
X178289683Y-78421838D01*
X178190472Y-78485678D01*
X178106890Y-78428569D01*
X177855000Y-78377560D01*
X177255000Y-78377560D01*
X177019683Y-78421838D01*
X176803559Y-78560910D01*
X176658569Y-78773110D01*
X176607560Y-79025000D01*
X176607560Y-80575000D01*
X176651039Y-80806070D01*
X176565360Y-81012406D01*
X176565036Y-81384372D01*
X176654087Y-81599893D01*
X176571291Y-81799289D01*
X176425234Y-81653232D01*
X176178672Y-81488485D01*
X175887833Y-81430633D01*
X171769367Y-81430633D01*
X171478527Y-81488485D01*
X171231966Y-81653232D01*
X170120059Y-82765139D01*
X169799662Y-82764860D01*
X169038229Y-82003427D01*
X168791667Y-81838680D01*
X168500828Y-81780828D01*
X166945131Y-81780828D01*
X167192192Y-81534198D01*
X167334838Y-81190670D01*
X167335147Y-80836087D01*
X167341431Y-80826890D01*
X167392440Y-80575000D01*
X167392440Y-79025000D01*
X167348162Y-78789683D01*
X167209090Y-78573559D01*
X166996890Y-78428569D01*
X166745000Y-78377560D01*
X166145000Y-78377560D01*
X165909683Y-78421838D01*
X165810472Y-78485678D01*
X165726890Y-78428569D01*
X165475000Y-78377560D01*
X164875000Y-78377560D01*
X164639683Y-78421838D01*
X164540472Y-78485678D01*
X164456890Y-78428569D01*
X164205000Y-78377560D01*
X163605000Y-78377560D01*
X163369683Y-78421838D01*
X163270472Y-78485678D01*
X163186890Y-78428569D01*
X162935000Y-78377560D01*
X162335000Y-78377560D01*
X162099683Y-78421838D01*
X162000472Y-78485678D01*
X161916890Y-78428569D01*
X161665000Y-78377560D01*
X161065000Y-78377560D01*
X160829683Y-78421838D01*
X160730472Y-78485678D01*
X160646890Y-78428569D01*
X160395000Y-78377560D01*
X159795000Y-78377560D01*
X159559683Y-78421838D01*
X159460472Y-78485678D01*
X159376890Y-78428569D01*
X159125000Y-78377560D01*
X158525000Y-78377560D01*
X158289683Y-78421838D01*
X158190472Y-78485678D01*
X158106890Y-78428569D01*
X157855000Y-78377560D01*
X157255000Y-78377560D01*
X157019683Y-78421838D01*
X156803559Y-78560910D01*
X156658569Y-78773110D01*
X156607560Y-79025000D01*
X156607560Y-80575000D01*
X156651838Y-80810317D01*
X156665123Y-80830963D01*
X156664838Y-81158456D01*
X156806883Y-81502232D01*
X157069673Y-81765481D01*
X157106632Y-81780828D01*
X152945131Y-81780828D01*
X153192192Y-81534198D01*
X153334838Y-81190670D01*
X153335147Y-80836087D01*
X153341431Y-80826890D01*
X153392440Y-80575000D01*
X153392440Y-79025000D01*
X153348162Y-78789683D01*
X153209090Y-78573559D01*
X152996890Y-78428569D01*
X152745000Y-78377560D01*
X152145000Y-78377560D01*
X151909683Y-78421838D01*
X151810472Y-78485678D01*
X151726890Y-78428569D01*
X151475000Y-78377560D01*
X150875000Y-78377560D01*
X150639683Y-78421838D01*
X150540472Y-78485678D01*
X150456890Y-78428569D01*
X150205000Y-78377560D01*
X149605000Y-78377560D01*
X149369683Y-78421838D01*
X149270472Y-78485678D01*
X149186890Y-78428569D01*
X148935000Y-78377560D01*
X148335000Y-78377560D01*
X148099683Y-78421838D01*
X148000472Y-78485678D01*
X147916890Y-78428569D01*
X147665000Y-78377560D01*
X147065000Y-78377560D01*
X146829683Y-78421838D01*
X146730472Y-78485678D01*
X146646890Y-78428569D01*
X146395000Y-78377560D01*
X145795000Y-78377560D01*
X145559683Y-78421838D01*
X145460472Y-78485678D01*
X145376890Y-78428569D01*
X145125000Y-78377560D01*
X144525000Y-78377560D01*
X144289683Y-78421838D01*
X144190472Y-78485678D01*
X144106890Y-78428569D01*
X143855000Y-78377560D01*
X143255000Y-78377560D01*
X143019683Y-78421838D01*
X142803559Y-78560910D01*
X142658569Y-78773110D01*
X142607560Y-79025000D01*
X142607560Y-80575000D01*
X142625684Y-80671320D01*
X142565162Y-80817072D01*
X142564838Y-81189038D01*
X142706883Y-81532814D01*
X142954465Y-81780828D01*
X136419172Y-81780828D01*
X136128333Y-81838680D01*
X135881771Y-82003427D01*
X135120059Y-82765139D01*
X134715421Y-82764786D01*
X134261343Y-82952408D01*
X133930559Y-83282614D01*
X133158165Y-82510220D01*
X133158165Y-78696490D01*
X133100313Y-78405651D01*
X132935566Y-78159089D01*
X132486477Y-77710000D01*
X194930069Y-77710000D01*
X196253707Y-77973288D01*
G36*
X143682000Y-85073000D02*
X143702000Y-85073000D01*
X143702000Y-85327000D01*
X143682000Y-85327000D01*
X143682000Y-85347000D01*
X143428000Y-85347000D01*
X143428000Y-85327000D01*
X143408000Y-85327000D01*
X143408000Y-85073000D01*
X143428000Y-85073000D01*
X143428000Y-85053000D01*
X143682000Y-85053000D01*
X143682000Y-85073000D01*
X143682000Y-85073000D01*
G37*
X143682000Y-85073000D02*
X143702000Y-85073000D01*
X143702000Y-85327000D01*
X143682000Y-85327000D01*
X143682000Y-85347000D01*
X143428000Y-85347000D01*
X143428000Y-85327000D01*
X143408000Y-85327000D01*
X143408000Y-85073000D01*
X143428000Y-85073000D01*
X143428000Y-85053000D01*
X143682000Y-85053000D01*
X143682000Y-85073000D01*
G36*
X160222000Y-85073000D02*
X160242000Y-85073000D01*
X160242000Y-85327000D01*
X160222000Y-85327000D01*
X160222000Y-85347000D01*
X159968000Y-85347000D01*
X159968000Y-85327000D01*
X159948000Y-85327000D01*
X159948000Y-85073000D01*
X159968000Y-85073000D01*
X159968000Y-85053000D01*
X160222000Y-85053000D01*
X160222000Y-85073000D01*
X160222000Y-85073000D01*
G37*
X160222000Y-85073000D02*
X160242000Y-85073000D01*
X160242000Y-85327000D01*
X160222000Y-85327000D01*
X160222000Y-85347000D01*
X159968000Y-85347000D01*
X159968000Y-85327000D01*
X159948000Y-85327000D01*
X159948000Y-85073000D01*
X159968000Y-85073000D01*
X159968000Y-85053000D01*
X160222000Y-85053000D01*
X160222000Y-85073000D01*
G36*
X177682000Y-85073000D02*
X177702000Y-85073000D01*
X177702000Y-85327000D01*
X177682000Y-85327000D01*
X177682000Y-85347000D01*
X177428000Y-85347000D01*
X177428000Y-85327000D01*
X177408000Y-85327000D01*
X177408000Y-85073000D01*
X177428000Y-85073000D01*
X177428000Y-85053000D01*
X177682000Y-85053000D01*
X177682000Y-85073000D01*
X177682000Y-85073000D01*
G37*
X177682000Y-85073000D02*
X177702000Y-85073000D01*
X177702000Y-85327000D01*
X177682000Y-85327000D01*
X177682000Y-85347000D01*
X177428000Y-85347000D01*
X177428000Y-85327000D01*
X177408000Y-85327000D01*
X177408000Y-85073000D01*
X177428000Y-85073000D01*
X177428000Y-85053000D01*
X177682000Y-85053000D01*
X177682000Y-85073000D01*
G36*
X135470000Y-101775241D02*
X135423070Y-101765780D01*
X135207000Y-101888280D01*
X135207000Y-103493000D01*
X135227000Y-103493000D01*
X135227000Y-103747000D01*
X135207000Y-103747000D01*
X135207000Y-103767000D01*
X134953000Y-103767000D01*
X134953000Y-103747000D01*
X134933000Y-103747000D01*
X134933000Y-103493000D01*
X134953000Y-103493000D01*
X134953000Y-101888280D01*
X134736930Y-101765780D01*
X134662723Y-101780740D01*
X134181974Y-102042370D01*
X133837941Y-102468059D01*
X133819298Y-102531222D01*
X133527828Y-102095008D01*
X133300000Y-101942778D01*
X133300000Y-101719216D01*
X133385317Y-101703162D01*
X133601441Y-101564090D01*
X133746431Y-101351890D01*
X133797440Y-101100000D01*
X133797440Y-99600000D01*
X133753162Y-99364683D01*
X133614090Y-99148559D01*
X133401890Y-99003569D01*
X133388803Y-99000919D01*
X133601441Y-98864090D01*
X133746431Y-98651890D01*
X133797440Y-98400000D01*
X133797440Y-97327362D01*
X135377362Y-95747440D01*
X135470000Y-95747440D01*
X135470000Y-101775241D01*
X135470000Y-101775241D01*
G37*
X135470000Y-101775241D02*
X135423070Y-101765780D01*
X135207000Y-101888280D01*
X135207000Y-103493000D01*
X135227000Y-103493000D01*
X135227000Y-103747000D01*
X135207000Y-103747000D01*
X135207000Y-103767000D01*
X134953000Y-103767000D01*
X134953000Y-103747000D01*
X134933000Y-103747000D01*
X134933000Y-103493000D01*
X134953000Y-103493000D01*
X134953000Y-101888280D01*
X134736930Y-101765780D01*
X134662723Y-101780740D01*
X134181974Y-102042370D01*
X133837941Y-102468059D01*
X133819298Y-102531222D01*
X133527828Y-102095008D01*
X133300000Y-101942778D01*
X133300000Y-101719216D01*
X133385317Y-101703162D01*
X133601441Y-101564090D01*
X133746431Y-101351890D01*
X133797440Y-101100000D01*
X133797440Y-99600000D01*
X133753162Y-99364683D01*
X133614090Y-99148559D01*
X133401890Y-99003569D01*
X133388803Y-99000919D01*
X133601441Y-98864090D01*
X133746431Y-98651890D01*
X133797440Y-98400000D01*
X133797440Y-97327362D01*
X135377362Y-95747440D01*
X135470000Y-95747440D01*
X135470000Y-101775241D01*
G36*
X125047000Y-88253000D02*
X127333000Y-88253000D01*
X127333000Y-88233000D01*
X127587000Y-88233000D01*
X127587000Y-88253000D01*
X129873000Y-88253000D01*
X129873000Y-88233000D01*
X130127000Y-88233000D01*
X130127000Y-88253000D01*
X132413000Y-88253000D01*
X132413000Y-88233000D01*
X132667000Y-88233000D01*
X132667000Y-88253000D01*
X132687000Y-88253000D01*
X132687000Y-88507000D01*
X132667000Y-88507000D01*
X132667000Y-90111720D01*
X132883070Y-90234220D01*
X132957277Y-90219260D01*
X133165090Y-90106165D01*
X133165090Y-93175090D01*
X133222942Y-93465929D01*
X133387689Y-93712491D01*
X133702560Y-94027362D01*
X133702560Y-95100000D01*
X133729900Y-95245298D01*
X132722638Y-96252560D01*
X131850000Y-96252560D01*
X131614683Y-96296838D01*
X131398559Y-96435910D01*
X131253569Y-96648110D01*
X131202560Y-96900000D01*
X131202560Y-98400000D01*
X131246838Y-98635317D01*
X131385910Y-98851441D01*
X131598110Y-98996431D01*
X131611197Y-98999081D01*
X131398559Y-99135910D01*
X131253569Y-99348110D01*
X131202560Y-99600000D01*
X131202560Y-101100000D01*
X131246838Y-101335317D01*
X131385910Y-101551441D01*
X131598110Y-101696431D01*
X131780000Y-101733265D01*
X131780000Y-101942778D01*
X131552172Y-102095008D01*
X131260702Y-102531222D01*
X131242059Y-102468059D01*
X130898026Y-102042370D01*
X130417277Y-101780740D01*
X130343070Y-101765780D01*
X130127000Y-101888280D01*
X130127000Y-103493000D01*
X130147000Y-103493000D01*
X130147000Y-103747000D01*
X130127000Y-103747000D01*
X130127000Y-103767000D01*
X129873000Y-103767000D01*
X129873000Y-103747000D01*
X127587000Y-103747000D01*
X127587000Y-103767000D01*
X127333000Y-103767000D01*
X127333000Y-103747000D01*
X125047000Y-103747000D01*
X125047000Y-103767000D01*
X124793000Y-103767000D01*
X124793000Y-103747000D01*
X124773000Y-103747000D01*
X124773000Y-103493000D01*
X124793000Y-103493000D01*
X124793000Y-101888280D01*
X125047000Y-101888280D01*
X125047000Y-103493000D01*
X127333000Y-103493000D01*
X127333000Y-101888280D01*
X127587000Y-101888280D01*
X127587000Y-103493000D01*
X129873000Y-103493000D01*
X129873000Y-101888280D01*
X129656930Y-101765780D01*
X129582723Y-101780740D01*
X129101974Y-102042370D01*
X128757941Y-102468059D01*
X128730000Y-102562723D01*
X128702059Y-102468059D01*
X128358026Y-102042370D01*
X127877277Y-101780740D01*
X127803070Y-101765780D01*
X127587000Y-101888280D01*
X127333000Y-101888280D01*
X127116930Y-101765780D01*
X127042723Y-101780740D01*
X126561974Y-102042370D01*
X126217941Y-102468059D01*
X126190000Y-102562723D01*
X126162059Y-102468059D01*
X125818026Y-102042370D01*
X125337277Y-101780740D01*
X125263070Y-101765780D01*
X125047000Y-101888280D01*
X124793000Y-101888280D01*
X124576930Y-101765780D01*
X124502723Y-101780740D01*
X124021974Y-102042370D01*
X123785024Y-102335560D01*
X123785024Y-89664440D01*
X124021974Y-89957630D01*
X124502723Y-90219260D01*
X124576930Y-90234220D01*
X124793000Y-90111720D01*
X124793000Y-88507000D01*
X125047000Y-88507000D01*
X125047000Y-90111720D01*
X125263070Y-90234220D01*
X125337277Y-90219260D01*
X125818026Y-89957630D01*
X126162059Y-89531941D01*
X126190000Y-89437277D01*
X126217941Y-89531941D01*
X126561974Y-89957630D01*
X127042723Y-90219260D01*
X127116930Y-90234220D01*
X127333000Y-90111720D01*
X127333000Y-88507000D01*
X127587000Y-88507000D01*
X127587000Y-90111720D01*
X127803070Y-90234220D01*
X127877277Y-90219260D01*
X128358026Y-89957630D01*
X128702059Y-89531941D01*
X128730000Y-89437277D01*
X128757941Y-89531941D01*
X129101974Y-89957630D01*
X129582723Y-90219260D01*
X129656930Y-90234220D01*
X129873000Y-90111720D01*
X129873000Y-88507000D01*
X130127000Y-88507000D01*
X130127000Y-90111720D01*
X130343070Y-90234220D01*
X130417277Y-90219260D01*
X130898026Y-89957630D01*
X131242059Y-89531941D01*
X131270000Y-89437277D01*
X131297941Y-89531941D01*
X131641974Y-89957630D01*
X132122723Y-90219260D01*
X132196930Y-90234220D01*
X132413000Y-90111720D01*
X132413000Y-88507000D01*
X130127000Y-88507000D01*
X129873000Y-88507000D01*
X127587000Y-88507000D01*
X127333000Y-88507000D01*
X125047000Y-88507000D01*
X124793000Y-88507000D01*
X124773000Y-88507000D01*
X124773000Y-88253000D01*
X124793000Y-88253000D01*
X124793000Y-88233000D01*
X125047000Y-88233000D01*
X125047000Y-88253000D01*
X125047000Y-88253000D01*
G37*
X125047000Y-88253000D02*
X127333000Y-88253000D01*
X127333000Y-88233000D01*
X127587000Y-88233000D01*
X127587000Y-88253000D01*
X129873000Y-88253000D01*
X129873000Y-88233000D01*
X130127000Y-88233000D01*
X130127000Y-88253000D01*
X132413000Y-88253000D01*
X132413000Y-88233000D01*
X132667000Y-88233000D01*
X132667000Y-88253000D01*
X132687000Y-88253000D01*
X132687000Y-88507000D01*
X132667000Y-88507000D01*
X132667000Y-90111720D01*
X132883070Y-90234220D01*
X132957277Y-90219260D01*
X133165090Y-90106165D01*
X133165090Y-93175090D01*
X133222942Y-93465929D01*
X133387689Y-93712491D01*
X133702560Y-94027362D01*
X133702560Y-95100000D01*
X133729900Y-95245298D01*
X132722638Y-96252560D01*
X131850000Y-96252560D01*
X131614683Y-96296838D01*
X131398559Y-96435910D01*
X131253569Y-96648110D01*
X131202560Y-96900000D01*
X131202560Y-98400000D01*
X131246838Y-98635317D01*
X131385910Y-98851441D01*
X131598110Y-98996431D01*
X131611197Y-98999081D01*
X131398559Y-99135910D01*
X131253569Y-99348110D01*
X131202560Y-99600000D01*
X131202560Y-101100000D01*
X131246838Y-101335317D01*
X131385910Y-101551441D01*
X131598110Y-101696431D01*
X131780000Y-101733265D01*
X131780000Y-101942778D01*
X131552172Y-102095008D01*
X131260702Y-102531222D01*
X131242059Y-102468059D01*
X130898026Y-102042370D01*
X130417277Y-101780740D01*
X130343070Y-101765780D01*
X130127000Y-101888280D01*
X130127000Y-103493000D01*
X130147000Y-103493000D01*
X130147000Y-103747000D01*
X130127000Y-103747000D01*
X130127000Y-103767000D01*
X129873000Y-103767000D01*
X129873000Y-103747000D01*
X127587000Y-103747000D01*
X127587000Y-103767000D01*
X127333000Y-103767000D01*
X127333000Y-103747000D01*
X125047000Y-103747000D01*
X125047000Y-103767000D01*
X124793000Y-103767000D01*
X124793000Y-103747000D01*
X124773000Y-103747000D01*
X124773000Y-103493000D01*
X124793000Y-103493000D01*
X124793000Y-101888280D01*
X125047000Y-101888280D01*
X125047000Y-103493000D01*
X127333000Y-103493000D01*
X127333000Y-101888280D01*
X127587000Y-101888280D01*
X127587000Y-103493000D01*
X129873000Y-103493000D01*
X129873000Y-101888280D01*
X129656930Y-101765780D01*
X129582723Y-101780740D01*
X129101974Y-102042370D01*
X128757941Y-102468059D01*
X128730000Y-102562723D01*
X128702059Y-102468059D01*
X128358026Y-102042370D01*
X127877277Y-101780740D01*
X127803070Y-101765780D01*
X127587000Y-101888280D01*
X127333000Y-101888280D01*
X127116930Y-101765780D01*
X127042723Y-101780740D01*
X126561974Y-102042370D01*
X126217941Y-102468059D01*
X126190000Y-102562723D01*
X126162059Y-102468059D01*
X125818026Y-102042370D01*
X125337277Y-101780740D01*
X125263070Y-101765780D01*
X125047000Y-101888280D01*
X124793000Y-101888280D01*
X124576930Y-101765780D01*
X124502723Y-101780740D01*
X124021974Y-102042370D01*
X123785024Y-102335560D01*
X123785024Y-89664440D01*
X124021974Y-89957630D01*
X124502723Y-90219260D01*
X124576930Y-90234220D01*
X124793000Y-90111720D01*
X124793000Y-88507000D01*
X125047000Y-88507000D01*
X125047000Y-90111720D01*
X125263070Y-90234220D01*
X125337277Y-90219260D01*
X125818026Y-89957630D01*
X126162059Y-89531941D01*
X126190000Y-89437277D01*
X126217941Y-89531941D01*
X126561974Y-89957630D01*
X127042723Y-90219260D01*
X127116930Y-90234220D01*
X127333000Y-90111720D01*
X127333000Y-88507000D01*
X127587000Y-88507000D01*
X127587000Y-90111720D01*
X127803070Y-90234220D01*
X127877277Y-90219260D01*
X128358026Y-89957630D01*
X128702059Y-89531941D01*
X128730000Y-89437277D01*
X128757941Y-89531941D01*
X129101974Y-89957630D01*
X129582723Y-90219260D01*
X129656930Y-90234220D01*
X129873000Y-90111720D01*
X129873000Y-88507000D01*
X130127000Y-88507000D01*
X130127000Y-90111720D01*
X130343070Y-90234220D01*
X130417277Y-90219260D01*
X130898026Y-89957630D01*
X131242059Y-89531941D01*
X131270000Y-89437277D01*
X131297941Y-89531941D01*
X131641974Y-89957630D01*
X132122723Y-90219260D01*
X132196930Y-90234220D01*
X132413000Y-90111720D01*
X132413000Y-88507000D01*
X130127000Y-88507000D01*
X129873000Y-88507000D01*
X127587000Y-88507000D01*
X127333000Y-88507000D01*
X125047000Y-88507000D01*
X124793000Y-88507000D01*
X124773000Y-88507000D01*
X124773000Y-88253000D01*
X124793000Y-88253000D01*
X124793000Y-88233000D01*
X125047000Y-88233000D01*
X125047000Y-88253000D01*
G36*
X125087000Y-79673000D02*
X126103000Y-79673000D01*
X126103000Y-79653000D01*
X126357000Y-79653000D01*
X126357000Y-79673000D01*
X127373000Y-79673000D01*
X127373000Y-79653000D01*
X127627000Y-79653000D01*
X127627000Y-79673000D01*
X127647000Y-79673000D01*
X127647000Y-79927000D01*
X127627000Y-79927000D01*
X127627000Y-81051250D01*
X127785750Y-81210000D01*
X127926309Y-81210000D01*
X128143121Y-81120193D01*
X128218110Y-81171431D01*
X128441959Y-81216762D01*
X128782277Y-81557080D01*
X128783247Y-81557728D01*
X130582023Y-83356504D01*
X130374162Y-83397851D01*
X130127600Y-83562598D01*
X129912638Y-83777560D01*
X129740000Y-83777560D01*
X129504683Y-83821838D01*
X129414019Y-83880179D01*
X129196309Y-83790000D01*
X129055750Y-83790000D01*
X128897000Y-83948750D01*
X128897000Y-85073000D01*
X128917000Y-85073000D01*
X128917000Y-85327000D01*
X128897000Y-85327000D01*
X128897000Y-86451250D01*
X129055750Y-86610000D01*
X129196309Y-86610000D01*
X129413121Y-86520193D01*
X129488110Y-86571431D01*
X129515963Y-86577071D01*
X129101974Y-86802370D01*
X128757941Y-87228059D01*
X128730000Y-87322723D01*
X128702059Y-87228059D01*
X128358026Y-86802370D01*
X127968978Y-86590645D01*
X128035317Y-86578162D01*
X128125981Y-86519821D01*
X128343691Y-86610000D01*
X128484250Y-86610000D01*
X128643000Y-86451250D01*
X128643000Y-85327000D01*
X128623000Y-85327000D01*
X128623000Y-85073000D01*
X128643000Y-85073000D01*
X128643000Y-83948750D01*
X128484250Y-83790000D01*
X128435009Y-83790000D01*
X128435162Y-83614833D01*
X128293117Y-83271057D01*
X128030327Y-83007808D01*
X127686799Y-82865162D01*
X127314833Y-82864838D01*
X126971057Y-83006883D01*
X126707808Y-83269673D01*
X126565162Y-83613201D01*
X126565013Y-83784650D01*
X126530000Y-83777560D01*
X125930000Y-83777560D01*
X125835005Y-83795435D01*
X125835162Y-83614833D01*
X125693117Y-83271057D01*
X125430327Y-83007808D01*
X125086799Y-82865162D01*
X124714833Y-82864838D01*
X124371057Y-83006883D01*
X124107808Y-83269673D01*
X123965162Y-83613201D01*
X123964999Y-83800751D01*
X123817002Y-83948748D01*
X123817002Y-83790000D01*
X123785024Y-83790000D01*
X123785024Y-81289778D01*
X123852362Y-81222440D01*
X123990000Y-81222440D01*
X124225317Y-81178162D01*
X124315981Y-81119821D01*
X124533691Y-81210000D01*
X124674250Y-81210000D01*
X124833000Y-81051250D01*
X124833000Y-79927000D01*
X125087000Y-79927000D01*
X125087000Y-81051250D01*
X125245750Y-81210000D01*
X125386309Y-81210000D01*
X125595000Y-81123557D01*
X125803691Y-81210000D01*
X125944250Y-81210000D01*
X126103000Y-81051250D01*
X126103000Y-79927000D01*
X126357000Y-79927000D01*
X126357000Y-81051250D01*
X126515750Y-81210000D01*
X126656309Y-81210000D01*
X126865000Y-81123557D01*
X127073691Y-81210000D01*
X127214250Y-81210000D01*
X127373000Y-81051250D01*
X127373000Y-79927000D01*
X126357000Y-79927000D01*
X126103000Y-79927000D01*
X125087000Y-79927000D01*
X124833000Y-79927000D01*
X124813000Y-79927000D01*
X124813000Y-79673000D01*
X124833000Y-79673000D01*
X124833000Y-79653000D01*
X125087000Y-79653000D01*
X125087000Y-79673000D01*
X125087000Y-79673000D01*
G37*
X125087000Y-79673000D02*
X126103000Y-79673000D01*
X126103000Y-79653000D01*
X126357000Y-79653000D01*
X126357000Y-79673000D01*
X127373000Y-79673000D01*
X127373000Y-79653000D01*
X127627000Y-79653000D01*
X127627000Y-79673000D01*
X127647000Y-79673000D01*
X127647000Y-79927000D01*
X127627000Y-79927000D01*
X127627000Y-81051250D01*
X127785750Y-81210000D01*
X127926309Y-81210000D01*
X128143121Y-81120193D01*
X128218110Y-81171431D01*
X128441959Y-81216762D01*
X128782277Y-81557080D01*
X128783247Y-81557728D01*
X130582023Y-83356504D01*
X130374162Y-83397851D01*
X130127600Y-83562598D01*
X129912638Y-83777560D01*
X129740000Y-83777560D01*
X129504683Y-83821838D01*
X129414019Y-83880179D01*
X129196309Y-83790000D01*
X129055750Y-83790000D01*
X128897000Y-83948750D01*
X128897000Y-85073000D01*
X128917000Y-85073000D01*
X128917000Y-85327000D01*
X128897000Y-85327000D01*
X128897000Y-86451250D01*
X129055750Y-86610000D01*
X129196309Y-86610000D01*
X129413121Y-86520193D01*
X129488110Y-86571431D01*
X129515963Y-86577071D01*
X129101974Y-86802370D01*
X128757941Y-87228059D01*
X128730000Y-87322723D01*
X128702059Y-87228059D01*
X128358026Y-86802370D01*
X127968978Y-86590645D01*
X128035317Y-86578162D01*
X128125981Y-86519821D01*
X128343691Y-86610000D01*
X128484250Y-86610000D01*
X128643000Y-86451250D01*
X128643000Y-85327000D01*
X128623000Y-85327000D01*
X128623000Y-85073000D01*
X128643000Y-85073000D01*
X128643000Y-83948750D01*
X128484250Y-83790000D01*
X128435009Y-83790000D01*
X128435162Y-83614833D01*
X128293117Y-83271057D01*
X128030327Y-83007808D01*
X127686799Y-82865162D01*
X127314833Y-82864838D01*
X126971057Y-83006883D01*
X126707808Y-83269673D01*
X126565162Y-83613201D01*
X126565013Y-83784650D01*
X126530000Y-83777560D01*
X125930000Y-83777560D01*
X125835005Y-83795435D01*
X125835162Y-83614833D01*
X125693117Y-83271057D01*
X125430327Y-83007808D01*
X125086799Y-82865162D01*
X124714833Y-82864838D01*
X124371057Y-83006883D01*
X124107808Y-83269673D01*
X123965162Y-83613201D01*
X123964999Y-83800751D01*
X123817002Y-83948748D01*
X123817002Y-83790000D01*
X123785024Y-83790000D01*
X123785024Y-81289778D01*
X123852362Y-81222440D01*
X123990000Y-81222440D01*
X124225317Y-81178162D01*
X124315981Y-81119821D01*
X124533691Y-81210000D01*
X124674250Y-81210000D01*
X124833000Y-81051250D01*
X124833000Y-79927000D01*
X125087000Y-79927000D01*
X125087000Y-81051250D01*
X125245750Y-81210000D01*
X125386309Y-81210000D01*
X125595000Y-81123557D01*
X125803691Y-81210000D01*
X125944250Y-81210000D01*
X126103000Y-81051250D01*
X126103000Y-79927000D01*
X126357000Y-79927000D01*
X126357000Y-81051250D01*
X126515750Y-81210000D01*
X126656309Y-81210000D01*
X126865000Y-81123557D01*
X127073691Y-81210000D01*
X127214250Y-81210000D01*
X127373000Y-81051250D01*
X127373000Y-79927000D01*
X126357000Y-79927000D01*
X126103000Y-79927000D01*
X125087000Y-79927000D01*
X124833000Y-79927000D01*
X124813000Y-79927000D01*
X124813000Y-79673000D01*
X124833000Y-79673000D01*
X124833000Y-79653000D01*
X125087000Y-79653000D01*
X125087000Y-79673000D01*
G36*
X130167000Y-79673000D02*
X131175001Y-79673000D01*
X131175001Y-79873000D01*
X130000000Y-79873000D01*
X129953841Y-79881685D01*
X129911447Y-79908965D01*
X129899124Y-79927000D01*
X129893000Y-79927000D01*
X129893000Y-79673000D01*
X129913000Y-79673000D01*
X129913000Y-79653000D01*
X130167000Y-79653000D01*
X130167000Y-79673000D01*
X130167000Y-79673000D01*
G37*
X130167000Y-79673000D02*
X131175001Y-79673000D01*
X131175001Y-79873000D01*
X130000000Y-79873000D01*
X129953841Y-79881685D01*
X129911447Y-79908965D01*
X129899124Y-79927000D01*
X129893000Y-79927000D01*
X129893000Y-79673000D01*
X129913000Y-79673000D01*
X129913000Y-79653000D01*
X130167000Y-79653000D01*
X130167000Y-79673000D01*
M02*
