G04 #@! TF.FileFunction,Copper,L2,Inr,Signal*
%FSLAX46Y46*%
G04 Gerber Fmt 4.6, Leading zero omitted, Abs format (unit mm)*
G04 Created by KiCad (PCBNEW 4.0.5) date Fri Apr  7 20:50:26 2017*
%MOMM*%
%LPD*%
G01*
G04 APERTURE LIST*
%ADD10C,0.100000*%
%ADD11C,6.200000*%
%ADD12R,2.032000X1.727200*%
%ADD13O,2.032000X1.727200*%
%ADD14O,1.524000X2.524000*%
%ADD15C,1.200000*%
%ADD16C,0.600000*%
%ADD17C,0.254000*%
G04 APERTURE END LIST*
D10*
D11*
X195000000Y-111000000D03*
X115000000Y-111000000D03*
X115000000Y-81000000D03*
D12*
X189000000Y-93460000D03*
D13*
X189000000Y-96000000D03*
X189000000Y-98540000D03*
D14*
X124920000Y-103620000D03*
X127460000Y-103620000D03*
X130000000Y-103620000D03*
X132540000Y-103620000D03*
X135080000Y-103620000D03*
X135080000Y-88380000D03*
X132540000Y-88380000D03*
X130000000Y-88380000D03*
X127460000Y-88380000D03*
X124920000Y-88380000D03*
X139920000Y-103620000D03*
X142460000Y-103620000D03*
X145000000Y-103620000D03*
X147540000Y-103620000D03*
X150080000Y-103620000D03*
X150080000Y-88380000D03*
X147540000Y-88380000D03*
X145000000Y-88380000D03*
X142460000Y-88380000D03*
X139920000Y-88380000D03*
X159920000Y-103620000D03*
X162460000Y-103620000D03*
X165000000Y-103620000D03*
X167540000Y-103620000D03*
X170080000Y-103620000D03*
X170080000Y-88380000D03*
X167540000Y-88380000D03*
X165000000Y-88380000D03*
X162460000Y-88380000D03*
X159920000Y-88380000D03*
X174920000Y-103620000D03*
X177460000Y-103620000D03*
X180000000Y-103620000D03*
X182540000Y-103620000D03*
X185080000Y-103620000D03*
X185080000Y-88380000D03*
X182540000Y-88380000D03*
X180000000Y-88380000D03*
X177460000Y-88380000D03*
X174920000Y-88380000D03*
D11*
X195000000Y-81000000D03*
D15*
X140040000Y-84000000D03*
X137500000Y-84000000D03*
X134960000Y-84000000D03*
X175040000Y-84000000D03*
X172500000Y-84000000D03*
X169960000Y-84000000D03*
D16*
X150800000Y-108200000D03*
X149900000Y-83945860D03*
X121800000Y-110800000D03*
X129400000Y-108200000D03*
X153600000Y-96800000D03*
X121400000Y-87300000D03*
X121800000Y-108200000D03*
X189500000Y-80800000D03*
X182600000Y-83800000D03*
X186651737Y-81200000D03*
X166400000Y-81003871D03*
X152400000Y-81003871D03*
X130700000Y-81200000D03*
X141300000Y-108200000D03*
X162800000Y-108200000D03*
X174800000Y-108200000D03*
X186800000Y-108200000D03*
X178100000Y-83900000D03*
X160100000Y-84000000D03*
X153200000Y-92900000D03*
X156564441Y-85414441D03*
X142491747Y-85191746D03*
X127500000Y-83800000D03*
X152200000Y-88000000D03*
X162150000Y-109775002D03*
X132700000Y-112200000D03*
X150173059Y-110826941D03*
X152700000Y-108200000D03*
X163659593Y-110474999D03*
X174265558Y-110834442D03*
X176700000Y-108200000D03*
X188100000Y-84900000D03*
X121400000Y-84900000D03*
X124900000Y-83800000D03*
X156400000Y-94100000D03*
X156400000Y-99900000D03*
X146100000Y-94300000D03*
X148600000Y-81003871D03*
X150000000Y-95800000D03*
X147627890Y-81000011D03*
X145477858Y-81003871D03*
X148900000Y-97600000D03*
X142500000Y-96200000D03*
X144676165Y-81003871D03*
X143500000Y-81003871D03*
X139300000Y-96200000D03*
X143900000Y-94300000D03*
X151100000Y-81003871D03*
X149900000Y-81003871D03*
X140000000Y-95800000D03*
X166100000Y-94300000D03*
X162600000Y-80973289D03*
X161625032Y-80973300D03*
X170000000Y-95800000D03*
X166100000Y-97600000D03*
X159475000Y-81000003D03*
X162500000Y-96200000D03*
X158603313Y-81003870D03*
X157600000Y-80973289D03*
X159334358Y-96243761D03*
X163900000Y-94300000D03*
X165100000Y-80973289D03*
X163900000Y-80973289D03*
X160000000Y-95800000D03*
X181100000Y-94350000D03*
X182600000Y-81225801D03*
X181400000Y-81200000D03*
X186475000Y-94300000D03*
X177500677Y-81999217D03*
X182500000Y-96200000D03*
X177500000Y-96200000D03*
X178800906Y-81199871D03*
X173600000Y-97600000D03*
X177500198Y-81199205D03*
X178900000Y-94300000D03*
X185401735Y-81198953D03*
X184404443Y-81195557D03*
X175000000Y-95800000D03*
X165174999Y-83991732D03*
D17*
G36*
X196253707Y-77973288D02*
X197316546Y-78683454D01*
X198026712Y-79746295D01*
X198276090Y-81000000D01*
X198026712Y-82253705D01*
X197316546Y-83316546D01*
X196253707Y-84026712D01*
X194861486Y-84303642D01*
X194478804Y-84379762D01*
X194384629Y-84418771D01*
X194222862Y-84485777D01*
X193898438Y-84702549D01*
X193766956Y-84834032D01*
X193702549Y-84898439D01*
X193485776Y-85222862D01*
X193435581Y-85344046D01*
X193379762Y-85478804D01*
X193303642Y-85861487D01*
X193303642Y-85931416D01*
X193290000Y-86000000D01*
X193290000Y-106000000D01*
X193303642Y-106068584D01*
X193303642Y-106138513D01*
X193379762Y-106521196D01*
X193399395Y-106568593D01*
X193485776Y-106777138D01*
X193702549Y-107101561D01*
X193702550Y-107101562D01*
X193898438Y-107297451D01*
X194222862Y-107514223D01*
X194328877Y-107558136D01*
X194478804Y-107620238D01*
X194861486Y-107696358D01*
X196253707Y-107973288D01*
X197316546Y-108683454D01*
X198026712Y-109746295D01*
X198276090Y-111000000D01*
X198026712Y-112253705D01*
X197316546Y-113316546D01*
X196253707Y-114026712D01*
X194930069Y-114290000D01*
X115069931Y-114290000D01*
X113746295Y-114026712D01*
X112683454Y-113316546D01*
X111973288Y-112253707D01*
X111723910Y-111000000D01*
X111726860Y-110985167D01*
X120864838Y-110985167D01*
X121006883Y-111328943D01*
X121269673Y-111592192D01*
X121613201Y-111734838D01*
X121985167Y-111735162D01*
X122328943Y-111593117D01*
X122592192Y-111330327D01*
X122734838Y-110986799D01*
X122735162Y-110614833D01*
X122593117Y-110271057D01*
X122330327Y-110007808D01*
X121986799Y-109865162D01*
X121614833Y-109864838D01*
X121271057Y-110006883D01*
X121007808Y-110269673D01*
X120865162Y-110613201D01*
X120864838Y-110985167D01*
X111726860Y-110985167D01*
X111973288Y-109746293D01*
X112683454Y-108683454D01*
X113129873Y-108385167D01*
X120864838Y-108385167D01*
X121006883Y-108728943D01*
X121269673Y-108992192D01*
X121613201Y-109134838D01*
X121985167Y-109135162D01*
X122328943Y-108993117D01*
X122592192Y-108730327D01*
X122734838Y-108386799D01*
X122734839Y-108385167D01*
X128464838Y-108385167D01*
X128606883Y-108728943D01*
X128869673Y-108992192D01*
X129213201Y-109134838D01*
X129585167Y-109135162D01*
X129928943Y-108993117D01*
X130192192Y-108730327D01*
X130334838Y-108386799D01*
X130334839Y-108385167D01*
X140364838Y-108385167D01*
X140506883Y-108728943D01*
X140769673Y-108992192D01*
X141113201Y-109134838D01*
X141485167Y-109135162D01*
X141828943Y-108993117D01*
X142092192Y-108730327D01*
X142234838Y-108386799D01*
X142234839Y-108385167D01*
X149864838Y-108385167D01*
X150006883Y-108728943D01*
X150269673Y-108992192D01*
X150613201Y-109134838D01*
X150985167Y-109135162D01*
X151328943Y-108993117D01*
X151592192Y-108730327D01*
X151734838Y-108386799D01*
X151734839Y-108385167D01*
X161864838Y-108385167D01*
X162006883Y-108728943D01*
X162269673Y-108992192D01*
X162613201Y-109134838D01*
X162985167Y-109135162D01*
X163328943Y-108993117D01*
X163592192Y-108730327D01*
X163734838Y-108386799D01*
X163734839Y-108385167D01*
X173864838Y-108385167D01*
X174006883Y-108728943D01*
X174269673Y-108992192D01*
X174613201Y-109134838D01*
X174985167Y-109135162D01*
X175328943Y-108993117D01*
X175592192Y-108730327D01*
X175734838Y-108386799D01*
X175734839Y-108385167D01*
X185864838Y-108385167D01*
X186006883Y-108728943D01*
X186269673Y-108992192D01*
X186613201Y-109134838D01*
X186985167Y-109135162D01*
X187328943Y-108993117D01*
X187592192Y-108730327D01*
X187734838Y-108386799D01*
X187735162Y-108014833D01*
X187593117Y-107671057D01*
X187330327Y-107407808D01*
X186986799Y-107265162D01*
X186614833Y-107264838D01*
X186271057Y-107406883D01*
X186007808Y-107669673D01*
X185865162Y-108013201D01*
X185864838Y-108385167D01*
X175734839Y-108385167D01*
X175735162Y-108014833D01*
X175593117Y-107671057D01*
X175330327Y-107407808D01*
X174986799Y-107265162D01*
X174614833Y-107264838D01*
X174271057Y-107406883D01*
X174007808Y-107669673D01*
X173865162Y-108013201D01*
X173864838Y-108385167D01*
X163734839Y-108385167D01*
X163735162Y-108014833D01*
X163593117Y-107671057D01*
X163330327Y-107407808D01*
X162986799Y-107265162D01*
X162614833Y-107264838D01*
X162271057Y-107406883D01*
X162007808Y-107669673D01*
X161865162Y-108013201D01*
X161864838Y-108385167D01*
X151734839Y-108385167D01*
X151735162Y-108014833D01*
X151593117Y-107671057D01*
X151330327Y-107407808D01*
X150986799Y-107265162D01*
X150614833Y-107264838D01*
X150271057Y-107406883D01*
X150007808Y-107669673D01*
X149865162Y-108013201D01*
X149864838Y-108385167D01*
X142234839Y-108385167D01*
X142235162Y-108014833D01*
X142093117Y-107671057D01*
X141830327Y-107407808D01*
X141486799Y-107265162D01*
X141114833Y-107264838D01*
X140771057Y-107406883D01*
X140507808Y-107669673D01*
X140365162Y-108013201D01*
X140364838Y-108385167D01*
X130334839Y-108385167D01*
X130335162Y-108014833D01*
X130193117Y-107671057D01*
X129930327Y-107407808D01*
X129586799Y-107265162D01*
X129214833Y-107264838D01*
X128871057Y-107406883D01*
X128607808Y-107669673D01*
X128465162Y-108013201D01*
X128464838Y-108385167D01*
X122734839Y-108385167D01*
X122735162Y-108014833D01*
X122593117Y-107671057D01*
X122330327Y-107407808D01*
X121986799Y-107265162D01*
X121614833Y-107264838D01*
X121271057Y-107406883D01*
X121007808Y-107669673D01*
X120865162Y-108013201D01*
X120864838Y-108385167D01*
X113129873Y-108385167D01*
X113746295Y-107973288D01*
X115138514Y-107696358D01*
X115138515Y-107696358D01*
X115521196Y-107620238D01*
X115615369Y-107581230D01*
X115777138Y-107514224D01*
X116101561Y-107297451D01*
X116134174Y-107264838D01*
X116297451Y-107101562D01*
X116514223Y-106777138D01*
X116564419Y-106655954D01*
X116620238Y-106521196D01*
X116696358Y-106138514D01*
X116696358Y-106068584D01*
X116710000Y-106000000D01*
X116710000Y-103082836D01*
X123523000Y-103082836D01*
X123523000Y-104157164D01*
X123629340Y-104691773D01*
X123932172Y-105144992D01*
X124385391Y-105447824D01*
X124920000Y-105554164D01*
X125454609Y-105447824D01*
X125907828Y-105144992D01*
X126190000Y-104722693D01*
X126472172Y-105144992D01*
X126925391Y-105447824D01*
X127460000Y-105554164D01*
X127994609Y-105447824D01*
X128447828Y-105144992D01*
X128730000Y-104722693D01*
X129012172Y-105144992D01*
X129465391Y-105447824D01*
X130000000Y-105554164D01*
X130534609Y-105447824D01*
X130987828Y-105144992D01*
X131270000Y-104722693D01*
X131552172Y-105144992D01*
X132005391Y-105447824D01*
X132540000Y-105554164D01*
X133074609Y-105447824D01*
X133527828Y-105144992D01*
X133810000Y-104722693D01*
X134092172Y-105144992D01*
X134545391Y-105447824D01*
X135080000Y-105554164D01*
X135614609Y-105447824D01*
X136067828Y-105144992D01*
X136370660Y-104691773D01*
X136477000Y-104157164D01*
X136477000Y-103082836D01*
X138523000Y-103082836D01*
X138523000Y-104157164D01*
X138629340Y-104691773D01*
X138932172Y-105144992D01*
X139385391Y-105447824D01*
X139920000Y-105554164D01*
X140454609Y-105447824D01*
X140907828Y-105144992D01*
X141190000Y-104722693D01*
X141472172Y-105144992D01*
X141925391Y-105447824D01*
X142460000Y-105554164D01*
X142994609Y-105447824D01*
X143447828Y-105144992D01*
X143730000Y-104722693D01*
X144012172Y-105144992D01*
X144465391Y-105447824D01*
X145000000Y-105554164D01*
X145534609Y-105447824D01*
X145987828Y-105144992D01*
X146270000Y-104722693D01*
X146552172Y-105144992D01*
X147005391Y-105447824D01*
X147540000Y-105554164D01*
X148074609Y-105447824D01*
X148527828Y-105144992D01*
X148810000Y-104722693D01*
X149092172Y-105144992D01*
X149545391Y-105447824D01*
X150080000Y-105554164D01*
X150614609Y-105447824D01*
X151067828Y-105144992D01*
X151370660Y-104691773D01*
X151477000Y-104157164D01*
X151477000Y-103082836D01*
X158523000Y-103082836D01*
X158523000Y-104157164D01*
X158629340Y-104691773D01*
X158932172Y-105144992D01*
X159385391Y-105447824D01*
X159920000Y-105554164D01*
X160454609Y-105447824D01*
X160907828Y-105144992D01*
X161190000Y-104722693D01*
X161472172Y-105144992D01*
X161925391Y-105447824D01*
X162460000Y-105554164D01*
X162994609Y-105447824D01*
X163447828Y-105144992D01*
X163730000Y-104722693D01*
X164012172Y-105144992D01*
X164465391Y-105447824D01*
X165000000Y-105554164D01*
X165534609Y-105447824D01*
X165987828Y-105144992D01*
X166270000Y-104722693D01*
X166552172Y-105144992D01*
X167005391Y-105447824D01*
X167540000Y-105554164D01*
X168074609Y-105447824D01*
X168527828Y-105144992D01*
X168810000Y-104722693D01*
X169092172Y-105144992D01*
X169545391Y-105447824D01*
X170080000Y-105554164D01*
X170614609Y-105447824D01*
X171067828Y-105144992D01*
X171370660Y-104691773D01*
X171477000Y-104157164D01*
X171477000Y-103082836D01*
X173523000Y-103082836D01*
X173523000Y-104157164D01*
X173629340Y-104691773D01*
X173932172Y-105144992D01*
X174385391Y-105447824D01*
X174920000Y-105554164D01*
X175454609Y-105447824D01*
X175907828Y-105144992D01*
X176190000Y-104722693D01*
X176472172Y-105144992D01*
X176925391Y-105447824D01*
X177460000Y-105554164D01*
X177994609Y-105447824D01*
X178447828Y-105144992D01*
X178730000Y-104722693D01*
X179012172Y-105144992D01*
X179465391Y-105447824D01*
X180000000Y-105554164D01*
X180534609Y-105447824D01*
X180987828Y-105144992D01*
X181270000Y-104722693D01*
X181552172Y-105144992D01*
X182005391Y-105447824D01*
X182540000Y-105554164D01*
X183074609Y-105447824D01*
X183527828Y-105144992D01*
X183810000Y-104722693D01*
X184092172Y-105144992D01*
X184545391Y-105447824D01*
X185080000Y-105554164D01*
X185614609Y-105447824D01*
X186067828Y-105144992D01*
X186370660Y-104691773D01*
X186477000Y-104157164D01*
X186477000Y-103082836D01*
X186370660Y-102548227D01*
X186067828Y-102095008D01*
X185614609Y-101792176D01*
X185080000Y-101685836D01*
X184545391Y-101792176D01*
X184092172Y-102095008D01*
X183810000Y-102517307D01*
X183527828Y-102095008D01*
X183074609Y-101792176D01*
X182540000Y-101685836D01*
X182005391Y-101792176D01*
X181552172Y-102095008D01*
X181270000Y-102517307D01*
X180987828Y-102095008D01*
X180534609Y-101792176D01*
X180000000Y-101685836D01*
X179465391Y-101792176D01*
X179012172Y-102095008D01*
X178730000Y-102517307D01*
X178447828Y-102095008D01*
X177994609Y-101792176D01*
X177460000Y-101685836D01*
X176925391Y-101792176D01*
X176472172Y-102095008D01*
X176190000Y-102517307D01*
X175907828Y-102095008D01*
X175454609Y-101792176D01*
X174920000Y-101685836D01*
X174385391Y-101792176D01*
X173932172Y-102095008D01*
X173629340Y-102548227D01*
X173523000Y-103082836D01*
X171477000Y-103082836D01*
X171370660Y-102548227D01*
X171067828Y-102095008D01*
X170614609Y-101792176D01*
X170080000Y-101685836D01*
X169545391Y-101792176D01*
X169092172Y-102095008D01*
X168810000Y-102517307D01*
X168527828Y-102095008D01*
X168074609Y-101792176D01*
X167540000Y-101685836D01*
X167005391Y-101792176D01*
X166552172Y-102095008D01*
X166270000Y-102517307D01*
X165987828Y-102095008D01*
X165534609Y-101792176D01*
X165000000Y-101685836D01*
X164465391Y-101792176D01*
X164012172Y-102095008D01*
X163730000Y-102517307D01*
X163447828Y-102095008D01*
X162994609Y-101792176D01*
X162460000Y-101685836D01*
X161925391Y-101792176D01*
X161472172Y-102095008D01*
X161190000Y-102517307D01*
X160907828Y-102095008D01*
X160454609Y-101792176D01*
X159920000Y-101685836D01*
X159385391Y-101792176D01*
X158932172Y-102095008D01*
X158629340Y-102548227D01*
X158523000Y-103082836D01*
X151477000Y-103082836D01*
X151370660Y-102548227D01*
X151067828Y-102095008D01*
X150614609Y-101792176D01*
X150080000Y-101685836D01*
X149545391Y-101792176D01*
X149092172Y-102095008D01*
X148810000Y-102517307D01*
X148527828Y-102095008D01*
X148074609Y-101792176D01*
X147540000Y-101685836D01*
X147005391Y-101792176D01*
X146552172Y-102095008D01*
X146270000Y-102517307D01*
X145987828Y-102095008D01*
X145534609Y-101792176D01*
X145000000Y-101685836D01*
X144465391Y-101792176D01*
X144012172Y-102095008D01*
X143730000Y-102517307D01*
X143447828Y-102095008D01*
X142994609Y-101792176D01*
X142460000Y-101685836D01*
X141925391Y-101792176D01*
X141472172Y-102095008D01*
X141190000Y-102517307D01*
X140907828Y-102095008D01*
X140454609Y-101792176D01*
X139920000Y-101685836D01*
X139385391Y-101792176D01*
X138932172Y-102095008D01*
X138629340Y-102548227D01*
X138523000Y-103082836D01*
X136477000Y-103082836D01*
X136370660Y-102548227D01*
X136067828Y-102095008D01*
X135614609Y-101792176D01*
X135080000Y-101685836D01*
X134545391Y-101792176D01*
X134092172Y-102095008D01*
X133810000Y-102517307D01*
X133527828Y-102095008D01*
X133074609Y-101792176D01*
X132540000Y-101685836D01*
X132005391Y-101792176D01*
X131552172Y-102095008D01*
X131270000Y-102517307D01*
X130987828Y-102095008D01*
X130534609Y-101792176D01*
X130000000Y-101685836D01*
X129465391Y-101792176D01*
X129012172Y-102095008D01*
X128730000Y-102517307D01*
X128447828Y-102095008D01*
X127994609Y-101792176D01*
X127460000Y-101685836D01*
X126925391Y-101792176D01*
X126472172Y-102095008D01*
X126190000Y-102517307D01*
X125907828Y-102095008D01*
X125454609Y-101792176D01*
X124920000Y-101685836D01*
X124385391Y-101792176D01*
X123932172Y-102095008D01*
X123629340Y-102548227D01*
X123523000Y-103082836D01*
X116710000Y-103082836D01*
X116710000Y-100085167D01*
X155464838Y-100085167D01*
X155606883Y-100428943D01*
X155869673Y-100692192D01*
X156213201Y-100834838D01*
X156585167Y-100835162D01*
X156928943Y-100693117D01*
X157192192Y-100430327D01*
X157334838Y-100086799D01*
X157335162Y-99714833D01*
X157193117Y-99371057D01*
X156930327Y-99107808D01*
X156586799Y-98965162D01*
X156214833Y-98964838D01*
X155871057Y-99106883D01*
X155607808Y-99369673D01*
X155465162Y-99713201D01*
X155464838Y-100085167D01*
X116710000Y-100085167D01*
X116710000Y-98899026D01*
X187392642Y-98899026D01*
X187395291Y-98914791D01*
X187649268Y-99442036D01*
X188085680Y-99831954D01*
X188638087Y-100025184D01*
X188873000Y-99880924D01*
X188873000Y-98667000D01*
X189127000Y-98667000D01*
X189127000Y-99880924D01*
X189361913Y-100025184D01*
X189914320Y-99831954D01*
X190350732Y-99442036D01*
X190604709Y-98914791D01*
X190607358Y-98899026D01*
X190486217Y-98667000D01*
X189127000Y-98667000D01*
X188873000Y-98667000D01*
X187513783Y-98667000D01*
X187392642Y-98899026D01*
X116710000Y-98899026D01*
X116710000Y-97785167D01*
X147964838Y-97785167D01*
X148106883Y-98128943D01*
X148369673Y-98392192D01*
X148713201Y-98534838D01*
X149085167Y-98535162D01*
X149428943Y-98393117D01*
X149692192Y-98130327D01*
X149834838Y-97786799D01*
X149834839Y-97785167D01*
X165164838Y-97785167D01*
X165306883Y-98128943D01*
X165569673Y-98392192D01*
X165913201Y-98534838D01*
X166285167Y-98535162D01*
X166628943Y-98393117D01*
X166892192Y-98130327D01*
X167034838Y-97786799D01*
X167034839Y-97785167D01*
X172664838Y-97785167D01*
X172806883Y-98128943D01*
X173069673Y-98392192D01*
X173413201Y-98534838D01*
X173785167Y-98535162D01*
X174128943Y-98393117D01*
X174392192Y-98130327D01*
X174534838Y-97786799D01*
X174535162Y-97414833D01*
X174393117Y-97071057D01*
X174130327Y-96807808D01*
X173786799Y-96665162D01*
X173414833Y-96664838D01*
X173071057Y-96806883D01*
X172807808Y-97069673D01*
X172665162Y-97413201D01*
X172664838Y-97785167D01*
X167034839Y-97785167D01*
X167035162Y-97414833D01*
X166893117Y-97071057D01*
X166630327Y-96807808D01*
X166286799Y-96665162D01*
X165914833Y-96664838D01*
X165571057Y-96806883D01*
X165307808Y-97069673D01*
X165165162Y-97413201D01*
X165164838Y-97785167D01*
X149834839Y-97785167D01*
X149835162Y-97414833D01*
X149693117Y-97071057D01*
X149607377Y-96985167D01*
X152664838Y-96985167D01*
X152806883Y-97328943D01*
X153069673Y-97592192D01*
X153413201Y-97734838D01*
X153785167Y-97735162D01*
X154128943Y-97593117D01*
X154392192Y-97330327D01*
X154534838Y-96986799D01*
X154535162Y-96614833D01*
X154458348Y-96428928D01*
X158399196Y-96428928D01*
X158541241Y-96772704D01*
X158804031Y-97035953D01*
X159147559Y-97178599D01*
X159519525Y-97178923D01*
X159863301Y-97036878D01*
X160126550Y-96774088D01*
X160142729Y-96735125D01*
X160185167Y-96735162D01*
X160528943Y-96593117D01*
X160737256Y-96385167D01*
X161564838Y-96385167D01*
X161706883Y-96728943D01*
X161969673Y-96992192D01*
X162313201Y-97134838D01*
X162685167Y-97135162D01*
X163028943Y-96993117D01*
X163292192Y-96730327D01*
X163434838Y-96386799D01*
X163435162Y-96014833D01*
X163422905Y-95985167D01*
X169064838Y-95985167D01*
X169206883Y-96328943D01*
X169469673Y-96592192D01*
X169813201Y-96734838D01*
X170185167Y-96735162D01*
X170528943Y-96593117D01*
X170792192Y-96330327D01*
X170934838Y-95986799D01*
X170934839Y-95985167D01*
X174064838Y-95985167D01*
X174206883Y-96328943D01*
X174469673Y-96592192D01*
X174813201Y-96734838D01*
X175185167Y-96735162D01*
X175528943Y-96593117D01*
X175737256Y-96385167D01*
X176564838Y-96385167D01*
X176706883Y-96728943D01*
X176969673Y-96992192D01*
X177313201Y-97134838D01*
X177685167Y-97135162D01*
X178028943Y-96993117D01*
X178292192Y-96730327D01*
X178434838Y-96386799D01*
X178434839Y-96385167D01*
X181564838Y-96385167D01*
X181706883Y-96728943D01*
X181969673Y-96992192D01*
X182313201Y-97134838D01*
X182685167Y-97135162D01*
X183028943Y-96993117D01*
X183292192Y-96730327D01*
X183434838Y-96386799D01*
X183435162Y-96014833D01*
X183293117Y-95671057D01*
X183030327Y-95407808D01*
X182686799Y-95265162D01*
X182314833Y-95264838D01*
X181971057Y-95406883D01*
X181707808Y-95669673D01*
X181565162Y-96013201D01*
X181564838Y-96385167D01*
X178434839Y-96385167D01*
X178435162Y-96014833D01*
X178293117Y-95671057D01*
X178030327Y-95407808D01*
X177686799Y-95265162D01*
X177314833Y-95264838D01*
X176971057Y-95406883D01*
X176707808Y-95669673D01*
X176565162Y-96013201D01*
X176564838Y-96385167D01*
X175737256Y-96385167D01*
X175792192Y-96330327D01*
X175934838Y-95986799D01*
X175935162Y-95614833D01*
X175793117Y-95271057D01*
X175530327Y-95007808D01*
X175186799Y-94865162D01*
X174814833Y-94864838D01*
X174471057Y-95006883D01*
X174207808Y-95269673D01*
X174065162Y-95613201D01*
X174064838Y-95985167D01*
X170934839Y-95985167D01*
X170935162Y-95614833D01*
X170793117Y-95271057D01*
X170530327Y-95007808D01*
X170186799Y-94865162D01*
X169814833Y-94864838D01*
X169471057Y-95006883D01*
X169207808Y-95269673D01*
X169065162Y-95613201D01*
X169064838Y-95985167D01*
X163422905Y-95985167D01*
X163293117Y-95671057D01*
X163030327Y-95407808D01*
X162686799Y-95265162D01*
X162314833Y-95264838D01*
X161971057Y-95406883D01*
X161707808Y-95669673D01*
X161565162Y-96013201D01*
X161564838Y-96385167D01*
X160737256Y-96385167D01*
X160792192Y-96330327D01*
X160934838Y-95986799D01*
X160935162Y-95614833D01*
X160793117Y-95271057D01*
X160530327Y-95007808D01*
X160186799Y-94865162D01*
X159814833Y-94864838D01*
X159471057Y-95006883D01*
X159207808Y-95269673D01*
X159191629Y-95308636D01*
X159149191Y-95308599D01*
X158805415Y-95450644D01*
X158542166Y-95713434D01*
X158399520Y-96056962D01*
X158399196Y-96428928D01*
X154458348Y-96428928D01*
X154393117Y-96271057D01*
X154130327Y-96007808D01*
X153786799Y-95865162D01*
X153414833Y-95864838D01*
X153071057Y-96006883D01*
X152807808Y-96269673D01*
X152665162Y-96613201D01*
X152664838Y-96985167D01*
X149607377Y-96985167D01*
X149430327Y-96807808D01*
X149086799Y-96665162D01*
X148714833Y-96664838D01*
X148371057Y-96806883D01*
X148107808Y-97069673D01*
X147965162Y-97413201D01*
X147964838Y-97785167D01*
X116710000Y-97785167D01*
X116710000Y-96385167D01*
X138364838Y-96385167D01*
X138506883Y-96728943D01*
X138769673Y-96992192D01*
X139113201Y-97134838D01*
X139485167Y-97135162D01*
X139828943Y-96993117D01*
X140087434Y-96735077D01*
X140185167Y-96735162D01*
X140528943Y-96593117D01*
X140737256Y-96385167D01*
X141564838Y-96385167D01*
X141706883Y-96728943D01*
X141969673Y-96992192D01*
X142313201Y-97134838D01*
X142685167Y-97135162D01*
X143028943Y-96993117D01*
X143292192Y-96730327D01*
X143434838Y-96386799D01*
X143435162Y-96014833D01*
X143422905Y-95985167D01*
X149064838Y-95985167D01*
X149206883Y-96328943D01*
X149469673Y-96592192D01*
X149813201Y-96734838D01*
X150185167Y-96735162D01*
X150528943Y-96593117D01*
X150792192Y-96330327D01*
X150934838Y-95986799D01*
X150935162Y-95614833D01*
X150793117Y-95271057D01*
X150530327Y-95007808D01*
X150186799Y-94865162D01*
X149814833Y-94864838D01*
X149471057Y-95006883D01*
X149207808Y-95269673D01*
X149065162Y-95613201D01*
X149064838Y-95985167D01*
X143422905Y-95985167D01*
X143293117Y-95671057D01*
X143030327Y-95407808D01*
X142686799Y-95265162D01*
X142314833Y-95264838D01*
X141971057Y-95406883D01*
X141707808Y-95669673D01*
X141565162Y-96013201D01*
X141564838Y-96385167D01*
X140737256Y-96385167D01*
X140792192Y-96330327D01*
X140934838Y-95986799D01*
X140935162Y-95614833D01*
X140793117Y-95271057D01*
X140530327Y-95007808D01*
X140186799Y-94865162D01*
X139814833Y-94864838D01*
X139471057Y-95006883D01*
X139212566Y-95264923D01*
X139114833Y-95264838D01*
X138771057Y-95406883D01*
X138507808Y-95669673D01*
X138365162Y-96013201D01*
X138364838Y-96385167D01*
X116710000Y-96385167D01*
X116710000Y-94485167D01*
X142964838Y-94485167D01*
X143106883Y-94828943D01*
X143369673Y-95092192D01*
X143713201Y-95234838D01*
X144085167Y-95235162D01*
X144428943Y-95093117D01*
X144692192Y-94830327D01*
X144834838Y-94486799D01*
X144834839Y-94485167D01*
X145164838Y-94485167D01*
X145306883Y-94828943D01*
X145569673Y-95092192D01*
X145913201Y-95234838D01*
X146285167Y-95235162D01*
X146628943Y-95093117D01*
X146892192Y-94830327D01*
X147034838Y-94486799D01*
X147035013Y-94285167D01*
X155464838Y-94285167D01*
X155606883Y-94628943D01*
X155869673Y-94892192D01*
X156213201Y-95034838D01*
X156585167Y-95035162D01*
X156928943Y-94893117D01*
X157192192Y-94630327D01*
X157252467Y-94485167D01*
X162964838Y-94485167D01*
X163106883Y-94828943D01*
X163369673Y-95092192D01*
X163713201Y-95234838D01*
X164085167Y-95235162D01*
X164428943Y-95093117D01*
X164692192Y-94830327D01*
X164834838Y-94486799D01*
X164834839Y-94485167D01*
X165164838Y-94485167D01*
X165306883Y-94828943D01*
X165569673Y-95092192D01*
X165913201Y-95234838D01*
X166285167Y-95235162D01*
X166628943Y-95093117D01*
X166892192Y-94830327D01*
X167034838Y-94486799D01*
X167034839Y-94485167D01*
X177964838Y-94485167D01*
X178106883Y-94828943D01*
X178369673Y-95092192D01*
X178713201Y-95234838D01*
X179085167Y-95235162D01*
X179428943Y-95093117D01*
X179692192Y-94830327D01*
X179814753Y-94535167D01*
X180164838Y-94535167D01*
X180306883Y-94878943D01*
X180569673Y-95142192D01*
X180913201Y-95284838D01*
X181285167Y-95285162D01*
X181628943Y-95143117D01*
X181892192Y-94880327D01*
X182034838Y-94536799D01*
X182034882Y-94485167D01*
X185539838Y-94485167D01*
X185681883Y-94828943D01*
X185944673Y-95092192D01*
X186288201Y-95234838D01*
X186660167Y-95235162D01*
X187003943Y-95093117D01*
X187267192Y-94830327D01*
X187380543Y-94557349D01*
X187380838Y-94558917D01*
X187519910Y-94775041D01*
X187732110Y-94920031D01*
X187773439Y-94928400D01*
X187755585Y-94940330D01*
X187430729Y-95426511D01*
X187316655Y-96000000D01*
X187430729Y-96573489D01*
X187755585Y-97059670D01*
X188065069Y-97266461D01*
X187649268Y-97637964D01*
X187395291Y-98165209D01*
X187392642Y-98180974D01*
X187513783Y-98413000D01*
X188873000Y-98413000D01*
X188873000Y-98393000D01*
X189127000Y-98393000D01*
X189127000Y-98413000D01*
X190486217Y-98413000D01*
X190607358Y-98180974D01*
X190604709Y-98165209D01*
X190350732Y-97637964D01*
X189934931Y-97266461D01*
X190244415Y-97059670D01*
X190569271Y-96573489D01*
X190683345Y-96000000D01*
X190569271Y-95426511D01*
X190244415Y-94940330D01*
X190230087Y-94930757D01*
X190251317Y-94926762D01*
X190467441Y-94787690D01*
X190612431Y-94575490D01*
X190663440Y-94323600D01*
X190663440Y-92596400D01*
X190619162Y-92361083D01*
X190480090Y-92144959D01*
X190267890Y-91999969D01*
X190016000Y-91948960D01*
X187984000Y-91948960D01*
X187748683Y-91993238D01*
X187532559Y-92132310D01*
X187387569Y-92344510D01*
X187336560Y-92596400D01*
X187336560Y-93936702D01*
X187268117Y-93771057D01*
X187005327Y-93507808D01*
X186661799Y-93365162D01*
X186289833Y-93364838D01*
X185946057Y-93506883D01*
X185682808Y-93769673D01*
X185540162Y-94113201D01*
X185539838Y-94485167D01*
X182034882Y-94485167D01*
X182035162Y-94164833D01*
X181893117Y-93821057D01*
X181630327Y-93557808D01*
X181286799Y-93415162D01*
X180914833Y-93414838D01*
X180571057Y-93556883D01*
X180307808Y-93819673D01*
X180165162Y-94163201D01*
X180164838Y-94535167D01*
X179814753Y-94535167D01*
X179834838Y-94486799D01*
X179835162Y-94114833D01*
X179693117Y-93771057D01*
X179430327Y-93507808D01*
X179086799Y-93365162D01*
X178714833Y-93364838D01*
X178371057Y-93506883D01*
X178107808Y-93769673D01*
X177965162Y-94113201D01*
X177964838Y-94485167D01*
X167034839Y-94485167D01*
X167035162Y-94114833D01*
X166893117Y-93771057D01*
X166630327Y-93507808D01*
X166286799Y-93365162D01*
X165914833Y-93364838D01*
X165571057Y-93506883D01*
X165307808Y-93769673D01*
X165165162Y-94113201D01*
X165164838Y-94485167D01*
X164834839Y-94485167D01*
X164835162Y-94114833D01*
X164693117Y-93771057D01*
X164430327Y-93507808D01*
X164086799Y-93365162D01*
X163714833Y-93364838D01*
X163371057Y-93506883D01*
X163107808Y-93769673D01*
X162965162Y-94113201D01*
X162964838Y-94485167D01*
X157252467Y-94485167D01*
X157334838Y-94286799D01*
X157335162Y-93914833D01*
X157193117Y-93571057D01*
X156930327Y-93307808D01*
X156586799Y-93165162D01*
X156214833Y-93164838D01*
X155871057Y-93306883D01*
X155607808Y-93569673D01*
X155465162Y-93913201D01*
X155464838Y-94285167D01*
X147035013Y-94285167D01*
X147035162Y-94114833D01*
X146893117Y-93771057D01*
X146630327Y-93507808D01*
X146286799Y-93365162D01*
X145914833Y-93364838D01*
X145571057Y-93506883D01*
X145307808Y-93769673D01*
X145165162Y-94113201D01*
X145164838Y-94485167D01*
X144834839Y-94485167D01*
X144835162Y-94114833D01*
X144693117Y-93771057D01*
X144430327Y-93507808D01*
X144086799Y-93365162D01*
X143714833Y-93364838D01*
X143371057Y-93506883D01*
X143107808Y-93769673D01*
X142965162Y-94113201D01*
X142964838Y-94485167D01*
X116710000Y-94485167D01*
X116710000Y-87485167D01*
X120464838Y-87485167D01*
X120606883Y-87828943D01*
X120869673Y-88092192D01*
X121213201Y-88234838D01*
X121585167Y-88235162D01*
X121928943Y-88093117D01*
X122179661Y-87842836D01*
X123523000Y-87842836D01*
X123523000Y-88917164D01*
X123629340Y-89451773D01*
X123932172Y-89904992D01*
X124385391Y-90207824D01*
X124920000Y-90314164D01*
X125454609Y-90207824D01*
X125907828Y-89904992D01*
X126190000Y-89482693D01*
X126472172Y-89904992D01*
X126925391Y-90207824D01*
X127460000Y-90314164D01*
X127994609Y-90207824D01*
X128447828Y-89904992D01*
X128730000Y-89482693D01*
X129012172Y-89904992D01*
X129465391Y-90207824D01*
X130000000Y-90314164D01*
X130534609Y-90207824D01*
X130987828Y-89904992D01*
X131270000Y-89482693D01*
X131552172Y-89904992D01*
X132005391Y-90207824D01*
X132540000Y-90314164D01*
X133074609Y-90207824D01*
X133527828Y-89904992D01*
X133810000Y-89482693D01*
X134092172Y-89904992D01*
X134545391Y-90207824D01*
X135080000Y-90314164D01*
X135614609Y-90207824D01*
X136067828Y-89904992D01*
X136370660Y-89451773D01*
X136477000Y-88917164D01*
X136477000Y-87842836D01*
X138523000Y-87842836D01*
X138523000Y-88917164D01*
X138629340Y-89451773D01*
X138932172Y-89904992D01*
X139385391Y-90207824D01*
X139920000Y-90314164D01*
X140454609Y-90207824D01*
X140907828Y-89904992D01*
X141190000Y-89482693D01*
X141472172Y-89904992D01*
X141925391Y-90207824D01*
X142460000Y-90314164D01*
X142994609Y-90207824D01*
X143447828Y-89904992D01*
X143730000Y-89482693D01*
X144012172Y-89904992D01*
X144465391Y-90207824D01*
X145000000Y-90314164D01*
X145534609Y-90207824D01*
X145987828Y-89904992D01*
X146270000Y-89482693D01*
X146552172Y-89904992D01*
X147005391Y-90207824D01*
X147540000Y-90314164D01*
X148074609Y-90207824D01*
X148527828Y-89904992D01*
X148810000Y-89482693D01*
X149092172Y-89904992D01*
X149545391Y-90207824D01*
X150080000Y-90314164D01*
X150614609Y-90207824D01*
X151067828Y-89904992D01*
X151370660Y-89451773D01*
X151477000Y-88917164D01*
X151477000Y-87842836D01*
X158523000Y-87842836D01*
X158523000Y-88917164D01*
X158629340Y-89451773D01*
X158932172Y-89904992D01*
X159385391Y-90207824D01*
X159920000Y-90314164D01*
X160454609Y-90207824D01*
X160907828Y-89904992D01*
X161190000Y-89482693D01*
X161472172Y-89904992D01*
X161925391Y-90207824D01*
X162460000Y-90314164D01*
X162994609Y-90207824D01*
X163447828Y-89904992D01*
X163730000Y-89482693D01*
X164012172Y-89904992D01*
X164465391Y-90207824D01*
X165000000Y-90314164D01*
X165534609Y-90207824D01*
X165987828Y-89904992D01*
X166270000Y-89482693D01*
X166552172Y-89904992D01*
X167005391Y-90207824D01*
X167540000Y-90314164D01*
X168074609Y-90207824D01*
X168527828Y-89904992D01*
X168810000Y-89482693D01*
X169092172Y-89904992D01*
X169545391Y-90207824D01*
X170080000Y-90314164D01*
X170614609Y-90207824D01*
X171067828Y-89904992D01*
X171370660Y-89451773D01*
X171477000Y-88917164D01*
X171477000Y-87842836D01*
X173523000Y-87842836D01*
X173523000Y-88917164D01*
X173629340Y-89451773D01*
X173932172Y-89904992D01*
X174385391Y-90207824D01*
X174920000Y-90314164D01*
X175454609Y-90207824D01*
X175907828Y-89904992D01*
X176190000Y-89482693D01*
X176472172Y-89904992D01*
X176925391Y-90207824D01*
X177460000Y-90314164D01*
X177994609Y-90207824D01*
X178447828Y-89904992D01*
X178730000Y-89482693D01*
X179012172Y-89904992D01*
X179465391Y-90207824D01*
X180000000Y-90314164D01*
X180534609Y-90207824D01*
X180987828Y-89904992D01*
X181270000Y-89482693D01*
X181552172Y-89904992D01*
X182005391Y-90207824D01*
X182540000Y-90314164D01*
X183074609Y-90207824D01*
X183527828Y-89904992D01*
X183810000Y-89482693D01*
X184092172Y-89904992D01*
X184545391Y-90207824D01*
X185080000Y-90314164D01*
X185614609Y-90207824D01*
X186067828Y-89904992D01*
X186370660Y-89451773D01*
X186477000Y-88917164D01*
X186477000Y-87842836D01*
X186370660Y-87308227D01*
X186067828Y-86855008D01*
X185614609Y-86552176D01*
X185080000Y-86445836D01*
X184545391Y-86552176D01*
X184092172Y-86855008D01*
X183810000Y-87277307D01*
X183527828Y-86855008D01*
X183074609Y-86552176D01*
X182540000Y-86445836D01*
X182005391Y-86552176D01*
X181552172Y-86855008D01*
X181270000Y-87277307D01*
X180987828Y-86855008D01*
X180534609Y-86552176D01*
X180000000Y-86445836D01*
X179465391Y-86552176D01*
X179012172Y-86855008D01*
X178730000Y-87277307D01*
X178447828Y-86855008D01*
X177994609Y-86552176D01*
X177460000Y-86445836D01*
X176925391Y-86552176D01*
X176472172Y-86855008D01*
X176190000Y-87277307D01*
X175907828Y-86855008D01*
X175454609Y-86552176D01*
X174920000Y-86445836D01*
X174385391Y-86552176D01*
X173932172Y-86855008D01*
X173629340Y-87308227D01*
X173523000Y-87842836D01*
X171477000Y-87842836D01*
X171370660Y-87308227D01*
X171067828Y-86855008D01*
X170614609Y-86552176D01*
X170080000Y-86445836D01*
X169545391Y-86552176D01*
X169092172Y-86855008D01*
X168810000Y-87277307D01*
X168527828Y-86855008D01*
X168074609Y-86552176D01*
X167540000Y-86445836D01*
X167005391Y-86552176D01*
X166552172Y-86855008D01*
X166270000Y-87277307D01*
X165987828Y-86855008D01*
X165534609Y-86552176D01*
X165000000Y-86445836D01*
X164465391Y-86552176D01*
X164012172Y-86855008D01*
X163730000Y-87277307D01*
X163447828Y-86855008D01*
X162994609Y-86552176D01*
X162460000Y-86445836D01*
X161925391Y-86552176D01*
X161472172Y-86855008D01*
X161190000Y-87277307D01*
X160907828Y-86855008D01*
X160454609Y-86552176D01*
X159920000Y-86445836D01*
X159385391Y-86552176D01*
X158932172Y-86855008D01*
X158629340Y-87308227D01*
X158523000Y-87842836D01*
X151477000Y-87842836D01*
X151370660Y-87308227D01*
X151067828Y-86855008D01*
X150614609Y-86552176D01*
X150080000Y-86445836D01*
X149545391Y-86552176D01*
X149092172Y-86855008D01*
X148810000Y-87277307D01*
X148527828Y-86855008D01*
X148074609Y-86552176D01*
X147540000Y-86445836D01*
X147005391Y-86552176D01*
X146552172Y-86855008D01*
X146270000Y-87277307D01*
X145987828Y-86855008D01*
X145534609Y-86552176D01*
X145000000Y-86445836D01*
X144465391Y-86552176D01*
X144012172Y-86855008D01*
X143730000Y-87277307D01*
X143447828Y-86855008D01*
X142994609Y-86552176D01*
X142460000Y-86445836D01*
X141925391Y-86552176D01*
X141472172Y-86855008D01*
X141190000Y-87277307D01*
X140907828Y-86855008D01*
X140454609Y-86552176D01*
X139920000Y-86445836D01*
X139385391Y-86552176D01*
X138932172Y-86855008D01*
X138629340Y-87308227D01*
X138523000Y-87842836D01*
X136477000Y-87842836D01*
X136370660Y-87308227D01*
X136067828Y-86855008D01*
X135614609Y-86552176D01*
X135080000Y-86445836D01*
X134545391Y-86552176D01*
X134092172Y-86855008D01*
X133810000Y-87277307D01*
X133527828Y-86855008D01*
X133074609Y-86552176D01*
X132540000Y-86445836D01*
X132005391Y-86552176D01*
X131552172Y-86855008D01*
X131270000Y-87277307D01*
X130987828Y-86855008D01*
X130534609Y-86552176D01*
X130000000Y-86445836D01*
X129465391Y-86552176D01*
X129012172Y-86855008D01*
X128730000Y-87277307D01*
X128447828Y-86855008D01*
X127994609Y-86552176D01*
X127460000Y-86445836D01*
X126925391Y-86552176D01*
X126472172Y-86855008D01*
X126190000Y-87277307D01*
X125907828Y-86855008D01*
X125454609Y-86552176D01*
X124920000Y-86445836D01*
X124385391Y-86552176D01*
X123932172Y-86855008D01*
X123629340Y-87308227D01*
X123523000Y-87842836D01*
X122179661Y-87842836D01*
X122192192Y-87830327D01*
X122334838Y-87486799D01*
X122335162Y-87114833D01*
X122193117Y-86771057D01*
X121930327Y-86507808D01*
X121586799Y-86365162D01*
X121214833Y-86364838D01*
X120871057Y-86506883D01*
X120607808Y-86769673D01*
X120465162Y-87113201D01*
X120464838Y-87485167D01*
X116710000Y-87485167D01*
X116710000Y-86000000D01*
X116696358Y-85931416D01*
X116696358Y-85861486D01*
X116620238Y-85478804D01*
X116519339Y-85235214D01*
X116514223Y-85222862D01*
X116422219Y-85085167D01*
X120464838Y-85085167D01*
X120606883Y-85428943D01*
X120869673Y-85692192D01*
X121213201Y-85834838D01*
X121585167Y-85835162D01*
X121928943Y-85693117D01*
X122192192Y-85430327D01*
X122334838Y-85086799D01*
X122335162Y-84714833D01*
X122193117Y-84371057D01*
X121930327Y-84107808D01*
X121634977Y-83985167D01*
X123964838Y-83985167D01*
X124106883Y-84328943D01*
X124369673Y-84592192D01*
X124713201Y-84734838D01*
X125085167Y-84735162D01*
X125428943Y-84593117D01*
X125692192Y-84330327D01*
X125727797Y-84244579D01*
X133724786Y-84244579D01*
X133912408Y-84698657D01*
X134259515Y-85046371D01*
X134713266Y-85234785D01*
X135204579Y-85235214D01*
X135658657Y-85047592D01*
X136006371Y-84700485D01*
X136194785Y-84246734D01*
X136194786Y-84244579D01*
X136264786Y-84244579D01*
X136452408Y-84698657D01*
X136799515Y-85046371D01*
X137253266Y-85234785D01*
X137744579Y-85235214D01*
X138198657Y-85047592D01*
X138546371Y-84700485D01*
X138734785Y-84246734D01*
X138734786Y-84244579D01*
X138804786Y-84244579D01*
X138992408Y-84698657D01*
X139339515Y-85046371D01*
X139793266Y-85234785D01*
X140284579Y-85235214D01*
X140738657Y-85047592D01*
X141086371Y-84700485D01*
X141274785Y-84246734D01*
X141274886Y-84131027D01*
X148964838Y-84131027D01*
X149106883Y-84474803D01*
X149369673Y-84738052D01*
X149713201Y-84880698D01*
X150085167Y-84881022D01*
X150428943Y-84738977D01*
X150692192Y-84476187D01*
X150816467Y-84176899D01*
X164239837Y-84176899D01*
X164381882Y-84520675D01*
X164644672Y-84783924D01*
X164988200Y-84926570D01*
X165360166Y-84926894D01*
X165703942Y-84784849D01*
X165967191Y-84522059D01*
X166082411Y-84244579D01*
X168724786Y-84244579D01*
X168912408Y-84698657D01*
X169259515Y-85046371D01*
X169713266Y-85234785D01*
X170204579Y-85235214D01*
X170658657Y-85047592D01*
X171006371Y-84700485D01*
X171194785Y-84246734D01*
X171194786Y-84244579D01*
X171264786Y-84244579D01*
X171452408Y-84698657D01*
X171799515Y-85046371D01*
X172253266Y-85234785D01*
X172744579Y-85235214D01*
X173198657Y-85047592D01*
X173546371Y-84700485D01*
X173734785Y-84246734D01*
X173734786Y-84244579D01*
X173804786Y-84244579D01*
X173992408Y-84698657D01*
X174339515Y-85046371D01*
X174793266Y-85234785D01*
X175284579Y-85235214D01*
X175647718Y-85085167D01*
X187164838Y-85085167D01*
X187306883Y-85428943D01*
X187569673Y-85692192D01*
X187913201Y-85834838D01*
X188285167Y-85835162D01*
X188628943Y-85693117D01*
X188892192Y-85430327D01*
X189034838Y-85086799D01*
X189035162Y-84714833D01*
X188893117Y-84371057D01*
X188630327Y-84107808D01*
X188286799Y-83965162D01*
X187914833Y-83964838D01*
X187571057Y-84106883D01*
X187307808Y-84369673D01*
X187165162Y-84713201D01*
X187164838Y-85085167D01*
X175647718Y-85085167D01*
X175738657Y-85047592D01*
X176086371Y-84700485D01*
X176274785Y-84246734D01*
X176275013Y-83985167D01*
X181664838Y-83985167D01*
X181806883Y-84328943D01*
X182069673Y-84592192D01*
X182413201Y-84734838D01*
X182785167Y-84735162D01*
X183128943Y-84593117D01*
X183392192Y-84330327D01*
X183534838Y-83986799D01*
X183535162Y-83614833D01*
X183393117Y-83271057D01*
X183130327Y-83007808D01*
X182786799Y-82865162D01*
X182414833Y-82864838D01*
X182071057Y-83006883D01*
X181807808Y-83269673D01*
X181665162Y-83613201D01*
X181664838Y-83985167D01*
X176275013Y-83985167D01*
X176275214Y-83755421D01*
X176087592Y-83301343D01*
X175740485Y-82953629D01*
X175286734Y-82765215D01*
X174795421Y-82764786D01*
X174341343Y-82952408D01*
X173993629Y-83299515D01*
X173805215Y-83753266D01*
X173804786Y-84244579D01*
X173734786Y-84244579D01*
X173735214Y-83755421D01*
X173547592Y-83301343D01*
X173200485Y-82953629D01*
X172746734Y-82765215D01*
X172255421Y-82764786D01*
X171801343Y-82952408D01*
X171453629Y-83299515D01*
X171265215Y-83753266D01*
X171264786Y-84244579D01*
X171194786Y-84244579D01*
X171195214Y-83755421D01*
X171007592Y-83301343D01*
X170660485Y-82953629D01*
X170206734Y-82765215D01*
X169715421Y-82764786D01*
X169261343Y-82952408D01*
X168913629Y-83299515D01*
X168725215Y-83753266D01*
X168724786Y-84244579D01*
X166082411Y-84244579D01*
X166109837Y-84178531D01*
X166110161Y-83806565D01*
X165968116Y-83462789D01*
X165705326Y-83199540D01*
X165361798Y-83056894D01*
X164989832Y-83056570D01*
X164646056Y-83198615D01*
X164382807Y-83461405D01*
X164240161Y-83804933D01*
X164239837Y-84176899D01*
X150816467Y-84176899D01*
X150834838Y-84132659D01*
X150835162Y-83760693D01*
X150693117Y-83416917D01*
X150430327Y-83153668D01*
X150086799Y-83011022D01*
X149714833Y-83010698D01*
X149371057Y-83152743D01*
X149107808Y-83415533D01*
X148965162Y-83759061D01*
X148964838Y-84131027D01*
X141274886Y-84131027D01*
X141275214Y-83755421D01*
X141087592Y-83301343D01*
X140740485Y-82953629D01*
X140286734Y-82765215D01*
X139795421Y-82764786D01*
X139341343Y-82952408D01*
X138993629Y-83299515D01*
X138805215Y-83753266D01*
X138804786Y-84244579D01*
X138734786Y-84244579D01*
X138735214Y-83755421D01*
X138547592Y-83301343D01*
X138200485Y-82953629D01*
X137746734Y-82765215D01*
X137255421Y-82764786D01*
X136801343Y-82952408D01*
X136453629Y-83299515D01*
X136265215Y-83753266D01*
X136264786Y-84244579D01*
X136194786Y-84244579D01*
X136195214Y-83755421D01*
X136007592Y-83301343D01*
X135660485Y-82953629D01*
X135206734Y-82765215D01*
X134715421Y-82764786D01*
X134261343Y-82952408D01*
X133913629Y-83299515D01*
X133725215Y-83753266D01*
X133724786Y-84244579D01*
X125727797Y-84244579D01*
X125834838Y-83986799D01*
X125835162Y-83614833D01*
X125693117Y-83271057D01*
X125430327Y-83007808D01*
X125086799Y-82865162D01*
X124714833Y-82864838D01*
X124371057Y-83006883D01*
X124107808Y-83269673D01*
X123965162Y-83613201D01*
X123964838Y-83985167D01*
X121634977Y-83985167D01*
X121586799Y-83965162D01*
X121214833Y-83964838D01*
X120871057Y-84106883D01*
X120607808Y-84369673D01*
X120465162Y-84713201D01*
X120464838Y-85085167D01*
X116422219Y-85085167D01*
X116297451Y-84898438D01*
X116101562Y-84702550D01*
X116101561Y-84702549D01*
X115777138Y-84485776D01*
X115593368Y-84409657D01*
X115521196Y-84379762D01*
X115138515Y-84303642D01*
X115138514Y-84303642D01*
X113746295Y-84026712D01*
X112683454Y-83316546D01*
X111973288Y-82253707D01*
X111800525Y-81385167D01*
X129764838Y-81385167D01*
X129906883Y-81728943D01*
X130169673Y-81992192D01*
X130513201Y-82134838D01*
X130885167Y-82135162D01*
X131228943Y-81993117D01*
X131492192Y-81730327D01*
X131634838Y-81386799D01*
X131635010Y-81189038D01*
X142564838Y-81189038D01*
X142706883Y-81532814D01*
X142969673Y-81796063D01*
X143313201Y-81938709D01*
X143685167Y-81939033D01*
X144028943Y-81796988D01*
X144087955Y-81738079D01*
X144145838Y-81796063D01*
X144489366Y-81938709D01*
X144861332Y-81939033D01*
X145077118Y-81849872D01*
X145291059Y-81938709D01*
X145663025Y-81939033D01*
X146006801Y-81796988D01*
X146270050Y-81534198D01*
X146412696Y-81190670D01*
X146412700Y-81185178D01*
X146692728Y-81185178D01*
X146834773Y-81528954D01*
X147097563Y-81792203D01*
X147441091Y-81934849D01*
X147813057Y-81935173D01*
X148109602Y-81812643D01*
X148413201Y-81938709D01*
X148785167Y-81939033D01*
X149128943Y-81796988D01*
X149249981Y-81676161D01*
X149369673Y-81796063D01*
X149713201Y-81938709D01*
X150085167Y-81939033D01*
X150428943Y-81796988D01*
X150499893Y-81726161D01*
X150569673Y-81796063D01*
X150913201Y-81938709D01*
X151285167Y-81939033D01*
X151628943Y-81796988D01*
X151749981Y-81676161D01*
X151869673Y-81796063D01*
X152213201Y-81938709D01*
X152585167Y-81939033D01*
X152928943Y-81796988D01*
X153192192Y-81534198D01*
X153334838Y-81190670D01*
X153334866Y-81158456D01*
X156664838Y-81158456D01*
X156806883Y-81502232D01*
X157069673Y-81765481D01*
X157413201Y-81908127D01*
X157785167Y-81908451D01*
X158068367Y-81791435D01*
X158072986Y-81796062D01*
X158416514Y-81938708D01*
X158788480Y-81939032D01*
X159044017Y-81833446D01*
X159288201Y-81934841D01*
X159660167Y-81935165D01*
X160003943Y-81793120D01*
X160267192Y-81530330D01*
X160409838Y-81186802D01*
X160409862Y-81158467D01*
X160689870Y-81158467D01*
X160831915Y-81502243D01*
X161094705Y-81765492D01*
X161438233Y-81908138D01*
X161810199Y-81908462D01*
X162112850Y-81783410D01*
X162413201Y-81908127D01*
X162785167Y-81908451D01*
X163128943Y-81766406D01*
X163249981Y-81645579D01*
X163369673Y-81765481D01*
X163713201Y-81908127D01*
X164085167Y-81908451D01*
X164428943Y-81766406D01*
X164499893Y-81695579D01*
X164569673Y-81765481D01*
X164913201Y-81908127D01*
X165285167Y-81908451D01*
X165628943Y-81766406D01*
X165734690Y-81660844D01*
X165869673Y-81796063D01*
X166213201Y-81938709D01*
X166585167Y-81939033D01*
X166928943Y-81796988D01*
X167192192Y-81534198D01*
X167254405Y-81384372D01*
X176565036Y-81384372D01*
X176654087Y-81599893D01*
X176565839Y-81812418D01*
X176565515Y-82184384D01*
X176707560Y-82528160D01*
X176970350Y-82791409D01*
X177313878Y-82934055D01*
X177685844Y-82934379D01*
X178029620Y-82792334D01*
X178292869Y-82529544D01*
X178435515Y-82186016D01*
X178435624Y-82060596D01*
X178614107Y-82134709D01*
X178986073Y-82135033D01*
X179329849Y-81992988D01*
X179593098Y-81730198D01*
X179735744Y-81386670D01*
X179735745Y-81385167D01*
X180464838Y-81385167D01*
X180606883Y-81728943D01*
X180869673Y-81992192D01*
X181213201Y-82134838D01*
X181585167Y-82135162D01*
X181928943Y-81993117D01*
X181986993Y-81935168D01*
X182069673Y-82017993D01*
X182413201Y-82160639D01*
X182785167Y-82160963D01*
X183128943Y-82018918D01*
X183392192Y-81756128D01*
X183508580Y-81475836D01*
X183611326Y-81724500D01*
X183874116Y-81987749D01*
X184217644Y-82130395D01*
X184589610Y-82130719D01*
X184899338Y-82002742D01*
X185214936Y-82133791D01*
X185586902Y-82134115D01*
X185930678Y-81992070D01*
X186026149Y-81896765D01*
X186121410Y-81992192D01*
X186464938Y-82134838D01*
X186836904Y-82135162D01*
X187180680Y-81993117D01*
X187443929Y-81730327D01*
X187586575Y-81386799D01*
X187586899Y-81014833D01*
X187574642Y-80985167D01*
X188564838Y-80985167D01*
X188706883Y-81328943D01*
X188969673Y-81592192D01*
X189313201Y-81734838D01*
X189685167Y-81735162D01*
X190028943Y-81593117D01*
X190292192Y-81330327D01*
X190434838Y-80986799D01*
X190435162Y-80614833D01*
X190293117Y-80271057D01*
X190030327Y-80007808D01*
X189686799Y-79865162D01*
X189314833Y-79864838D01*
X188971057Y-80006883D01*
X188707808Y-80269673D01*
X188565162Y-80613201D01*
X188564838Y-80985167D01*
X187574642Y-80985167D01*
X187444854Y-80671057D01*
X187182064Y-80407808D01*
X186838536Y-80265162D01*
X186466570Y-80264838D01*
X186122794Y-80406883D01*
X186027323Y-80502188D01*
X185932062Y-80406761D01*
X185588534Y-80264115D01*
X185216568Y-80263791D01*
X184906840Y-80391768D01*
X184591242Y-80260719D01*
X184219276Y-80260395D01*
X183875500Y-80402440D01*
X183612251Y-80665230D01*
X183495863Y-80945522D01*
X183393117Y-80696858D01*
X183130327Y-80433609D01*
X182786799Y-80290963D01*
X182414833Y-80290639D01*
X182071057Y-80432684D01*
X182013007Y-80490633D01*
X181930327Y-80407808D01*
X181586799Y-80265162D01*
X181214833Y-80264838D01*
X180871057Y-80406883D01*
X180607808Y-80669673D01*
X180465162Y-81013201D01*
X180464838Y-81385167D01*
X179735745Y-81385167D01*
X179736068Y-81014704D01*
X179594023Y-80670928D01*
X179331233Y-80407679D01*
X178987705Y-80265033D01*
X178615739Y-80264709D01*
X178271963Y-80406754D01*
X178150904Y-80527602D01*
X178030525Y-80407013D01*
X177686997Y-80264367D01*
X177315031Y-80264043D01*
X176971255Y-80406088D01*
X176708006Y-80668878D01*
X176565360Y-81012406D01*
X176565036Y-81384372D01*
X167254405Y-81384372D01*
X167334838Y-81190670D01*
X167335162Y-80818704D01*
X167193117Y-80474928D01*
X166930327Y-80211679D01*
X166586799Y-80069033D01*
X166214833Y-80068709D01*
X165871057Y-80210754D01*
X165765310Y-80316316D01*
X165630327Y-80181097D01*
X165286799Y-80038451D01*
X164914833Y-80038127D01*
X164571057Y-80180172D01*
X164500107Y-80250999D01*
X164430327Y-80181097D01*
X164086799Y-80038451D01*
X163714833Y-80038127D01*
X163371057Y-80180172D01*
X163250019Y-80300999D01*
X163130327Y-80181097D01*
X162786799Y-80038451D01*
X162414833Y-80038127D01*
X162112182Y-80163179D01*
X161811831Y-80038462D01*
X161439865Y-80038138D01*
X161096089Y-80180183D01*
X160832840Y-80442973D01*
X160690194Y-80786501D01*
X160689870Y-81158467D01*
X160409862Y-81158467D01*
X160410162Y-80814836D01*
X160268117Y-80471060D01*
X160005327Y-80207811D01*
X159661799Y-80065165D01*
X159289833Y-80064841D01*
X159034296Y-80170427D01*
X158790112Y-80069032D01*
X158418146Y-80068708D01*
X158134946Y-80185724D01*
X158130327Y-80181097D01*
X157786799Y-80038451D01*
X157414833Y-80038127D01*
X157071057Y-80180172D01*
X156807808Y-80442962D01*
X156665162Y-80786490D01*
X156664838Y-81158456D01*
X153334866Y-81158456D01*
X153335162Y-80818704D01*
X153193117Y-80474928D01*
X152930327Y-80211679D01*
X152586799Y-80069033D01*
X152214833Y-80068709D01*
X151871057Y-80210754D01*
X151750019Y-80331581D01*
X151630327Y-80211679D01*
X151286799Y-80069033D01*
X150914833Y-80068709D01*
X150571057Y-80210754D01*
X150500107Y-80281581D01*
X150430327Y-80211679D01*
X150086799Y-80069033D01*
X149714833Y-80068709D01*
X149371057Y-80210754D01*
X149250019Y-80331581D01*
X149130327Y-80211679D01*
X148786799Y-80069033D01*
X148414833Y-80068709D01*
X148118288Y-80191239D01*
X147814689Y-80065173D01*
X147442723Y-80064849D01*
X147098947Y-80206894D01*
X146835698Y-80469684D01*
X146693052Y-80813212D01*
X146692728Y-81185178D01*
X146412700Y-81185178D01*
X146413020Y-80818704D01*
X146270975Y-80474928D01*
X146008185Y-80211679D01*
X145664657Y-80069033D01*
X145292691Y-80068709D01*
X145076905Y-80157870D01*
X144862964Y-80069033D01*
X144490998Y-80068709D01*
X144147222Y-80210754D01*
X144088210Y-80269663D01*
X144030327Y-80211679D01*
X143686799Y-80069033D01*
X143314833Y-80068709D01*
X142971057Y-80210754D01*
X142707808Y-80473544D01*
X142565162Y-80817072D01*
X142564838Y-81189038D01*
X131635010Y-81189038D01*
X131635162Y-81014833D01*
X131493117Y-80671057D01*
X131230327Y-80407808D01*
X130886799Y-80265162D01*
X130514833Y-80264838D01*
X130171057Y-80406883D01*
X129907808Y-80669673D01*
X129765162Y-81013201D01*
X129764838Y-81385167D01*
X111800525Y-81385167D01*
X111723910Y-81000000D01*
X111973288Y-79746293D01*
X112683454Y-78683454D01*
X113746295Y-77973288D01*
X115069931Y-77710000D01*
X194930069Y-77710000D01*
X196253707Y-77973288D01*
X196253707Y-77973288D01*
G37*
X196253707Y-77973288D02*
X197316546Y-78683454D01*
X198026712Y-79746295D01*
X198276090Y-81000000D01*
X198026712Y-82253705D01*
X197316546Y-83316546D01*
X196253707Y-84026712D01*
X194861486Y-84303642D01*
X194478804Y-84379762D01*
X194384629Y-84418771D01*
X194222862Y-84485777D01*
X193898438Y-84702549D01*
X193766956Y-84834032D01*
X193702549Y-84898439D01*
X193485776Y-85222862D01*
X193435581Y-85344046D01*
X193379762Y-85478804D01*
X193303642Y-85861487D01*
X193303642Y-85931416D01*
X193290000Y-86000000D01*
X193290000Y-106000000D01*
X193303642Y-106068584D01*
X193303642Y-106138513D01*
X193379762Y-106521196D01*
X193399395Y-106568593D01*
X193485776Y-106777138D01*
X193702549Y-107101561D01*
X193702550Y-107101562D01*
X193898438Y-107297451D01*
X194222862Y-107514223D01*
X194328877Y-107558136D01*
X194478804Y-107620238D01*
X194861486Y-107696358D01*
X196253707Y-107973288D01*
X197316546Y-108683454D01*
X198026712Y-109746295D01*
X198276090Y-111000000D01*
X198026712Y-112253705D01*
X197316546Y-113316546D01*
X196253707Y-114026712D01*
X194930069Y-114290000D01*
X115069931Y-114290000D01*
X113746295Y-114026712D01*
X112683454Y-113316546D01*
X111973288Y-112253707D01*
X111723910Y-111000000D01*
X111726860Y-110985167D01*
X120864838Y-110985167D01*
X121006883Y-111328943D01*
X121269673Y-111592192D01*
X121613201Y-111734838D01*
X121985167Y-111735162D01*
X122328943Y-111593117D01*
X122592192Y-111330327D01*
X122734838Y-110986799D01*
X122735162Y-110614833D01*
X122593117Y-110271057D01*
X122330327Y-110007808D01*
X121986799Y-109865162D01*
X121614833Y-109864838D01*
X121271057Y-110006883D01*
X121007808Y-110269673D01*
X120865162Y-110613201D01*
X120864838Y-110985167D01*
X111726860Y-110985167D01*
X111973288Y-109746293D01*
X112683454Y-108683454D01*
X113129873Y-108385167D01*
X120864838Y-108385167D01*
X121006883Y-108728943D01*
X121269673Y-108992192D01*
X121613201Y-109134838D01*
X121985167Y-109135162D01*
X122328943Y-108993117D01*
X122592192Y-108730327D01*
X122734838Y-108386799D01*
X122734839Y-108385167D01*
X128464838Y-108385167D01*
X128606883Y-108728943D01*
X128869673Y-108992192D01*
X129213201Y-109134838D01*
X129585167Y-109135162D01*
X129928943Y-108993117D01*
X130192192Y-108730327D01*
X130334838Y-108386799D01*
X130334839Y-108385167D01*
X140364838Y-108385167D01*
X140506883Y-108728943D01*
X140769673Y-108992192D01*
X141113201Y-109134838D01*
X141485167Y-109135162D01*
X141828943Y-108993117D01*
X142092192Y-108730327D01*
X142234838Y-108386799D01*
X142234839Y-108385167D01*
X149864838Y-108385167D01*
X150006883Y-108728943D01*
X150269673Y-108992192D01*
X150613201Y-109134838D01*
X150985167Y-109135162D01*
X151328943Y-108993117D01*
X151592192Y-108730327D01*
X151734838Y-108386799D01*
X151734839Y-108385167D01*
X161864838Y-108385167D01*
X162006883Y-108728943D01*
X162269673Y-108992192D01*
X162613201Y-109134838D01*
X162985167Y-109135162D01*
X163328943Y-108993117D01*
X163592192Y-108730327D01*
X163734838Y-108386799D01*
X163734839Y-108385167D01*
X173864838Y-108385167D01*
X174006883Y-108728943D01*
X174269673Y-108992192D01*
X174613201Y-109134838D01*
X174985167Y-109135162D01*
X175328943Y-108993117D01*
X175592192Y-108730327D01*
X175734838Y-108386799D01*
X175734839Y-108385167D01*
X185864838Y-108385167D01*
X186006883Y-108728943D01*
X186269673Y-108992192D01*
X186613201Y-109134838D01*
X186985167Y-109135162D01*
X187328943Y-108993117D01*
X187592192Y-108730327D01*
X187734838Y-108386799D01*
X187735162Y-108014833D01*
X187593117Y-107671057D01*
X187330327Y-107407808D01*
X186986799Y-107265162D01*
X186614833Y-107264838D01*
X186271057Y-107406883D01*
X186007808Y-107669673D01*
X185865162Y-108013201D01*
X185864838Y-108385167D01*
X175734839Y-108385167D01*
X175735162Y-108014833D01*
X175593117Y-107671057D01*
X175330327Y-107407808D01*
X174986799Y-107265162D01*
X174614833Y-107264838D01*
X174271057Y-107406883D01*
X174007808Y-107669673D01*
X173865162Y-108013201D01*
X173864838Y-108385167D01*
X163734839Y-108385167D01*
X163735162Y-108014833D01*
X163593117Y-107671057D01*
X163330327Y-107407808D01*
X162986799Y-107265162D01*
X162614833Y-107264838D01*
X162271057Y-107406883D01*
X162007808Y-107669673D01*
X161865162Y-108013201D01*
X161864838Y-108385167D01*
X151734839Y-108385167D01*
X151735162Y-108014833D01*
X151593117Y-107671057D01*
X151330327Y-107407808D01*
X150986799Y-107265162D01*
X150614833Y-107264838D01*
X150271057Y-107406883D01*
X150007808Y-107669673D01*
X149865162Y-108013201D01*
X149864838Y-108385167D01*
X142234839Y-108385167D01*
X142235162Y-108014833D01*
X142093117Y-107671057D01*
X141830327Y-107407808D01*
X141486799Y-107265162D01*
X141114833Y-107264838D01*
X140771057Y-107406883D01*
X140507808Y-107669673D01*
X140365162Y-108013201D01*
X140364838Y-108385167D01*
X130334839Y-108385167D01*
X130335162Y-108014833D01*
X130193117Y-107671057D01*
X129930327Y-107407808D01*
X129586799Y-107265162D01*
X129214833Y-107264838D01*
X128871057Y-107406883D01*
X128607808Y-107669673D01*
X128465162Y-108013201D01*
X128464838Y-108385167D01*
X122734839Y-108385167D01*
X122735162Y-108014833D01*
X122593117Y-107671057D01*
X122330327Y-107407808D01*
X121986799Y-107265162D01*
X121614833Y-107264838D01*
X121271057Y-107406883D01*
X121007808Y-107669673D01*
X120865162Y-108013201D01*
X120864838Y-108385167D01*
X113129873Y-108385167D01*
X113746295Y-107973288D01*
X115138514Y-107696358D01*
X115138515Y-107696358D01*
X115521196Y-107620238D01*
X115615369Y-107581230D01*
X115777138Y-107514224D01*
X116101561Y-107297451D01*
X116134174Y-107264838D01*
X116297451Y-107101562D01*
X116514223Y-106777138D01*
X116564419Y-106655954D01*
X116620238Y-106521196D01*
X116696358Y-106138514D01*
X116696358Y-106068584D01*
X116710000Y-106000000D01*
X116710000Y-103082836D01*
X123523000Y-103082836D01*
X123523000Y-104157164D01*
X123629340Y-104691773D01*
X123932172Y-105144992D01*
X124385391Y-105447824D01*
X124920000Y-105554164D01*
X125454609Y-105447824D01*
X125907828Y-105144992D01*
X126190000Y-104722693D01*
X126472172Y-105144992D01*
X126925391Y-105447824D01*
X127460000Y-105554164D01*
X127994609Y-105447824D01*
X128447828Y-105144992D01*
X128730000Y-104722693D01*
X129012172Y-105144992D01*
X129465391Y-105447824D01*
X130000000Y-105554164D01*
X130534609Y-105447824D01*
X130987828Y-105144992D01*
X131270000Y-104722693D01*
X131552172Y-105144992D01*
X132005391Y-105447824D01*
X132540000Y-105554164D01*
X133074609Y-105447824D01*
X133527828Y-105144992D01*
X133810000Y-104722693D01*
X134092172Y-105144992D01*
X134545391Y-105447824D01*
X135080000Y-105554164D01*
X135614609Y-105447824D01*
X136067828Y-105144992D01*
X136370660Y-104691773D01*
X136477000Y-104157164D01*
X136477000Y-103082836D01*
X138523000Y-103082836D01*
X138523000Y-104157164D01*
X138629340Y-104691773D01*
X138932172Y-105144992D01*
X139385391Y-105447824D01*
X139920000Y-105554164D01*
X140454609Y-105447824D01*
X140907828Y-105144992D01*
X141190000Y-104722693D01*
X141472172Y-105144992D01*
X141925391Y-105447824D01*
X142460000Y-105554164D01*
X142994609Y-105447824D01*
X143447828Y-105144992D01*
X143730000Y-104722693D01*
X144012172Y-105144992D01*
X144465391Y-105447824D01*
X145000000Y-105554164D01*
X145534609Y-105447824D01*
X145987828Y-105144992D01*
X146270000Y-104722693D01*
X146552172Y-105144992D01*
X147005391Y-105447824D01*
X147540000Y-105554164D01*
X148074609Y-105447824D01*
X148527828Y-105144992D01*
X148810000Y-104722693D01*
X149092172Y-105144992D01*
X149545391Y-105447824D01*
X150080000Y-105554164D01*
X150614609Y-105447824D01*
X151067828Y-105144992D01*
X151370660Y-104691773D01*
X151477000Y-104157164D01*
X151477000Y-103082836D01*
X158523000Y-103082836D01*
X158523000Y-104157164D01*
X158629340Y-104691773D01*
X158932172Y-105144992D01*
X159385391Y-105447824D01*
X159920000Y-105554164D01*
X160454609Y-105447824D01*
X160907828Y-105144992D01*
X161190000Y-104722693D01*
X161472172Y-105144992D01*
X161925391Y-105447824D01*
X162460000Y-105554164D01*
X162994609Y-105447824D01*
X163447828Y-105144992D01*
X163730000Y-104722693D01*
X164012172Y-105144992D01*
X164465391Y-105447824D01*
X165000000Y-105554164D01*
X165534609Y-105447824D01*
X165987828Y-105144992D01*
X166270000Y-104722693D01*
X166552172Y-105144992D01*
X167005391Y-105447824D01*
X167540000Y-105554164D01*
X168074609Y-105447824D01*
X168527828Y-105144992D01*
X168810000Y-104722693D01*
X169092172Y-105144992D01*
X169545391Y-105447824D01*
X170080000Y-105554164D01*
X170614609Y-105447824D01*
X171067828Y-105144992D01*
X171370660Y-104691773D01*
X171477000Y-104157164D01*
X171477000Y-103082836D01*
X173523000Y-103082836D01*
X173523000Y-104157164D01*
X173629340Y-104691773D01*
X173932172Y-105144992D01*
X174385391Y-105447824D01*
X174920000Y-105554164D01*
X175454609Y-105447824D01*
X175907828Y-105144992D01*
X176190000Y-104722693D01*
X176472172Y-105144992D01*
X176925391Y-105447824D01*
X177460000Y-105554164D01*
X177994609Y-105447824D01*
X178447828Y-105144992D01*
X178730000Y-104722693D01*
X179012172Y-105144992D01*
X179465391Y-105447824D01*
X180000000Y-105554164D01*
X180534609Y-105447824D01*
X180987828Y-105144992D01*
X181270000Y-104722693D01*
X181552172Y-105144992D01*
X182005391Y-105447824D01*
X182540000Y-105554164D01*
X183074609Y-105447824D01*
X183527828Y-105144992D01*
X183810000Y-104722693D01*
X184092172Y-105144992D01*
X184545391Y-105447824D01*
X185080000Y-105554164D01*
X185614609Y-105447824D01*
X186067828Y-105144992D01*
X186370660Y-104691773D01*
X186477000Y-104157164D01*
X186477000Y-103082836D01*
X186370660Y-102548227D01*
X186067828Y-102095008D01*
X185614609Y-101792176D01*
X185080000Y-101685836D01*
X184545391Y-101792176D01*
X184092172Y-102095008D01*
X183810000Y-102517307D01*
X183527828Y-102095008D01*
X183074609Y-101792176D01*
X182540000Y-101685836D01*
X182005391Y-101792176D01*
X181552172Y-102095008D01*
X181270000Y-102517307D01*
X180987828Y-102095008D01*
X180534609Y-101792176D01*
X180000000Y-101685836D01*
X179465391Y-101792176D01*
X179012172Y-102095008D01*
X178730000Y-102517307D01*
X178447828Y-102095008D01*
X177994609Y-101792176D01*
X177460000Y-101685836D01*
X176925391Y-101792176D01*
X176472172Y-102095008D01*
X176190000Y-102517307D01*
X175907828Y-102095008D01*
X175454609Y-101792176D01*
X174920000Y-101685836D01*
X174385391Y-101792176D01*
X173932172Y-102095008D01*
X173629340Y-102548227D01*
X173523000Y-103082836D01*
X171477000Y-103082836D01*
X171370660Y-102548227D01*
X171067828Y-102095008D01*
X170614609Y-101792176D01*
X170080000Y-101685836D01*
X169545391Y-101792176D01*
X169092172Y-102095008D01*
X168810000Y-102517307D01*
X168527828Y-102095008D01*
X168074609Y-101792176D01*
X167540000Y-101685836D01*
X167005391Y-101792176D01*
X166552172Y-102095008D01*
X166270000Y-102517307D01*
X165987828Y-102095008D01*
X165534609Y-101792176D01*
X165000000Y-101685836D01*
X164465391Y-101792176D01*
X164012172Y-102095008D01*
X163730000Y-102517307D01*
X163447828Y-102095008D01*
X162994609Y-101792176D01*
X162460000Y-101685836D01*
X161925391Y-101792176D01*
X161472172Y-102095008D01*
X161190000Y-102517307D01*
X160907828Y-102095008D01*
X160454609Y-101792176D01*
X159920000Y-101685836D01*
X159385391Y-101792176D01*
X158932172Y-102095008D01*
X158629340Y-102548227D01*
X158523000Y-103082836D01*
X151477000Y-103082836D01*
X151370660Y-102548227D01*
X151067828Y-102095008D01*
X150614609Y-101792176D01*
X150080000Y-101685836D01*
X149545391Y-101792176D01*
X149092172Y-102095008D01*
X148810000Y-102517307D01*
X148527828Y-102095008D01*
X148074609Y-101792176D01*
X147540000Y-101685836D01*
X147005391Y-101792176D01*
X146552172Y-102095008D01*
X146270000Y-102517307D01*
X145987828Y-102095008D01*
X145534609Y-101792176D01*
X145000000Y-101685836D01*
X144465391Y-101792176D01*
X144012172Y-102095008D01*
X143730000Y-102517307D01*
X143447828Y-102095008D01*
X142994609Y-101792176D01*
X142460000Y-101685836D01*
X141925391Y-101792176D01*
X141472172Y-102095008D01*
X141190000Y-102517307D01*
X140907828Y-102095008D01*
X140454609Y-101792176D01*
X139920000Y-101685836D01*
X139385391Y-101792176D01*
X138932172Y-102095008D01*
X138629340Y-102548227D01*
X138523000Y-103082836D01*
X136477000Y-103082836D01*
X136370660Y-102548227D01*
X136067828Y-102095008D01*
X135614609Y-101792176D01*
X135080000Y-101685836D01*
X134545391Y-101792176D01*
X134092172Y-102095008D01*
X133810000Y-102517307D01*
X133527828Y-102095008D01*
X133074609Y-101792176D01*
X132540000Y-101685836D01*
X132005391Y-101792176D01*
X131552172Y-102095008D01*
X131270000Y-102517307D01*
X130987828Y-102095008D01*
X130534609Y-101792176D01*
X130000000Y-101685836D01*
X129465391Y-101792176D01*
X129012172Y-102095008D01*
X128730000Y-102517307D01*
X128447828Y-102095008D01*
X127994609Y-101792176D01*
X127460000Y-101685836D01*
X126925391Y-101792176D01*
X126472172Y-102095008D01*
X126190000Y-102517307D01*
X125907828Y-102095008D01*
X125454609Y-101792176D01*
X124920000Y-101685836D01*
X124385391Y-101792176D01*
X123932172Y-102095008D01*
X123629340Y-102548227D01*
X123523000Y-103082836D01*
X116710000Y-103082836D01*
X116710000Y-100085167D01*
X155464838Y-100085167D01*
X155606883Y-100428943D01*
X155869673Y-100692192D01*
X156213201Y-100834838D01*
X156585167Y-100835162D01*
X156928943Y-100693117D01*
X157192192Y-100430327D01*
X157334838Y-100086799D01*
X157335162Y-99714833D01*
X157193117Y-99371057D01*
X156930327Y-99107808D01*
X156586799Y-98965162D01*
X156214833Y-98964838D01*
X155871057Y-99106883D01*
X155607808Y-99369673D01*
X155465162Y-99713201D01*
X155464838Y-100085167D01*
X116710000Y-100085167D01*
X116710000Y-98899026D01*
X187392642Y-98899026D01*
X187395291Y-98914791D01*
X187649268Y-99442036D01*
X188085680Y-99831954D01*
X188638087Y-100025184D01*
X188873000Y-99880924D01*
X188873000Y-98667000D01*
X189127000Y-98667000D01*
X189127000Y-99880924D01*
X189361913Y-100025184D01*
X189914320Y-99831954D01*
X190350732Y-99442036D01*
X190604709Y-98914791D01*
X190607358Y-98899026D01*
X190486217Y-98667000D01*
X189127000Y-98667000D01*
X188873000Y-98667000D01*
X187513783Y-98667000D01*
X187392642Y-98899026D01*
X116710000Y-98899026D01*
X116710000Y-97785167D01*
X147964838Y-97785167D01*
X148106883Y-98128943D01*
X148369673Y-98392192D01*
X148713201Y-98534838D01*
X149085167Y-98535162D01*
X149428943Y-98393117D01*
X149692192Y-98130327D01*
X149834838Y-97786799D01*
X149834839Y-97785167D01*
X165164838Y-97785167D01*
X165306883Y-98128943D01*
X165569673Y-98392192D01*
X165913201Y-98534838D01*
X166285167Y-98535162D01*
X166628943Y-98393117D01*
X166892192Y-98130327D01*
X167034838Y-97786799D01*
X167034839Y-97785167D01*
X172664838Y-97785167D01*
X172806883Y-98128943D01*
X173069673Y-98392192D01*
X173413201Y-98534838D01*
X173785167Y-98535162D01*
X174128943Y-98393117D01*
X174392192Y-98130327D01*
X174534838Y-97786799D01*
X174535162Y-97414833D01*
X174393117Y-97071057D01*
X174130327Y-96807808D01*
X173786799Y-96665162D01*
X173414833Y-96664838D01*
X173071057Y-96806883D01*
X172807808Y-97069673D01*
X172665162Y-97413201D01*
X172664838Y-97785167D01*
X167034839Y-97785167D01*
X167035162Y-97414833D01*
X166893117Y-97071057D01*
X166630327Y-96807808D01*
X166286799Y-96665162D01*
X165914833Y-96664838D01*
X165571057Y-96806883D01*
X165307808Y-97069673D01*
X165165162Y-97413201D01*
X165164838Y-97785167D01*
X149834839Y-97785167D01*
X149835162Y-97414833D01*
X149693117Y-97071057D01*
X149607377Y-96985167D01*
X152664838Y-96985167D01*
X152806883Y-97328943D01*
X153069673Y-97592192D01*
X153413201Y-97734838D01*
X153785167Y-97735162D01*
X154128943Y-97593117D01*
X154392192Y-97330327D01*
X154534838Y-96986799D01*
X154535162Y-96614833D01*
X154458348Y-96428928D01*
X158399196Y-96428928D01*
X158541241Y-96772704D01*
X158804031Y-97035953D01*
X159147559Y-97178599D01*
X159519525Y-97178923D01*
X159863301Y-97036878D01*
X160126550Y-96774088D01*
X160142729Y-96735125D01*
X160185167Y-96735162D01*
X160528943Y-96593117D01*
X160737256Y-96385167D01*
X161564838Y-96385167D01*
X161706883Y-96728943D01*
X161969673Y-96992192D01*
X162313201Y-97134838D01*
X162685167Y-97135162D01*
X163028943Y-96993117D01*
X163292192Y-96730327D01*
X163434838Y-96386799D01*
X163435162Y-96014833D01*
X163422905Y-95985167D01*
X169064838Y-95985167D01*
X169206883Y-96328943D01*
X169469673Y-96592192D01*
X169813201Y-96734838D01*
X170185167Y-96735162D01*
X170528943Y-96593117D01*
X170792192Y-96330327D01*
X170934838Y-95986799D01*
X170934839Y-95985167D01*
X174064838Y-95985167D01*
X174206883Y-96328943D01*
X174469673Y-96592192D01*
X174813201Y-96734838D01*
X175185167Y-96735162D01*
X175528943Y-96593117D01*
X175737256Y-96385167D01*
X176564838Y-96385167D01*
X176706883Y-96728943D01*
X176969673Y-96992192D01*
X177313201Y-97134838D01*
X177685167Y-97135162D01*
X178028943Y-96993117D01*
X178292192Y-96730327D01*
X178434838Y-96386799D01*
X178434839Y-96385167D01*
X181564838Y-96385167D01*
X181706883Y-96728943D01*
X181969673Y-96992192D01*
X182313201Y-97134838D01*
X182685167Y-97135162D01*
X183028943Y-96993117D01*
X183292192Y-96730327D01*
X183434838Y-96386799D01*
X183435162Y-96014833D01*
X183293117Y-95671057D01*
X183030327Y-95407808D01*
X182686799Y-95265162D01*
X182314833Y-95264838D01*
X181971057Y-95406883D01*
X181707808Y-95669673D01*
X181565162Y-96013201D01*
X181564838Y-96385167D01*
X178434839Y-96385167D01*
X178435162Y-96014833D01*
X178293117Y-95671057D01*
X178030327Y-95407808D01*
X177686799Y-95265162D01*
X177314833Y-95264838D01*
X176971057Y-95406883D01*
X176707808Y-95669673D01*
X176565162Y-96013201D01*
X176564838Y-96385167D01*
X175737256Y-96385167D01*
X175792192Y-96330327D01*
X175934838Y-95986799D01*
X175935162Y-95614833D01*
X175793117Y-95271057D01*
X175530327Y-95007808D01*
X175186799Y-94865162D01*
X174814833Y-94864838D01*
X174471057Y-95006883D01*
X174207808Y-95269673D01*
X174065162Y-95613201D01*
X174064838Y-95985167D01*
X170934839Y-95985167D01*
X170935162Y-95614833D01*
X170793117Y-95271057D01*
X170530327Y-95007808D01*
X170186799Y-94865162D01*
X169814833Y-94864838D01*
X169471057Y-95006883D01*
X169207808Y-95269673D01*
X169065162Y-95613201D01*
X169064838Y-95985167D01*
X163422905Y-95985167D01*
X163293117Y-95671057D01*
X163030327Y-95407808D01*
X162686799Y-95265162D01*
X162314833Y-95264838D01*
X161971057Y-95406883D01*
X161707808Y-95669673D01*
X161565162Y-96013201D01*
X161564838Y-96385167D01*
X160737256Y-96385167D01*
X160792192Y-96330327D01*
X160934838Y-95986799D01*
X160935162Y-95614833D01*
X160793117Y-95271057D01*
X160530327Y-95007808D01*
X160186799Y-94865162D01*
X159814833Y-94864838D01*
X159471057Y-95006883D01*
X159207808Y-95269673D01*
X159191629Y-95308636D01*
X159149191Y-95308599D01*
X158805415Y-95450644D01*
X158542166Y-95713434D01*
X158399520Y-96056962D01*
X158399196Y-96428928D01*
X154458348Y-96428928D01*
X154393117Y-96271057D01*
X154130327Y-96007808D01*
X153786799Y-95865162D01*
X153414833Y-95864838D01*
X153071057Y-96006883D01*
X152807808Y-96269673D01*
X152665162Y-96613201D01*
X152664838Y-96985167D01*
X149607377Y-96985167D01*
X149430327Y-96807808D01*
X149086799Y-96665162D01*
X148714833Y-96664838D01*
X148371057Y-96806883D01*
X148107808Y-97069673D01*
X147965162Y-97413201D01*
X147964838Y-97785167D01*
X116710000Y-97785167D01*
X116710000Y-96385167D01*
X138364838Y-96385167D01*
X138506883Y-96728943D01*
X138769673Y-96992192D01*
X139113201Y-97134838D01*
X139485167Y-97135162D01*
X139828943Y-96993117D01*
X140087434Y-96735077D01*
X140185167Y-96735162D01*
X140528943Y-96593117D01*
X140737256Y-96385167D01*
X141564838Y-96385167D01*
X141706883Y-96728943D01*
X141969673Y-96992192D01*
X142313201Y-97134838D01*
X142685167Y-97135162D01*
X143028943Y-96993117D01*
X143292192Y-96730327D01*
X143434838Y-96386799D01*
X143435162Y-96014833D01*
X143422905Y-95985167D01*
X149064838Y-95985167D01*
X149206883Y-96328943D01*
X149469673Y-96592192D01*
X149813201Y-96734838D01*
X150185167Y-96735162D01*
X150528943Y-96593117D01*
X150792192Y-96330327D01*
X150934838Y-95986799D01*
X150935162Y-95614833D01*
X150793117Y-95271057D01*
X150530327Y-95007808D01*
X150186799Y-94865162D01*
X149814833Y-94864838D01*
X149471057Y-95006883D01*
X149207808Y-95269673D01*
X149065162Y-95613201D01*
X149064838Y-95985167D01*
X143422905Y-95985167D01*
X143293117Y-95671057D01*
X143030327Y-95407808D01*
X142686799Y-95265162D01*
X142314833Y-95264838D01*
X141971057Y-95406883D01*
X141707808Y-95669673D01*
X141565162Y-96013201D01*
X141564838Y-96385167D01*
X140737256Y-96385167D01*
X140792192Y-96330327D01*
X140934838Y-95986799D01*
X140935162Y-95614833D01*
X140793117Y-95271057D01*
X140530327Y-95007808D01*
X140186799Y-94865162D01*
X139814833Y-94864838D01*
X139471057Y-95006883D01*
X139212566Y-95264923D01*
X139114833Y-95264838D01*
X138771057Y-95406883D01*
X138507808Y-95669673D01*
X138365162Y-96013201D01*
X138364838Y-96385167D01*
X116710000Y-96385167D01*
X116710000Y-94485167D01*
X142964838Y-94485167D01*
X143106883Y-94828943D01*
X143369673Y-95092192D01*
X143713201Y-95234838D01*
X144085167Y-95235162D01*
X144428943Y-95093117D01*
X144692192Y-94830327D01*
X144834838Y-94486799D01*
X144834839Y-94485167D01*
X145164838Y-94485167D01*
X145306883Y-94828943D01*
X145569673Y-95092192D01*
X145913201Y-95234838D01*
X146285167Y-95235162D01*
X146628943Y-95093117D01*
X146892192Y-94830327D01*
X147034838Y-94486799D01*
X147035013Y-94285167D01*
X155464838Y-94285167D01*
X155606883Y-94628943D01*
X155869673Y-94892192D01*
X156213201Y-95034838D01*
X156585167Y-95035162D01*
X156928943Y-94893117D01*
X157192192Y-94630327D01*
X157252467Y-94485167D01*
X162964838Y-94485167D01*
X163106883Y-94828943D01*
X163369673Y-95092192D01*
X163713201Y-95234838D01*
X164085167Y-95235162D01*
X164428943Y-95093117D01*
X164692192Y-94830327D01*
X164834838Y-94486799D01*
X164834839Y-94485167D01*
X165164838Y-94485167D01*
X165306883Y-94828943D01*
X165569673Y-95092192D01*
X165913201Y-95234838D01*
X166285167Y-95235162D01*
X166628943Y-95093117D01*
X166892192Y-94830327D01*
X167034838Y-94486799D01*
X167034839Y-94485167D01*
X177964838Y-94485167D01*
X178106883Y-94828943D01*
X178369673Y-95092192D01*
X178713201Y-95234838D01*
X179085167Y-95235162D01*
X179428943Y-95093117D01*
X179692192Y-94830327D01*
X179814753Y-94535167D01*
X180164838Y-94535167D01*
X180306883Y-94878943D01*
X180569673Y-95142192D01*
X180913201Y-95284838D01*
X181285167Y-95285162D01*
X181628943Y-95143117D01*
X181892192Y-94880327D01*
X182034838Y-94536799D01*
X182034882Y-94485167D01*
X185539838Y-94485167D01*
X185681883Y-94828943D01*
X185944673Y-95092192D01*
X186288201Y-95234838D01*
X186660167Y-95235162D01*
X187003943Y-95093117D01*
X187267192Y-94830327D01*
X187380543Y-94557349D01*
X187380838Y-94558917D01*
X187519910Y-94775041D01*
X187732110Y-94920031D01*
X187773439Y-94928400D01*
X187755585Y-94940330D01*
X187430729Y-95426511D01*
X187316655Y-96000000D01*
X187430729Y-96573489D01*
X187755585Y-97059670D01*
X188065069Y-97266461D01*
X187649268Y-97637964D01*
X187395291Y-98165209D01*
X187392642Y-98180974D01*
X187513783Y-98413000D01*
X188873000Y-98413000D01*
X188873000Y-98393000D01*
X189127000Y-98393000D01*
X189127000Y-98413000D01*
X190486217Y-98413000D01*
X190607358Y-98180974D01*
X190604709Y-98165209D01*
X190350732Y-97637964D01*
X189934931Y-97266461D01*
X190244415Y-97059670D01*
X190569271Y-96573489D01*
X190683345Y-96000000D01*
X190569271Y-95426511D01*
X190244415Y-94940330D01*
X190230087Y-94930757D01*
X190251317Y-94926762D01*
X190467441Y-94787690D01*
X190612431Y-94575490D01*
X190663440Y-94323600D01*
X190663440Y-92596400D01*
X190619162Y-92361083D01*
X190480090Y-92144959D01*
X190267890Y-91999969D01*
X190016000Y-91948960D01*
X187984000Y-91948960D01*
X187748683Y-91993238D01*
X187532559Y-92132310D01*
X187387569Y-92344510D01*
X187336560Y-92596400D01*
X187336560Y-93936702D01*
X187268117Y-93771057D01*
X187005327Y-93507808D01*
X186661799Y-93365162D01*
X186289833Y-93364838D01*
X185946057Y-93506883D01*
X185682808Y-93769673D01*
X185540162Y-94113201D01*
X185539838Y-94485167D01*
X182034882Y-94485167D01*
X182035162Y-94164833D01*
X181893117Y-93821057D01*
X181630327Y-93557808D01*
X181286799Y-93415162D01*
X180914833Y-93414838D01*
X180571057Y-93556883D01*
X180307808Y-93819673D01*
X180165162Y-94163201D01*
X180164838Y-94535167D01*
X179814753Y-94535167D01*
X179834838Y-94486799D01*
X179835162Y-94114833D01*
X179693117Y-93771057D01*
X179430327Y-93507808D01*
X179086799Y-93365162D01*
X178714833Y-93364838D01*
X178371057Y-93506883D01*
X178107808Y-93769673D01*
X177965162Y-94113201D01*
X177964838Y-94485167D01*
X167034839Y-94485167D01*
X167035162Y-94114833D01*
X166893117Y-93771057D01*
X166630327Y-93507808D01*
X166286799Y-93365162D01*
X165914833Y-93364838D01*
X165571057Y-93506883D01*
X165307808Y-93769673D01*
X165165162Y-94113201D01*
X165164838Y-94485167D01*
X164834839Y-94485167D01*
X164835162Y-94114833D01*
X164693117Y-93771057D01*
X164430327Y-93507808D01*
X164086799Y-93365162D01*
X163714833Y-93364838D01*
X163371057Y-93506883D01*
X163107808Y-93769673D01*
X162965162Y-94113201D01*
X162964838Y-94485167D01*
X157252467Y-94485167D01*
X157334838Y-94286799D01*
X157335162Y-93914833D01*
X157193117Y-93571057D01*
X156930327Y-93307808D01*
X156586799Y-93165162D01*
X156214833Y-93164838D01*
X155871057Y-93306883D01*
X155607808Y-93569673D01*
X155465162Y-93913201D01*
X155464838Y-94285167D01*
X147035013Y-94285167D01*
X147035162Y-94114833D01*
X146893117Y-93771057D01*
X146630327Y-93507808D01*
X146286799Y-93365162D01*
X145914833Y-93364838D01*
X145571057Y-93506883D01*
X145307808Y-93769673D01*
X145165162Y-94113201D01*
X145164838Y-94485167D01*
X144834839Y-94485167D01*
X144835162Y-94114833D01*
X144693117Y-93771057D01*
X144430327Y-93507808D01*
X144086799Y-93365162D01*
X143714833Y-93364838D01*
X143371057Y-93506883D01*
X143107808Y-93769673D01*
X142965162Y-94113201D01*
X142964838Y-94485167D01*
X116710000Y-94485167D01*
X116710000Y-87485167D01*
X120464838Y-87485167D01*
X120606883Y-87828943D01*
X120869673Y-88092192D01*
X121213201Y-88234838D01*
X121585167Y-88235162D01*
X121928943Y-88093117D01*
X122179661Y-87842836D01*
X123523000Y-87842836D01*
X123523000Y-88917164D01*
X123629340Y-89451773D01*
X123932172Y-89904992D01*
X124385391Y-90207824D01*
X124920000Y-90314164D01*
X125454609Y-90207824D01*
X125907828Y-89904992D01*
X126190000Y-89482693D01*
X126472172Y-89904992D01*
X126925391Y-90207824D01*
X127460000Y-90314164D01*
X127994609Y-90207824D01*
X128447828Y-89904992D01*
X128730000Y-89482693D01*
X129012172Y-89904992D01*
X129465391Y-90207824D01*
X130000000Y-90314164D01*
X130534609Y-90207824D01*
X130987828Y-89904992D01*
X131270000Y-89482693D01*
X131552172Y-89904992D01*
X132005391Y-90207824D01*
X132540000Y-90314164D01*
X133074609Y-90207824D01*
X133527828Y-89904992D01*
X133810000Y-89482693D01*
X134092172Y-89904992D01*
X134545391Y-90207824D01*
X135080000Y-90314164D01*
X135614609Y-90207824D01*
X136067828Y-89904992D01*
X136370660Y-89451773D01*
X136477000Y-88917164D01*
X136477000Y-87842836D01*
X138523000Y-87842836D01*
X138523000Y-88917164D01*
X138629340Y-89451773D01*
X138932172Y-89904992D01*
X139385391Y-90207824D01*
X139920000Y-90314164D01*
X140454609Y-90207824D01*
X140907828Y-89904992D01*
X141190000Y-89482693D01*
X141472172Y-89904992D01*
X141925391Y-90207824D01*
X142460000Y-90314164D01*
X142994609Y-90207824D01*
X143447828Y-89904992D01*
X143730000Y-89482693D01*
X144012172Y-89904992D01*
X144465391Y-90207824D01*
X145000000Y-90314164D01*
X145534609Y-90207824D01*
X145987828Y-89904992D01*
X146270000Y-89482693D01*
X146552172Y-89904992D01*
X147005391Y-90207824D01*
X147540000Y-90314164D01*
X148074609Y-90207824D01*
X148527828Y-89904992D01*
X148810000Y-89482693D01*
X149092172Y-89904992D01*
X149545391Y-90207824D01*
X150080000Y-90314164D01*
X150614609Y-90207824D01*
X151067828Y-89904992D01*
X151370660Y-89451773D01*
X151477000Y-88917164D01*
X151477000Y-87842836D01*
X158523000Y-87842836D01*
X158523000Y-88917164D01*
X158629340Y-89451773D01*
X158932172Y-89904992D01*
X159385391Y-90207824D01*
X159920000Y-90314164D01*
X160454609Y-90207824D01*
X160907828Y-89904992D01*
X161190000Y-89482693D01*
X161472172Y-89904992D01*
X161925391Y-90207824D01*
X162460000Y-90314164D01*
X162994609Y-90207824D01*
X163447828Y-89904992D01*
X163730000Y-89482693D01*
X164012172Y-89904992D01*
X164465391Y-90207824D01*
X165000000Y-90314164D01*
X165534609Y-90207824D01*
X165987828Y-89904992D01*
X166270000Y-89482693D01*
X166552172Y-89904992D01*
X167005391Y-90207824D01*
X167540000Y-90314164D01*
X168074609Y-90207824D01*
X168527828Y-89904992D01*
X168810000Y-89482693D01*
X169092172Y-89904992D01*
X169545391Y-90207824D01*
X170080000Y-90314164D01*
X170614609Y-90207824D01*
X171067828Y-89904992D01*
X171370660Y-89451773D01*
X171477000Y-88917164D01*
X171477000Y-87842836D01*
X173523000Y-87842836D01*
X173523000Y-88917164D01*
X173629340Y-89451773D01*
X173932172Y-89904992D01*
X174385391Y-90207824D01*
X174920000Y-90314164D01*
X175454609Y-90207824D01*
X175907828Y-89904992D01*
X176190000Y-89482693D01*
X176472172Y-89904992D01*
X176925391Y-90207824D01*
X177460000Y-90314164D01*
X177994609Y-90207824D01*
X178447828Y-89904992D01*
X178730000Y-89482693D01*
X179012172Y-89904992D01*
X179465391Y-90207824D01*
X180000000Y-90314164D01*
X180534609Y-90207824D01*
X180987828Y-89904992D01*
X181270000Y-89482693D01*
X181552172Y-89904992D01*
X182005391Y-90207824D01*
X182540000Y-90314164D01*
X183074609Y-90207824D01*
X183527828Y-89904992D01*
X183810000Y-89482693D01*
X184092172Y-89904992D01*
X184545391Y-90207824D01*
X185080000Y-90314164D01*
X185614609Y-90207824D01*
X186067828Y-89904992D01*
X186370660Y-89451773D01*
X186477000Y-88917164D01*
X186477000Y-87842836D01*
X186370660Y-87308227D01*
X186067828Y-86855008D01*
X185614609Y-86552176D01*
X185080000Y-86445836D01*
X184545391Y-86552176D01*
X184092172Y-86855008D01*
X183810000Y-87277307D01*
X183527828Y-86855008D01*
X183074609Y-86552176D01*
X182540000Y-86445836D01*
X182005391Y-86552176D01*
X181552172Y-86855008D01*
X181270000Y-87277307D01*
X180987828Y-86855008D01*
X180534609Y-86552176D01*
X180000000Y-86445836D01*
X179465391Y-86552176D01*
X179012172Y-86855008D01*
X178730000Y-87277307D01*
X178447828Y-86855008D01*
X177994609Y-86552176D01*
X177460000Y-86445836D01*
X176925391Y-86552176D01*
X176472172Y-86855008D01*
X176190000Y-87277307D01*
X175907828Y-86855008D01*
X175454609Y-86552176D01*
X174920000Y-86445836D01*
X174385391Y-86552176D01*
X173932172Y-86855008D01*
X173629340Y-87308227D01*
X173523000Y-87842836D01*
X171477000Y-87842836D01*
X171370660Y-87308227D01*
X171067828Y-86855008D01*
X170614609Y-86552176D01*
X170080000Y-86445836D01*
X169545391Y-86552176D01*
X169092172Y-86855008D01*
X168810000Y-87277307D01*
X168527828Y-86855008D01*
X168074609Y-86552176D01*
X167540000Y-86445836D01*
X167005391Y-86552176D01*
X166552172Y-86855008D01*
X166270000Y-87277307D01*
X165987828Y-86855008D01*
X165534609Y-86552176D01*
X165000000Y-86445836D01*
X164465391Y-86552176D01*
X164012172Y-86855008D01*
X163730000Y-87277307D01*
X163447828Y-86855008D01*
X162994609Y-86552176D01*
X162460000Y-86445836D01*
X161925391Y-86552176D01*
X161472172Y-86855008D01*
X161190000Y-87277307D01*
X160907828Y-86855008D01*
X160454609Y-86552176D01*
X159920000Y-86445836D01*
X159385391Y-86552176D01*
X158932172Y-86855008D01*
X158629340Y-87308227D01*
X158523000Y-87842836D01*
X151477000Y-87842836D01*
X151370660Y-87308227D01*
X151067828Y-86855008D01*
X150614609Y-86552176D01*
X150080000Y-86445836D01*
X149545391Y-86552176D01*
X149092172Y-86855008D01*
X148810000Y-87277307D01*
X148527828Y-86855008D01*
X148074609Y-86552176D01*
X147540000Y-86445836D01*
X147005391Y-86552176D01*
X146552172Y-86855008D01*
X146270000Y-87277307D01*
X145987828Y-86855008D01*
X145534609Y-86552176D01*
X145000000Y-86445836D01*
X144465391Y-86552176D01*
X144012172Y-86855008D01*
X143730000Y-87277307D01*
X143447828Y-86855008D01*
X142994609Y-86552176D01*
X142460000Y-86445836D01*
X141925391Y-86552176D01*
X141472172Y-86855008D01*
X141190000Y-87277307D01*
X140907828Y-86855008D01*
X140454609Y-86552176D01*
X139920000Y-86445836D01*
X139385391Y-86552176D01*
X138932172Y-86855008D01*
X138629340Y-87308227D01*
X138523000Y-87842836D01*
X136477000Y-87842836D01*
X136370660Y-87308227D01*
X136067828Y-86855008D01*
X135614609Y-86552176D01*
X135080000Y-86445836D01*
X134545391Y-86552176D01*
X134092172Y-86855008D01*
X133810000Y-87277307D01*
X133527828Y-86855008D01*
X133074609Y-86552176D01*
X132540000Y-86445836D01*
X132005391Y-86552176D01*
X131552172Y-86855008D01*
X131270000Y-87277307D01*
X130987828Y-86855008D01*
X130534609Y-86552176D01*
X130000000Y-86445836D01*
X129465391Y-86552176D01*
X129012172Y-86855008D01*
X128730000Y-87277307D01*
X128447828Y-86855008D01*
X127994609Y-86552176D01*
X127460000Y-86445836D01*
X126925391Y-86552176D01*
X126472172Y-86855008D01*
X126190000Y-87277307D01*
X125907828Y-86855008D01*
X125454609Y-86552176D01*
X124920000Y-86445836D01*
X124385391Y-86552176D01*
X123932172Y-86855008D01*
X123629340Y-87308227D01*
X123523000Y-87842836D01*
X122179661Y-87842836D01*
X122192192Y-87830327D01*
X122334838Y-87486799D01*
X122335162Y-87114833D01*
X122193117Y-86771057D01*
X121930327Y-86507808D01*
X121586799Y-86365162D01*
X121214833Y-86364838D01*
X120871057Y-86506883D01*
X120607808Y-86769673D01*
X120465162Y-87113201D01*
X120464838Y-87485167D01*
X116710000Y-87485167D01*
X116710000Y-86000000D01*
X116696358Y-85931416D01*
X116696358Y-85861486D01*
X116620238Y-85478804D01*
X116519339Y-85235214D01*
X116514223Y-85222862D01*
X116422219Y-85085167D01*
X120464838Y-85085167D01*
X120606883Y-85428943D01*
X120869673Y-85692192D01*
X121213201Y-85834838D01*
X121585167Y-85835162D01*
X121928943Y-85693117D01*
X122192192Y-85430327D01*
X122334838Y-85086799D01*
X122335162Y-84714833D01*
X122193117Y-84371057D01*
X121930327Y-84107808D01*
X121634977Y-83985167D01*
X123964838Y-83985167D01*
X124106883Y-84328943D01*
X124369673Y-84592192D01*
X124713201Y-84734838D01*
X125085167Y-84735162D01*
X125428943Y-84593117D01*
X125692192Y-84330327D01*
X125727797Y-84244579D01*
X133724786Y-84244579D01*
X133912408Y-84698657D01*
X134259515Y-85046371D01*
X134713266Y-85234785D01*
X135204579Y-85235214D01*
X135658657Y-85047592D01*
X136006371Y-84700485D01*
X136194785Y-84246734D01*
X136194786Y-84244579D01*
X136264786Y-84244579D01*
X136452408Y-84698657D01*
X136799515Y-85046371D01*
X137253266Y-85234785D01*
X137744579Y-85235214D01*
X138198657Y-85047592D01*
X138546371Y-84700485D01*
X138734785Y-84246734D01*
X138734786Y-84244579D01*
X138804786Y-84244579D01*
X138992408Y-84698657D01*
X139339515Y-85046371D01*
X139793266Y-85234785D01*
X140284579Y-85235214D01*
X140738657Y-85047592D01*
X141086371Y-84700485D01*
X141274785Y-84246734D01*
X141274886Y-84131027D01*
X148964838Y-84131027D01*
X149106883Y-84474803D01*
X149369673Y-84738052D01*
X149713201Y-84880698D01*
X150085167Y-84881022D01*
X150428943Y-84738977D01*
X150692192Y-84476187D01*
X150816467Y-84176899D01*
X164239837Y-84176899D01*
X164381882Y-84520675D01*
X164644672Y-84783924D01*
X164988200Y-84926570D01*
X165360166Y-84926894D01*
X165703942Y-84784849D01*
X165967191Y-84522059D01*
X166082411Y-84244579D01*
X168724786Y-84244579D01*
X168912408Y-84698657D01*
X169259515Y-85046371D01*
X169713266Y-85234785D01*
X170204579Y-85235214D01*
X170658657Y-85047592D01*
X171006371Y-84700485D01*
X171194785Y-84246734D01*
X171194786Y-84244579D01*
X171264786Y-84244579D01*
X171452408Y-84698657D01*
X171799515Y-85046371D01*
X172253266Y-85234785D01*
X172744579Y-85235214D01*
X173198657Y-85047592D01*
X173546371Y-84700485D01*
X173734785Y-84246734D01*
X173734786Y-84244579D01*
X173804786Y-84244579D01*
X173992408Y-84698657D01*
X174339515Y-85046371D01*
X174793266Y-85234785D01*
X175284579Y-85235214D01*
X175647718Y-85085167D01*
X187164838Y-85085167D01*
X187306883Y-85428943D01*
X187569673Y-85692192D01*
X187913201Y-85834838D01*
X188285167Y-85835162D01*
X188628943Y-85693117D01*
X188892192Y-85430327D01*
X189034838Y-85086799D01*
X189035162Y-84714833D01*
X188893117Y-84371057D01*
X188630327Y-84107808D01*
X188286799Y-83965162D01*
X187914833Y-83964838D01*
X187571057Y-84106883D01*
X187307808Y-84369673D01*
X187165162Y-84713201D01*
X187164838Y-85085167D01*
X175647718Y-85085167D01*
X175738657Y-85047592D01*
X176086371Y-84700485D01*
X176274785Y-84246734D01*
X176275013Y-83985167D01*
X181664838Y-83985167D01*
X181806883Y-84328943D01*
X182069673Y-84592192D01*
X182413201Y-84734838D01*
X182785167Y-84735162D01*
X183128943Y-84593117D01*
X183392192Y-84330327D01*
X183534838Y-83986799D01*
X183535162Y-83614833D01*
X183393117Y-83271057D01*
X183130327Y-83007808D01*
X182786799Y-82865162D01*
X182414833Y-82864838D01*
X182071057Y-83006883D01*
X181807808Y-83269673D01*
X181665162Y-83613201D01*
X181664838Y-83985167D01*
X176275013Y-83985167D01*
X176275214Y-83755421D01*
X176087592Y-83301343D01*
X175740485Y-82953629D01*
X175286734Y-82765215D01*
X174795421Y-82764786D01*
X174341343Y-82952408D01*
X173993629Y-83299515D01*
X173805215Y-83753266D01*
X173804786Y-84244579D01*
X173734786Y-84244579D01*
X173735214Y-83755421D01*
X173547592Y-83301343D01*
X173200485Y-82953629D01*
X172746734Y-82765215D01*
X172255421Y-82764786D01*
X171801343Y-82952408D01*
X171453629Y-83299515D01*
X171265215Y-83753266D01*
X171264786Y-84244579D01*
X171194786Y-84244579D01*
X171195214Y-83755421D01*
X171007592Y-83301343D01*
X170660485Y-82953629D01*
X170206734Y-82765215D01*
X169715421Y-82764786D01*
X169261343Y-82952408D01*
X168913629Y-83299515D01*
X168725215Y-83753266D01*
X168724786Y-84244579D01*
X166082411Y-84244579D01*
X166109837Y-84178531D01*
X166110161Y-83806565D01*
X165968116Y-83462789D01*
X165705326Y-83199540D01*
X165361798Y-83056894D01*
X164989832Y-83056570D01*
X164646056Y-83198615D01*
X164382807Y-83461405D01*
X164240161Y-83804933D01*
X164239837Y-84176899D01*
X150816467Y-84176899D01*
X150834838Y-84132659D01*
X150835162Y-83760693D01*
X150693117Y-83416917D01*
X150430327Y-83153668D01*
X150086799Y-83011022D01*
X149714833Y-83010698D01*
X149371057Y-83152743D01*
X149107808Y-83415533D01*
X148965162Y-83759061D01*
X148964838Y-84131027D01*
X141274886Y-84131027D01*
X141275214Y-83755421D01*
X141087592Y-83301343D01*
X140740485Y-82953629D01*
X140286734Y-82765215D01*
X139795421Y-82764786D01*
X139341343Y-82952408D01*
X138993629Y-83299515D01*
X138805215Y-83753266D01*
X138804786Y-84244579D01*
X138734786Y-84244579D01*
X138735214Y-83755421D01*
X138547592Y-83301343D01*
X138200485Y-82953629D01*
X137746734Y-82765215D01*
X137255421Y-82764786D01*
X136801343Y-82952408D01*
X136453629Y-83299515D01*
X136265215Y-83753266D01*
X136264786Y-84244579D01*
X136194786Y-84244579D01*
X136195214Y-83755421D01*
X136007592Y-83301343D01*
X135660485Y-82953629D01*
X135206734Y-82765215D01*
X134715421Y-82764786D01*
X134261343Y-82952408D01*
X133913629Y-83299515D01*
X133725215Y-83753266D01*
X133724786Y-84244579D01*
X125727797Y-84244579D01*
X125834838Y-83986799D01*
X125835162Y-83614833D01*
X125693117Y-83271057D01*
X125430327Y-83007808D01*
X125086799Y-82865162D01*
X124714833Y-82864838D01*
X124371057Y-83006883D01*
X124107808Y-83269673D01*
X123965162Y-83613201D01*
X123964838Y-83985167D01*
X121634977Y-83985167D01*
X121586799Y-83965162D01*
X121214833Y-83964838D01*
X120871057Y-84106883D01*
X120607808Y-84369673D01*
X120465162Y-84713201D01*
X120464838Y-85085167D01*
X116422219Y-85085167D01*
X116297451Y-84898438D01*
X116101562Y-84702550D01*
X116101561Y-84702549D01*
X115777138Y-84485776D01*
X115593368Y-84409657D01*
X115521196Y-84379762D01*
X115138515Y-84303642D01*
X115138514Y-84303642D01*
X113746295Y-84026712D01*
X112683454Y-83316546D01*
X111973288Y-82253707D01*
X111800525Y-81385167D01*
X129764838Y-81385167D01*
X129906883Y-81728943D01*
X130169673Y-81992192D01*
X130513201Y-82134838D01*
X130885167Y-82135162D01*
X131228943Y-81993117D01*
X131492192Y-81730327D01*
X131634838Y-81386799D01*
X131635010Y-81189038D01*
X142564838Y-81189038D01*
X142706883Y-81532814D01*
X142969673Y-81796063D01*
X143313201Y-81938709D01*
X143685167Y-81939033D01*
X144028943Y-81796988D01*
X144087955Y-81738079D01*
X144145838Y-81796063D01*
X144489366Y-81938709D01*
X144861332Y-81939033D01*
X145077118Y-81849872D01*
X145291059Y-81938709D01*
X145663025Y-81939033D01*
X146006801Y-81796988D01*
X146270050Y-81534198D01*
X146412696Y-81190670D01*
X146412700Y-81185178D01*
X146692728Y-81185178D01*
X146834773Y-81528954D01*
X147097563Y-81792203D01*
X147441091Y-81934849D01*
X147813057Y-81935173D01*
X148109602Y-81812643D01*
X148413201Y-81938709D01*
X148785167Y-81939033D01*
X149128943Y-81796988D01*
X149249981Y-81676161D01*
X149369673Y-81796063D01*
X149713201Y-81938709D01*
X150085167Y-81939033D01*
X150428943Y-81796988D01*
X150499893Y-81726161D01*
X150569673Y-81796063D01*
X150913201Y-81938709D01*
X151285167Y-81939033D01*
X151628943Y-81796988D01*
X151749981Y-81676161D01*
X151869673Y-81796063D01*
X152213201Y-81938709D01*
X152585167Y-81939033D01*
X152928943Y-81796988D01*
X153192192Y-81534198D01*
X153334838Y-81190670D01*
X153334866Y-81158456D01*
X156664838Y-81158456D01*
X156806883Y-81502232D01*
X157069673Y-81765481D01*
X157413201Y-81908127D01*
X157785167Y-81908451D01*
X158068367Y-81791435D01*
X158072986Y-81796062D01*
X158416514Y-81938708D01*
X158788480Y-81939032D01*
X159044017Y-81833446D01*
X159288201Y-81934841D01*
X159660167Y-81935165D01*
X160003943Y-81793120D01*
X160267192Y-81530330D01*
X160409838Y-81186802D01*
X160409862Y-81158467D01*
X160689870Y-81158467D01*
X160831915Y-81502243D01*
X161094705Y-81765492D01*
X161438233Y-81908138D01*
X161810199Y-81908462D01*
X162112850Y-81783410D01*
X162413201Y-81908127D01*
X162785167Y-81908451D01*
X163128943Y-81766406D01*
X163249981Y-81645579D01*
X163369673Y-81765481D01*
X163713201Y-81908127D01*
X164085167Y-81908451D01*
X164428943Y-81766406D01*
X164499893Y-81695579D01*
X164569673Y-81765481D01*
X164913201Y-81908127D01*
X165285167Y-81908451D01*
X165628943Y-81766406D01*
X165734690Y-81660844D01*
X165869673Y-81796063D01*
X166213201Y-81938709D01*
X166585167Y-81939033D01*
X166928943Y-81796988D01*
X167192192Y-81534198D01*
X167254405Y-81384372D01*
X176565036Y-81384372D01*
X176654087Y-81599893D01*
X176565839Y-81812418D01*
X176565515Y-82184384D01*
X176707560Y-82528160D01*
X176970350Y-82791409D01*
X177313878Y-82934055D01*
X177685844Y-82934379D01*
X178029620Y-82792334D01*
X178292869Y-82529544D01*
X178435515Y-82186016D01*
X178435624Y-82060596D01*
X178614107Y-82134709D01*
X178986073Y-82135033D01*
X179329849Y-81992988D01*
X179593098Y-81730198D01*
X179735744Y-81386670D01*
X179735745Y-81385167D01*
X180464838Y-81385167D01*
X180606883Y-81728943D01*
X180869673Y-81992192D01*
X181213201Y-82134838D01*
X181585167Y-82135162D01*
X181928943Y-81993117D01*
X181986993Y-81935168D01*
X182069673Y-82017993D01*
X182413201Y-82160639D01*
X182785167Y-82160963D01*
X183128943Y-82018918D01*
X183392192Y-81756128D01*
X183508580Y-81475836D01*
X183611326Y-81724500D01*
X183874116Y-81987749D01*
X184217644Y-82130395D01*
X184589610Y-82130719D01*
X184899338Y-82002742D01*
X185214936Y-82133791D01*
X185586902Y-82134115D01*
X185930678Y-81992070D01*
X186026149Y-81896765D01*
X186121410Y-81992192D01*
X186464938Y-82134838D01*
X186836904Y-82135162D01*
X187180680Y-81993117D01*
X187443929Y-81730327D01*
X187586575Y-81386799D01*
X187586899Y-81014833D01*
X187574642Y-80985167D01*
X188564838Y-80985167D01*
X188706883Y-81328943D01*
X188969673Y-81592192D01*
X189313201Y-81734838D01*
X189685167Y-81735162D01*
X190028943Y-81593117D01*
X190292192Y-81330327D01*
X190434838Y-80986799D01*
X190435162Y-80614833D01*
X190293117Y-80271057D01*
X190030327Y-80007808D01*
X189686799Y-79865162D01*
X189314833Y-79864838D01*
X188971057Y-80006883D01*
X188707808Y-80269673D01*
X188565162Y-80613201D01*
X188564838Y-80985167D01*
X187574642Y-80985167D01*
X187444854Y-80671057D01*
X187182064Y-80407808D01*
X186838536Y-80265162D01*
X186466570Y-80264838D01*
X186122794Y-80406883D01*
X186027323Y-80502188D01*
X185932062Y-80406761D01*
X185588534Y-80264115D01*
X185216568Y-80263791D01*
X184906840Y-80391768D01*
X184591242Y-80260719D01*
X184219276Y-80260395D01*
X183875500Y-80402440D01*
X183612251Y-80665230D01*
X183495863Y-80945522D01*
X183393117Y-80696858D01*
X183130327Y-80433609D01*
X182786799Y-80290963D01*
X182414833Y-80290639D01*
X182071057Y-80432684D01*
X182013007Y-80490633D01*
X181930327Y-80407808D01*
X181586799Y-80265162D01*
X181214833Y-80264838D01*
X180871057Y-80406883D01*
X180607808Y-80669673D01*
X180465162Y-81013201D01*
X180464838Y-81385167D01*
X179735745Y-81385167D01*
X179736068Y-81014704D01*
X179594023Y-80670928D01*
X179331233Y-80407679D01*
X178987705Y-80265033D01*
X178615739Y-80264709D01*
X178271963Y-80406754D01*
X178150904Y-80527602D01*
X178030525Y-80407013D01*
X177686997Y-80264367D01*
X177315031Y-80264043D01*
X176971255Y-80406088D01*
X176708006Y-80668878D01*
X176565360Y-81012406D01*
X176565036Y-81384372D01*
X167254405Y-81384372D01*
X167334838Y-81190670D01*
X167335162Y-80818704D01*
X167193117Y-80474928D01*
X166930327Y-80211679D01*
X166586799Y-80069033D01*
X166214833Y-80068709D01*
X165871057Y-80210754D01*
X165765310Y-80316316D01*
X165630327Y-80181097D01*
X165286799Y-80038451D01*
X164914833Y-80038127D01*
X164571057Y-80180172D01*
X164500107Y-80250999D01*
X164430327Y-80181097D01*
X164086799Y-80038451D01*
X163714833Y-80038127D01*
X163371057Y-80180172D01*
X163250019Y-80300999D01*
X163130327Y-80181097D01*
X162786799Y-80038451D01*
X162414833Y-80038127D01*
X162112182Y-80163179D01*
X161811831Y-80038462D01*
X161439865Y-80038138D01*
X161096089Y-80180183D01*
X160832840Y-80442973D01*
X160690194Y-80786501D01*
X160689870Y-81158467D01*
X160409862Y-81158467D01*
X160410162Y-80814836D01*
X160268117Y-80471060D01*
X160005327Y-80207811D01*
X159661799Y-80065165D01*
X159289833Y-80064841D01*
X159034296Y-80170427D01*
X158790112Y-80069032D01*
X158418146Y-80068708D01*
X158134946Y-80185724D01*
X158130327Y-80181097D01*
X157786799Y-80038451D01*
X157414833Y-80038127D01*
X157071057Y-80180172D01*
X156807808Y-80442962D01*
X156665162Y-80786490D01*
X156664838Y-81158456D01*
X153334866Y-81158456D01*
X153335162Y-80818704D01*
X153193117Y-80474928D01*
X152930327Y-80211679D01*
X152586799Y-80069033D01*
X152214833Y-80068709D01*
X151871057Y-80210754D01*
X151750019Y-80331581D01*
X151630327Y-80211679D01*
X151286799Y-80069033D01*
X150914833Y-80068709D01*
X150571057Y-80210754D01*
X150500107Y-80281581D01*
X150430327Y-80211679D01*
X150086799Y-80069033D01*
X149714833Y-80068709D01*
X149371057Y-80210754D01*
X149250019Y-80331581D01*
X149130327Y-80211679D01*
X148786799Y-80069033D01*
X148414833Y-80068709D01*
X148118288Y-80191239D01*
X147814689Y-80065173D01*
X147442723Y-80064849D01*
X147098947Y-80206894D01*
X146835698Y-80469684D01*
X146693052Y-80813212D01*
X146692728Y-81185178D01*
X146412700Y-81185178D01*
X146413020Y-80818704D01*
X146270975Y-80474928D01*
X146008185Y-80211679D01*
X145664657Y-80069033D01*
X145292691Y-80068709D01*
X145076905Y-80157870D01*
X144862964Y-80069033D01*
X144490998Y-80068709D01*
X144147222Y-80210754D01*
X144088210Y-80269663D01*
X144030327Y-80211679D01*
X143686799Y-80069033D01*
X143314833Y-80068709D01*
X142971057Y-80210754D01*
X142707808Y-80473544D01*
X142565162Y-80817072D01*
X142564838Y-81189038D01*
X131635010Y-81189038D01*
X131635162Y-81014833D01*
X131493117Y-80671057D01*
X131230327Y-80407808D01*
X130886799Y-80265162D01*
X130514833Y-80264838D01*
X130171057Y-80406883D01*
X129907808Y-80669673D01*
X129765162Y-81013201D01*
X129764838Y-81385167D01*
X111800525Y-81385167D01*
X111723910Y-81000000D01*
X111973288Y-79746293D01*
X112683454Y-78683454D01*
X113746295Y-77973288D01*
X115069931Y-77710000D01*
X194930069Y-77710000D01*
X196253707Y-77973288D01*
M02*
