G04 #@! TF.FileFunction,Copper,L2,Inr,Signal*
%FSLAX46Y46*%
G04 Gerber Fmt 4.6, Leading zero omitted, Abs format (unit mm)*
G04 Created by KiCad (PCBNEW 4.0.4-1.fc25-product) date Sun Mar 19 23:46:17 2017*
%MOMM*%
%LPD*%
G01*
G04 APERTURE LIST*
%ADD10C,0.100000*%
%ADD11C,6.200000*%
%ADD12C,1.200000*%
%ADD13R,2.032000X1.727200*%
%ADD14O,2.032000X1.727200*%
%ADD15O,1.524000X2.524000*%
%ADD16C,0.600000*%
%ADD17C,0.254000*%
G04 APERTURE END LIST*
D10*
D11*
X194500000Y-111000000D03*
X116000000Y-111000000D03*
X116000000Y-81000000D03*
D12*
X175040000Y-84000000D03*
X172500000Y-84000000D03*
X169960000Y-84000000D03*
D13*
X189000000Y-94000000D03*
D14*
X189000000Y-96540000D03*
X189000000Y-99080000D03*
D15*
X124920000Y-103620000D03*
X127460000Y-103620000D03*
X130000000Y-103620000D03*
X132540000Y-103620000D03*
X135080000Y-103620000D03*
X135080000Y-88380000D03*
X132540000Y-88380000D03*
X130000000Y-88380000D03*
X127460000Y-88380000D03*
X124920000Y-88380000D03*
X139920000Y-103620000D03*
X142460000Y-103620000D03*
X145000000Y-103620000D03*
X147540000Y-103620000D03*
X150080000Y-103620000D03*
X150080000Y-88380000D03*
X147540000Y-88380000D03*
X145000000Y-88380000D03*
X142460000Y-88380000D03*
X139920000Y-88380000D03*
X159920000Y-103620000D03*
X162460000Y-103620000D03*
X165000000Y-103620000D03*
X167540000Y-103620000D03*
X170080000Y-103620000D03*
X170080000Y-88380000D03*
X167540000Y-88380000D03*
X165000000Y-88380000D03*
X162460000Y-88380000D03*
X159920000Y-88380000D03*
X174920000Y-103620000D03*
X177460000Y-103620000D03*
X180000000Y-103620000D03*
X182540000Y-103620000D03*
X185080000Y-103620000D03*
X185080000Y-88380000D03*
X182540000Y-88380000D03*
X180000000Y-88380000D03*
X177460000Y-88380000D03*
X174920000Y-88380000D03*
D12*
X140040000Y-84000000D03*
X137500000Y-84000000D03*
X134960000Y-84000000D03*
D11*
X194500000Y-81000000D03*
D16*
X129400000Y-108200000D03*
X153600000Y-96800000D03*
X121400000Y-87300000D03*
X121800000Y-108200000D03*
X189500000Y-80800000D03*
X182600000Y-83800000D03*
X186651737Y-81200000D03*
X166400000Y-81003871D03*
X149900000Y-83800000D03*
X152400000Y-81003871D03*
X130700000Y-81200000D03*
X121800000Y-110800000D03*
X141300000Y-108200000D03*
X150942209Y-108157790D03*
X162800000Y-108200000D03*
X174800000Y-108200000D03*
X186800000Y-108200000D03*
X176787319Y-85209849D03*
X156564441Y-85414441D03*
X142491747Y-85191746D03*
X127500000Y-83800000D03*
X152200000Y-88000000D03*
X153358871Y-92858871D03*
X162150000Y-109775002D03*
X132700000Y-112200000D03*
X150173059Y-110826941D03*
X152700000Y-108200000D03*
X163659593Y-110474999D03*
X174265558Y-110834442D03*
X176700000Y-108200000D03*
X124400000Y-110800000D03*
X188100000Y-84900000D03*
X121400000Y-84900000D03*
X124900000Y-83800000D03*
X156400000Y-94100000D03*
X156400000Y-99900000D03*
X148600000Y-81003871D03*
X146090968Y-95518783D03*
X147627890Y-81000011D03*
X149800000Y-95783053D03*
X145477858Y-81003871D03*
X148900000Y-97600000D03*
X144676165Y-81003871D03*
X141800000Y-96200000D03*
X143500000Y-81003871D03*
X139300000Y-96200000D03*
X151100000Y-81003871D03*
X142500000Y-95800000D03*
X149900000Y-81003871D03*
X140000000Y-95800000D03*
X162600000Y-80973289D03*
X167500000Y-95800000D03*
X161625032Y-80973300D03*
X170000000Y-95800000D03*
X159475000Y-81000003D03*
X166834358Y-96243761D03*
X158603313Y-81003870D03*
X161834358Y-96243761D03*
X157600000Y-80973289D03*
X159334358Y-96243761D03*
X165100000Y-80973289D03*
X162500000Y-95800000D03*
X163900000Y-80973289D03*
X160000000Y-95800000D03*
X182600000Y-81225801D03*
X180800000Y-94300000D03*
X181400000Y-81200000D03*
X186475000Y-94300000D03*
X177500677Y-81999217D03*
X182500000Y-96200000D03*
X178800906Y-81199871D03*
X177300822Y-96200363D03*
X177500198Y-81199205D03*
X173404388Y-96695612D03*
X185401735Y-81198953D03*
X178000193Y-95799720D03*
X184404443Y-81195557D03*
X175000000Y-95800000D03*
X165174999Y-83991732D03*
D17*
G36*
X195753707Y-77973288D02*
X196816546Y-78683454D01*
X197526712Y-79746295D01*
X197776090Y-81000000D01*
X197526712Y-82253705D01*
X196816546Y-83316546D01*
X195753707Y-84026712D01*
X194361486Y-84303642D01*
X193978804Y-84379762D01*
X193884629Y-84418771D01*
X193722862Y-84485777D01*
X193398438Y-84702549D01*
X193266956Y-84834032D01*
X193202549Y-84898439D01*
X192985776Y-85222862D01*
X192935581Y-85344046D01*
X192879762Y-85478804D01*
X192803642Y-85861487D01*
X192803642Y-85931416D01*
X192790000Y-86000000D01*
X192790000Y-106000000D01*
X192803642Y-106068584D01*
X192803642Y-106138513D01*
X192879762Y-106521196D01*
X192899395Y-106568593D01*
X192985776Y-106777138D01*
X193202549Y-107101561D01*
X193202550Y-107101562D01*
X193398438Y-107297451D01*
X193722862Y-107514223D01*
X193828877Y-107558136D01*
X193978804Y-107620238D01*
X194361486Y-107696358D01*
X195753707Y-107973288D01*
X196816546Y-108683454D01*
X197526712Y-109746295D01*
X197776090Y-111000000D01*
X197526712Y-112253705D01*
X196816546Y-113316546D01*
X195753707Y-114026712D01*
X194430069Y-114290000D01*
X116069931Y-114290000D01*
X114746295Y-114026712D01*
X113683454Y-113316546D01*
X112973288Y-112253707D01*
X112723910Y-111000000D01*
X112726860Y-110985167D01*
X120864838Y-110985167D01*
X121006883Y-111328943D01*
X121269673Y-111592192D01*
X121613201Y-111734838D01*
X121985167Y-111735162D01*
X122328943Y-111593117D01*
X122592192Y-111330327D01*
X122734838Y-110986799D01*
X122735162Y-110614833D01*
X122593117Y-110271057D01*
X122330327Y-110007808D01*
X121986799Y-109865162D01*
X121614833Y-109864838D01*
X121271057Y-110006883D01*
X121007808Y-110269673D01*
X120865162Y-110613201D01*
X120864838Y-110985167D01*
X112726860Y-110985167D01*
X112973288Y-109746293D01*
X113683454Y-108683454D01*
X114129873Y-108385167D01*
X120864838Y-108385167D01*
X121006883Y-108728943D01*
X121269673Y-108992192D01*
X121613201Y-109134838D01*
X121985167Y-109135162D01*
X122328943Y-108993117D01*
X122592192Y-108730327D01*
X122734838Y-108386799D01*
X122734839Y-108385167D01*
X128464838Y-108385167D01*
X128606883Y-108728943D01*
X128869673Y-108992192D01*
X129213201Y-109134838D01*
X129585167Y-109135162D01*
X129928943Y-108993117D01*
X130192192Y-108730327D01*
X130334838Y-108386799D01*
X130334839Y-108385167D01*
X140364838Y-108385167D01*
X140506883Y-108728943D01*
X140769673Y-108992192D01*
X141113201Y-109134838D01*
X141485167Y-109135162D01*
X141828943Y-108993117D01*
X142092192Y-108730327D01*
X142234838Y-108386799D01*
X142234876Y-108342957D01*
X150007047Y-108342957D01*
X150149092Y-108686733D01*
X150411882Y-108949982D01*
X150755410Y-109092628D01*
X151127376Y-109092952D01*
X151471152Y-108950907D01*
X151734401Y-108688117D01*
X151860197Y-108385167D01*
X161864838Y-108385167D01*
X162006883Y-108728943D01*
X162269673Y-108992192D01*
X162613201Y-109134838D01*
X162985167Y-109135162D01*
X163328943Y-108993117D01*
X163592192Y-108730327D01*
X163734838Y-108386799D01*
X163734839Y-108385167D01*
X173864838Y-108385167D01*
X174006883Y-108728943D01*
X174269673Y-108992192D01*
X174613201Y-109134838D01*
X174985167Y-109135162D01*
X175328943Y-108993117D01*
X175592192Y-108730327D01*
X175734838Y-108386799D01*
X175734839Y-108385167D01*
X185864838Y-108385167D01*
X186006883Y-108728943D01*
X186269673Y-108992192D01*
X186613201Y-109134838D01*
X186985167Y-109135162D01*
X187328943Y-108993117D01*
X187592192Y-108730327D01*
X187734838Y-108386799D01*
X187735162Y-108014833D01*
X187593117Y-107671057D01*
X187330327Y-107407808D01*
X186986799Y-107265162D01*
X186614833Y-107264838D01*
X186271057Y-107406883D01*
X186007808Y-107669673D01*
X185865162Y-108013201D01*
X185864838Y-108385167D01*
X175734839Y-108385167D01*
X175735162Y-108014833D01*
X175593117Y-107671057D01*
X175330327Y-107407808D01*
X174986799Y-107265162D01*
X174614833Y-107264838D01*
X174271057Y-107406883D01*
X174007808Y-107669673D01*
X173865162Y-108013201D01*
X173864838Y-108385167D01*
X163734839Y-108385167D01*
X163735162Y-108014833D01*
X163593117Y-107671057D01*
X163330327Y-107407808D01*
X162986799Y-107265162D01*
X162614833Y-107264838D01*
X162271057Y-107406883D01*
X162007808Y-107669673D01*
X161865162Y-108013201D01*
X161864838Y-108385167D01*
X151860197Y-108385167D01*
X151877047Y-108344589D01*
X151877371Y-107972623D01*
X151735326Y-107628847D01*
X151472536Y-107365598D01*
X151129008Y-107222952D01*
X150757042Y-107222628D01*
X150413266Y-107364673D01*
X150150017Y-107627463D01*
X150007371Y-107970991D01*
X150007047Y-108342957D01*
X142234876Y-108342957D01*
X142235162Y-108014833D01*
X142093117Y-107671057D01*
X141830327Y-107407808D01*
X141486799Y-107265162D01*
X141114833Y-107264838D01*
X140771057Y-107406883D01*
X140507808Y-107669673D01*
X140365162Y-108013201D01*
X140364838Y-108385167D01*
X130334839Y-108385167D01*
X130335162Y-108014833D01*
X130193117Y-107671057D01*
X129930327Y-107407808D01*
X129586799Y-107265162D01*
X129214833Y-107264838D01*
X128871057Y-107406883D01*
X128607808Y-107669673D01*
X128465162Y-108013201D01*
X128464838Y-108385167D01*
X122734839Y-108385167D01*
X122735162Y-108014833D01*
X122593117Y-107671057D01*
X122330327Y-107407808D01*
X121986799Y-107265162D01*
X121614833Y-107264838D01*
X121271057Y-107406883D01*
X121007808Y-107669673D01*
X120865162Y-108013201D01*
X120864838Y-108385167D01*
X114129873Y-108385167D01*
X114746295Y-107973288D01*
X116138514Y-107696358D01*
X116138515Y-107696358D01*
X116521196Y-107620238D01*
X116615369Y-107581230D01*
X116777138Y-107514224D01*
X117101561Y-107297451D01*
X117176384Y-107222628D01*
X117297451Y-107101562D01*
X117514223Y-106777138D01*
X117564419Y-106655954D01*
X117620238Y-106521196D01*
X117696358Y-106138514D01*
X117696358Y-106068584D01*
X117710000Y-106000000D01*
X117710000Y-103082836D01*
X123523000Y-103082836D01*
X123523000Y-104157164D01*
X123629340Y-104691773D01*
X123932172Y-105144992D01*
X124385391Y-105447824D01*
X124920000Y-105554164D01*
X125454609Y-105447824D01*
X125907828Y-105144992D01*
X126190000Y-104722693D01*
X126472172Y-105144992D01*
X126925391Y-105447824D01*
X127460000Y-105554164D01*
X127994609Y-105447824D01*
X128447828Y-105144992D01*
X128730000Y-104722693D01*
X129012172Y-105144992D01*
X129465391Y-105447824D01*
X130000000Y-105554164D01*
X130534609Y-105447824D01*
X130987828Y-105144992D01*
X131270000Y-104722693D01*
X131552172Y-105144992D01*
X132005391Y-105447824D01*
X132540000Y-105554164D01*
X133074609Y-105447824D01*
X133527828Y-105144992D01*
X133810000Y-104722693D01*
X134092172Y-105144992D01*
X134545391Y-105447824D01*
X135080000Y-105554164D01*
X135614609Y-105447824D01*
X136067828Y-105144992D01*
X136370660Y-104691773D01*
X136477000Y-104157164D01*
X136477000Y-103082836D01*
X138523000Y-103082836D01*
X138523000Y-104157164D01*
X138629340Y-104691773D01*
X138932172Y-105144992D01*
X139385391Y-105447824D01*
X139920000Y-105554164D01*
X140454609Y-105447824D01*
X140907828Y-105144992D01*
X141190000Y-104722693D01*
X141472172Y-105144992D01*
X141925391Y-105447824D01*
X142460000Y-105554164D01*
X142994609Y-105447824D01*
X143447828Y-105144992D01*
X143730000Y-104722693D01*
X144012172Y-105144992D01*
X144465391Y-105447824D01*
X145000000Y-105554164D01*
X145534609Y-105447824D01*
X145987828Y-105144992D01*
X146270000Y-104722693D01*
X146552172Y-105144992D01*
X147005391Y-105447824D01*
X147540000Y-105554164D01*
X148074609Y-105447824D01*
X148527828Y-105144992D01*
X148810000Y-104722693D01*
X149092172Y-105144992D01*
X149545391Y-105447824D01*
X150080000Y-105554164D01*
X150614609Y-105447824D01*
X151067828Y-105144992D01*
X151370660Y-104691773D01*
X151477000Y-104157164D01*
X151477000Y-103082836D01*
X158523000Y-103082836D01*
X158523000Y-104157164D01*
X158629340Y-104691773D01*
X158932172Y-105144992D01*
X159385391Y-105447824D01*
X159920000Y-105554164D01*
X160454609Y-105447824D01*
X160907828Y-105144992D01*
X161190000Y-104722693D01*
X161472172Y-105144992D01*
X161925391Y-105447824D01*
X162460000Y-105554164D01*
X162994609Y-105447824D01*
X163447828Y-105144992D01*
X163730000Y-104722693D01*
X164012172Y-105144992D01*
X164465391Y-105447824D01*
X165000000Y-105554164D01*
X165534609Y-105447824D01*
X165987828Y-105144992D01*
X166270000Y-104722693D01*
X166552172Y-105144992D01*
X167005391Y-105447824D01*
X167540000Y-105554164D01*
X168074609Y-105447824D01*
X168527828Y-105144992D01*
X168810000Y-104722693D01*
X169092172Y-105144992D01*
X169545391Y-105447824D01*
X170080000Y-105554164D01*
X170614609Y-105447824D01*
X171067828Y-105144992D01*
X171370660Y-104691773D01*
X171477000Y-104157164D01*
X171477000Y-103082836D01*
X173523000Y-103082836D01*
X173523000Y-104157164D01*
X173629340Y-104691773D01*
X173932172Y-105144992D01*
X174385391Y-105447824D01*
X174920000Y-105554164D01*
X175454609Y-105447824D01*
X175907828Y-105144992D01*
X176190000Y-104722693D01*
X176472172Y-105144992D01*
X176925391Y-105447824D01*
X177460000Y-105554164D01*
X177994609Y-105447824D01*
X178447828Y-105144992D01*
X178730000Y-104722693D01*
X179012172Y-105144992D01*
X179465391Y-105447824D01*
X180000000Y-105554164D01*
X180534609Y-105447824D01*
X180987828Y-105144992D01*
X181270000Y-104722693D01*
X181552172Y-105144992D01*
X182005391Y-105447824D01*
X182540000Y-105554164D01*
X183074609Y-105447824D01*
X183527828Y-105144992D01*
X183810000Y-104722693D01*
X184092172Y-105144992D01*
X184545391Y-105447824D01*
X185080000Y-105554164D01*
X185614609Y-105447824D01*
X186067828Y-105144992D01*
X186370660Y-104691773D01*
X186477000Y-104157164D01*
X186477000Y-103082836D01*
X186370660Y-102548227D01*
X186067828Y-102095008D01*
X185614609Y-101792176D01*
X185080000Y-101685836D01*
X184545391Y-101792176D01*
X184092172Y-102095008D01*
X183810000Y-102517307D01*
X183527828Y-102095008D01*
X183074609Y-101792176D01*
X182540000Y-101685836D01*
X182005391Y-101792176D01*
X181552172Y-102095008D01*
X181270000Y-102517307D01*
X180987828Y-102095008D01*
X180534609Y-101792176D01*
X180000000Y-101685836D01*
X179465391Y-101792176D01*
X179012172Y-102095008D01*
X178730000Y-102517307D01*
X178447828Y-102095008D01*
X177994609Y-101792176D01*
X177460000Y-101685836D01*
X176925391Y-101792176D01*
X176472172Y-102095008D01*
X176190000Y-102517307D01*
X175907828Y-102095008D01*
X175454609Y-101792176D01*
X174920000Y-101685836D01*
X174385391Y-101792176D01*
X173932172Y-102095008D01*
X173629340Y-102548227D01*
X173523000Y-103082836D01*
X171477000Y-103082836D01*
X171370660Y-102548227D01*
X171067828Y-102095008D01*
X170614609Y-101792176D01*
X170080000Y-101685836D01*
X169545391Y-101792176D01*
X169092172Y-102095008D01*
X168810000Y-102517307D01*
X168527828Y-102095008D01*
X168074609Y-101792176D01*
X167540000Y-101685836D01*
X167005391Y-101792176D01*
X166552172Y-102095008D01*
X166270000Y-102517307D01*
X165987828Y-102095008D01*
X165534609Y-101792176D01*
X165000000Y-101685836D01*
X164465391Y-101792176D01*
X164012172Y-102095008D01*
X163730000Y-102517307D01*
X163447828Y-102095008D01*
X162994609Y-101792176D01*
X162460000Y-101685836D01*
X161925391Y-101792176D01*
X161472172Y-102095008D01*
X161190000Y-102517307D01*
X160907828Y-102095008D01*
X160454609Y-101792176D01*
X159920000Y-101685836D01*
X159385391Y-101792176D01*
X158932172Y-102095008D01*
X158629340Y-102548227D01*
X158523000Y-103082836D01*
X151477000Y-103082836D01*
X151370660Y-102548227D01*
X151067828Y-102095008D01*
X150614609Y-101792176D01*
X150080000Y-101685836D01*
X149545391Y-101792176D01*
X149092172Y-102095008D01*
X148810000Y-102517307D01*
X148527828Y-102095008D01*
X148074609Y-101792176D01*
X147540000Y-101685836D01*
X147005391Y-101792176D01*
X146552172Y-102095008D01*
X146270000Y-102517307D01*
X145987828Y-102095008D01*
X145534609Y-101792176D01*
X145000000Y-101685836D01*
X144465391Y-101792176D01*
X144012172Y-102095008D01*
X143730000Y-102517307D01*
X143447828Y-102095008D01*
X142994609Y-101792176D01*
X142460000Y-101685836D01*
X141925391Y-101792176D01*
X141472172Y-102095008D01*
X141190000Y-102517307D01*
X140907828Y-102095008D01*
X140454609Y-101792176D01*
X139920000Y-101685836D01*
X139385391Y-101792176D01*
X138932172Y-102095008D01*
X138629340Y-102548227D01*
X138523000Y-103082836D01*
X136477000Y-103082836D01*
X136370660Y-102548227D01*
X136067828Y-102095008D01*
X135614609Y-101792176D01*
X135080000Y-101685836D01*
X134545391Y-101792176D01*
X134092172Y-102095008D01*
X133810000Y-102517307D01*
X133527828Y-102095008D01*
X133074609Y-101792176D01*
X132540000Y-101685836D01*
X132005391Y-101792176D01*
X131552172Y-102095008D01*
X131270000Y-102517307D01*
X130987828Y-102095008D01*
X130534609Y-101792176D01*
X130000000Y-101685836D01*
X129465391Y-101792176D01*
X129012172Y-102095008D01*
X128730000Y-102517307D01*
X128447828Y-102095008D01*
X127994609Y-101792176D01*
X127460000Y-101685836D01*
X126925391Y-101792176D01*
X126472172Y-102095008D01*
X126190000Y-102517307D01*
X125907828Y-102095008D01*
X125454609Y-101792176D01*
X124920000Y-101685836D01*
X124385391Y-101792176D01*
X123932172Y-102095008D01*
X123629340Y-102548227D01*
X123523000Y-103082836D01*
X117710000Y-103082836D01*
X117710000Y-100085167D01*
X155464838Y-100085167D01*
X155606883Y-100428943D01*
X155869673Y-100692192D01*
X156213201Y-100834838D01*
X156585167Y-100835162D01*
X156928943Y-100693117D01*
X157192192Y-100430327D01*
X157334838Y-100086799D01*
X157335162Y-99714833D01*
X157221202Y-99439026D01*
X187392642Y-99439026D01*
X187395291Y-99454791D01*
X187649268Y-99982036D01*
X188085680Y-100371954D01*
X188638087Y-100565184D01*
X188873000Y-100420924D01*
X188873000Y-99207000D01*
X189127000Y-99207000D01*
X189127000Y-100420924D01*
X189361913Y-100565184D01*
X189914320Y-100371954D01*
X190350732Y-99982036D01*
X190604709Y-99454791D01*
X190607358Y-99439026D01*
X190486217Y-99207000D01*
X189127000Y-99207000D01*
X188873000Y-99207000D01*
X187513783Y-99207000D01*
X187392642Y-99439026D01*
X157221202Y-99439026D01*
X157193117Y-99371057D01*
X156930327Y-99107808D01*
X156586799Y-98965162D01*
X156214833Y-98964838D01*
X155871057Y-99106883D01*
X155607808Y-99369673D01*
X155465162Y-99713201D01*
X155464838Y-100085167D01*
X117710000Y-100085167D01*
X117710000Y-97785167D01*
X147964838Y-97785167D01*
X148106883Y-98128943D01*
X148369673Y-98392192D01*
X148713201Y-98534838D01*
X149085167Y-98535162D01*
X149428943Y-98393117D01*
X149692192Y-98130327D01*
X149834838Y-97786799D01*
X149835162Y-97414833D01*
X149693117Y-97071057D01*
X149607377Y-96985167D01*
X152664838Y-96985167D01*
X152806883Y-97328943D01*
X153069673Y-97592192D01*
X153413201Y-97734838D01*
X153785167Y-97735162D01*
X154128943Y-97593117D01*
X154392192Y-97330327D01*
X154534838Y-96986799D01*
X154535162Y-96614833D01*
X154458348Y-96428928D01*
X158399196Y-96428928D01*
X158541241Y-96772704D01*
X158804031Y-97035953D01*
X159147559Y-97178599D01*
X159519525Y-97178923D01*
X159863301Y-97036878D01*
X160126550Y-96774088D01*
X160142729Y-96735125D01*
X160185167Y-96735162D01*
X160528943Y-96593117D01*
X160792192Y-96330327D01*
X160899507Y-96071885D01*
X160899196Y-96428928D01*
X161041241Y-96772704D01*
X161304031Y-97035953D01*
X161647559Y-97178599D01*
X162019525Y-97178923D01*
X162363301Y-97036878D01*
X162626550Y-96774088D01*
X162642729Y-96735125D01*
X162685167Y-96735162D01*
X163028943Y-96593117D01*
X163193418Y-96428928D01*
X165899196Y-96428928D01*
X166041241Y-96772704D01*
X166304031Y-97035953D01*
X166647559Y-97178599D01*
X167019525Y-97178923D01*
X167363301Y-97036878D01*
X167519672Y-96880779D01*
X172469226Y-96880779D01*
X172611271Y-97224555D01*
X172874061Y-97487804D01*
X173217589Y-97630450D01*
X173589555Y-97630774D01*
X173933331Y-97488729D01*
X174196580Y-97225939D01*
X174339226Y-96882411D01*
X174339550Y-96510445D01*
X174305285Y-96427517D01*
X174469673Y-96592192D01*
X174813201Y-96734838D01*
X175185167Y-96735162D01*
X175528943Y-96593117D01*
X175736892Y-96385530D01*
X176365660Y-96385530D01*
X176507705Y-96729306D01*
X176770495Y-96992555D01*
X177114023Y-97135201D01*
X177485989Y-97135525D01*
X177829765Y-96993480D01*
X178088899Y-96734798D01*
X178185360Y-96734882D01*
X178529136Y-96592837D01*
X178737168Y-96385167D01*
X181564838Y-96385167D01*
X181706883Y-96728943D01*
X181969673Y-96992192D01*
X182313201Y-97134838D01*
X182685167Y-97135162D01*
X183028943Y-96993117D01*
X183292192Y-96730327D01*
X183434838Y-96386799D01*
X183435162Y-96014833D01*
X183293117Y-95671057D01*
X183030327Y-95407808D01*
X182686799Y-95265162D01*
X182314833Y-95264838D01*
X181971057Y-95406883D01*
X181707808Y-95669673D01*
X181565162Y-96013201D01*
X181564838Y-96385167D01*
X178737168Y-96385167D01*
X178792385Y-96330047D01*
X178935031Y-95986519D01*
X178935355Y-95614553D01*
X178793310Y-95270777D01*
X178530520Y-95007528D01*
X178186992Y-94864882D01*
X177815026Y-94864558D01*
X177471250Y-95006603D01*
X177212116Y-95265285D01*
X177115655Y-95265201D01*
X176771879Y-95407246D01*
X176508630Y-95670036D01*
X176365984Y-96013564D01*
X176365660Y-96385530D01*
X175736892Y-96385530D01*
X175792192Y-96330327D01*
X175934838Y-95986799D01*
X175935162Y-95614833D01*
X175793117Y-95271057D01*
X175530327Y-95007808D01*
X175186799Y-94865162D01*
X174814833Y-94864838D01*
X174471057Y-95006883D01*
X174207808Y-95269673D01*
X174065162Y-95613201D01*
X174064838Y-95985167D01*
X174099103Y-96068095D01*
X173934715Y-95903420D01*
X173591187Y-95760774D01*
X173219221Y-95760450D01*
X172875445Y-95902495D01*
X172612196Y-96165285D01*
X172469550Y-96508813D01*
X172469226Y-96880779D01*
X167519672Y-96880779D01*
X167626550Y-96774088D01*
X167642729Y-96735125D01*
X167685167Y-96735162D01*
X168028943Y-96593117D01*
X168292192Y-96330327D01*
X168434838Y-95986799D01*
X168434839Y-95985167D01*
X169064838Y-95985167D01*
X169206883Y-96328943D01*
X169469673Y-96592192D01*
X169813201Y-96734838D01*
X170185167Y-96735162D01*
X170528943Y-96593117D01*
X170792192Y-96330327D01*
X170934838Y-95986799D01*
X170935162Y-95614833D01*
X170793117Y-95271057D01*
X170530327Y-95007808D01*
X170186799Y-94865162D01*
X169814833Y-94864838D01*
X169471057Y-95006883D01*
X169207808Y-95269673D01*
X169065162Y-95613201D01*
X169064838Y-95985167D01*
X168434839Y-95985167D01*
X168435162Y-95614833D01*
X168293117Y-95271057D01*
X168030327Y-95007808D01*
X167686799Y-94865162D01*
X167314833Y-94864838D01*
X166971057Y-95006883D01*
X166707808Y-95269673D01*
X166691629Y-95308636D01*
X166649191Y-95308599D01*
X166305415Y-95450644D01*
X166042166Y-95713434D01*
X165899520Y-96056962D01*
X165899196Y-96428928D01*
X163193418Y-96428928D01*
X163292192Y-96330327D01*
X163434838Y-95986799D01*
X163435162Y-95614833D01*
X163293117Y-95271057D01*
X163030327Y-95007808D01*
X162686799Y-94865162D01*
X162314833Y-94864838D01*
X161971057Y-95006883D01*
X161707808Y-95269673D01*
X161691629Y-95308636D01*
X161649191Y-95308599D01*
X161305415Y-95450644D01*
X161042166Y-95713434D01*
X160934851Y-95971876D01*
X160935162Y-95614833D01*
X160793117Y-95271057D01*
X160530327Y-95007808D01*
X160186799Y-94865162D01*
X159814833Y-94864838D01*
X159471057Y-95006883D01*
X159207808Y-95269673D01*
X159191629Y-95308636D01*
X159149191Y-95308599D01*
X158805415Y-95450644D01*
X158542166Y-95713434D01*
X158399520Y-96056962D01*
X158399196Y-96428928D01*
X154458348Y-96428928D01*
X154393117Y-96271057D01*
X154130327Y-96007808D01*
X153786799Y-95865162D01*
X153414833Y-95864838D01*
X153071057Y-96006883D01*
X152807808Y-96269673D01*
X152665162Y-96613201D01*
X152664838Y-96985167D01*
X149607377Y-96985167D01*
X149430327Y-96807808D01*
X149086799Y-96665162D01*
X148714833Y-96664838D01*
X148371057Y-96806883D01*
X148107808Y-97069673D01*
X147965162Y-97413201D01*
X147964838Y-97785167D01*
X117710000Y-97785167D01*
X117710000Y-96385167D01*
X138364838Y-96385167D01*
X138506883Y-96728943D01*
X138769673Y-96992192D01*
X139113201Y-97134838D01*
X139485167Y-97135162D01*
X139828943Y-96993117D01*
X140087434Y-96735077D01*
X140185167Y-96735162D01*
X140528943Y-96593117D01*
X140792192Y-96330327D01*
X140865039Y-96154894D01*
X140864838Y-96385167D01*
X141006883Y-96728943D01*
X141269673Y-96992192D01*
X141613201Y-97134838D01*
X141985167Y-97135162D01*
X142328943Y-96993117D01*
X142587434Y-96735077D01*
X142685167Y-96735162D01*
X143028943Y-96593117D01*
X143292192Y-96330327D01*
X143434838Y-95986799D01*
X143435084Y-95703950D01*
X145155806Y-95703950D01*
X145297851Y-96047726D01*
X145560641Y-96310975D01*
X145904169Y-96453621D01*
X146276135Y-96453945D01*
X146619911Y-96311900D01*
X146883160Y-96049110D01*
X146916748Y-95968220D01*
X148864838Y-95968220D01*
X149006883Y-96311996D01*
X149269673Y-96575245D01*
X149613201Y-96717891D01*
X149985167Y-96718215D01*
X150328943Y-96576170D01*
X150592192Y-96313380D01*
X150734838Y-95969852D01*
X150735162Y-95597886D01*
X150593117Y-95254110D01*
X150330327Y-94990861D01*
X149986799Y-94848215D01*
X149614833Y-94847891D01*
X149271057Y-94989936D01*
X149007808Y-95252726D01*
X148865162Y-95596254D01*
X148864838Y-95968220D01*
X146916748Y-95968220D01*
X147025806Y-95705582D01*
X147026130Y-95333616D01*
X146884085Y-94989840D01*
X146621295Y-94726591D01*
X146277767Y-94583945D01*
X145905801Y-94583621D01*
X145562025Y-94725666D01*
X145298776Y-94988456D01*
X145156130Y-95331984D01*
X145155806Y-95703950D01*
X143435084Y-95703950D01*
X143435162Y-95614833D01*
X143293117Y-95271057D01*
X143030327Y-95007808D01*
X142686799Y-94865162D01*
X142314833Y-94864838D01*
X141971057Y-95006883D01*
X141712566Y-95264923D01*
X141614833Y-95264838D01*
X141271057Y-95406883D01*
X141007808Y-95669673D01*
X140934961Y-95845106D01*
X140935162Y-95614833D01*
X140793117Y-95271057D01*
X140530327Y-95007808D01*
X140186799Y-94865162D01*
X139814833Y-94864838D01*
X139471057Y-95006883D01*
X139212566Y-95264923D01*
X139114833Y-95264838D01*
X138771057Y-95406883D01*
X138507808Y-95669673D01*
X138365162Y-96013201D01*
X138364838Y-96385167D01*
X117710000Y-96385167D01*
X117710000Y-94285167D01*
X155464838Y-94285167D01*
X155606883Y-94628943D01*
X155869673Y-94892192D01*
X156213201Y-95034838D01*
X156585167Y-95035162D01*
X156928943Y-94893117D01*
X157192192Y-94630327D01*
X157252467Y-94485167D01*
X179864838Y-94485167D01*
X180006883Y-94828943D01*
X180269673Y-95092192D01*
X180613201Y-95234838D01*
X180985167Y-95235162D01*
X181328943Y-95093117D01*
X181592192Y-94830327D01*
X181734838Y-94486799D01*
X181734839Y-94485167D01*
X185539838Y-94485167D01*
X185681883Y-94828943D01*
X185944673Y-95092192D01*
X186288201Y-95234838D01*
X186660167Y-95235162D01*
X187003943Y-95093117D01*
X187267192Y-94830327D01*
X187336560Y-94663271D01*
X187336560Y-94863600D01*
X187380838Y-95098917D01*
X187519910Y-95315041D01*
X187732110Y-95460031D01*
X187773439Y-95468400D01*
X187755585Y-95480330D01*
X187430729Y-95966511D01*
X187316655Y-96540000D01*
X187430729Y-97113489D01*
X187755585Y-97599670D01*
X188065069Y-97806461D01*
X187649268Y-98177964D01*
X187395291Y-98705209D01*
X187392642Y-98720974D01*
X187513783Y-98953000D01*
X188873000Y-98953000D01*
X188873000Y-98933000D01*
X189127000Y-98933000D01*
X189127000Y-98953000D01*
X190486217Y-98953000D01*
X190607358Y-98720974D01*
X190604709Y-98705209D01*
X190350732Y-98177964D01*
X189934931Y-97806461D01*
X190244415Y-97599670D01*
X190569271Y-97113489D01*
X190683345Y-96540000D01*
X190569271Y-95966511D01*
X190244415Y-95480330D01*
X190230087Y-95470757D01*
X190251317Y-95466762D01*
X190467441Y-95327690D01*
X190612431Y-95115490D01*
X190663440Y-94863600D01*
X190663440Y-93136400D01*
X190619162Y-92901083D01*
X190480090Y-92684959D01*
X190267890Y-92539969D01*
X190016000Y-92488960D01*
X187984000Y-92488960D01*
X187748683Y-92533238D01*
X187532559Y-92672310D01*
X187387569Y-92884510D01*
X187336560Y-93136400D01*
X187336560Y-93936702D01*
X187268117Y-93771057D01*
X187005327Y-93507808D01*
X186661799Y-93365162D01*
X186289833Y-93364838D01*
X185946057Y-93506883D01*
X185682808Y-93769673D01*
X185540162Y-94113201D01*
X185539838Y-94485167D01*
X181734839Y-94485167D01*
X181735162Y-94114833D01*
X181593117Y-93771057D01*
X181330327Y-93507808D01*
X180986799Y-93365162D01*
X180614833Y-93364838D01*
X180271057Y-93506883D01*
X180007808Y-93769673D01*
X179865162Y-94113201D01*
X179864838Y-94485167D01*
X157252467Y-94485167D01*
X157334838Y-94286799D01*
X157335162Y-93914833D01*
X157193117Y-93571057D01*
X156930327Y-93307808D01*
X156586799Y-93165162D01*
X156214833Y-93164838D01*
X155871057Y-93306883D01*
X155607808Y-93569673D01*
X155465162Y-93913201D01*
X155464838Y-94285167D01*
X117710000Y-94285167D01*
X117710000Y-87485167D01*
X120464838Y-87485167D01*
X120606883Y-87828943D01*
X120869673Y-88092192D01*
X121213201Y-88234838D01*
X121585167Y-88235162D01*
X121928943Y-88093117D01*
X122179661Y-87842836D01*
X123523000Y-87842836D01*
X123523000Y-88917164D01*
X123629340Y-89451773D01*
X123932172Y-89904992D01*
X124385391Y-90207824D01*
X124920000Y-90314164D01*
X125454609Y-90207824D01*
X125907828Y-89904992D01*
X126190000Y-89482693D01*
X126472172Y-89904992D01*
X126925391Y-90207824D01*
X127460000Y-90314164D01*
X127994609Y-90207824D01*
X128447828Y-89904992D01*
X128730000Y-89482693D01*
X129012172Y-89904992D01*
X129465391Y-90207824D01*
X130000000Y-90314164D01*
X130534609Y-90207824D01*
X130987828Y-89904992D01*
X131270000Y-89482693D01*
X131552172Y-89904992D01*
X132005391Y-90207824D01*
X132540000Y-90314164D01*
X133074609Y-90207824D01*
X133527828Y-89904992D01*
X133810000Y-89482693D01*
X134092172Y-89904992D01*
X134545391Y-90207824D01*
X135080000Y-90314164D01*
X135614609Y-90207824D01*
X136067828Y-89904992D01*
X136370660Y-89451773D01*
X136477000Y-88917164D01*
X136477000Y-87842836D01*
X138523000Y-87842836D01*
X138523000Y-88917164D01*
X138629340Y-89451773D01*
X138932172Y-89904992D01*
X139385391Y-90207824D01*
X139920000Y-90314164D01*
X140454609Y-90207824D01*
X140907828Y-89904992D01*
X141190000Y-89482693D01*
X141472172Y-89904992D01*
X141925391Y-90207824D01*
X142460000Y-90314164D01*
X142994609Y-90207824D01*
X143447828Y-89904992D01*
X143730000Y-89482693D01*
X144012172Y-89904992D01*
X144465391Y-90207824D01*
X145000000Y-90314164D01*
X145534609Y-90207824D01*
X145987828Y-89904992D01*
X146270000Y-89482693D01*
X146552172Y-89904992D01*
X147005391Y-90207824D01*
X147540000Y-90314164D01*
X148074609Y-90207824D01*
X148527828Y-89904992D01*
X148810000Y-89482693D01*
X149092172Y-89904992D01*
X149545391Y-90207824D01*
X150080000Y-90314164D01*
X150614609Y-90207824D01*
X151067828Y-89904992D01*
X151370660Y-89451773D01*
X151477000Y-88917164D01*
X151477000Y-87842836D01*
X158523000Y-87842836D01*
X158523000Y-88917164D01*
X158629340Y-89451773D01*
X158932172Y-89904992D01*
X159385391Y-90207824D01*
X159920000Y-90314164D01*
X160454609Y-90207824D01*
X160907828Y-89904992D01*
X161190000Y-89482693D01*
X161472172Y-89904992D01*
X161925391Y-90207824D01*
X162460000Y-90314164D01*
X162994609Y-90207824D01*
X163447828Y-89904992D01*
X163730000Y-89482693D01*
X164012172Y-89904992D01*
X164465391Y-90207824D01*
X165000000Y-90314164D01*
X165534609Y-90207824D01*
X165987828Y-89904992D01*
X166270000Y-89482693D01*
X166552172Y-89904992D01*
X167005391Y-90207824D01*
X167540000Y-90314164D01*
X168074609Y-90207824D01*
X168527828Y-89904992D01*
X168810000Y-89482693D01*
X169092172Y-89904992D01*
X169545391Y-90207824D01*
X170080000Y-90314164D01*
X170614609Y-90207824D01*
X171067828Y-89904992D01*
X171370660Y-89451773D01*
X171477000Y-88917164D01*
X171477000Y-87842836D01*
X173523000Y-87842836D01*
X173523000Y-88917164D01*
X173629340Y-89451773D01*
X173932172Y-89904992D01*
X174385391Y-90207824D01*
X174920000Y-90314164D01*
X175454609Y-90207824D01*
X175907828Y-89904992D01*
X176190000Y-89482693D01*
X176472172Y-89904992D01*
X176925391Y-90207824D01*
X177460000Y-90314164D01*
X177994609Y-90207824D01*
X178447828Y-89904992D01*
X178730000Y-89482693D01*
X179012172Y-89904992D01*
X179465391Y-90207824D01*
X180000000Y-90314164D01*
X180534609Y-90207824D01*
X180987828Y-89904992D01*
X181270000Y-89482693D01*
X181552172Y-89904992D01*
X182005391Y-90207824D01*
X182540000Y-90314164D01*
X183074609Y-90207824D01*
X183527828Y-89904992D01*
X183810000Y-89482693D01*
X184092172Y-89904992D01*
X184545391Y-90207824D01*
X185080000Y-90314164D01*
X185614609Y-90207824D01*
X186067828Y-89904992D01*
X186370660Y-89451773D01*
X186477000Y-88917164D01*
X186477000Y-87842836D01*
X186370660Y-87308227D01*
X186067828Y-86855008D01*
X185614609Y-86552176D01*
X185080000Y-86445836D01*
X184545391Y-86552176D01*
X184092172Y-86855008D01*
X183810000Y-87277307D01*
X183527828Y-86855008D01*
X183074609Y-86552176D01*
X182540000Y-86445836D01*
X182005391Y-86552176D01*
X181552172Y-86855008D01*
X181270000Y-87277307D01*
X180987828Y-86855008D01*
X180534609Y-86552176D01*
X180000000Y-86445836D01*
X179465391Y-86552176D01*
X179012172Y-86855008D01*
X178730000Y-87277307D01*
X178447828Y-86855008D01*
X177994609Y-86552176D01*
X177460000Y-86445836D01*
X176925391Y-86552176D01*
X176472172Y-86855008D01*
X176190000Y-87277307D01*
X175907828Y-86855008D01*
X175454609Y-86552176D01*
X174920000Y-86445836D01*
X174385391Y-86552176D01*
X173932172Y-86855008D01*
X173629340Y-87308227D01*
X173523000Y-87842836D01*
X171477000Y-87842836D01*
X171370660Y-87308227D01*
X171067828Y-86855008D01*
X170614609Y-86552176D01*
X170080000Y-86445836D01*
X169545391Y-86552176D01*
X169092172Y-86855008D01*
X168810000Y-87277307D01*
X168527828Y-86855008D01*
X168074609Y-86552176D01*
X167540000Y-86445836D01*
X167005391Y-86552176D01*
X166552172Y-86855008D01*
X166270000Y-87277307D01*
X165987828Y-86855008D01*
X165534609Y-86552176D01*
X165000000Y-86445836D01*
X164465391Y-86552176D01*
X164012172Y-86855008D01*
X163730000Y-87277307D01*
X163447828Y-86855008D01*
X162994609Y-86552176D01*
X162460000Y-86445836D01*
X161925391Y-86552176D01*
X161472172Y-86855008D01*
X161190000Y-87277307D01*
X160907828Y-86855008D01*
X160454609Y-86552176D01*
X159920000Y-86445836D01*
X159385391Y-86552176D01*
X158932172Y-86855008D01*
X158629340Y-87308227D01*
X158523000Y-87842836D01*
X151477000Y-87842836D01*
X151370660Y-87308227D01*
X151067828Y-86855008D01*
X150614609Y-86552176D01*
X150080000Y-86445836D01*
X149545391Y-86552176D01*
X149092172Y-86855008D01*
X148810000Y-87277307D01*
X148527828Y-86855008D01*
X148074609Y-86552176D01*
X147540000Y-86445836D01*
X147005391Y-86552176D01*
X146552172Y-86855008D01*
X146270000Y-87277307D01*
X145987828Y-86855008D01*
X145534609Y-86552176D01*
X145000000Y-86445836D01*
X144465391Y-86552176D01*
X144012172Y-86855008D01*
X143730000Y-87277307D01*
X143447828Y-86855008D01*
X142994609Y-86552176D01*
X142460000Y-86445836D01*
X141925391Y-86552176D01*
X141472172Y-86855008D01*
X141190000Y-87277307D01*
X140907828Y-86855008D01*
X140454609Y-86552176D01*
X139920000Y-86445836D01*
X139385391Y-86552176D01*
X138932172Y-86855008D01*
X138629340Y-87308227D01*
X138523000Y-87842836D01*
X136477000Y-87842836D01*
X136370660Y-87308227D01*
X136067828Y-86855008D01*
X135614609Y-86552176D01*
X135080000Y-86445836D01*
X134545391Y-86552176D01*
X134092172Y-86855008D01*
X133810000Y-87277307D01*
X133527828Y-86855008D01*
X133074609Y-86552176D01*
X132540000Y-86445836D01*
X132005391Y-86552176D01*
X131552172Y-86855008D01*
X131270000Y-87277307D01*
X130987828Y-86855008D01*
X130534609Y-86552176D01*
X130000000Y-86445836D01*
X129465391Y-86552176D01*
X129012172Y-86855008D01*
X128730000Y-87277307D01*
X128447828Y-86855008D01*
X127994609Y-86552176D01*
X127460000Y-86445836D01*
X126925391Y-86552176D01*
X126472172Y-86855008D01*
X126190000Y-87277307D01*
X125907828Y-86855008D01*
X125454609Y-86552176D01*
X124920000Y-86445836D01*
X124385391Y-86552176D01*
X123932172Y-86855008D01*
X123629340Y-87308227D01*
X123523000Y-87842836D01*
X122179661Y-87842836D01*
X122192192Y-87830327D01*
X122334838Y-87486799D01*
X122335162Y-87114833D01*
X122193117Y-86771057D01*
X121930327Y-86507808D01*
X121586799Y-86365162D01*
X121214833Y-86364838D01*
X120871057Y-86506883D01*
X120607808Y-86769673D01*
X120465162Y-87113201D01*
X120464838Y-87485167D01*
X117710000Y-87485167D01*
X117710000Y-86000000D01*
X117696358Y-85931416D01*
X117696358Y-85861486D01*
X117620238Y-85478804D01*
X117519339Y-85235214D01*
X117514223Y-85222862D01*
X117422219Y-85085167D01*
X120464838Y-85085167D01*
X120606883Y-85428943D01*
X120869673Y-85692192D01*
X121213201Y-85834838D01*
X121585167Y-85835162D01*
X121928943Y-85693117D01*
X122192192Y-85430327D01*
X122334838Y-85086799D01*
X122335162Y-84714833D01*
X122193117Y-84371057D01*
X121930327Y-84107808D01*
X121634977Y-83985167D01*
X123964838Y-83985167D01*
X124106883Y-84328943D01*
X124369673Y-84592192D01*
X124713201Y-84734838D01*
X125085167Y-84735162D01*
X125428943Y-84593117D01*
X125692192Y-84330327D01*
X125727797Y-84244579D01*
X133724786Y-84244579D01*
X133912408Y-84698657D01*
X134259515Y-85046371D01*
X134713266Y-85234785D01*
X135204579Y-85235214D01*
X135658657Y-85047592D01*
X136006371Y-84700485D01*
X136194785Y-84246734D01*
X136194786Y-84244579D01*
X136264786Y-84244579D01*
X136452408Y-84698657D01*
X136799515Y-85046371D01*
X137253266Y-85234785D01*
X137744579Y-85235214D01*
X138198657Y-85047592D01*
X138546371Y-84700485D01*
X138734785Y-84246734D01*
X138734786Y-84244579D01*
X138804786Y-84244579D01*
X138992408Y-84698657D01*
X139339515Y-85046371D01*
X139793266Y-85234785D01*
X140284579Y-85235214D01*
X140738657Y-85047592D01*
X141086371Y-84700485D01*
X141274785Y-84246734D01*
X141275013Y-83985167D01*
X148964838Y-83985167D01*
X149106883Y-84328943D01*
X149369673Y-84592192D01*
X149713201Y-84734838D01*
X150085167Y-84735162D01*
X150428943Y-84593117D01*
X150692192Y-84330327D01*
X150755901Y-84176899D01*
X164239837Y-84176899D01*
X164381882Y-84520675D01*
X164644672Y-84783924D01*
X164988200Y-84926570D01*
X165360166Y-84926894D01*
X165703942Y-84784849D01*
X165967191Y-84522059D01*
X166082411Y-84244579D01*
X168724786Y-84244579D01*
X168912408Y-84698657D01*
X169259515Y-85046371D01*
X169713266Y-85234785D01*
X170204579Y-85235214D01*
X170658657Y-85047592D01*
X171006371Y-84700485D01*
X171194785Y-84246734D01*
X171194786Y-84244579D01*
X171264786Y-84244579D01*
X171452408Y-84698657D01*
X171799515Y-85046371D01*
X172253266Y-85234785D01*
X172744579Y-85235214D01*
X173198657Y-85047592D01*
X173546371Y-84700485D01*
X173734785Y-84246734D01*
X173734786Y-84244579D01*
X173804786Y-84244579D01*
X173992408Y-84698657D01*
X174339515Y-85046371D01*
X174793266Y-85234785D01*
X175284579Y-85235214D01*
X175647718Y-85085167D01*
X187164838Y-85085167D01*
X187306883Y-85428943D01*
X187569673Y-85692192D01*
X187913201Y-85834838D01*
X188285167Y-85835162D01*
X188628943Y-85693117D01*
X188892192Y-85430327D01*
X189034838Y-85086799D01*
X189035162Y-84714833D01*
X188893117Y-84371057D01*
X188630327Y-84107808D01*
X188286799Y-83965162D01*
X187914833Y-83964838D01*
X187571057Y-84106883D01*
X187307808Y-84369673D01*
X187165162Y-84713201D01*
X187164838Y-85085167D01*
X175647718Y-85085167D01*
X175738657Y-85047592D01*
X176086371Y-84700485D01*
X176274785Y-84246734D01*
X176275013Y-83985167D01*
X181664838Y-83985167D01*
X181806883Y-84328943D01*
X182069673Y-84592192D01*
X182413201Y-84734838D01*
X182785167Y-84735162D01*
X183128943Y-84593117D01*
X183392192Y-84330327D01*
X183534838Y-83986799D01*
X183535162Y-83614833D01*
X183393117Y-83271057D01*
X183130327Y-83007808D01*
X182786799Y-82865162D01*
X182414833Y-82864838D01*
X182071057Y-83006883D01*
X181807808Y-83269673D01*
X181665162Y-83613201D01*
X181664838Y-83985167D01*
X176275013Y-83985167D01*
X176275214Y-83755421D01*
X176087592Y-83301343D01*
X175740485Y-82953629D01*
X175286734Y-82765215D01*
X174795421Y-82764786D01*
X174341343Y-82952408D01*
X173993629Y-83299515D01*
X173805215Y-83753266D01*
X173804786Y-84244579D01*
X173734786Y-84244579D01*
X173735214Y-83755421D01*
X173547592Y-83301343D01*
X173200485Y-82953629D01*
X172746734Y-82765215D01*
X172255421Y-82764786D01*
X171801343Y-82952408D01*
X171453629Y-83299515D01*
X171265215Y-83753266D01*
X171264786Y-84244579D01*
X171194786Y-84244579D01*
X171195214Y-83755421D01*
X171007592Y-83301343D01*
X170660485Y-82953629D01*
X170206734Y-82765215D01*
X169715421Y-82764786D01*
X169261343Y-82952408D01*
X168913629Y-83299515D01*
X168725215Y-83753266D01*
X168724786Y-84244579D01*
X166082411Y-84244579D01*
X166109837Y-84178531D01*
X166110161Y-83806565D01*
X165968116Y-83462789D01*
X165705326Y-83199540D01*
X165361798Y-83056894D01*
X164989832Y-83056570D01*
X164646056Y-83198615D01*
X164382807Y-83461405D01*
X164240161Y-83804933D01*
X164239837Y-84176899D01*
X150755901Y-84176899D01*
X150834838Y-83986799D01*
X150835162Y-83614833D01*
X150693117Y-83271057D01*
X150430327Y-83007808D01*
X150086799Y-82865162D01*
X149714833Y-82864838D01*
X149371057Y-83006883D01*
X149107808Y-83269673D01*
X148965162Y-83613201D01*
X148964838Y-83985167D01*
X141275013Y-83985167D01*
X141275214Y-83755421D01*
X141087592Y-83301343D01*
X140740485Y-82953629D01*
X140286734Y-82765215D01*
X139795421Y-82764786D01*
X139341343Y-82952408D01*
X138993629Y-83299515D01*
X138805215Y-83753266D01*
X138804786Y-84244579D01*
X138734786Y-84244579D01*
X138735214Y-83755421D01*
X138547592Y-83301343D01*
X138200485Y-82953629D01*
X137746734Y-82765215D01*
X137255421Y-82764786D01*
X136801343Y-82952408D01*
X136453629Y-83299515D01*
X136265215Y-83753266D01*
X136264786Y-84244579D01*
X136194786Y-84244579D01*
X136195214Y-83755421D01*
X136007592Y-83301343D01*
X135660485Y-82953629D01*
X135206734Y-82765215D01*
X134715421Y-82764786D01*
X134261343Y-82952408D01*
X133913629Y-83299515D01*
X133725215Y-83753266D01*
X133724786Y-84244579D01*
X125727797Y-84244579D01*
X125834838Y-83986799D01*
X125835162Y-83614833D01*
X125693117Y-83271057D01*
X125430327Y-83007808D01*
X125086799Y-82865162D01*
X124714833Y-82864838D01*
X124371057Y-83006883D01*
X124107808Y-83269673D01*
X123965162Y-83613201D01*
X123964838Y-83985167D01*
X121634977Y-83985167D01*
X121586799Y-83965162D01*
X121214833Y-83964838D01*
X120871057Y-84106883D01*
X120607808Y-84369673D01*
X120465162Y-84713201D01*
X120464838Y-85085167D01*
X117422219Y-85085167D01*
X117297451Y-84898438D01*
X117101562Y-84702550D01*
X117101561Y-84702549D01*
X116777138Y-84485776D01*
X116593368Y-84409657D01*
X116521196Y-84379762D01*
X116138515Y-84303642D01*
X116138514Y-84303642D01*
X114746295Y-84026712D01*
X113683454Y-83316546D01*
X112973288Y-82253707D01*
X112800525Y-81385167D01*
X129764838Y-81385167D01*
X129906883Y-81728943D01*
X130169673Y-81992192D01*
X130513201Y-82134838D01*
X130885167Y-82135162D01*
X131228943Y-81993117D01*
X131492192Y-81730327D01*
X131634838Y-81386799D01*
X131635010Y-81189038D01*
X142564838Y-81189038D01*
X142706883Y-81532814D01*
X142969673Y-81796063D01*
X143313201Y-81938709D01*
X143685167Y-81939033D01*
X144028943Y-81796988D01*
X144087955Y-81738079D01*
X144145838Y-81796063D01*
X144489366Y-81938709D01*
X144861332Y-81939033D01*
X145077118Y-81849872D01*
X145291059Y-81938709D01*
X145663025Y-81939033D01*
X146006801Y-81796988D01*
X146270050Y-81534198D01*
X146412696Y-81190670D01*
X146412700Y-81185178D01*
X146692728Y-81185178D01*
X146834773Y-81528954D01*
X147097563Y-81792203D01*
X147441091Y-81934849D01*
X147813057Y-81935173D01*
X148109602Y-81812643D01*
X148413201Y-81938709D01*
X148785167Y-81939033D01*
X149128943Y-81796988D01*
X149249981Y-81676161D01*
X149369673Y-81796063D01*
X149713201Y-81938709D01*
X150085167Y-81939033D01*
X150428943Y-81796988D01*
X150499893Y-81726161D01*
X150569673Y-81796063D01*
X150913201Y-81938709D01*
X151285167Y-81939033D01*
X151628943Y-81796988D01*
X151749981Y-81676161D01*
X151869673Y-81796063D01*
X152213201Y-81938709D01*
X152585167Y-81939033D01*
X152928943Y-81796988D01*
X153192192Y-81534198D01*
X153334838Y-81190670D01*
X153334866Y-81158456D01*
X156664838Y-81158456D01*
X156806883Y-81502232D01*
X157069673Y-81765481D01*
X157413201Y-81908127D01*
X157785167Y-81908451D01*
X158068367Y-81791435D01*
X158072986Y-81796062D01*
X158416514Y-81938708D01*
X158788480Y-81939032D01*
X159044017Y-81833446D01*
X159288201Y-81934841D01*
X159660167Y-81935165D01*
X160003943Y-81793120D01*
X160267192Y-81530330D01*
X160409838Y-81186802D01*
X160409862Y-81158467D01*
X160689870Y-81158467D01*
X160831915Y-81502243D01*
X161094705Y-81765492D01*
X161438233Y-81908138D01*
X161810199Y-81908462D01*
X162112850Y-81783410D01*
X162413201Y-81908127D01*
X162785167Y-81908451D01*
X163128943Y-81766406D01*
X163249981Y-81645579D01*
X163369673Y-81765481D01*
X163713201Y-81908127D01*
X164085167Y-81908451D01*
X164428943Y-81766406D01*
X164499893Y-81695579D01*
X164569673Y-81765481D01*
X164913201Y-81908127D01*
X165285167Y-81908451D01*
X165628943Y-81766406D01*
X165734690Y-81660844D01*
X165869673Y-81796063D01*
X166213201Y-81938709D01*
X166585167Y-81939033D01*
X166928943Y-81796988D01*
X167192192Y-81534198D01*
X167254405Y-81384372D01*
X176565036Y-81384372D01*
X176654087Y-81599893D01*
X176565839Y-81812418D01*
X176565515Y-82184384D01*
X176707560Y-82528160D01*
X176970350Y-82791409D01*
X177313878Y-82934055D01*
X177685844Y-82934379D01*
X178029620Y-82792334D01*
X178292869Y-82529544D01*
X178435515Y-82186016D01*
X178435624Y-82060596D01*
X178614107Y-82134709D01*
X178986073Y-82135033D01*
X179329849Y-81992988D01*
X179593098Y-81730198D01*
X179735744Y-81386670D01*
X179735745Y-81385167D01*
X180464838Y-81385167D01*
X180606883Y-81728943D01*
X180869673Y-81992192D01*
X181213201Y-82134838D01*
X181585167Y-82135162D01*
X181928943Y-81993117D01*
X181986993Y-81935168D01*
X182069673Y-82017993D01*
X182413201Y-82160639D01*
X182785167Y-82160963D01*
X183128943Y-82018918D01*
X183392192Y-81756128D01*
X183508580Y-81475836D01*
X183611326Y-81724500D01*
X183874116Y-81987749D01*
X184217644Y-82130395D01*
X184589610Y-82130719D01*
X184899338Y-82002742D01*
X185214936Y-82133791D01*
X185586902Y-82134115D01*
X185930678Y-81992070D01*
X186026149Y-81896765D01*
X186121410Y-81992192D01*
X186464938Y-82134838D01*
X186836904Y-82135162D01*
X187180680Y-81993117D01*
X187443929Y-81730327D01*
X187586575Y-81386799D01*
X187586899Y-81014833D01*
X187574642Y-80985167D01*
X188564838Y-80985167D01*
X188706883Y-81328943D01*
X188969673Y-81592192D01*
X189313201Y-81734838D01*
X189685167Y-81735162D01*
X190028943Y-81593117D01*
X190292192Y-81330327D01*
X190434838Y-80986799D01*
X190435162Y-80614833D01*
X190293117Y-80271057D01*
X190030327Y-80007808D01*
X189686799Y-79865162D01*
X189314833Y-79864838D01*
X188971057Y-80006883D01*
X188707808Y-80269673D01*
X188565162Y-80613201D01*
X188564838Y-80985167D01*
X187574642Y-80985167D01*
X187444854Y-80671057D01*
X187182064Y-80407808D01*
X186838536Y-80265162D01*
X186466570Y-80264838D01*
X186122794Y-80406883D01*
X186027323Y-80502188D01*
X185932062Y-80406761D01*
X185588534Y-80264115D01*
X185216568Y-80263791D01*
X184906840Y-80391768D01*
X184591242Y-80260719D01*
X184219276Y-80260395D01*
X183875500Y-80402440D01*
X183612251Y-80665230D01*
X183495863Y-80945522D01*
X183393117Y-80696858D01*
X183130327Y-80433609D01*
X182786799Y-80290963D01*
X182414833Y-80290639D01*
X182071057Y-80432684D01*
X182013007Y-80490633D01*
X181930327Y-80407808D01*
X181586799Y-80265162D01*
X181214833Y-80264838D01*
X180871057Y-80406883D01*
X180607808Y-80669673D01*
X180465162Y-81013201D01*
X180464838Y-81385167D01*
X179735745Y-81385167D01*
X179736068Y-81014704D01*
X179594023Y-80670928D01*
X179331233Y-80407679D01*
X178987705Y-80265033D01*
X178615739Y-80264709D01*
X178271963Y-80406754D01*
X178150904Y-80527602D01*
X178030525Y-80407013D01*
X177686997Y-80264367D01*
X177315031Y-80264043D01*
X176971255Y-80406088D01*
X176708006Y-80668878D01*
X176565360Y-81012406D01*
X176565036Y-81384372D01*
X167254405Y-81384372D01*
X167334838Y-81190670D01*
X167335162Y-80818704D01*
X167193117Y-80474928D01*
X166930327Y-80211679D01*
X166586799Y-80069033D01*
X166214833Y-80068709D01*
X165871057Y-80210754D01*
X165765310Y-80316316D01*
X165630327Y-80181097D01*
X165286799Y-80038451D01*
X164914833Y-80038127D01*
X164571057Y-80180172D01*
X164500107Y-80250999D01*
X164430327Y-80181097D01*
X164086799Y-80038451D01*
X163714833Y-80038127D01*
X163371057Y-80180172D01*
X163250019Y-80300999D01*
X163130327Y-80181097D01*
X162786799Y-80038451D01*
X162414833Y-80038127D01*
X162112182Y-80163179D01*
X161811831Y-80038462D01*
X161439865Y-80038138D01*
X161096089Y-80180183D01*
X160832840Y-80442973D01*
X160690194Y-80786501D01*
X160689870Y-81158467D01*
X160409862Y-81158467D01*
X160410162Y-80814836D01*
X160268117Y-80471060D01*
X160005327Y-80207811D01*
X159661799Y-80065165D01*
X159289833Y-80064841D01*
X159034296Y-80170427D01*
X158790112Y-80069032D01*
X158418146Y-80068708D01*
X158134946Y-80185724D01*
X158130327Y-80181097D01*
X157786799Y-80038451D01*
X157414833Y-80038127D01*
X157071057Y-80180172D01*
X156807808Y-80442962D01*
X156665162Y-80786490D01*
X156664838Y-81158456D01*
X153334866Y-81158456D01*
X153335162Y-80818704D01*
X153193117Y-80474928D01*
X152930327Y-80211679D01*
X152586799Y-80069033D01*
X152214833Y-80068709D01*
X151871057Y-80210754D01*
X151750019Y-80331581D01*
X151630327Y-80211679D01*
X151286799Y-80069033D01*
X150914833Y-80068709D01*
X150571057Y-80210754D01*
X150500107Y-80281581D01*
X150430327Y-80211679D01*
X150086799Y-80069033D01*
X149714833Y-80068709D01*
X149371057Y-80210754D01*
X149250019Y-80331581D01*
X149130327Y-80211679D01*
X148786799Y-80069033D01*
X148414833Y-80068709D01*
X148118288Y-80191239D01*
X147814689Y-80065173D01*
X147442723Y-80064849D01*
X147098947Y-80206894D01*
X146835698Y-80469684D01*
X146693052Y-80813212D01*
X146692728Y-81185178D01*
X146412700Y-81185178D01*
X146413020Y-80818704D01*
X146270975Y-80474928D01*
X146008185Y-80211679D01*
X145664657Y-80069033D01*
X145292691Y-80068709D01*
X145076905Y-80157870D01*
X144862964Y-80069033D01*
X144490998Y-80068709D01*
X144147222Y-80210754D01*
X144088210Y-80269663D01*
X144030327Y-80211679D01*
X143686799Y-80069033D01*
X143314833Y-80068709D01*
X142971057Y-80210754D01*
X142707808Y-80473544D01*
X142565162Y-80817072D01*
X142564838Y-81189038D01*
X131635010Y-81189038D01*
X131635162Y-81014833D01*
X131493117Y-80671057D01*
X131230327Y-80407808D01*
X130886799Y-80265162D01*
X130514833Y-80264838D01*
X130171057Y-80406883D01*
X129907808Y-80669673D01*
X129765162Y-81013201D01*
X129764838Y-81385167D01*
X112800525Y-81385167D01*
X112723910Y-81000000D01*
X112973288Y-79746293D01*
X113683454Y-78683454D01*
X114746295Y-77973288D01*
X116069931Y-77710000D01*
X194430069Y-77710000D01*
X195753707Y-77973288D01*
X195753707Y-77973288D01*
G37*
X195753707Y-77973288D02*
X196816546Y-78683454D01*
X197526712Y-79746295D01*
X197776090Y-81000000D01*
X197526712Y-82253705D01*
X196816546Y-83316546D01*
X195753707Y-84026712D01*
X194361486Y-84303642D01*
X193978804Y-84379762D01*
X193884629Y-84418771D01*
X193722862Y-84485777D01*
X193398438Y-84702549D01*
X193266956Y-84834032D01*
X193202549Y-84898439D01*
X192985776Y-85222862D01*
X192935581Y-85344046D01*
X192879762Y-85478804D01*
X192803642Y-85861487D01*
X192803642Y-85931416D01*
X192790000Y-86000000D01*
X192790000Y-106000000D01*
X192803642Y-106068584D01*
X192803642Y-106138513D01*
X192879762Y-106521196D01*
X192899395Y-106568593D01*
X192985776Y-106777138D01*
X193202549Y-107101561D01*
X193202550Y-107101562D01*
X193398438Y-107297451D01*
X193722862Y-107514223D01*
X193828877Y-107558136D01*
X193978804Y-107620238D01*
X194361486Y-107696358D01*
X195753707Y-107973288D01*
X196816546Y-108683454D01*
X197526712Y-109746295D01*
X197776090Y-111000000D01*
X197526712Y-112253705D01*
X196816546Y-113316546D01*
X195753707Y-114026712D01*
X194430069Y-114290000D01*
X116069931Y-114290000D01*
X114746295Y-114026712D01*
X113683454Y-113316546D01*
X112973288Y-112253707D01*
X112723910Y-111000000D01*
X112726860Y-110985167D01*
X120864838Y-110985167D01*
X121006883Y-111328943D01*
X121269673Y-111592192D01*
X121613201Y-111734838D01*
X121985167Y-111735162D01*
X122328943Y-111593117D01*
X122592192Y-111330327D01*
X122734838Y-110986799D01*
X122735162Y-110614833D01*
X122593117Y-110271057D01*
X122330327Y-110007808D01*
X121986799Y-109865162D01*
X121614833Y-109864838D01*
X121271057Y-110006883D01*
X121007808Y-110269673D01*
X120865162Y-110613201D01*
X120864838Y-110985167D01*
X112726860Y-110985167D01*
X112973288Y-109746293D01*
X113683454Y-108683454D01*
X114129873Y-108385167D01*
X120864838Y-108385167D01*
X121006883Y-108728943D01*
X121269673Y-108992192D01*
X121613201Y-109134838D01*
X121985167Y-109135162D01*
X122328943Y-108993117D01*
X122592192Y-108730327D01*
X122734838Y-108386799D01*
X122734839Y-108385167D01*
X128464838Y-108385167D01*
X128606883Y-108728943D01*
X128869673Y-108992192D01*
X129213201Y-109134838D01*
X129585167Y-109135162D01*
X129928943Y-108993117D01*
X130192192Y-108730327D01*
X130334838Y-108386799D01*
X130334839Y-108385167D01*
X140364838Y-108385167D01*
X140506883Y-108728943D01*
X140769673Y-108992192D01*
X141113201Y-109134838D01*
X141485167Y-109135162D01*
X141828943Y-108993117D01*
X142092192Y-108730327D01*
X142234838Y-108386799D01*
X142234876Y-108342957D01*
X150007047Y-108342957D01*
X150149092Y-108686733D01*
X150411882Y-108949982D01*
X150755410Y-109092628D01*
X151127376Y-109092952D01*
X151471152Y-108950907D01*
X151734401Y-108688117D01*
X151860197Y-108385167D01*
X161864838Y-108385167D01*
X162006883Y-108728943D01*
X162269673Y-108992192D01*
X162613201Y-109134838D01*
X162985167Y-109135162D01*
X163328943Y-108993117D01*
X163592192Y-108730327D01*
X163734838Y-108386799D01*
X163734839Y-108385167D01*
X173864838Y-108385167D01*
X174006883Y-108728943D01*
X174269673Y-108992192D01*
X174613201Y-109134838D01*
X174985167Y-109135162D01*
X175328943Y-108993117D01*
X175592192Y-108730327D01*
X175734838Y-108386799D01*
X175734839Y-108385167D01*
X185864838Y-108385167D01*
X186006883Y-108728943D01*
X186269673Y-108992192D01*
X186613201Y-109134838D01*
X186985167Y-109135162D01*
X187328943Y-108993117D01*
X187592192Y-108730327D01*
X187734838Y-108386799D01*
X187735162Y-108014833D01*
X187593117Y-107671057D01*
X187330327Y-107407808D01*
X186986799Y-107265162D01*
X186614833Y-107264838D01*
X186271057Y-107406883D01*
X186007808Y-107669673D01*
X185865162Y-108013201D01*
X185864838Y-108385167D01*
X175734839Y-108385167D01*
X175735162Y-108014833D01*
X175593117Y-107671057D01*
X175330327Y-107407808D01*
X174986799Y-107265162D01*
X174614833Y-107264838D01*
X174271057Y-107406883D01*
X174007808Y-107669673D01*
X173865162Y-108013201D01*
X173864838Y-108385167D01*
X163734839Y-108385167D01*
X163735162Y-108014833D01*
X163593117Y-107671057D01*
X163330327Y-107407808D01*
X162986799Y-107265162D01*
X162614833Y-107264838D01*
X162271057Y-107406883D01*
X162007808Y-107669673D01*
X161865162Y-108013201D01*
X161864838Y-108385167D01*
X151860197Y-108385167D01*
X151877047Y-108344589D01*
X151877371Y-107972623D01*
X151735326Y-107628847D01*
X151472536Y-107365598D01*
X151129008Y-107222952D01*
X150757042Y-107222628D01*
X150413266Y-107364673D01*
X150150017Y-107627463D01*
X150007371Y-107970991D01*
X150007047Y-108342957D01*
X142234876Y-108342957D01*
X142235162Y-108014833D01*
X142093117Y-107671057D01*
X141830327Y-107407808D01*
X141486799Y-107265162D01*
X141114833Y-107264838D01*
X140771057Y-107406883D01*
X140507808Y-107669673D01*
X140365162Y-108013201D01*
X140364838Y-108385167D01*
X130334839Y-108385167D01*
X130335162Y-108014833D01*
X130193117Y-107671057D01*
X129930327Y-107407808D01*
X129586799Y-107265162D01*
X129214833Y-107264838D01*
X128871057Y-107406883D01*
X128607808Y-107669673D01*
X128465162Y-108013201D01*
X128464838Y-108385167D01*
X122734839Y-108385167D01*
X122735162Y-108014833D01*
X122593117Y-107671057D01*
X122330327Y-107407808D01*
X121986799Y-107265162D01*
X121614833Y-107264838D01*
X121271057Y-107406883D01*
X121007808Y-107669673D01*
X120865162Y-108013201D01*
X120864838Y-108385167D01*
X114129873Y-108385167D01*
X114746295Y-107973288D01*
X116138514Y-107696358D01*
X116138515Y-107696358D01*
X116521196Y-107620238D01*
X116615369Y-107581230D01*
X116777138Y-107514224D01*
X117101561Y-107297451D01*
X117176384Y-107222628D01*
X117297451Y-107101562D01*
X117514223Y-106777138D01*
X117564419Y-106655954D01*
X117620238Y-106521196D01*
X117696358Y-106138514D01*
X117696358Y-106068584D01*
X117710000Y-106000000D01*
X117710000Y-103082836D01*
X123523000Y-103082836D01*
X123523000Y-104157164D01*
X123629340Y-104691773D01*
X123932172Y-105144992D01*
X124385391Y-105447824D01*
X124920000Y-105554164D01*
X125454609Y-105447824D01*
X125907828Y-105144992D01*
X126190000Y-104722693D01*
X126472172Y-105144992D01*
X126925391Y-105447824D01*
X127460000Y-105554164D01*
X127994609Y-105447824D01*
X128447828Y-105144992D01*
X128730000Y-104722693D01*
X129012172Y-105144992D01*
X129465391Y-105447824D01*
X130000000Y-105554164D01*
X130534609Y-105447824D01*
X130987828Y-105144992D01*
X131270000Y-104722693D01*
X131552172Y-105144992D01*
X132005391Y-105447824D01*
X132540000Y-105554164D01*
X133074609Y-105447824D01*
X133527828Y-105144992D01*
X133810000Y-104722693D01*
X134092172Y-105144992D01*
X134545391Y-105447824D01*
X135080000Y-105554164D01*
X135614609Y-105447824D01*
X136067828Y-105144992D01*
X136370660Y-104691773D01*
X136477000Y-104157164D01*
X136477000Y-103082836D01*
X138523000Y-103082836D01*
X138523000Y-104157164D01*
X138629340Y-104691773D01*
X138932172Y-105144992D01*
X139385391Y-105447824D01*
X139920000Y-105554164D01*
X140454609Y-105447824D01*
X140907828Y-105144992D01*
X141190000Y-104722693D01*
X141472172Y-105144992D01*
X141925391Y-105447824D01*
X142460000Y-105554164D01*
X142994609Y-105447824D01*
X143447828Y-105144992D01*
X143730000Y-104722693D01*
X144012172Y-105144992D01*
X144465391Y-105447824D01*
X145000000Y-105554164D01*
X145534609Y-105447824D01*
X145987828Y-105144992D01*
X146270000Y-104722693D01*
X146552172Y-105144992D01*
X147005391Y-105447824D01*
X147540000Y-105554164D01*
X148074609Y-105447824D01*
X148527828Y-105144992D01*
X148810000Y-104722693D01*
X149092172Y-105144992D01*
X149545391Y-105447824D01*
X150080000Y-105554164D01*
X150614609Y-105447824D01*
X151067828Y-105144992D01*
X151370660Y-104691773D01*
X151477000Y-104157164D01*
X151477000Y-103082836D01*
X158523000Y-103082836D01*
X158523000Y-104157164D01*
X158629340Y-104691773D01*
X158932172Y-105144992D01*
X159385391Y-105447824D01*
X159920000Y-105554164D01*
X160454609Y-105447824D01*
X160907828Y-105144992D01*
X161190000Y-104722693D01*
X161472172Y-105144992D01*
X161925391Y-105447824D01*
X162460000Y-105554164D01*
X162994609Y-105447824D01*
X163447828Y-105144992D01*
X163730000Y-104722693D01*
X164012172Y-105144992D01*
X164465391Y-105447824D01*
X165000000Y-105554164D01*
X165534609Y-105447824D01*
X165987828Y-105144992D01*
X166270000Y-104722693D01*
X166552172Y-105144992D01*
X167005391Y-105447824D01*
X167540000Y-105554164D01*
X168074609Y-105447824D01*
X168527828Y-105144992D01*
X168810000Y-104722693D01*
X169092172Y-105144992D01*
X169545391Y-105447824D01*
X170080000Y-105554164D01*
X170614609Y-105447824D01*
X171067828Y-105144992D01*
X171370660Y-104691773D01*
X171477000Y-104157164D01*
X171477000Y-103082836D01*
X173523000Y-103082836D01*
X173523000Y-104157164D01*
X173629340Y-104691773D01*
X173932172Y-105144992D01*
X174385391Y-105447824D01*
X174920000Y-105554164D01*
X175454609Y-105447824D01*
X175907828Y-105144992D01*
X176190000Y-104722693D01*
X176472172Y-105144992D01*
X176925391Y-105447824D01*
X177460000Y-105554164D01*
X177994609Y-105447824D01*
X178447828Y-105144992D01*
X178730000Y-104722693D01*
X179012172Y-105144992D01*
X179465391Y-105447824D01*
X180000000Y-105554164D01*
X180534609Y-105447824D01*
X180987828Y-105144992D01*
X181270000Y-104722693D01*
X181552172Y-105144992D01*
X182005391Y-105447824D01*
X182540000Y-105554164D01*
X183074609Y-105447824D01*
X183527828Y-105144992D01*
X183810000Y-104722693D01*
X184092172Y-105144992D01*
X184545391Y-105447824D01*
X185080000Y-105554164D01*
X185614609Y-105447824D01*
X186067828Y-105144992D01*
X186370660Y-104691773D01*
X186477000Y-104157164D01*
X186477000Y-103082836D01*
X186370660Y-102548227D01*
X186067828Y-102095008D01*
X185614609Y-101792176D01*
X185080000Y-101685836D01*
X184545391Y-101792176D01*
X184092172Y-102095008D01*
X183810000Y-102517307D01*
X183527828Y-102095008D01*
X183074609Y-101792176D01*
X182540000Y-101685836D01*
X182005391Y-101792176D01*
X181552172Y-102095008D01*
X181270000Y-102517307D01*
X180987828Y-102095008D01*
X180534609Y-101792176D01*
X180000000Y-101685836D01*
X179465391Y-101792176D01*
X179012172Y-102095008D01*
X178730000Y-102517307D01*
X178447828Y-102095008D01*
X177994609Y-101792176D01*
X177460000Y-101685836D01*
X176925391Y-101792176D01*
X176472172Y-102095008D01*
X176190000Y-102517307D01*
X175907828Y-102095008D01*
X175454609Y-101792176D01*
X174920000Y-101685836D01*
X174385391Y-101792176D01*
X173932172Y-102095008D01*
X173629340Y-102548227D01*
X173523000Y-103082836D01*
X171477000Y-103082836D01*
X171370660Y-102548227D01*
X171067828Y-102095008D01*
X170614609Y-101792176D01*
X170080000Y-101685836D01*
X169545391Y-101792176D01*
X169092172Y-102095008D01*
X168810000Y-102517307D01*
X168527828Y-102095008D01*
X168074609Y-101792176D01*
X167540000Y-101685836D01*
X167005391Y-101792176D01*
X166552172Y-102095008D01*
X166270000Y-102517307D01*
X165987828Y-102095008D01*
X165534609Y-101792176D01*
X165000000Y-101685836D01*
X164465391Y-101792176D01*
X164012172Y-102095008D01*
X163730000Y-102517307D01*
X163447828Y-102095008D01*
X162994609Y-101792176D01*
X162460000Y-101685836D01*
X161925391Y-101792176D01*
X161472172Y-102095008D01*
X161190000Y-102517307D01*
X160907828Y-102095008D01*
X160454609Y-101792176D01*
X159920000Y-101685836D01*
X159385391Y-101792176D01*
X158932172Y-102095008D01*
X158629340Y-102548227D01*
X158523000Y-103082836D01*
X151477000Y-103082836D01*
X151370660Y-102548227D01*
X151067828Y-102095008D01*
X150614609Y-101792176D01*
X150080000Y-101685836D01*
X149545391Y-101792176D01*
X149092172Y-102095008D01*
X148810000Y-102517307D01*
X148527828Y-102095008D01*
X148074609Y-101792176D01*
X147540000Y-101685836D01*
X147005391Y-101792176D01*
X146552172Y-102095008D01*
X146270000Y-102517307D01*
X145987828Y-102095008D01*
X145534609Y-101792176D01*
X145000000Y-101685836D01*
X144465391Y-101792176D01*
X144012172Y-102095008D01*
X143730000Y-102517307D01*
X143447828Y-102095008D01*
X142994609Y-101792176D01*
X142460000Y-101685836D01*
X141925391Y-101792176D01*
X141472172Y-102095008D01*
X141190000Y-102517307D01*
X140907828Y-102095008D01*
X140454609Y-101792176D01*
X139920000Y-101685836D01*
X139385391Y-101792176D01*
X138932172Y-102095008D01*
X138629340Y-102548227D01*
X138523000Y-103082836D01*
X136477000Y-103082836D01*
X136370660Y-102548227D01*
X136067828Y-102095008D01*
X135614609Y-101792176D01*
X135080000Y-101685836D01*
X134545391Y-101792176D01*
X134092172Y-102095008D01*
X133810000Y-102517307D01*
X133527828Y-102095008D01*
X133074609Y-101792176D01*
X132540000Y-101685836D01*
X132005391Y-101792176D01*
X131552172Y-102095008D01*
X131270000Y-102517307D01*
X130987828Y-102095008D01*
X130534609Y-101792176D01*
X130000000Y-101685836D01*
X129465391Y-101792176D01*
X129012172Y-102095008D01*
X128730000Y-102517307D01*
X128447828Y-102095008D01*
X127994609Y-101792176D01*
X127460000Y-101685836D01*
X126925391Y-101792176D01*
X126472172Y-102095008D01*
X126190000Y-102517307D01*
X125907828Y-102095008D01*
X125454609Y-101792176D01*
X124920000Y-101685836D01*
X124385391Y-101792176D01*
X123932172Y-102095008D01*
X123629340Y-102548227D01*
X123523000Y-103082836D01*
X117710000Y-103082836D01*
X117710000Y-100085167D01*
X155464838Y-100085167D01*
X155606883Y-100428943D01*
X155869673Y-100692192D01*
X156213201Y-100834838D01*
X156585167Y-100835162D01*
X156928943Y-100693117D01*
X157192192Y-100430327D01*
X157334838Y-100086799D01*
X157335162Y-99714833D01*
X157221202Y-99439026D01*
X187392642Y-99439026D01*
X187395291Y-99454791D01*
X187649268Y-99982036D01*
X188085680Y-100371954D01*
X188638087Y-100565184D01*
X188873000Y-100420924D01*
X188873000Y-99207000D01*
X189127000Y-99207000D01*
X189127000Y-100420924D01*
X189361913Y-100565184D01*
X189914320Y-100371954D01*
X190350732Y-99982036D01*
X190604709Y-99454791D01*
X190607358Y-99439026D01*
X190486217Y-99207000D01*
X189127000Y-99207000D01*
X188873000Y-99207000D01*
X187513783Y-99207000D01*
X187392642Y-99439026D01*
X157221202Y-99439026D01*
X157193117Y-99371057D01*
X156930327Y-99107808D01*
X156586799Y-98965162D01*
X156214833Y-98964838D01*
X155871057Y-99106883D01*
X155607808Y-99369673D01*
X155465162Y-99713201D01*
X155464838Y-100085167D01*
X117710000Y-100085167D01*
X117710000Y-97785167D01*
X147964838Y-97785167D01*
X148106883Y-98128943D01*
X148369673Y-98392192D01*
X148713201Y-98534838D01*
X149085167Y-98535162D01*
X149428943Y-98393117D01*
X149692192Y-98130327D01*
X149834838Y-97786799D01*
X149835162Y-97414833D01*
X149693117Y-97071057D01*
X149607377Y-96985167D01*
X152664838Y-96985167D01*
X152806883Y-97328943D01*
X153069673Y-97592192D01*
X153413201Y-97734838D01*
X153785167Y-97735162D01*
X154128943Y-97593117D01*
X154392192Y-97330327D01*
X154534838Y-96986799D01*
X154535162Y-96614833D01*
X154458348Y-96428928D01*
X158399196Y-96428928D01*
X158541241Y-96772704D01*
X158804031Y-97035953D01*
X159147559Y-97178599D01*
X159519525Y-97178923D01*
X159863301Y-97036878D01*
X160126550Y-96774088D01*
X160142729Y-96735125D01*
X160185167Y-96735162D01*
X160528943Y-96593117D01*
X160792192Y-96330327D01*
X160899507Y-96071885D01*
X160899196Y-96428928D01*
X161041241Y-96772704D01*
X161304031Y-97035953D01*
X161647559Y-97178599D01*
X162019525Y-97178923D01*
X162363301Y-97036878D01*
X162626550Y-96774088D01*
X162642729Y-96735125D01*
X162685167Y-96735162D01*
X163028943Y-96593117D01*
X163193418Y-96428928D01*
X165899196Y-96428928D01*
X166041241Y-96772704D01*
X166304031Y-97035953D01*
X166647559Y-97178599D01*
X167019525Y-97178923D01*
X167363301Y-97036878D01*
X167519672Y-96880779D01*
X172469226Y-96880779D01*
X172611271Y-97224555D01*
X172874061Y-97487804D01*
X173217589Y-97630450D01*
X173589555Y-97630774D01*
X173933331Y-97488729D01*
X174196580Y-97225939D01*
X174339226Y-96882411D01*
X174339550Y-96510445D01*
X174305285Y-96427517D01*
X174469673Y-96592192D01*
X174813201Y-96734838D01*
X175185167Y-96735162D01*
X175528943Y-96593117D01*
X175736892Y-96385530D01*
X176365660Y-96385530D01*
X176507705Y-96729306D01*
X176770495Y-96992555D01*
X177114023Y-97135201D01*
X177485989Y-97135525D01*
X177829765Y-96993480D01*
X178088899Y-96734798D01*
X178185360Y-96734882D01*
X178529136Y-96592837D01*
X178737168Y-96385167D01*
X181564838Y-96385167D01*
X181706883Y-96728943D01*
X181969673Y-96992192D01*
X182313201Y-97134838D01*
X182685167Y-97135162D01*
X183028943Y-96993117D01*
X183292192Y-96730327D01*
X183434838Y-96386799D01*
X183435162Y-96014833D01*
X183293117Y-95671057D01*
X183030327Y-95407808D01*
X182686799Y-95265162D01*
X182314833Y-95264838D01*
X181971057Y-95406883D01*
X181707808Y-95669673D01*
X181565162Y-96013201D01*
X181564838Y-96385167D01*
X178737168Y-96385167D01*
X178792385Y-96330047D01*
X178935031Y-95986519D01*
X178935355Y-95614553D01*
X178793310Y-95270777D01*
X178530520Y-95007528D01*
X178186992Y-94864882D01*
X177815026Y-94864558D01*
X177471250Y-95006603D01*
X177212116Y-95265285D01*
X177115655Y-95265201D01*
X176771879Y-95407246D01*
X176508630Y-95670036D01*
X176365984Y-96013564D01*
X176365660Y-96385530D01*
X175736892Y-96385530D01*
X175792192Y-96330327D01*
X175934838Y-95986799D01*
X175935162Y-95614833D01*
X175793117Y-95271057D01*
X175530327Y-95007808D01*
X175186799Y-94865162D01*
X174814833Y-94864838D01*
X174471057Y-95006883D01*
X174207808Y-95269673D01*
X174065162Y-95613201D01*
X174064838Y-95985167D01*
X174099103Y-96068095D01*
X173934715Y-95903420D01*
X173591187Y-95760774D01*
X173219221Y-95760450D01*
X172875445Y-95902495D01*
X172612196Y-96165285D01*
X172469550Y-96508813D01*
X172469226Y-96880779D01*
X167519672Y-96880779D01*
X167626550Y-96774088D01*
X167642729Y-96735125D01*
X167685167Y-96735162D01*
X168028943Y-96593117D01*
X168292192Y-96330327D01*
X168434838Y-95986799D01*
X168434839Y-95985167D01*
X169064838Y-95985167D01*
X169206883Y-96328943D01*
X169469673Y-96592192D01*
X169813201Y-96734838D01*
X170185167Y-96735162D01*
X170528943Y-96593117D01*
X170792192Y-96330327D01*
X170934838Y-95986799D01*
X170935162Y-95614833D01*
X170793117Y-95271057D01*
X170530327Y-95007808D01*
X170186799Y-94865162D01*
X169814833Y-94864838D01*
X169471057Y-95006883D01*
X169207808Y-95269673D01*
X169065162Y-95613201D01*
X169064838Y-95985167D01*
X168434839Y-95985167D01*
X168435162Y-95614833D01*
X168293117Y-95271057D01*
X168030327Y-95007808D01*
X167686799Y-94865162D01*
X167314833Y-94864838D01*
X166971057Y-95006883D01*
X166707808Y-95269673D01*
X166691629Y-95308636D01*
X166649191Y-95308599D01*
X166305415Y-95450644D01*
X166042166Y-95713434D01*
X165899520Y-96056962D01*
X165899196Y-96428928D01*
X163193418Y-96428928D01*
X163292192Y-96330327D01*
X163434838Y-95986799D01*
X163435162Y-95614833D01*
X163293117Y-95271057D01*
X163030327Y-95007808D01*
X162686799Y-94865162D01*
X162314833Y-94864838D01*
X161971057Y-95006883D01*
X161707808Y-95269673D01*
X161691629Y-95308636D01*
X161649191Y-95308599D01*
X161305415Y-95450644D01*
X161042166Y-95713434D01*
X160934851Y-95971876D01*
X160935162Y-95614833D01*
X160793117Y-95271057D01*
X160530327Y-95007808D01*
X160186799Y-94865162D01*
X159814833Y-94864838D01*
X159471057Y-95006883D01*
X159207808Y-95269673D01*
X159191629Y-95308636D01*
X159149191Y-95308599D01*
X158805415Y-95450644D01*
X158542166Y-95713434D01*
X158399520Y-96056962D01*
X158399196Y-96428928D01*
X154458348Y-96428928D01*
X154393117Y-96271057D01*
X154130327Y-96007808D01*
X153786799Y-95865162D01*
X153414833Y-95864838D01*
X153071057Y-96006883D01*
X152807808Y-96269673D01*
X152665162Y-96613201D01*
X152664838Y-96985167D01*
X149607377Y-96985167D01*
X149430327Y-96807808D01*
X149086799Y-96665162D01*
X148714833Y-96664838D01*
X148371057Y-96806883D01*
X148107808Y-97069673D01*
X147965162Y-97413201D01*
X147964838Y-97785167D01*
X117710000Y-97785167D01*
X117710000Y-96385167D01*
X138364838Y-96385167D01*
X138506883Y-96728943D01*
X138769673Y-96992192D01*
X139113201Y-97134838D01*
X139485167Y-97135162D01*
X139828943Y-96993117D01*
X140087434Y-96735077D01*
X140185167Y-96735162D01*
X140528943Y-96593117D01*
X140792192Y-96330327D01*
X140865039Y-96154894D01*
X140864838Y-96385167D01*
X141006883Y-96728943D01*
X141269673Y-96992192D01*
X141613201Y-97134838D01*
X141985167Y-97135162D01*
X142328943Y-96993117D01*
X142587434Y-96735077D01*
X142685167Y-96735162D01*
X143028943Y-96593117D01*
X143292192Y-96330327D01*
X143434838Y-95986799D01*
X143435084Y-95703950D01*
X145155806Y-95703950D01*
X145297851Y-96047726D01*
X145560641Y-96310975D01*
X145904169Y-96453621D01*
X146276135Y-96453945D01*
X146619911Y-96311900D01*
X146883160Y-96049110D01*
X146916748Y-95968220D01*
X148864838Y-95968220D01*
X149006883Y-96311996D01*
X149269673Y-96575245D01*
X149613201Y-96717891D01*
X149985167Y-96718215D01*
X150328943Y-96576170D01*
X150592192Y-96313380D01*
X150734838Y-95969852D01*
X150735162Y-95597886D01*
X150593117Y-95254110D01*
X150330327Y-94990861D01*
X149986799Y-94848215D01*
X149614833Y-94847891D01*
X149271057Y-94989936D01*
X149007808Y-95252726D01*
X148865162Y-95596254D01*
X148864838Y-95968220D01*
X146916748Y-95968220D01*
X147025806Y-95705582D01*
X147026130Y-95333616D01*
X146884085Y-94989840D01*
X146621295Y-94726591D01*
X146277767Y-94583945D01*
X145905801Y-94583621D01*
X145562025Y-94725666D01*
X145298776Y-94988456D01*
X145156130Y-95331984D01*
X145155806Y-95703950D01*
X143435084Y-95703950D01*
X143435162Y-95614833D01*
X143293117Y-95271057D01*
X143030327Y-95007808D01*
X142686799Y-94865162D01*
X142314833Y-94864838D01*
X141971057Y-95006883D01*
X141712566Y-95264923D01*
X141614833Y-95264838D01*
X141271057Y-95406883D01*
X141007808Y-95669673D01*
X140934961Y-95845106D01*
X140935162Y-95614833D01*
X140793117Y-95271057D01*
X140530327Y-95007808D01*
X140186799Y-94865162D01*
X139814833Y-94864838D01*
X139471057Y-95006883D01*
X139212566Y-95264923D01*
X139114833Y-95264838D01*
X138771057Y-95406883D01*
X138507808Y-95669673D01*
X138365162Y-96013201D01*
X138364838Y-96385167D01*
X117710000Y-96385167D01*
X117710000Y-94285167D01*
X155464838Y-94285167D01*
X155606883Y-94628943D01*
X155869673Y-94892192D01*
X156213201Y-95034838D01*
X156585167Y-95035162D01*
X156928943Y-94893117D01*
X157192192Y-94630327D01*
X157252467Y-94485167D01*
X179864838Y-94485167D01*
X180006883Y-94828943D01*
X180269673Y-95092192D01*
X180613201Y-95234838D01*
X180985167Y-95235162D01*
X181328943Y-95093117D01*
X181592192Y-94830327D01*
X181734838Y-94486799D01*
X181734839Y-94485167D01*
X185539838Y-94485167D01*
X185681883Y-94828943D01*
X185944673Y-95092192D01*
X186288201Y-95234838D01*
X186660167Y-95235162D01*
X187003943Y-95093117D01*
X187267192Y-94830327D01*
X187336560Y-94663271D01*
X187336560Y-94863600D01*
X187380838Y-95098917D01*
X187519910Y-95315041D01*
X187732110Y-95460031D01*
X187773439Y-95468400D01*
X187755585Y-95480330D01*
X187430729Y-95966511D01*
X187316655Y-96540000D01*
X187430729Y-97113489D01*
X187755585Y-97599670D01*
X188065069Y-97806461D01*
X187649268Y-98177964D01*
X187395291Y-98705209D01*
X187392642Y-98720974D01*
X187513783Y-98953000D01*
X188873000Y-98953000D01*
X188873000Y-98933000D01*
X189127000Y-98933000D01*
X189127000Y-98953000D01*
X190486217Y-98953000D01*
X190607358Y-98720974D01*
X190604709Y-98705209D01*
X190350732Y-98177964D01*
X189934931Y-97806461D01*
X190244415Y-97599670D01*
X190569271Y-97113489D01*
X190683345Y-96540000D01*
X190569271Y-95966511D01*
X190244415Y-95480330D01*
X190230087Y-95470757D01*
X190251317Y-95466762D01*
X190467441Y-95327690D01*
X190612431Y-95115490D01*
X190663440Y-94863600D01*
X190663440Y-93136400D01*
X190619162Y-92901083D01*
X190480090Y-92684959D01*
X190267890Y-92539969D01*
X190016000Y-92488960D01*
X187984000Y-92488960D01*
X187748683Y-92533238D01*
X187532559Y-92672310D01*
X187387569Y-92884510D01*
X187336560Y-93136400D01*
X187336560Y-93936702D01*
X187268117Y-93771057D01*
X187005327Y-93507808D01*
X186661799Y-93365162D01*
X186289833Y-93364838D01*
X185946057Y-93506883D01*
X185682808Y-93769673D01*
X185540162Y-94113201D01*
X185539838Y-94485167D01*
X181734839Y-94485167D01*
X181735162Y-94114833D01*
X181593117Y-93771057D01*
X181330327Y-93507808D01*
X180986799Y-93365162D01*
X180614833Y-93364838D01*
X180271057Y-93506883D01*
X180007808Y-93769673D01*
X179865162Y-94113201D01*
X179864838Y-94485167D01*
X157252467Y-94485167D01*
X157334838Y-94286799D01*
X157335162Y-93914833D01*
X157193117Y-93571057D01*
X156930327Y-93307808D01*
X156586799Y-93165162D01*
X156214833Y-93164838D01*
X155871057Y-93306883D01*
X155607808Y-93569673D01*
X155465162Y-93913201D01*
X155464838Y-94285167D01*
X117710000Y-94285167D01*
X117710000Y-87485167D01*
X120464838Y-87485167D01*
X120606883Y-87828943D01*
X120869673Y-88092192D01*
X121213201Y-88234838D01*
X121585167Y-88235162D01*
X121928943Y-88093117D01*
X122179661Y-87842836D01*
X123523000Y-87842836D01*
X123523000Y-88917164D01*
X123629340Y-89451773D01*
X123932172Y-89904992D01*
X124385391Y-90207824D01*
X124920000Y-90314164D01*
X125454609Y-90207824D01*
X125907828Y-89904992D01*
X126190000Y-89482693D01*
X126472172Y-89904992D01*
X126925391Y-90207824D01*
X127460000Y-90314164D01*
X127994609Y-90207824D01*
X128447828Y-89904992D01*
X128730000Y-89482693D01*
X129012172Y-89904992D01*
X129465391Y-90207824D01*
X130000000Y-90314164D01*
X130534609Y-90207824D01*
X130987828Y-89904992D01*
X131270000Y-89482693D01*
X131552172Y-89904992D01*
X132005391Y-90207824D01*
X132540000Y-90314164D01*
X133074609Y-90207824D01*
X133527828Y-89904992D01*
X133810000Y-89482693D01*
X134092172Y-89904992D01*
X134545391Y-90207824D01*
X135080000Y-90314164D01*
X135614609Y-90207824D01*
X136067828Y-89904992D01*
X136370660Y-89451773D01*
X136477000Y-88917164D01*
X136477000Y-87842836D01*
X138523000Y-87842836D01*
X138523000Y-88917164D01*
X138629340Y-89451773D01*
X138932172Y-89904992D01*
X139385391Y-90207824D01*
X139920000Y-90314164D01*
X140454609Y-90207824D01*
X140907828Y-89904992D01*
X141190000Y-89482693D01*
X141472172Y-89904992D01*
X141925391Y-90207824D01*
X142460000Y-90314164D01*
X142994609Y-90207824D01*
X143447828Y-89904992D01*
X143730000Y-89482693D01*
X144012172Y-89904992D01*
X144465391Y-90207824D01*
X145000000Y-90314164D01*
X145534609Y-90207824D01*
X145987828Y-89904992D01*
X146270000Y-89482693D01*
X146552172Y-89904992D01*
X147005391Y-90207824D01*
X147540000Y-90314164D01*
X148074609Y-90207824D01*
X148527828Y-89904992D01*
X148810000Y-89482693D01*
X149092172Y-89904992D01*
X149545391Y-90207824D01*
X150080000Y-90314164D01*
X150614609Y-90207824D01*
X151067828Y-89904992D01*
X151370660Y-89451773D01*
X151477000Y-88917164D01*
X151477000Y-87842836D01*
X158523000Y-87842836D01*
X158523000Y-88917164D01*
X158629340Y-89451773D01*
X158932172Y-89904992D01*
X159385391Y-90207824D01*
X159920000Y-90314164D01*
X160454609Y-90207824D01*
X160907828Y-89904992D01*
X161190000Y-89482693D01*
X161472172Y-89904992D01*
X161925391Y-90207824D01*
X162460000Y-90314164D01*
X162994609Y-90207824D01*
X163447828Y-89904992D01*
X163730000Y-89482693D01*
X164012172Y-89904992D01*
X164465391Y-90207824D01*
X165000000Y-90314164D01*
X165534609Y-90207824D01*
X165987828Y-89904992D01*
X166270000Y-89482693D01*
X166552172Y-89904992D01*
X167005391Y-90207824D01*
X167540000Y-90314164D01*
X168074609Y-90207824D01*
X168527828Y-89904992D01*
X168810000Y-89482693D01*
X169092172Y-89904992D01*
X169545391Y-90207824D01*
X170080000Y-90314164D01*
X170614609Y-90207824D01*
X171067828Y-89904992D01*
X171370660Y-89451773D01*
X171477000Y-88917164D01*
X171477000Y-87842836D01*
X173523000Y-87842836D01*
X173523000Y-88917164D01*
X173629340Y-89451773D01*
X173932172Y-89904992D01*
X174385391Y-90207824D01*
X174920000Y-90314164D01*
X175454609Y-90207824D01*
X175907828Y-89904992D01*
X176190000Y-89482693D01*
X176472172Y-89904992D01*
X176925391Y-90207824D01*
X177460000Y-90314164D01*
X177994609Y-90207824D01*
X178447828Y-89904992D01*
X178730000Y-89482693D01*
X179012172Y-89904992D01*
X179465391Y-90207824D01*
X180000000Y-90314164D01*
X180534609Y-90207824D01*
X180987828Y-89904992D01*
X181270000Y-89482693D01*
X181552172Y-89904992D01*
X182005391Y-90207824D01*
X182540000Y-90314164D01*
X183074609Y-90207824D01*
X183527828Y-89904992D01*
X183810000Y-89482693D01*
X184092172Y-89904992D01*
X184545391Y-90207824D01*
X185080000Y-90314164D01*
X185614609Y-90207824D01*
X186067828Y-89904992D01*
X186370660Y-89451773D01*
X186477000Y-88917164D01*
X186477000Y-87842836D01*
X186370660Y-87308227D01*
X186067828Y-86855008D01*
X185614609Y-86552176D01*
X185080000Y-86445836D01*
X184545391Y-86552176D01*
X184092172Y-86855008D01*
X183810000Y-87277307D01*
X183527828Y-86855008D01*
X183074609Y-86552176D01*
X182540000Y-86445836D01*
X182005391Y-86552176D01*
X181552172Y-86855008D01*
X181270000Y-87277307D01*
X180987828Y-86855008D01*
X180534609Y-86552176D01*
X180000000Y-86445836D01*
X179465391Y-86552176D01*
X179012172Y-86855008D01*
X178730000Y-87277307D01*
X178447828Y-86855008D01*
X177994609Y-86552176D01*
X177460000Y-86445836D01*
X176925391Y-86552176D01*
X176472172Y-86855008D01*
X176190000Y-87277307D01*
X175907828Y-86855008D01*
X175454609Y-86552176D01*
X174920000Y-86445836D01*
X174385391Y-86552176D01*
X173932172Y-86855008D01*
X173629340Y-87308227D01*
X173523000Y-87842836D01*
X171477000Y-87842836D01*
X171370660Y-87308227D01*
X171067828Y-86855008D01*
X170614609Y-86552176D01*
X170080000Y-86445836D01*
X169545391Y-86552176D01*
X169092172Y-86855008D01*
X168810000Y-87277307D01*
X168527828Y-86855008D01*
X168074609Y-86552176D01*
X167540000Y-86445836D01*
X167005391Y-86552176D01*
X166552172Y-86855008D01*
X166270000Y-87277307D01*
X165987828Y-86855008D01*
X165534609Y-86552176D01*
X165000000Y-86445836D01*
X164465391Y-86552176D01*
X164012172Y-86855008D01*
X163730000Y-87277307D01*
X163447828Y-86855008D01*
X162994609Y-86552176D01*
X162460000Y-86445836D01*
X161925391Y-86552176D01*
X161472172Y-86855008D01*
X161190000Y-87277307D01*
X160907828Y-86855008D01*
X160454609Y-86552176D01*
X159920000Y-86445836D01*
X159385391Y-86552176D01*
X158932172Y-86855008D01*
X158629340Y-87308227D01*
X158523000Y-87842836D01*
X151477000Y-87842836D01*
X151370660Y-87308227D01*
X151067828Y-86855008D01*
X150614609Y-86552176D01*
X150080000Y-86445836D01*
X149545391Y-86552176D01*
X149092172Y-86855008D01*
X148810000Y-87277307D01*
X148527828Y-86855008D01*
X148074609Y-86552176D01*
X147540000Y-86445836D01*
X147005391Y-86552176D01*
X146552172Y-86855008D01*
X146270000Y-87277307D01*
X145987828Y-86855008D01*
X145534609Y-86552176D01*
X145000000Y-86445836D01*
X144465391Y-86552176D01*
X144012172Y-86855008D01*
X143730000Y-87277307D01*
X143447828Y-86855008D01*
X142994609Y-86552176D01*
X142460000Y-86445836D01*
X141925391Y-86552176D01*
X141472172Y-86855008D01*
X141190000Y-87277307D01*
X140907828Y-86855008D01*
X140454609Y-86552176D01*
X139920000Y-86445836D01*
X139385391Y-86552176D01*
X138932172Y-86855008D01*
X138629340Y-87308227D01*
X138523000Y-87842836D01*
X136477000Y-87842836D01*
X136370660Y-87308227D01*
X136067828Y-86855008D01*
X135614609Y-86552176D01*
X135080000Y-86445836D01*
X134545391Y-86552176D01*
X134092172Y-86855008D01*
X133810000Y-87277307D01*
X133527828Y-86855008D01*
X133074609Y-86552176D01*
X132540000Y-86445836D01*
X132005391Y-86552176D01*
X131552172Y-86855008D01*
X131270000Y-87277307D01*
X130987828Y-86855008D01*
X130534609Y-86552176D01*
X130000000Y-86445836D01*
X129465391Y-86552176D01*
X129012172Y-86855008D01*
X128730000Y-87277307D01*
X128447828Y-86855008D01*
X127994609Y-86552176D01*
X127460000Y-86445836D01*
X126925391Y-86552176D01*
X126472172Y-86855008D01*
X126190000Y-87277307D01*
X125907828Y-86855008D01*
X125454609Y-86552176D01*
X124920000Y-86445836D01*
X124385391Y-86552176D01*
X123932172Y-86855008D01*
X123629340Y-87308227D01*
X123523000Y-87842836D01*
X122179661Y-87842836D01*
X122192192Y-87830327D01*
X122334838Y-87486799D01*
X122335162Y-87114833D01*
X122193117Y-86771057D01*
X121930327Y-86507808D01*
X121586799Y-86365162D01*
X121214833Y-86364838D01*
X120871057Y-86506883D01*
X120607808Y-86769673D01*
X120465162Y-87113201D01*
X120464838Y-87485167D01*
X117710000Y-87485167D01*
X117710000Y-86000000D01*
X117696358Y-85931416D01*
X117696358Y-85861486D01*
X117620238Y-85478804D01*
X117519339Y-85235214D01*
X117514223Y-85222862D01*
X117422219Y-85085167D01*
X120464838Y-85085167D01*
X120606883Y-85428943D01*
X120869673Y-85692192D01*
X121213201Y-85834838D01*
X121585167Y-85835162D01*
X121928943Y-85693117D01*
X122192192Y-85430327D01*
X122334838Y-85086799D01*
X122335162Y-84714833D01*
X122193117Y-84371057D01*
X121930327Y-84107808D01*
X121634977Y-83985167D01*
X123964838Y-83985167D01*
X124106883Y-84328943D01*
X124369673Y-84592192D01*
X124713201Y-84734838D01*
X125085167Y-84735162D01*
X125428943Y-84593117D01*
X125692192Y-84330327D01*
X125727797Y-84244579D01*
X133724786Y-84244579D01*
X133912408Y-84698657D01*
X134259515Y-85046371D01*
X134713266Y-85234785D01*
X135204579Y-85235214D01*
X135658657Y-85047592D01*
X136006371Y-84700485D01*
X136194785Y-84246734D01*
X136194786Y-84244579D01*
X136264786Y-84244579D01*
X136452408Y-84698657D01*
X136799515Y-85046371D01*
X137253266Y-85234785D01*
X137744579Y-85235214D01*
X138198657Y-85047592D01*
X138546371Y-84700485D01*
X138734785Y-84246734D01*
X138734786Y-84244579D01*
X138804786Y-84244579D01*
X138992408Y-84698657D01*
X139339515Y-85046371D01*
X139793266Y-85234785D01*
X140284579Y-85235214D01*
X140738657Y-85047592D01*
X141086371Y-84700485D01*
X141274785Y-84246734D01*
X141275013Y-83985167D01*
X148964838Y-83985167D01*
X149106883Y-84328943D01*
X149369673Y-84592192D01*
X149713201Y-84734838D01*
X150085167Y-84735162D01*
X150428943Y-84593117D01*
X150692192Y-84330327D01*
X150755901Y-84176899D01*
X164239837Y-84176899D01*
X164381882Y-84520675D01*
X164644672Y-84783924D01*
X164988200Y-84926570D01*
X165360166Y-84926894D01*
X165703942Y-84784849D01*
X165967191Y-84522059D01*
X166082411Y-84244579D01*
X168724786Y-84244579D01*
X168912408Y-84698657D01*
X169259515Y-85046371D01*
X169713266Y-85234785D01*
X170204579Y-85235214D01*
X170658657Y-85047592D01*
X171006371Y-84700485D01*
X171194785Y-84246734D01*
X171194786Y-84244579D01*
X171264786Y-84244579D01*
X171452408Y-84698657D01*
X171799515Y-85046371D01*
X172253266Y-85234785D01*
X172744579Y-85235214D01*
X173198657Y-85047592D01*
X173546371Y-84700485D01*
X173734785Y-84246734D01*
X173734786Y-84244579D01*
X173804786Y-84244579D01*
X173992408Y-84698657D01*
X174339515Y-85046371D01*
X174793266Y-85234785D01*
X175284579Y-85235214D01*
X175647718Y-85085167D01*
X187164838Y-85085167D01*
X187306883Y-85428943D01*
X187569673Y-85692192D01*
X187913201Y-85834838D01*
X188285167Y-85835162D01*
X188628943Y-85693117D01*
X188892192Y-85430327D01*
X189034838Y-85086799D01*
X189035162Y-84714833D01*
X188893117Y-84371057D01*
X188630327Y-84107808D01*
X188286799Y-83965162D01*
X187914833Y-83964838D01*
X187571057Y-84106883D01*
X187307808Y-84369673D01*
X187165162Y-84713201D01*
X187164838Y-85085167D01*
X175647718Y-85085167D01*
X175738657Y-85047592D01*
X176086371Y-84700485D01*
X176274785Y-84246734D01*
X176275013Y-83985167D01*
X181664838Y-83985167D01*
X181806883Y-84328943D01*
X182069673Y-84592192D01*
X182413201Y-84734838D01*
X182785167Y-84735162D01*
X183128943Y-84593117D01*
X183392192Y-84330327D01*
X183534838Y-83986799D01*
X183535162Y-83614833D01*
X183393117Y-83271057D01*
X183130327Y-83007808D01*
X182786799Y-82865162D01*
X182414833Y-82864838D01*
X182071057Y-83006883D01*
X181807808Y-83269673D01*
X181665162Y-83613201D01*
X181664838Y-83985167D01*
X176275013Y-83985167D01*
X176275214Y-83755421D01*
X176087592Y-83301343D01*
X175740485Y-82953629D01*
X175286734Y-82765215D01*
X174795421Y-82764786D01*
X174341343Y-82952408D01*
X173993629Y-83299515D01*
X173805215Y-83753266D01*
X173804786Y-84244579D01*
X173734786Y-84244579D01*
X173735214Y-83755421D01*
X173547592Y-83301343D01*
X173200485Y-82953629D01*
X172746734Y-82765215D01*
X172255421Y-82764786D01*
X171801343Y-82952408D01*
X171453629Y-83299515D01*
X171265215Y-83753266D01*
X171264786Y-84244579D01*
X171194786Y-84244579D01*
X171195214Y-83755421D01*
X171007592Y-83301343D01*
X170660485Y-82953629D01*
X170206734Y-82765215D01*
X169715421Y-82764786D01*
X169261343Y-82952408D01*
X168913629Y-83299515D01*
X168725215Y-83753266D01*
X168724786Y-84244579D01*
X166082411Y-84244579D01*
X166109837Y-84178531D01*
X166110161Y-83806565D01*
X165968116Y-83462789D01*
X165705326Y-83199540D01*
X165361798Y-83056894D01*
X164989832Y-83056570D01*
X164646056Y-83198615D01*
X164382807Y-83461405D01*
X164240161Y-83804933D01*
X164239837Y-84176899D01*
X150755901Y-84176899D01*
X150834838Y-83986799D01*
X150835162Y-83614833D01*
X150693117Y-83271057D01*
X150430327Y-83007808D01*
X150086799Y-82865162D01*
X149714833Y-82864838D01*
X149371057Y-83006883D01*
X149107808Y-83269673D01*
X148965162Y-83613201D01*
X148964838Y-83985167D01*
X141275013Y-83985167D01*
X141275214Y-83755421D01*
X141087592Y-83301343D01*
X140740485Y-82953629D01*
X140286734Y-82765215D01*
X139795421Y-82764786D01*
X139341343Y-82952408D01*
X138993629Y-83299515D01*
X138805215Y-83753266D01*
X138804786Y-84244579D01*
X138734786Y-84244579D01*
X138735214Y-83755421D01*
X138547592Y-83301343D01*
X138200485Y-82953629D01*
X137746734Y-82765215D01*
X137255421Y-82764786D01*
X136801343Y-82952408D01*
X136453629Y-83299515D01*
X136265215Y-83753266D01*
X136264786Y-84244579D01*
X136194786Y-84244579D01*
X136195214Y-83755421D01*
X136007592Y-83301343D01*
X135660485Y-82953629D01*
X135206734Y-82765215D01*
X134715421Y-82764786D01*
X134261343Y-82952408D01*
X133913629Y-83299515D01*
X133725215Y-83753266D01*
X133724786Y-84244579D01*
X125727797Y-84244579D01*
X125834838Y-83986799D01*
X125835162Y-83614833D01*
X125693117Y-83271057D01*
X125430327Y-83007808D01*
X125086799Y-82865162D01*
X124714833Y-82864838D01*
X124371057Y-83006883D01*
X124107808Y-83269673D01*
X123965162Y-83613201D01*
X123964838Y-83985167D01*
X121634977Y-83985167D01*
X121586799Y-83965162D01*
X121214833Y-83964838D01*
X120871057Y-84106883D01*
X120607808Y-84369673D01*
X120465162Y-84713201D01*
X120464838Y-85085167D01*
X117422219Y-85085167D01*
X117297451Y-84898438D01*
X117101562Y-84702550D01*
X117101561Y-84702549D01*
X116777138Y-84485776D01*
X116593368Y-84409657D01*
X116521196Y-84379762D01*
X116138515Y-84303642D01*
X116138514Y-84303642D01*
X114746295Y-84026712D01*
X113683454Y-83316546D01*
X112973288Y-82253707D01*
X112800525Y-81385167D01*
X129764838Y-81385167D01*
X129906883Y-81728943D01*
X130169673Y-81992192D01*
X130513201Y-82134838D01*
X130885167Y-82135162D01*
X131228943Y-81993117D01*
X131492192Y-81730327D01*
X131634838Y-81386799D01*
X131635010Y-81189038D01*
X142564838Y-81189038D01*
X142706883Y-81532814D01*
X142969673Y-81796063D01*
X143313201Y-81938709D01*
X143685167Y-81939033D01*
X144028943Y-81796988D01*
X144087955Y-81738079D01*
X144145838Y-81796063D01*
X144489366Y-81938709D01*
X144861332Y-81939033D01*
X145077118Y-81849872D01*
X145291059Y-81938709D01*
X145663025Y-81939033D01*
X146006801Y-81796988D01*
X146270050Y-81534198D01*
X146412696Y-81190670D01*
X146412700Y-81185178D01*
X146692728Y-81185178D01*
X146834773Y-81528954D01*
X147097563Y-81792203D01*
X147441091Y-81934849D01*
X147813057Y-81935173D01*
X148109602Y-81812643D01*
X148413201Y-81938709D01*
X148785167Y-81939033D01*
X149128943Y-81796988D01*
X149249981Y-81676161D01*
X149369673Y-81796063D01*
X149713201Y-81938709D01*
X150085167Y-81939033D01*
X150428943Y-81796988D01*
X150499893Y-81726161D01*
X150569673Y-81796063D01*
X150913201Y-81938709D01*
X151285167Y-81939033D01*
X151628943Y-81796988D01*
X151749981Y-81676161D01*
X151869673Y-81796063D01*
X152213201Y-81938709D01*
X152585167Y-81939033D01*
X152928943Y-81796988D01*
X153192192Y-81534198D01*
X153334838Y-81190670D01*
X153334866Y-81158456D01*
X156664838Y-81158456D01*
X156806883Y-81502232D01*
X157069673Y-81765481D01*
X157413201Y-81908127D01*
X157785167Y-81908451D01*
X158068367Y-81791435D01*
X158072986Y-81796062D01*
X158416514Y-81938708D01*
X158788480Y-81939032D01*
X159044017Y-81833446D01*
X159288201Y-81934841D01*
X159660167Y-81935165D01*
X160003943Y-81793120D01*
X160267192Y-81530330D01*
X160409838Y-81186802D01*
X160409862Y-81158467D01*
X160689870Y-81158467D01*
X160831915Y-81502243D01*
X161094705Y-81765492D01*
X161438233Y-81908138D01*
X161810199Y-81908462D01*
X162112850Y-81783410D01*
X162413201Y-81908127D01*
X162785167Y-81908451D01*
X163128943Y-81766406D01*
X163249981Y-81645579D01*
X163369673Y-81765481D01*
X163713201Y-81908127D01*
X164085167Y-81908451D01*
X164428943Y-81766406D01*
X164499893Y-81695579D01*
X164569673Y-81765481D01*
X164913201Y-81908127D01*
X165285167Y-81908451D01*
X165628943Y-81766406D01*
X165734690Y-81660844D01*
X165869673Y-81796063D01*
X166213201Y-81938709D01*
X166585167Y-81939033D01*
X166928943Y-81796988D01*
X167192192Y-81534198D01*
X167254405Y-81384372D01*
X176565036Y-81384372D01*
X176654087Y-81599893D01*
X176565839Y-81812418D01*
X176565515Y-82184384D01*
X176707560Y-82528160D01*
X176970350Y-82791409D01*
X177313878Y-82934055D01*
X177685844Y-82934379D01*
X178029620Y-82792334D01*
X178292869Y-82529544D01*
X178435515Y-82186016D01*
X178435624Y-82060596D01*
X178614107Y-82134709D01*
X178986073Y-82135033D01*
X179329849Y-81992988D01*
X179593098Y-81730198D01*
X179735744Y-81386670D01*
X179735745Y-81385167D01*
X180464838Y-81385167D01*
X180606883Y-81728943D01*
X180869673Y-81992192D01*
X181213201Y-82134838D01*
X181585167Y-82135162D01*
X181928943Y-81993117D01*
X181986993Y-81935168D01*
X182069673Y-82017993D01*
X182413201Y-82160639D01*
X182785167Y-82160963D01*
X183128943Y-82018918D01*
X183392192Y-81756128D01*
X183508580Y-81475836D01*
X183611326Y-81724500D01*
X183874116Y-81987749D01*
X184217644Y-82130395D01*
X184589610Y-82130719D01*
X184899338Y-82002742D01*
X185214936Y-82133791D01*
X185586902Y-82134115D01*
X185930678Y-81992070D01*
X186026149Y-81896765D01*
X186121410Y-81992192D01*
X186464938Y-82134838D01*
X186836904Y-82135162D01*
X187180680Y-81993117D01*
X187443929Y-81730327D01*
X187586575Y-81386799D01*
X187586899Y-81014833D01*
X187574642Y-80985167D01*
X188564838Y-80985167D01*
X188706883Y-81328943D01*
X188969673Y-81592192D01*
X189313201Y-81734838D01*
X189685167Y-81735162D01*
X190028943Y-81593117D01*
X190292192Y-81330327D01*
X190434838Y-80986799D01*
X190435162Y-80614833D01*
X190293117Y-80271057D01*
X190030327Y-80007808D01*
X189686799Y-79865162D01*
X189314833Y-79864838D01*
X188971057Y-80006883D01*
X188707808Y-80269673D01*
X188565162Y-80613201D01*
X188564838Y-80985167D01*
X187574642Y-80985167D01*
X187444854Y-80671057D01*
X187182064Y-80407808D01*
X186838536Y-80265162D01*
X186466570Y-80264838D01*
X186122794Y-80406883D01*
X186027323Y-80502188D01*
X185932062Y-80406761D01*
X185588534Y-80264115D01*
X185216568Y-80263791D01*
X184906840Y-80391768D01*
X184591242Y-80260719D01*
X184219276Y-80260395D01*
X183875500Y-80402440D01*
X183612251Y-80665230D01*
X183495863Y-80945522D01*
X183393117Y-80696858D01*
X183130327Y-80433609D01*
X182786799Y-80290963D01*
X182414833Y-80290639D01*
X182071057Y-80432684D01*
X182013007Y-80490633D01*
X181930327Y-80407808D01*
X181586799Y-80265162D01*
X181214833Y-80264838D01*
X180871057Y-80406883D01*
X180607808Y-80669673D01*
X180465162Y-81013201D01*
X180464838Y-81385167D01*
X179735745Y-81385167D01*
X179736068Y-81014704D01*
X179594023Y-80670928D01*
X179331233Y-80407679D01*
X178987705Y-80265033D01*
X178615739Y-80264709D01*
X178271963Y-80406754D01*
X178150904Y-80527602D01*
X178030525Y-80407013D01*
X177686997Y-80264367D01*
X177315031Y-80264043D01*
X176971255Y-80406088D01*
X176708006Y-80668878D01*
X176565360Y-81012406D01*
X176565036Y-81384372D01*
X167254405Y-81384372D01*
X167334838Y-81190670D01*
X167335162Y-80818704D01*
X167193117Y-80474928D01*
X166930327Y-80211679D01*
X166586799Y-80069033D01*
X166214833Y-80068709D01*
X165871057Y-80210754D01*
X165765310Y-80316316D01*
X165630327Y-80181097D01*
X165286799Y-80038451D01*
X164914833Y-80038127D01*
X164571057Y-80180172D01*
X164500107Y-80250999D01*
X164430327Y-80181097D01*
X164086799Y-80038451D01*
X163714833Y-80038127D01*
X163371057Y-80180172D01*
X163250019Y-80300999D01*
X163130327Y-80181097D01*
X162786799Y-80038451D01*
X162414833Y-80038127D01*
X162112182Y-80163179D01*
X161811831Y-80038462D01*
X161439865Y-80038138D01*
X161096089Y-80180183D01*
X160832840Y-80442973D01*
X160690194Y-80786501D01*
X160689870Y-81158467D01*
X160409862Y-81158467D01*
X160410162Y-80814836D01*
X160268117Y-80471060D01*
X160005327Y-80207811D01*
X159661799Y-80065165D01*
X159289833Y-80064841D01*
X159034296Y-80170427D01*
X158790112Y-80069032D01*
X158418146Y-80068708D01*
X158134946Y-80185724D01*
X158130327Y-80181097D01*
X157786799Y-80038451D01*
X157414833Y-80038127D01*
X157071057Y-80180172D01*
X156807808Y-80442962D01*
X156665162Y-80786490D01*
X156664838Y-81158456D01*
X153334866Y-81158456D01*
X153335162Y-80818704D01*
X153193117Y-80474928D01*
X152930327Y-80211679D01*
X152586799Y-80069033D01*
X152214833Y-80068709D01*
X151871057Y-80210754D01*
X151750019Y-80331581D01*
X151630327Y-80211679D01*
X151286799Y-80069033D01*
X150914833Y-80068709D01*
X150571057Y-80210754D01*
X150500107Y-80281581D01*
X150430327Y-80211679D01*
X150086799Y-80069033D01*
X149714833Y-80068709D01*
X149371057Y-80210754D01*
X149250019Y-80331581D01*
X149130327Y-80211679D01*
X148786799Y-80069033D01*
X148414833Y-80068709D01*
X148118288Y-80191239D01*
X147814689Y-80065173D01*
X147442723Y-80064849D01*
X147098947Y-80206894D01*
X146835698Y-80469684D01*
X146693052Y-80813212D01*
X146692728Y-81185178D01*
X146412700Y-81185178D01*
X146413020Y-80818704D01*
X146270975Y-80474928D01*
X146008185Y-80211679D01*
X145664657Y-80069033D01*
X145292691Y-80068709D01*
X145076905Y-80157870D01*
X144862964Y-80069033D01*
X144490998Y-80068709D01*
X144147222Y-80210754D01*
X144088210Y-80269663D01*
X144030327Y-80211679D01*
X143686799Y-80069033D01*
X143314833Y-80068709D01*
X142971057Y-80210754D01*
X142707808Y-80473544D01*
X142565162Y-80817072D01*
X142564838Y-81189038D01*
X131635010Y-81189038D01*
X131635162Y-81014833D01*
X131493117Y-80671057D01*
X131230327Y-80407808D01*
X130886799Y-80265162D01*
X130514833Y-80264838D01*
X130171057Y-80406883D01*
X129907808Y-80669673D01*
X129765162Y-81013201D01*
X129764838Y-81385167D01*
X112800525Y-81385167D01*
X112723910Y-81000000D01*
X112973288Y-79746293D01*
X113683454Y-78683454D01*
X114746295Y-77973288D01*
X116069931Y-77710000D01*
X194430069Y-77710000D01*
X195753707Y-77973288D01*
M02*
